<svg width="120" height="109" viewBox="0 0 120 109" fill="none" xmlns="http://www.w3.org/2000/svg">
<path d="M23.7928 85.576C24.0448 85.5667 24.2361 85.5387 24.3668 85.492C24.4974 85.436 24.6001 85.324 24.6748 85.156C24.7494 84.988 24.7868 84.722 24.7868 84.358V78.996C24.7868 78.4733 24.8054 78.0533 24.8428 77.736L23.7928 77.778V76.7H27.8108V77.624C27.5588 77.6333 27.3674 77.666 27.2368 77.722C27.1061 77.7687 27.0034 77.876 26.9288 78.044C26.8541 78.212 26.8168 78.478 26.8168 78.842V84.204C26.8168 84.7267 26.7981 85.1467 26.7608 85.464C27.0594 85.436 27.4094 85.422 27.8108 85.422V86.5H23.7928V85.576ZM28.9304 85.59C29.2851 85.59 29.5091 85.492 29.6024 85.296C29.7051 85.1 29.7564 84.7827 29.7564 84.344V81.992C29.7564 81.572 29.7751 81.1753 29.8124 80.802L28.8324 80.844V79.78C29.4204 79.78 29.8964 79.738 30.2604 79.654C30.6244 79.57 30.8671 79.472 30.9884 79.36H31.6744C31.6744 79.3787 31.6931 79.612 31.7304 80.06H31.7584C32.0291 79.8453 32.3604 79.6633 32.7524 79.514C33.1538 79.3553 33.4944 79.276 33.7744 79.276C34.6238 79.276 35.2304 79.5187 35.5944 80.004C35.9584 80.4893 36.1404 81.278 36.1404 82.37V84.246C36.1404 84.694 36.1218 85.1047 36.0844 85.478C36.3924 85.45 36.6958 85.436 36.9944 85.436V86.5H33.3264V85.59C33.6811 85.59 33.9098 85.492 34.0124 85.296C34.1151 85.1 34.1664 84.7827 34.1664 84.344L34.1524 82.356C34.1524 81.74 34.0638 81.2873 33.8864 80.998C33.7184 80.7087 33.4291 80.564 33.0184 80.564C32.7944 80.564 32.5658 80.6153 32.3324 80.718C32.0991 80.8113 31.9031 80.9327 31.7444 81.082V84.246C31.7444 84.694 31.7258 85.1047 31.6884 85.478C31.9871 85.45 32.2904 85.436 32.5984 85.436V86.5H28.9304V85.59ZM40.5208 86.724C39.0648 86.724 38.3368 85.828 38.3368 84.036L38.3648 80.662H37.4128V79.5C37.7115 79.5 37.9915 79.4067 38.2528 79.22C38.5235 79.0333 38.7521 78.8047 38.9388 78.534C39.1255 78.2633 39.2561 78.002 39.3308 77.75H40.3668L40.3528 79.5H42.1308V80.578L40.3528 80.62L40.3388 84.064C40.3388 84.9693 40.6188 85.422 41.1788 85.422C41.6268 85.422 42.0515 85.142 42.4528 84.582L43.1248 85.212C42.6861 85.856 42.2475 86.2713 41.8088 86.458C41.3701 86.6353 40.9408 86.724 40.5208 86.724ZM46.85 86.724C46.1687 86.724 45.5667 86.5747 45.044 86.276C44.5213 85.968 44.1153 85.534 43.826 84.974C43.5367 84.414 43.392 83.7607 43.392 83.014C43.392 82.3607 43.5367 81.7493 43.826 81.18C44.1247 80.6013 44.54 80.1393 45.072 79.794C45.604 79.4487 46.2107 79.276 46.892 79.276C47.7973 79.276 48.5487 79.542 49.146 80.074C49.7527 80.606 50.0513 81.4927 50.042 82.734L45.45 82.818C45.45 83.6393 45.604 84.288 45.912 84.764C46.2293 85.24 46.7333 85.478 47.424 85.478C47.7507 85.478 48.1007 85.394 48.474 85.226C48.8473 85.058 49.1833 84.792 49.482 84.428L50.112 85.016C49.3187 86.1547 48.2313 86.724 46.85 86.724ZM48.11 81.838C48.082 80.7833 47.6993 80.256 46.962 80.256C46.5607 80.256 46.2387 80.4007 45.996 80.69C45.7627 80.97 45.6087 81.3527 45.534 81.838H48.11ZM51.0652 85.59C51.4199 85.59 51.6439 85.492 51.7372 85.296C51.8399 85.1 51.8912 84.7827 51.8912 84.344V81.992C51.8912 81.572 51.9099 81.1753 51.9472 80.802L50.9672 80.844V79.78C51.5552 79.78 52.0312 79.738 52.3952 79.654C52.7592 79.57 53.0019 79.472 53.1232 79.36H53.8092C53.8279 79.5 53.8419 79.682 53.8512 79.906C53.8605 80.13 53.8652 80.3493 53.8652 80.564H53.8932C54.5279 79.7053 55.1999 79.276 55.9092 79.276C56.2639 79.276 56.5532 79.374 56.7772 79.57C57.0105 79.766 57.1272 80.0553 57.1272 80.438C57.1272 80.6807 57.0479 80.9047 56.8892 81.11C56.7305 81.3153 56.4925 81.418 56.1752 81.418C55.9419 81.418 55.7319 81.3573 55.5452 81.236C55.3679 81.1147 55.2652 80.9047 55.2372 80.606C54.9759 80.606 54.7052 80.76 54.4252 81.068C54.1545 81.3667 53.9725 81.6653 53.8792 81.964V84.246C53.8792 84.694 53.8605 85.1047 53.8232 85.478C54.1219 85.45 54.4252 85.436 54.7332 85.436V86.5H51.0652V85.59ZM59.4734 86.724C58.8854 86.724 58.4187 86.5513 58.0734 86.206C57.7374 85.8513 57.5694 85.4033 57.5694 84.862C57.5694 84.0407 57.9521 83.42 58.7174 83C59.4827 82.5707 60.4021 82.3327 61.4754 82.286V81.558C61.4754 80.7087 61.1581 80.284 60.5234 80.284C60.1127 80.284 59.7767 80.4147 59.5154 80.676C59.6274 80.8067 59.6834 80.984 59.6834 81.208C59.6834 81.432 59.6041 81.6327 59.4454 81.81C59.2961 81.9873 59.0721 82.076 58.7734 82.076C58.4934 82.076 58.2741 81.9873 58.1154 81.81C57.9567 81.6233 57.8774 81.3947 57.8774 81.124C57.8774 80.76 58.0081 80.438 58.2694 80.158C58.5307 79.878 58.8854 79.6633 59.3334 79.514C59.7907 79.3553 60.2901 79.276 60.8314 79.276C62.5581 79.276 63.4214 80.1673 63.4214 81.95L63.4074 84.246C63.4074 84.694 63.3887 85.1047 63.3514 85.478C63.6594 85.45 63.9627 85.436 64.2614 85.436V86.5H61.6154C61.5967 86.3787 61.5781 86.164 61.5594 85.856H61.5454C60.9761 86.4347 60.2854 86.724 59.4734 86.724ZM60.3554 85.352C60.7754 85.352 61.1441 85.184 61.4614 84.848V83.28C60.9107 83.336 60.4534 83.476 60.0894 83.7C59.7347 83.924 59.5574 84.2273 59.5574 84.61C59.5574 84.862 59.6321 85.0487 59.7814 85.17C59.9401 85.2913 60.1314 85.352 60.3554 85.352ZM68.3692 86.724C67.7345 86.724 67.1559 86.584 66.6332 86.304C66.1105 86.0147 65.6952 85.604 65.3872 85.072C65.0792 84.5307 64.9252 83.8913 64.9252 83.154C64.9252 82.454 65.0792 81.81 65.3872 81.222C65.6952 80.6247 66.1245 80.1533 66.6752 79.808C67.2352 79.4533 67.8652 79.276 68.5652 79.276C69.1345 79.276 69.6199 79.3647 70.0212 79.542C70.4319 79.7193 70.7399 79.9573 70.9452 80.256C71.1505 80.5453 71.2532 80.858 71.2532 81.194C71.2532 81.4833 71.1645 81.7307 70.9872 81.936C70.8192 82.1413 70.5859 82.244 70.2872 82.244C69.9792 82.244 69.7459 82.1507 69.5872 81.964C69.4379 81.7773 69.3632 81.5673 69.3632 81.334C69.3632 81.1193 69.4192 80.914 69.5312 80.718C69.4472 80.55 69.3119 80.4333 69.1252 80.368C68.9385 80.2933 68.7519 80.256 68.5652 80.256C68.0892 80.256 67.7019 80.4753 67.4032 80.914C67.1139 81.3433 66.9692 81.9547 66.9692 82.748C66.9692 83.5413 67.1232 84.1947 67.4312 84.708C67.7392 85.2213 68.2245 85.478 68.8872 85.478C69.2605 85.478 69.6292 85.38 69.9932 85.184C70.3572 84.988 70.6652 84.7267 70.9172 84.4L71.5612 85.03C71.0945 85.674 70.5952 86.1173 70.0632 86.36C69.5312 86.6027 68.9665 86.724 68.3692 86.724ZM75.0833 86.724C73.6273 86.724 72.8993 85.828 72.8993 84.036L72.9273 80.662H71.9753V79.5C72.274 79.5 72.554 79.4067 72.8153 79.22C73.086 79.0333 73.3146 78.8047 73.5013 78.534C73.688 78.2633 73.8186 78.002 73.8933 77.75H74.9293L74.9153 79.5H76.6933V80.578L74.9153 80.62L74.9013 84.064C74.9013 84.9693 75.1813 85.422 75.7413 85.422C76.1893 85.422 76.614 85.142 77.0153 84.582L77.6873 85.212C77.2486 85.856 76.81 86.2713 76.3713 86.458C75.9326 86.6353 75.5033 86.724 75.0833 86.724ZM80.0685 78.114C79.7512 78.114 79.4898 78.0067 79.2845 77.792C79.0792 77.568 78.9765 77.2973 78.9765 76.98C78.9765 76.6627 79.0838 76.392 79.2985 76.168C79.5132 75.9347 79.7652 75.818 80.0545 75.818C80.3532 75.818 80.6005 75.93 80.7965 76.154C81.0018 76.378 81.1045 76.6533 81.1045 76.98C81.1045 77.3067 81.0065 77.5773 80.8105 77.792C80.6238 78.0067 80.3765 78.114 80.0685 78.114ZM78.0945 85.59C78.4492 85.59 78.6732 85.492 78.7665 85.296C78.8692 85.1 78.9205 84.7827 78.9205 84.344V82.02C78.9205 81.5813 78.9392 81.1753 78.9765 80.802L77.9965 80.844V79.78C78.5845 79.78 79.0605 79.738 79.4245 79.654C79.7885 79.57 80.0312 79.472 80.1525 79.36H80.9085V84.246C80.9085 84.694 80.8898 85.1047 80.8525 85.478C81.1512 85.45 81.4545 85.436 81.7625 85.436V86.5H78.0945V85.59ZM82.9709 81.684C82.8589 81.432 82.7795 81.2407 82.7329 81.11C82.6955 80.9793 82.6675 80.8673 82.6489 80.774C82.6302 80.6713 82.6162 80.592 82.6069 80.536L82.0889 80.564V79.5H85.3649V80.396C85.0475 80.4053 84.8889 80.5593 84.8889 80.858C84.8889 81.026 84.9355 81.236 85.0289 81.488L86.2049 84.386H86.2189L87.2409 81.502C87.3715 81.1473 87.5255 80.8207 87.7029 80.522V80.508L86.8349 80.564V79.5H89.4949V80.396C89.2055 80.4427 88.9582 80.6247 88.7529 80.942C88.5569 81.2593 88.3702 81.6373 88.1929 82.076L86.4009 86.542H85.1829L82.9709 81.684ZM93.266 86.724C92.5847 86.724 91.9827 86.5747 91.46 86.276C90.9374 85.968 90.5314 85.534 90.242 84.974C89.9527 84.414 89.808 83.7607 89.808 83.014C89.808 82.3607 89.9527 81.7493 90.242 81.18C90.5407 80.6013 90.956 80.1393 91.488 79.794C92.02 79.4487 92.6267 79.276 93.308 79.276C94.2134 79.276 94.9647 79.542 95.562 80.074C96.1687 80.606 96.4674 81.4927 96.458 82.734L91.866 82.818C91.866 83.6393 92.02 84.288 92.328 84.764C92.6454 85.24 93.1494 85.478 93.84 85.478C94.1667 85.478 94.5167 85.394 94.89 85.226C95.2634 85.058 95.5994 84.792 95.898 84.428L96.528 85.016C95.7347 86.1547 94.6474 86.724 93.266 86.724ZM94.526 81.838C94.498 80.7833 94.1154 80.256 93.378 80.256C92.9767 80.256 92.6547 80.4007 92.412 80.69C92.1787 80.97 92.0247 81.3527 91.95 81.838H94.526ZM5.82525 104.724C5.42392 104.724 5.03192 104.673 4.64925 104.57C4.26658 104.467 3.96792 104.337 3.75325 104.178H3.73925L3.78125 104.598H2.71725L2.66125 102.19H3.57125C3.61792 102.619 3.84192 102.983 4.24325 103.282C4.65392 103.571 5.15325 103.716 5.74125 103.716C6.00258 103.716 6.22658 103.655 6.41325 103.534C6.60925 103.413 6.70725 103.24 6.70725 103.016C6.70725 102.848 6.64658 102.708 6.52525 102.596C6.40392 102.484 6.25925 102.391 6.09125 102.316C5.92325 102.241 5.58725 102.106 5.08325 101.91C4.48592 101.677 4.03792 101.485 3.73925 101.336C3.44058 101.187 3.16992 100.967 2.92725 100.678C2.69392 100.379 2.57725 99.9967 2.57725 99.53C2.57725 99.1473 2.67058 98.788 2.85725 98.452C3.05325 98.1067 3.34725 97.8267 3.73925 97.612C4.14058 97.388 4.63058 97.276 5.20925 97.276C5.47992 97.276 5.77392 97.318 6.09125 97.402C6.40858 97.486 6.67458 97.6027 6.88925 97.752H6.90325L6.88925 97.346H7.95325V99.824H7.04325C6.95925 99.3387 6.74458 98.956 6.39925 98.676C6.05392 98.396 5.62925 98.256 5.12525 98.256C4.86392 98.256 4.64458 98.3167 4.46725 98.438C4.28992 98.5593 4.20125 98.746 4.20125 98.998C4.20125 99.2593 4.30392 99.4553 4.50925 99.586C4.71458 99.7073 5.05992 99.8473 5.54525 100.006C5.60125 100.015 5.72258 100.053 5.90925 100.118C6.70258 100.398 7.30925 100.725 7.72925 101.098C8.15858 101.471 8.37325 101.961 8.37325 102.568C8.37325 103.035 8.25192 103.431 8.00925 103.758C7.77592 104.075 7.46325 104.318 7.07125 104.486C6.68858 104.645 6.27325 104.724 5.82525 104.724ZM11.3742 96.114C11.0568 96.114 10.7955 96.0067 10.5902 95.792C10.3848 95.568 10.2822 95.2973 10.2822 94.98C10.2822 94.6627 10.3895 94.392 10.6042 94.168C10.8188 93.9347 11.0708 93.818 11.3602 93.818C11.6588 93.818 11.9062 93.93 12.1022 94.154C12.3075 94.378 12.4102 94.6533 12.4102 94.98C12.4102 95.3067 12.3122 95.5773 12.1162 95.792C11.9295 96.0067 11.6822 96.114 11.3742 96.114ZM9.40017 103.59C9.75484 103.59 9.97884 103.492 10.0722 103.296C10.1748 103.1 10.2262 102.783 10.2262 102.344V100.02C10.2262 99.5813 10.2448 99.1753 10.2822 98.802L9.30217 98.844V97.78C9.89017 97.78 10.3662 97.738 10.7302 97.654C11.0942 97.57 11.3368 97.472 11.4582 97.36H12.2142V102.246C12.2142 102.694 12.1955 103.105 12.1582 103.478C12.4568 103.45 12.7602 103.436 13.0682 103.436V104.5H9.40017V103.59ZM16.9903 108.294C15.8609 108.294 15.0443 108.121 14.5403 107.776C14.0456 107.431 13.7983 106.992 13.7983 106.46C13.7983 106.133 13.9009 105.825 14.1063 105.536C14.3209 105.256 14.6616 105.027 15.1283 104.85C14.7643 104.747 14.4983 104.589 14.3302 104.374C14.1716 104.159 14.0923 103.907 14.0923 103.618C14.0923 103.338 14.1996 103.053 14.4143 102.764C14.6383 102.475 14.9836 102.26 15.4503 102.12V102.106C15.0303 101.938 14.6943 101.677 14.4423 101.322C14.1996 100.958 14.0783 100.529 14.0783 100.034C14.0783 99.5113 14.2229 99.04 14.5123 98.62C14.8109 98.2 15.1983 97.8733 15.6743 97.64C16.1596 97.3973 16.6683 97.276 17.2003 97.276C17.4803 97.276 17.7743 97.3133 18.0823 97.388C18.3903 97.4533 18.6516 97.5607 18.8663 97.71C19.0436 97.2247 19.2816 96.8233 19.5803 96.506C19.8789 96.1793 20.2336 96.016 20.6443 96.016C20.9523 96.016 21.1903 96.0953 21.3583 96.254C21.5263 96.4127 21.6103 96.632 21.6103 96.912C21.6103 97.1267 21.5403 97.3227 21.4003 97.5C21.2696 97.6773 21.0596 97.766 20.7703 97.766C20.6209 97.766 20.4716 97.7147 20.3223 97.612C20.1823 97.5 20.0983 97.3693 20.0703 97.22C19.9489 97.2573 19.8276 97.3787 19.7063 97.584C19.5849 97.78 19.5149 97.962 19.4963 98.13C19.7576 98.3633 19.9583 98.634 20.0983 98.942C20.2476 99.25 20.3223 99.5813 20.3223 99.936C20.3223 100.459 20.1729 100.935 19.8743 101.364C19.5756 101.784 19.1836 102.115 18.6983 102.358C18.2129 102.591 17.6949 102.708 17.1443 102.708L16.7523 102.694C16.5469 102.675 16.3976 102.666 16.3043 102.666C16.0989 102.666 15.9263 102.703 15.7863 102.778C15.6463 102.853 15.5763 102.955 15.5763 103.086C15.5763 103.254 15.7023 103.375 15.9543 103.45C16.2156 103.515 16.6869 103.567 17.3683 103.604C18.5443 103.669 19.4356 103.865 20.0423 104.192C20.6489 104.519 20.9523 105.065 20.9523 105.83C20.9523 106.334 20.7563 106.773 20.3643 107.146C19.9816 107.519 19.4823 107.804 18.8663 108C18.2596 108.196 17.6343 108.294 16.9903 108.294ZM17.2003 101.77C17.5549 101.77 17.8349 101.611 18.0403 101.294C18.2549 100.977 18.3623 100.608 18.3623 100.188C18.3623 99.656 18.2596 99.194 18.0543 98.802C17.8489 98.41 17.5596 98.214 17.1863 98.214C16.8316 98.214 16.5469 98.3773 16.3323 98.704C16.1176 99.0307 16.0103 99.418 16.0103 99.866C16.0103 100.389 16.1176 100.837 16.3323 101.21C16.5469 101.583 16.8363 101.77 17.2003 101.77ZM17.3963 107.328C17.8163 107.328 18.1756 107.272 18.4743 107.16C18.7823 107.048 19.0156 106.903 19.1743 106.726C19.3329 106.558 19.4123 106.385 19.4123 106.208C19.4123 105.919 19.2443 105.699 18.9083 105.55C18.5816 105.401 18.0776 105.312 17.3963 105.284C17.3216 105.275 17.2003 105.27 17.0323 105.27C16.9389 105.261 16.7756 105.247 16.5423 105.228C16.3089 105.219 16.1176 105.2 15.9683 105.172C15.8283 105.284 15.7163 105.429 15.6323 105.606C15.5576 105.783 15.5203 105.961 15.5203 106.138C15.5203 106.502 15.6883 106.791 16.0243 107.006C16.3696 107.221 16.8269 107.328 17.3963 107.328ZM21.7732 103.59C22.1279 103.59 22.3519 103.492 22.4452 103.296C22.5479 103.1 22.5992 102.783 22.5992 102.344V99.992C22.5992 99.572 22.6179 99.1753 22.6552 98.802L21.6752 98.844V97.78C22.2632 97.78 22.7392 97.738 23.1032 97.654C23.4672 97.57 23.7099 97.472 23.8312 97.36H24.5172C24.5172 97.3787 24.5359 97.612 24.5732 98.06H24.6012C24.8719 97.8453 25.2032 97.6633 25.5952 97.514C25.9966 97.3553 26.3372 97.276 26.6172 97.276C27.4666 97.276 28.0732 97.5187 28.4372 98.004C28.8012 98.4893 28.9832 99.278 28.9832 100.37V102.246C28.9832 102.694 28.9646 103.105 28.9272 103.478C29.2352 103.45 29.5386 103.436 29.8372 103.436V104.5H26.1692V103.59C26.5239 103.59 26.7526 103.492 26.8552 103.296C26.9579 103.1 27.0092 102.783 27.0092 102.344L26.9952 100.356C26.9952 99.74 26.9066 99.2873 26.7292 98.998C26.5612 98.7087 26.2719 98.564 25.8612 98.564C25.6372 98.564 25.4086 98.6153 25.1752 98.718C24.9419 98.8113 24.7459 98.9327 24.5872 99.082V102.246C24.5872 102.694 24.5686 103.105 24.5312 103.478C24.8299 103.45 25.1332 103.436 25.4412 103.436V104.5H21.7732V103.59ZM32.4236 104.724C31.8356 104.724 31.3689 104.551 31.0236 104.206C30.6876 103.851 30.5196 103.403 30.5196 102.862C30.5196 102.041 30.9023 101.42 31.6676 101C32.4329 100.571 33.3523 100.333 34.4256 100.286V99.558C34.4256 98.7087 34.1083 98.284 33.4736 98.284C33.0629 98.284 32.7269 98.4147 32.4656 98.676C32.5776 98.8067 32.6336 98.984 32.6336 99.208C32.6336 99.432 32.5543 99.6327 32.3956 99.81C32.2463 99.9873 32.0223 100.076 31.7236 100.076C31.4436 100.076 31.2243 99.9873 31.0656 99.81C30.9069 99.6233 30.8276 99.3947 30.8276 99.124C30.8276 98.76 30.9583 98.438 31.2196 98.158C31.4809 97.878 31.8356 97.6633 32.2836 97.514C32.7409 97.3553 33.2403 97.276 33.7816 97.276C35.5083 97.276 36.3716 98.1673 36.3716 99.95L36.3576 102.246C36.3576 102.694 36.3389 103.105 36.3016 103.478C36.6096 103.45 36.9129 103.436 37.2116 103.436V104.5H34.5656C34.5469 104.379 34.5283 104.164 34.5096 103.856H34.4956C33.9263 104.435 33.2356 104.724 32.4236 104.724ZM33.3056 103.352C33.7256 103.352 34.0943 103.184 34.4116 102.848V101.28C33.8609 101.336 33.4036 101.476 33.0396 101.7C32.6849 101.924 32.5076 102.227 32.5076 102.61C32.5076 102.862 32.5823 103.049 32.7316 103.17C32.8903 103.291 33.0816 103.352 33.3056 103.352ZM41.0254 108.294C39.8961 108.294 39.0794 108.121 38.5754 107.776C38.0807 107.431 37.8334 106.992 37.8334 106.46C37.8334 106.133 37.9361 105.825 38.1414 105.536C38.3561 105.256 38.6967 105.027 39.1634 104.85C38.7994 104.747 38.5334 104.589 38.3654 104.374C38.2067 104.159 38.1274 103.907 38.1274 103.618C38.1274 103.338 38.2347 103.053 38.4494 102.764C38.6734 102.475 39.0187 102.26 39.4854 102.12V102.106C39.0654 101.938 38.7294 101.677 38.4774 101.322C38.2347 100.958 38.1134 100.529 38.1134 100.034C38.1134 99.5113 38.2581 99.04 38.5474 98.62C38.8461 98.2 39.2334 97.8733 39.7094 97.64C40.1947 97.3973 40.7034 97.276 41.2354 97.276C41.5154 97.276 41.8094 97.3133 42.1174 97.388C42.4254 97.4533 42.6867 97.5607 42.9014 97.71C43.0787 97.2247 43.3167 96.8233 43.6154 96.506C43.9141 96.1793 44.2687 96.016 44.6794 96.016C44.9874 96.016 45.2254 96.0953 45.3934 96.254C45.5614 96.4127 45.6454 96.632 45.6454 96.912C45.6454 97.1267 45.5754 97.3227 45.4354 97.5C45.3047 97.6773 45.0947 97.766 44.8054 97.766C44.6561 97.766 44.5067 97.7147 44.3574 97.612C44.2174 97.5 44.1334 97.3693 44.1054 97.22C43.9841 97.2573 43.8627 97.3787 43.7414 97.584C43.6201 97.78 43.5501 97.962 43.5314 98.13C43.7927 98.3633 43.9934 98.634 44.1334 98.942C44.2827 99.25 44.3574 99.5813 44.3574 99.936C44.3574 100.459 44.2081 100.935 43.9094 101.364C43.6107 101.784 43.2187 102.115 42.7334 102.358C42.2481 102.591 41.7301 102.708 41.1794 102.708L40.7874 102.694C40.5821 102.675 40.4327 102.666 40.3394 102.666C40.1341 102.666 39.9614 102.703 39.8214 102.778C39.6814 102.853 39.6114 102.955 39.6114 103.086C39.6114 103.254 39.7374 103.375 39.9894 103.45C40.2507 103.515 40.7221 103.567 41.4034 103.604C42.5794 103.669 43.4707 103.865 44.0774 104.192C44.6841 104.519 44.9874 105.065 44.9874 105.83C44.9874 106.334 44.7914 106.773 44.3994 107.146C44.0167 107.519 43.5174 107.804 42.9014 108C42.2947 108.196 41.6694 108.294 41.0254 108.294ZM41.2354 101.77C41.5901 101.77 41.8701 101.611 42.0754 101.294C42.2901 100.977 42.3974 100.608 42.3974 100.188C42.3974 99.656 42.2947 99.194 42.0894 98.802C41.8841 98.41 41.5947 98.214 41.2214 98.214C40.8667 98.214 40.5821 98.3773 40.3674 98.704C40.1527 99.0307 40.0454 99.418 40.0454 99.866C40.0454 100.389 40.1527 100.837 40.3674 101.21C40.5821 101.583 40.8714 101.77 41.2354 101.77ZM41.4314 107.328C41.8514 107.328 42.2107 107.272 42.5094 107.16C42.8174 107.048 43.0507 106.903 43.2094 106.726C43.3681 106.558 43.4474 106.385 43.4474 106.208C43.4474 105.919 43.2794 105.699 42.9434 105.55C42.6167 105.401 42.1127 105.312 41.4314 105.284C41.3567 105.275 41.2354 105.27 41.0674 105.27C40.9741 105.261 40.8107 105.247 40.5774 105.228C40.3441 105.219 40.1527 105.2 40.0034 105.172C39.8634 105.284 39.7514 105.429 39.6674 105.606C39.5927 105.783 39.5554 105.961 39.5554 106.138C39.5554 106.502 39.7234 106.791 40.0594 107.006C40.4047 107.221 40.8621 107.328 41.4314 107.328ZM49.0307 104.724C48.3493 104.724 47.7473 104.575 47.2247 104.276C46.702 103.968 46.296 103.534 46.0067 102.974C45.7173 102.414 45.5727 101.761 45.5727 101.014C45.5727 100.361 45.7173 99.7493 46.0067 99.18C46.3053 98.6013 46.7207 98.1393 47.2527 97.794C47.7847 97.4487 48.3913 97.276 49.0727 97.276C49.978 97.276 50.7293 97.542 51.3267 98.074C51.9333 98.606 52.232 99.4927 52.2227 100.734L47.6307 100.818C47.6307 101.639 47.7847 102.288 48.0927 102.764C48.41 103.24 48.914 103.478 49.6047 103.478C49.9313 103.478 50.2813 103.394 50.6547 103.226C51.028 103.058 51.364 102.792 51.6627 102.428L52.2927 103.016C51.4993 104.155 50.412 104.724 49.0307 104.724ZM50.2907 99.838C50.2627 98.7833 49.88 98.256 49.1427 98.256C48.7413 98.256 48.4193 98.4007 48.1767 98.69C47.9433 98.97 47.7893 99.3527 47.7147 99.838H50.2907ZM60.1436 104.724C59.7423 104.724 59.3503 104.673 58.9676 104.57C58.5849 104.467 58.2863 104.337 58.0716 104.178H58.0576L58.0996 104.598H57.0356L56.9796 102.19H57.8896C57.9363 102.619 58.1603 102.983 58.5616 103.282C58.9723 103.571 59.4716 103.716 60.0596 103.716C60.3209 103.716 60.5449 103.655 60.7316 103.534C60.9276 103.413 61.0256 103.24 61.0256 103.016C61.0256 102.848 60.9649 102.708 60.8436 102.596C60.7223 102.484 60.5776 102.391 60.4096 102.316C60.2416 102.241 59.9056 102.106 59.4016 101.91C58.8043 101.677 58.3563 101.485 58.0576 101.336C57.7589 101.187 57.4883 100.967 57.2456 100.678C57.0123 100.379 56.8956 99.9967 56.8956 99.53C56.8956 99.1473 56.9889 98.788 57.1756 98.452C57.3716 98.1067 57.6656 97.8267 58.0576 97.612C58.4589 97.388 58.9489 97.276 59.5276 97.276C59.7983 97.276 60.0923 97.318 60.4096 97.402C60.7269 97.486 60.9929 97.6027 61.2076 97.752H61.2216L61.2076 97.346H62.2716V99.824H61.3616C61.2776 99.3387 61.0629 98.956 60.7176 98.676C60.3723 98.396 59.9476 98.256 59.4436 98.256C59.1823 98.256 58.9629 98.3167 58.7856 98.438C58.6083 98.5593 58.5196 98.746 58.5196 98.998C58.5196 99.2593 58.6223 99.4553 58.8276 99.586C59.0329 99.7073 59.3783 99.8473 59.8636 100.006C59.9196 100.015 60.0409 100.053 60.2276 100.118C61.0209 100.398 61.6276 100.725 62.0476 101.098C62.4769 101.471 62.6916 101.961 62.6916 102.568C62.6916 103.035 62.5703 103.431 62.3276 103.758C62.0943 104.075 61.7816 104.318 61.3896 104.486C61.0069 104.645 60.5916 104.724 60.1436 104.724ZM67.1485 104.724C66.4672 104.724 65.8559 104.579 65.3145 104.29C64.7732 104.001 64.3485 103.585 64.0405 103.044C63.7325 102.503 63.5785 101.873 63.5785 101.154C63.5785 100.398 63.7372 99.726 64.0545 99.138C64.3719 98.55 64.7965 98.0927 65.3285 97.766C65.8699 97.4393 66.4625 97.276 67.1065 97.276C67.7785 97.276 68.3805 97.4207 68.9125 97.71C69.4445 97.9993 69.8645 98.4193 70.1725 98.97C70.4805 99.5113 70.6345 100.146 70.6345 100.874C70.6345 101.649 70.4852 102.325 70.1865 102.904C69.8972 103.483 69.4865 103.931 68.9545 104.248C68.4319 104.565 67.8299 104.724 67.1485 104.724ZM67.1765 103.73C67.6899 103.73 68.0492 103.492 68.2545 103.016C68.4599 102.54 68.5625 101.943 68.5625 101.224C68.5625 100.421 68.4459 99.726 68.2125 99.138C67.9792 98.55 67.6105 98.256 67.1065 98.256C66.5932 98.256 66.2199 98.4987 65.9865 98.984C65.7532 99.4693 65.6365 100.067 65.6365 100.776C65.6365 101.588 65.7625 102.283 66.0145 102.862C66.2665 103.441 66.6539 103.73 67.1765 103.73ZM71.3695 103.59C71.6215 103.59 71.8035 103.543 71.9155 103.45C72.0369 103.347 72.1115 103.212 72.1395 103.044C72.1769 102.876 72.1955 102.643 72.1955 102.344V96.59C72.1955 96.142 72.2142 95.736 72.2515 95.372L71.2715 95.414V94.35C71.8595 94.35 72.3355 94.308 72.6995 94.224C73.0635 94.14 73.3062 94.042 73.4275 93.93H74.1835V102.246C74.1835 102.694 74.1649 103.105 74.1275 103.478C74.4355 103.45 74.7389 103.436 75.0375 103.436V104.5H71.3695V103.59ZM78.8529 104.724C78.0222 104.724 77.4249 104.481 77.0609 103.996C76.7062 103.511 76.5289 102.722 76.5289 101.63V100.02C76.5289 99.628 76.5429 99.222 76.5709 98.802L75.5909 98.844V97.78C76.1789 97.78 76.6549 97.738 77.0189 97.654C77.3829 97.57 77.6255 97.472 77.7469 97.36H78.5169V101.644C78.5169 102.26 78.5962 102.713 78.7549 103.002C78.9135 103.291 79.1655 103.436 79.5109 103.436C79.7442 103.436 79.9822 103.371 80.2249 103.24C80.4769 103.109 80.6869 102.951 80.8549 102.764V100.02C80.8549 99.5813 80.8735 99.1753 80.9109 98.802L79.9309 98.844V97.78C80.5189 97.78 80.9902 97.738 81.3449 97.654C81.7089 97.57 81.9515 97.472 82.0729 97.36H82.8429V102.246C82.8429 102.694 82.8242 103.105 82.7869 103.478C83.0855 103.45 83.3889 103.436 83.6969 103.436V104.5H81.0369L80.9529 103.772H80.9389C80.5935 104.071 80.2575 104.304 79.9309 104.472C79.6135 104.64 79.2542 104.724 78.8529 104.724ZM87.3265 104.724C85.8705 104.724 85.1425 103.828 85.1425 102.036L85.1705 98.662H84.2185V97.5C84.5171 97.5 84.7971 97.4067 85.0585 97.22C85.3291 97.0333 85.5578 96.8047 85.7445 96.534C85.9311 96.2633 86.0618 96.002 86.1365 95.75H87.1725L87.1585 97.5H88.9365V98.578L87.1585 98.62L87.1445 102.064C87.1445 102.969 87.4245 103.422 87.9845 103.422C88.4325 103.422 88.8571 103.142 89.2585 102.582L89.9305 103.212C89.4918 103.856 89.0531 104.271 88.6145 104.458C88.1758 104.635 87.7465 104.724 87.3265 104.724ZM92.3117 96.114C91.9943 96.114 91.733 96.0067 91.5277 95.792C91.3223 95.568 91.2197 95.2973 91.2197 94.98C91.2197 94.6627 91.327 94.392 91.5417 94.168C91.7563 93.9347 92.0083 93.818 92.2977 93.818C92.5963 93.818 92.8437 93.93 93.0397 94.154C93.245 94.378 93.3477 94.6533 93.3477 94.98C93.3477 95.3067 93.2497 95.5773 93.0537 95.792C92.867 96.0067 92.6197 96.114 92.3117 96.114ZM90.3377 103.59C90.6923 103.59 90.9163 103.492 91.0097 103.296C91.1123 103.1 91.1637 102.783 91.1637 102.344V100.02C91.1637 99.5813 91.1823 99.1753 91.2197 98.802L90.2397 98.844V97.78C90.8277 97.78 91.3037 97.738 91.6677 97.654C92.0317 97.57 92.2743 97.472 92.3957 97.36H93.1517V102.246C93.1517 102.694 93.133 103.105 93.0957 103.478C93.3943 103.45 93.6977 103.436 94.0057 103.436V104.5H90.3377V103.59ZM98.3478 104.724C97.6664 104.724 97.0551 104.579 96.5138 104.29C95.9724 104.001 95.5478 103.585 95.2398 103.044C94.9318 102.503 94.7778 101.873 94.7778 101.154C94.7778 100.398 94.9364 99.726 95.2538 99.138C95.5711 98.55 95.9958 98.0927 96.5278 97.766C97.0691 97.4393 97.6618 97.276 98.3058 97.276C98.9778 97.276 99.5798 97.4207 100.112 97.71C100.644 97.9993 101.064 98.4193 101.372 98.97C101.68 99.5113 101.834 100.146 101.834 100.874C101.834 101.649 101.684 102.325 101.386 102.904C101.096 103.483 100.686 103.931 100.154 104.248C99.6311 104.565 99.0291 104.724 98.3478 104.724ZM98.3758 103.73C98.8891 103.73 99.2484 103.492 99.4538 103.016C99.6591 102.54 99.7618 101.943 99.7618 101.224C99.7618 100.421 99.6451 99.726 99.4118 99.138C99.1784 98.55 98.8098 98.256 98.3058 98.256C97.7924 98.256 97.4191 98.4987 97.1858 98.984C96.9524 99.4693 96.8358 100.067 96.8358 100.776C96.8358 101.588 96.9618 102.283 97.2138 102.862C97.4658 103.441 97.8531 103.73 98.3758 103.73ZM102.847 103.59C103.202 103.59 103.426 103.492 103.519 103.296C103.622 103.1 103.673 102.783 103.673 102.344V99.992C103.673 99.572 103.692 99.1753 103.729 98.802L102.749 98.844V97.78C103.337 97.78 103.813 97.738 104.177 97.654C104.541 97.57 104.784 97.472 104.905 97.36H105.591C105.591 97.3787 105.61 97.612 105.647 98.06H105.675C105.946 97.8453 106.277 97.6633 106.669 97.514C107.071 97.3553 107.411 97.276 107.691 97.276C108.541 97.276 109.147 97.5187 109.511 98.004C109.875 98.4893 110.057 99.278 110.057 100.37V102.246C110.057 102.694 110.039 103.105 110.001 103.478C110.309 103.45 110.613 103.436 110.911 103.436V104.5H107.243V103.59C107.598 103.59 107.827 103.492 107.929 103.296C108.032 103.1 108.083 102.783 108.083 102.344L108.069 100.356C108.069 99.74 107.981 99.2873 107.803 98.998C107.635 98.7087 107.346 98.564 106.935 98.564C106.711 98.564 106.483 98.6153 106.249 98.718C106.016 98.8113 105.82 98.9327 105.661 99.082V102.246C105.661 102.694 105.643 103.105 105.605 103.478C105.904 103.45 106.207 103.436 106.515 103.436V104.5H102.847V103.59ZM114.968 104.724C114.566 104.724 114.174 104.673 113.792 104.57C113.409 104.467 113.11 104.337 112.896 104.178H112.882L112.924 104.598H111.86L111.804 102.19H112.714C112.76 102.619 112.984 102.983 113.386 103.282C113.796 103.571 114.296 103.716 114.884 103.716C115.145 103.716 115.369 103.655 115.556 103.534C115.752 103.413 115.85 103.24 115.85 103.016C115.85 102.848 115.789 102.708 115.668 102.596C115.546 102.484 115.402 102.391 115.234 102.316C115.066 102.241 114.73 102.106 114.226 101.91C113.628 101.677 113.18 101.485 112.882 101.336C112.583 101.187 112.312 100.967 112.07 100.678C111.836 100.379 111.72 99.9967 111.72 99.53C111.72 99.1473 111.813 98.788 112 98.452C112.196 98.1067 112.49 97.8267 112.882 97.612C113.283 97.388 113.773 97.276 114.352 97.276C114.622 97.276 114.916 97.318 115.234 97.402C115.551 97.486 115.817 97.6027 116.032 97.752H116.046L116.032 97.346H117.096V99.824H116.186C116.102 99.3387 115.887 98.956 115.542 98.676C115.196 98.396 114.772 98.256 114.268 98.256C114.006 98.256 113.787 98.3167 113.61 98.438C113.432 98.5593 113.344 98.746 113.344 98.998C113.344 99.2593 113.446 99.4553 113.652 99.586C113.857 99.7073 114.202 99.8473 114.688 100.006C114.744 100.015 114.865 100.053 115.052 100.118C115.845 100.398 116.452 100.725 116.872 101.098C117.301 101.471 117.516 101.961 117.516 102.568C117.516 103.035 117.394 103.431 117.152 103.758C116.918 104.075 116.606 104.318 116.214 104.486C115.831 104.645 115.416 104.724 114.968 104.724Z" fill="#777777"/>
<path d="M82.909 11.5909H50.7272C50.5826 11.5909 50.4438 11.6483 50.3415 11.7506C50.2392 11.8529 50.1818 11.9917 50.1818 12.1363C50.1818 12.281 50.2392 12.4197 50.3415 12.522C50.4438 12.6243 50.5826 12.6818 50.7272 12.6818H82.3636V39.9545H37.6363V12.6818H48C48.1446 12.6818 48.2834 12.6243 48.3856 12.522C48.4879 12.4197 48.5454 12.281 48.5454 12.1363C48.5454 11.9917 48.4879 11.8529 48.3856 11.7506C48.2834 11.6483 48.1446 11.5909 48 11.5909H37.0909C36.9462 11.5909 36.8075 11.6483 36.7052 11.7506C36.6029 11.8529 36.5454 11.9917 36.5454 12.1363V40.5C36.5454 40.6446 36.6029 40.7834 36.7052 40.8857C36.8075 40.988 36.9462 41.0454 37.0909 41.0454H42L39.3818 44.5363C39.295 44.6521 39.2577 44.7975 39.2782 44.9407C39.2986 45.084 39.3751 45.2132 39.4909 45.3C39.6066 45.3868 39.7521 45.424 39.8953 45.4036C40.0385 45.3831 40.1677 45.3066 40.2545 45.1909L43.1897 41.2773L45.4776 43.1076C45.5334 43.154 45.5978 43.1887 45.6671 43.2099C45.7365 43.231 45.8093 43.2381 45.8814 43.2308C45.9536 43.2234 46.0235 43.2018 46.0871 43.1671C46.1508 43.1324 46.2069 43.0854 46.2522 43.0288C46.2975 42.9722 46.331 42.9071 46.3509 42.8374C46.3707 42.7677 46.3764 42.6947 46.3678 42.6227C46.3591 42.5508 46.3361 42.4813 46.3003 42.4183C46.2644 42.3553 46.2163 42.3001 46.1589 42.2558L44.6457 41.0454H75.354L73.8409 42.2559C73.7849 42.3007 73.7384 42.356 73.7038 42.4188C73.6693 42.4815 73.6475 42.5505 73.6396 42.6217C73.6317 42.6929 73.6379 42.765 73.6578 42.8338C73.6778 42.9026 73.7111 42.9668 73.7559 43.0227C73.8006 43.0786 73.856 43.1252 73.9188 43.1597C73.9815 43.1943 74.0505 43.2161 74.1217 43.224C74.1929 43.2319 74.2649 43.2257 74.3337 43.2057C74.4026 43.1858 74.4668 43.1524 74.5227 43.1077L76.8104 41.2775L79.7454 45.1909C79.8322 45.3066 79.9614 45.3831 80.1046 45.4036C80.2478 45.424 80.3933 45.3868 80.509 45.3C80.6248 45.2132 80.7013 45.084 80.7217 44.9407C80.7422 44.7975 80.7049 44.6521 80.6181 44.5363L78 41.0454H82.909C83.0537 41.0454 83.1924 40.988 83.2947 40.8857C83.397 40.7834 83.4545 40.6446 83.4545 40.5V12.1363C83.4545 11.9917 83.397 11.8529 83.2947 11.7506C83.1924 11.6483 83.0537 11.5909 82.909 11.5909Z" fill="#777777"/>
<path d="M80.7272 32.8636C80.8718 32.8636 81.0106 32.8062 81.1129 32.7039C81.2152 32.6016 81.2726 32.4628 81.2726 32.3182V14.3182C81.2726 14.1735 81.2152 14.0348 81.1129 13.9325C81.0106 13.8302 80.8718 13.7727 80.7272 13.7727H39.2726C39.128 13.7727 38.9892 13.8302 38.8869 13.9325C38.7846 14.0348 38.7272 14.1735 38.7272 14.3182V38.3182C38.7272 38.4628 38.7846 38.6016 38.8869 38.7039C38.9892 38.8062 39.128 38.8636 39.2726 38.8636H80.7272C80.8718 38.8636 81.0106 38.8062 81.1129 38.7039C81.2152 38.6016 81.2726 38.4628 81.2726 38.3182V35.0454C81.2726 34.9008 81.2152 34.762 81.1129 34.6597C81.0106 34.5574 80.8718 34.5 80.7272 34.5C80.5825 34.5 80.4438 34.5574 80.3415 34.6597C80.2392 34.762 80.1817 34.9008 80.1817 35.0454V37.7727H39.8181V14.8636H80.1817V32.3182C80.1817 32.4628 80.2392 32.6016 80.3415 32.7039C80.4438 32.8062 80.5825 32.8636 80.7272 32.8636Z" fill="#777777"/>
<path d="M58.666 22.5916C58.5839 22.5368 58.4884 22.5054 58.3898 22.5006C58.2912 22.4959 58.1931 22.518 58.1061 22.5645C58.019 22.6111 57.9463 22.6805 57.8955 22.7651C57.8448 22.8498 57.818 22.9467 57.818 23.0454V29.5909C57.818 29.6896 57.8448 29.7865 57.8955 29.8712C57.9463 29.9559 58.019 30.0252 58.1061 30.0718C58.1931 30.1184 58.2912 30.1404 58.3898 30.1357C58.4884 30.1309 58.5839 30.0995 58.666 30.0447L63.5751 26.772C63.6498 26.7222 63.7111 26.6547 63.7534 26.5755C63.7958 26.4963 63.818 26.4079 63.818 26.3182C63.818 26.2284 63.7958 26.14 63.7534 26.0608C63.7111 25.9816 63.6498 25.9141 63.5751 25.8643L58.666 22.5916ZM58.9089 28.5716V24.0647L62.2892 26.3182L58.9089 28.5716Z" fill="#777777"/>
<path d="M64.767 30.8366C64.8229 30.8815 64.8871 30.9149 64.9559 30.935C65.0247 30.9551 65.0968 30.9614 65.168 30.9535C65.2393 30.9457 65.3083 30.9238 65.3711 30.8893C65.4339 30.8547 65.4893 30.8081 65.534 30.7521C66.6362 29.3748 67.1845 27.6357 67.0717 25.8754C66.9589 24.115 66.193 22.4602 64.9241 21.2348C63.6551 20.0095 61.9745 19.302 60.2112 19.2508C58.448 19.1996 56.7292 19.8084 55.3913 20.958C54.0534 22.1077 53.1928 23.7153 52.978 25.4662C52.7632 27.217 53.2097 28.985 54.2301 30.4239C55.2505 31.8628 56.7712 32.869 58.4945 33.2455C60.2179 33.622 62.0197 33.3417 63.5472 32.4594C63.6724 32.3869 63.7637 32.2677 63.801 32.1279C63.8384 31.9881 63.8186 31.8392 63.7461 31.7139C63.6737 31.5887 63.5544 31.4974 63.4146 31.46C63.2748 31.4227 63.1259 31.4425 63.0007 31.5149C61.8568 32.1756 60.5268 32.4404 59.2171 32.2682C57.9074 32.096 56.6911 31.4964 55.7569 30.5625C54.8227 29.6285 54.2228 28.4124 54.0501 27.1028C53.8775 25.7931 54.1419 24.4631 54.8023 23.319C55.4626 22.1749 56.482 21.2807 57.7024 20.775C58.9228 20.2694 60.2759 20.1805 61.5519 20.5223C62.8279 20.864 63.9555 21.6173 64.7597 22.6652C65.564 23.7132 66 24.9972 66.0001 26.3182C66.0055 27.683 65.5402 29.0079 64.6828 30.0698C64.638 30.1256 64.6046 30.1898 64.5846 30.2586C64.5646 30.3273 64.5583 30.3994 64.5661 30.4706C64.5739 30.5418 64.5957 30.6108 64.6302 30.6736C64.6646 30.7363 64.7111 30.7917 64.767 30.8366Z" fill="#777777"/>
</svg>
