<svg width="120" height="127" viewBox="0 0 120 127" fill="none" xmlns="http://www.w3.org/2000/svg">
<path d="M32.5223 85.576C32.7743 85.5667 32.9656 85.5387 33.0963 85.492C33.2269 85.436 33.3296 85.324 33.4043 85.156C33.4789 84.988 33.5163 84.722 33.5163 84.358V78.996C33.5163 78.4733 33.5349 78.0533 33.5723 77.736L32.5223 77.778V76.7L36.4003 76.672C37.5203 76.6627 38.3976 76.8633 39.0323 77.274C39.6669 77.6847 39.9843 78.2867 39.9843 79.08C39.9843 79.5373 39.8116 79.962 39.4663 80.354C39.1303 80.7367 38.6309 81.0167 37.9683 81.194V81.208C38.8643 81.348 39.5409 81.6467 39.9983 82.104C40.4556 82.5613 40.6843 83.098 40.6843 83.714C40.6843 84.6007 40.3669 85.2867 39.7323 85.772C39.1069 86.2573 38.2903 86.5 37.2823 86.5H32.5223V85.576ZM36.2743 80.984C36.8249 80.9747 37.2216 80.802 37.4643 80.466C37.7163 80.1207 37.8423 79.668 37.8423 79.108C37.8423 78.604 37.7023 78.2353 37.4223 78.002C37.1423 77.7687 36.8016 77.652 36.4003 77.652C36.2043 77.652 36.0456 77.6753 35.9243 77.722C35.8123 77.7687 35.7189 77.8807 35.6443 78.058C35.5789 78.226 35.5463 78.4827 35.5463 78.828V80.998L36.2743 80.984ZM35.4903 85.506C36.1063 85.506 36.5589 85.5013 36.8483 85.492C37.3989 85.464 37.8096 85.2913 38.0803 84.974C38.3509 84.6473 38.4863 84.2133 38.4863 83.672C38.4863 83.0747 38.3136 82.6453 37.9683 82.384C37.6229 82.1133 37.1936 81.978 36.6803 81.978C36.1669 81.978 35.7889 81.9827 35.5463 81.992V84.274C35.5463 84.778 35.5276 85.1887 35.4903 85.506ZM44.4408 86.724C43.6101 86.724 43.0128 86.4813 42.6488 85.996C42.2941 85.5107 42.1168 84.722 42.1168 83.63V82.02C42.1168 81.628 42.1308 81.222 42.1588 80.802L41.1788 80.844V79.78C41.7668 79.78 42.2428 79.738 42.6068 79.654C42.9708 79.57 43.2134 79.472 43.3348 79.36H44.1048V83.644C44.1048 84.26 44.1841 84.7127 44.3428 85.002C44.5014 85.2913 44.7534 85.436 45.0988 85.436C45.3321 85.436 45.5701 85.3707 45.8128 85.24C46.0648 85.1093 46.2748 84.9507 46.4428 84.764V82.02C46.4428 81.5813 46.4614 81.1753 46.4988 80.802L45.5188 80.844V79.78C46.1068 79.78 46.5781 79.738 46.9328 79.654C47.2968 79.57 47.5394 79.472 47.6608 79.36H48.4308V84.246C48.4308 84.694 48.4121 85.1047 48.3748 85.478C48.6734 85.45 48.9768 85.436 49.2848 85.436V86.5H46.6248L46.5408 85.772H46.5268C46.1814 86.0707 45.8454 86.304 45.5188 86.472C45.2014 86.64 44.8421 86.724 44.4408 86.724ZM52.171 78.114C51.8537 78.114 51.5924 78.0067 51.387 77.792C51.1817 77.568 51.079 77.2973 51.079 76.98C51.079 76.6627 51.1864 76.392 51.401 76.168C51.6157 75.9347 51.8677 75.818 52.157 75.818C52.4557 75.818 52.703 75.93 52.899 76.154C53.1044 76.378 53.207 76.6533 53.207 76.98C53.207 77.3067 53.109 77.5773 52.913 77.792C52.7264 78.0067 52.479 78.114 52.171 78.114ZM50.197 85.59C50.5517 85.59 50.7757 85.492 50.869 85.296C50.9717 85.1 51.023 84.7827 51.023 84.344V82.02C51.023 81.5813 51.0417 81.1753 51.079 80.802L50.099 80.844V79.78C50.687 79.78 51.163 79.738 51.527 79.654C51.891 79.57 52.1337 79.472 52.255 79.36H53.011V84.246C53.011 84.694 52.9924 85.1047 52.955 85.478C53.2537 85.45 53.557 85.436 53.865 85.436V86.5H50.197V85.59ZM54.5531 85.59C54.8051 85.59 54.9871 85.5433 55.0991 85.45C55.2205 85.3473 55.2951 85.212 55.3231 85.044C55.3605 84.876 55.3791 84.6427 55.3791 84.344V78.59C55.3791 78.142 55.3978 77.736 55.4351 77.372L54.4551 77.414V76.35C55.0431 76.35 55.5191 76.308 55.8831 76.224C56.2471 76.14 56.4898 76.042 56.6111 75.93H57.3671V84.246C57.3671 84.694 57.3485 85.1047 57.3111 85.478C57.6191 85.45 57.9225 85.436 58.2211 85.436V86.5H54.5531V85.59ZM61.8405 86.724C61.2805 86.724 60.7858 86.5793 60.3565 86.29C59.9365 86.0007 59.6051 85.59 59.3625 85.058C59.1291 84.5167 59.0125 83.8913 59.0125 83.182C59.0125 82.4353 59.1571 81.768 59.4465 81.18C59.7358 80.5827 60.1418 80.116 60.6645 79.78C61.1965 79.444 61.8031 79.276 62.4845 79.276C62.8485 79.276 63.2638 79.36 63.7305 79.528V78.604C63.7305 78.156 63.7491 77.7453 63.7865 77.372C63.4785 77.4 63.1471 77.414 62.7925 77.414V76.35C63.3805 76.35 63.8565 76.308 64.2205 76.224C64.5845 76.14 64.8271 76.042 64.9485 75.93H65.7045V84.246C65.7045 84.694 65.6858 85.1047 65.6485 85.478C65.9565 85.45 66.2598 85.436 66.5585 85.436V86.5H63.8985L63.8285 85.856H63.8145C63.2638 86.4347 62.6058 86.724 61.8405 86.724ZM62.5685 85.45C62.8018 85.45 63.0211 85.3893 63.2265 85.268C63.4318 85.1467 63.5998 84.9833 63.7305 84.778V80.578C63.6278 80.5033 63.4831 80.4427 63.2965 80.396C63.1098 80.34 62.9231 80.312 62.7365 80.312C62.1391 80.3213 61.7098 80.578 61.4485 81.082C61.1965 81.586 61.0705 82.216 61.0705 82.972C61.0705 83.644 61.1918 84.2273 61.4345 84.722C61.6865 85.2073 62.0645 85.45 62.5685 85.45ZM69.4523 78.114C69.135 78.114 68.8736 78.0067 68.6683 77.792C68.463 77.568 68.3603 77.2973 68.3603 76.98C68.3603 76.6627 68.4676 76.392 68.6823 76.168C68.897 75.9347 69.149 75.818 69.4383 75.818C69.737 75.818 69.9843 75.93 70.1803 76.154C70.3856 76.378 70.4883 76.6533 70.4883 76.98C70.4883 77.3067 70.3903 77.5773 70.1943 77.792C70.0076 78.0067 69.7603 78.114 69.4523 78.114ZM67.4783 85.59C67.833 85.59 68.057 85.492 68.1503 85.296C68.253 85.1 68.3043 84.7827 68.3043 84.344V82.02C68.3043 81.5813 68.323 81.1753 68.3603 80.802L67.3803 80.844V79.78C67.9683 79.78 68.4443 79.738 68.8083 79.654C69.1723 79.57 69.415 79.472 69.5363 79.36H70.2923V84.246C70.2923 84.694 70.2736 85.1047 70.2363 85.478C70.535 85.45 70.8383 85.436 71.1463 85.436V86.5H67.4783V85.59ZM72.0584 85.59C72.413 85.59 72.637 85.492 72.7304 85.296C72.833 85.1 72.8844 84.7827 72.8844 84.344V81.992C72.8844 81.572 72.903 81.1753 72.9404 80.802L71.9604 80.844V79.78C72.5484 79.78 73.0244 79.738 73.3884 79.654C73.7524 79.57 73.995 79.472 74.1164 79.36H74.8024C74.8024 79.3787 74.821 79.612 74.8584 80.06H74.8864C75.157 79.8453 75.4884 79.6633 75.8804 79.514C76.2817 79.3553 76.6224 79.276 76.9024 79.276C77.7517 79.276 78.3584 79.5187 78.7224 80.004C79.0864 80.4893 79.2684 81.278 79.2684 82.37V84.246C79.2684 84.694 79.2497 85.1047 79.2124 85.478C79.5204 85.45 79.8237 85.436 80.1224 85.436V86.5H76.4544V85.59C76.809 85.59 77.0377 85.492 77.1404 85.296C77.243 85.1 77.2944 84.7827 77.2944 84.344L77.2804 82.356C77.2804 81.74 77.1917 81.2873 77.0144 80.998C76.8464 80.7087 76.557 80.564 76.1464 80.564C75.9224 80.564 75.6937 80.6153 75.4604 80.718C75.227 80.8113 75.031 80.9327 74.8724 81.082V84.246C74.8724 84.694 74.8537 85.1047 74.8164 85.478C75.115 85.45 75.4184 85.436 75.7264 85.436V86.5H72.0584V85.59ZM83.9688 90.294C82.8394 90.294 82.0228 90.1213 81.5188 89.776C81.0241 89.4307 80.7768 88.992 80.7768 88.46C80.7768 88.1333 80.8794 87.8253 81.0848 87.536C81.2994 87.256 81.6401 87.0273 82.1068 86.85C81.7428 86.7473 81.4768 86.5887 81.3088 86.374C81.1501 86.1593 81.0708 85.9073 81.0708 85.618C81.0708 85.338 81.1781 85.0533 81.3928 84.764C81.6168 84.4747 81.9621 84.26 82.4288 84.12V84.106C82.0088 83.938 81.6728 83.6767 81.4208 83.322C81.1781 82.958 81.0568 82.5287 81.0568 82.034C81.0568 81.5113 81.2014 81.04 81.4908 80.62C81.7894 80.2 82.1768 79.8733 82.6528 79.64C83.1381 79.3973 83.6468 79.276 84.1788 79.276C84.4588 79.276 84.7528 79.3133 85.0608 79.388C85.3688 79.4533 85.6301 79.5607 85.8448 79.71C86.0221 79.2247 86.2601 78.8233 86.5588 78.506C86.8574 78.1793 87.2121 78.016 87.6228 78.016C87.9308 78.016 88.1688 78.0953 88.3368 78.254C88.5048 78.4127 88.5888 78.632 88.5888 78.912C88.5888 79.1267 88.5188 79.3227 88.3788 79.5C88.2481 79.6773 88.0381 79.766 87.7488 79.766C87.5994 79.766 87.4501 79.7147 87.3008 79.612C87.1608 79.5 87.0768 79.3693 87.0488 79.22C86.9274 79.2573 86.8061 79.3787 86.6848 79.584C86.5634 79.78 86.4934 79.962 86.4748 80.13C86.7361 80.3633 86.9368 80.634 87.0768 80.942C87.2261 81.25 87.3008 81.5813 87.3008 81.936C87.3008 82.4587 87.1514 82.9347 86.8528 83.364C86.5541 83.784 86.1621 84.1153 85.6768 84.358C85.1914 84.5913 84.6734 84.708 84.1228 84.708L83.7308 84.694C83.5254 84.6753 83.3761 84.666 83.2828 84.666C83.0774 84.666 82.9048 84.7033 82.7648 84.778C82.6248 84.8527 82.5548 84.9553 82.5548 85.086C82.5548 85.254 82.6808 85.3753 82.9328 85.45C83.1941 85.5153 83.6654 85.5667 84.3468 85.604C85.5228 85.6693 86.4141 85.8653 87.0208 86.192C87.6274 86.5187 87.9308 87.0647 87.9308 87.83C87.9308 88.334 87.7348 88.7727 87.3428 89.146C86.9601 89.5193 86.4608 89.804 85.8448 90C85.2381 90.196 84.6128 90.294 83.9688 90.294ZM84.1788 83.77C84.5334 83.77 84.8134 83.6113 85.0188 83.294C85.2334 82.9767 85.3408 82.608 85.3408 82.188C85.3408 81.656 85.2381 81.194 85.0328 80.802C84.8274 80.41 84.5381 80.214 84.1648 80.214C83.8101 80.214 83.5254 80.3773 83.3108 80.704C83.0961 81.0307 82.9888 81.418 82.9888 81.866C82.9888 82.3887 83.0961 82.8367 83.3108 83.21C83.5254 83.5833 83.8148 83.77 84.1788 83.77ZM84.3748 89.328C84.7948 89.328 85.1541 89.272 85.4528 89.16C85.7608 89.048 85.9941 88.9033 86.1528 88.726C86.3114 88.558 86.3908 88.3853 86.3908 88.208C86.3908 87.9187 86.2228 87.6993 85.8868 87.55C85.5601 87.4007 85.0561 87.312 84.3748 87.284C84.3001 87.2747 84.1788 87.27 84.0108 87.27C83.9174 87.2607 83.7541 87.2467 83.5208 87.228C83.2874 87.2187 83.0961 87.2 82.9468 87.172C82.8068 87.284 82.6948 87.4287 82.6108 87.606C82.5361 87.7833 82.4988 87.9607 82.4988 88.138C82.4988 88.502 82.6668 88.7913 83.0028 89.006C83.3481 89.2207 83.8054 89.328 84.3748 89.328ZM17.2205 103.59C17.5752 103.59 17.7992 103.492 17.8925 103.296C17.9952 103.1 18.0465 102.783 18.0465 102.344V99.992C18.0465 99.572 18.0652 99.1753 18.1025 98.802L17.1225 98.844V97.78C17.7105 97.78 18.1865 97.738 18.5505 97.654C18.9145 97.57 19.1572 97.472 19.2785 97.36H19.9645C19.9645 97.3787 19.9832 97.612 20.0205 98.06H20.0485C20.3378 97.8267 20.6645 97.64 21.0285 97.5C21.3925 97.3507 21.7472 97.276 22.0925 97.276C22.5125 97.276 22.8625 97.3553 23.1425 97.514C23.4318 97.6633 23.6605 97.892 23.8285 98.2C24.1645 97.92 24.5378 97.696 24.9485 97.528C25.3592 97.36 25.7465 97.276 26.1105 97.276C26.8852 97.276 27.4592 97.5 27.8325 97.948C28.2152 98.396 28.4065 99.1427 28.4065 100.188V102.246C28.4065 102.694 28.3878 103.105 28.3505 103.478C28.6492 103.45 28.9525 103.436 29.2605 103.436V104.5H25.7185V103.59C26.0172 103.59 26.2085 103.492 26.2925 103.296C26.3765 103.091 26.4185 102.773 26.4185 102.344V100.202C26.4092 99.614 26.3112 99.1987 26.1245 98.956C25.9378 98.704 25.6672 98.578 25.3125 98.578C24.9018 98.578 24.5005 98.732 24.1085 99.04C24.1925 99.4133 24.2345 99.8567 24.2345 100.37V102.246C24.2345 102.694 24.2158 103.105 24.1785 103.478C24.4772 103.45 24.7805 103.436 25.0885 103.436V104.5H21.4765V103.59C21.8032 103.59 22.0132 103.492 22.1065 103.296C22.1998 103.1 22.2465 102.783 22.2465 102.344L22.2325 100.16C22.2325 99.5813 22.1485 99.1753 21.9805 98.942C21.8125 98.6993 21.5605 98.5733 21.2245 98.564C20.8138 98.564 20.4172 98.7367 20.0345 99.082V102.246C20.0345 102.694 20.0158 103.105 19.9785 103.478C20.2772 103.45 20.5572 103.436 20.8185 103.436V104.5H17.2205V103.59ZM31.8494 104.724C31.2614 104.724 30.7947 104.551 30.4494 104.206C30.1134 103.851 29.9454 103.403 29.9454 102.862C29.9454 102.041 30.3281 101.42 31.0934 101C31.8587 100.571 32.7781 100.333 33.8514 100.286V99.558C33.8514 98.7087 33.5341 98.284 32.8994 98.284C32.4887 98.284 32.1527 98.4147 31.8914 98.676C32.0034 98.8067 32.0594 98.984 32.0594 99.208C32.0594 99.432 31.9801 99.6327 31.8214 99.81C31.6721 99.9873 31.4481 100.076 31.1494 100.076C30.8694 100.076 30.6501 99.9873 30.4914 99.81C30.3327 99.6233 30.2534 99.3947 30.2534 99.124C30.2534 98.76 30.3841 98.438 30.6454 98.158C30.9067 97.878 31.2614 97.6633 31.7094 97.514C32.1667 97.3553 32.6661 97.276 33.2074 97.276C34.9341 97.276 35.7974 98.1673 35.7974 99.95L35.7834 102.246C35.7834 102.694 35.7647 103.105 35.7274 103.478C36.0354 103.45 36.3387 103.436 36.6374 103.436V104.5H33.9914C33.9727 104.379 33.9541 104.164 33.9354 103.856H33.9214C33.3521 104.435 32.6614 104.724 31.8494 104.724ZM32.7314 103.352C33.1514 103.352 33.5201 103.184 33.8374 102.848V101.28C33.2867 101.336 32.8294 101.476 32.4654 101.7C32.1107 101.924 31.9334 102.227 31.9334 102.61C31.9334 102.862 32.0081 103.049 32.1574 103.17C32.3161 103.291 32.5074 103.352 32.7314 103.352ZM37.4412 103.59C37.7959 103.59 38.0199 103.492 38.1132 103.296C38.2159 103.1 38.2672 102.783 38.2672 102.344V99.992C38.2672 99.572 38.2859 99.1753 38.3232 98.802L37.3432 98.844V97.78C37.9312 97.78 38.4072 97.738 38.7712 97.654C39.1352 97.57 39.3779 97.472 39.4992 97.36H40.1852C40.1852 97.3787 40.2039 97.612 40.2412 98.06H40.2692C40.5399 97.8453 40.8712 97.6633 41.2632 97.514C41.6645 97.3553 42.0052 97.276 42.2852 97.276C43.1345 97.276 43.7412 97.5187 44.1052 98.004C44.4692 98.4893 44.6512 99.278 44.6512 100.37V102.246C44.6512 102.694 44.6325 103.105 44.5952 103.478C44.9032 103.45 45.2065 103.436 45.5052 103.436V104.5H41.8372V103.59C42.1919 103.59 42.4205 103.492 42.5232 103.296C42.6259 103.1 42.6772 102.783 42.6772 102.344L42.6632 100.356C42.6632 99.74 42.5745 99.2873 42.3972 98.998C42.2292 98.7087 41.9399 98.564 41.5292 98.564C41.3052 98.564 41.0765 98.6153 40.8432 98.718C40.6099 98.8113 40.4139 98.9327 40.2552 99.082V102.246C40.2552 102.694 40.2365 103.105 40.1992 103.478C40.4979 103.45 40.8012 103.436 41.1092 103.436V104.5H37.4412V103.59ZM48.0916 104.724C47.5036 104.724 47.0369 104.551 46.6916 104.206C46.3556 103.851 46.1876 103.403 46.1876 102.862C46.1876 102.041 46.5702 101.42 47.3356 101C48.1009 100.571 49.0202 100.333 50.0936 100.286V99.558C50.0936 98.7087 49.7762 98.284 49.1416 98.284C48.7309 98.284 48.3949 98.4147 48.1336 98.676C48.2456 98.8067 48.3016 98.984 48.3016 99.208C48.3016 99.432 48.2222 99.6327 48.0636 99.81C47.9142 99.9873 47.6902 100.076 47.3916 100.076C47.1116 100.076 46.8922 99.9873 46.7336 99.81C46.5749 99.6233 46.4956 99.3947 46.4956 99.124C46.4956 98.76 46.6262 98.438 46.8876 98.158C47.1489 97.878 47.5036 97.6633 47.9516 97.514C48.4089 97.3553 48.9082 97.276 49.4496 97.276C51.1762 97.276 52.0396 98.1673 52.0396 99.95L52.0256 102.246C52.0256 102.694 52.0069 103.105 51.9696 103.478C52.2776 103.45 52.5809 103.436 52.8796 103.436V104.5H50.2336C50.2149 104.379 50.1962 104.164 50.1776 103.856H50.1636C49.5942 104.435 48.9036 104.724 48.0916 104.724ZM48.9736 103.352C49.3936 103.352 49.7622 103.184 50.0796 102.848V101.28C49.5289 101.336 49.0716 101.476 48.7076 101.7C48.3529 101.924 48.1756 102.227 48.1756 102.61C48.1756 102.862 48.2502 103.049 48.3996 103.17C48.5582 103.291 48.7496 103.352 48.9736 103.352ZM56.6934 108.294C55.564 108.294 54.7474 108.121 54.2434 107.776C53.7487 107.431 53.5014 106.992 53.5014 106.46C53.5014 106.133 53.604 105.825 53.8094 105.536C54.024 105.256 54.3647 105.027 54.8314 104.85C54.4674 104.747 54.2014 104.589 54.0334 104.374C53.8747 104.159 53.7954 103.907 53.7954 103.618C53.7954 103.338 53.9027 103.053 54.1174 102.764C54.3414 102.475 54.6867 102.26 55.1534 102.12V102.106C54.7334 101.938 54.3974 101.677 54.1454 101.322C53.9027 100.958 53.7814 100.529 53.7814 100.034C53.7814 99.5113 53.926 99.04 54.2154 98.62C54.514 98.2 54.9014 97.8733 55.3774 97.64C55.8627 97.3973 56.3714 97.276 56.9034 97.276C57.1834 97.276 57.4774 97.3133 57.7854 97.388C58.0934 97.4533 58.3547 97.5607 58.5694 97.71C58.7467 97.2247 58.9847 96.8233 59.2834 96.506C59.582 96.1793 59.9367 96.016 60.3474 96.016C60.6554 96.016 60.8934 96.0953 61.0614 96.254C61.2294 96.4127 61.3134 96.632 61.3134 96.912C61.3134 97.1267 61.2434 97.3227 61.1034 97.5C60.9727 97.6773 60.7627 97.766 60.4734 97.766C60.324 97.766 60.1747 97.7147 60.0254 97.612C59.8854 97.5 59.8014 97.3693 59.7734 97.22C59.652 97.2573 59.5307 97.3787 59.4094 97.584C59.288 97.78 59.218 97.962 59.1994 98.13C59.4607 98.3633 59.6614 98.634 59.8014 98.942C59.9507 99.25 60.0254 99.5813 60.0254 99.936C60.0254 100.459 59.876 100.935 59.5774 101.364C59.2787 101.784 58.8867 102.115 58.4014 102.358C57.916 102.591 57.398 102.708 56.8474 102.708L56.4554 102.694C56.25 102.675 56.1007 102.666 56.0074 102.666C55.802 102.666 55.6294 102.703 55.4894 102.778C55.3494 102.853 55.2794 102.955 55.2794 103.086C55.2794 103.254 55.4054 103.375 55.6574 103.45C55.9187 103.515 56.39 103.567 57.0714 103.604C58.2474 103.669 59.1387 103.865 59.7454 104.192C60.352 104.519 60.6554 105.065 60.6554 105.83C60.6554 106.334 60.4594 106.773 60.0674 107.146C59.6847 107.519 59.1854 107.804 58.5694 108C57.9627 108.196 57.3374 108.294 56.6934 108.294ZM56.9034 101.77C57.258 101.77 57.538 101.611 57.7434 101.294C57.958 100.977 58.0654 100.608 58.0654 100.188C58.0654 99.656 57.9627 99.194 57.7574 98.802C57.552 98.41 57.2627 98.214 56.8894 98.214C56.5347 98.214 56.25 98.3773 56.0354 98.704C55.8207 99.0307 55.7134 99.418 55.7134 99.866C55.7134 100.389 55.8207 100.837 56.0354 101.21C56.25 101.583 56.5394 101.77 56.9034 101.77ZM57.0994 107.328C57.5194 107.328 57.8787 107.272 58.1774 107.16C58.4854 107.048 58.7187 106.903 58.8774 106.726C59.036 106.558 59.1154 106.385 59.1154 106.208C59.1154 105.919 58.9474 105.699 58.6114 105.55C58.2847 105.401 57.7807 105.312 57.0994 105.284C57.0247 105.275 56.9034 105.27 56.7354 105.27C56.642 105.261 56.4787 105.247 56.2454 105.228C56.012 105.219 55.8207 105.2 55.6714 105.172C55.5314 105.284 55.4194 105.429 55.3354 105.606C55.2607 105.783 55.2234 105.961 55.2234 106.138C55.2234 106.502 55.3914 106.791 55.7274 107.006C56.0727 107.221 56.53 107.328 57.0994 107.328ZM64.6986 104.724C64.0173 104.724 63.4153 104.575 62.8926 104.276C62.37 103.968 61.964 103.534 61.6746 102.974C61.3853 102.414 61.2406 101.761 61.2406 101.014C61.2406 100.361 61.3853 99.7493 61.6746 99.18C61.9733 98.6013 62.3886 98.1393 62.9206 97.794C63.4526 97.4487 64.0593 97.276 64.7406 97.276C65.646 97.276 66.3973 97.542 66.9946 98.074C67.6013 98.606 67.9 99.4927 67.8906 100.734L63.2986 100.818C63.2986 101.639 63.4526 102.288 63.7606 102.764C64.078 103.24 64.582 103.478 65.2726 103.478C65.5993 103.478 65.9493 103.394 66.3226 103.226C66.696 103.058 67.032 102.792 67.3306 102.428L67.9606 103.016C67.1673 104.155 66.08 104.724 64.6986 104.724ZM65.9586 99.838C65.9306 98.7833 65.548 98.256 64.8106 98.256C64.4093 98.256 64.0873 98.4007 63.8446 98.69C63.6113 98.97 63.4573 99.3527 63.3826 99.838H65.9586ZM68.9138 103.59C69.2685 103.59 69.4925 103.492 69.5858 103.296C69.6885 103.1 69.7398 102.783 69.7398 102.344V99.992C69.7398 99.572 69.7585 99.1753 69.7958 98.802L68.8158 98.844V97.78C69.4038 97.78 69.8798 97.738 70.2438 97.654C70.6078 97.57 70.8505 97.472 70.9718 97.36H71.6578C71.6578 97.3787 71.6765 97.612 71.7138 98.06H71.7418C72.0312 97.8267 72.3578 97.64 72.7218 97.5C73.0858 97.3507 73.4405 97.276 73.7858 97.276C74.2058 97.276 74.5558 97.3553 74.8358 97.514C75.1252 97.6633 75.3538 97.892 75.5218 98.2C75.8578 97.92 76.2312 97.696 76.6418 97.528C77.0525 97.36 77.4398 97.276 77.8038 97.276C78.5785 97.276 79.1525 97.5 79.5258 97.948C79.9085 98.396 80.0998 99.1427 80.0998 100.188V102.246C80.0998 102.694 80.0812 103.105 80.0438 103.478C80.3425 103.45 80.6458 103.436 80.9538 103.436V104.5H77.4118V103.59C77.7105 103.59 77.9018 103.492 77.9858 103.296C78.0698 103.091 78.1118 102.773 78.1118 102.344V100.202C78.1025 99.614 78.0045 99.1987 77.8178 98.956C77.6312 98.704 77.3605 98.578 77.0058 98.578C76.5952 98.578 76.1938 98.732 75.8018 99.04C75.8858 99.4133 75.9278 99.8567 75.9278 100.37V102.246C75.9278 102.694 75.9092 103.105 75.8718 103.478C76.1705 103.45 76.4738 103.436 76.7818 103.436V104.5H73.1698V103.59C73.4965 103.59 73.7065 103.492 73.7998 103.296C73.8932 103.1 73.9398 102.783 73.9398 102.344L73.9258 100.16C73.9258 99.5813 73.8418 99.1753 73.6738 98.942C73.5058 98.6993 73.2538 98.5733 72.9178 98.564C72.5072 98.564 72.1105 98.7367 71.7278 99.082V102.246C71.7278 102.694 71.7092 103.105 71.6718 103.478C71.9705 103.45 72.2505 103.436 72.5118 103.436V104.5H68.9138V103.59ZM85.1108 104.724C84.4294 104.724 83.8274 104.575 83.3048 104.276C82.7821 103.968 82.3761 103.534 82.0868 102.974C81.7974 102.414 81.6528 101.761 81.6528 101.014C81.6528 100.361 81.7974 99.7493 82.0868 99.18C82.3854 98.6013 82.8008 98.1393 83.3328 97.794C83.8648 97.4487 84.4714 97.276 85.1528 97.276C86.0581 97.276 86.8094 97.542 87.4068 98.074C88.0134 98.606 88.3121 99.4927 88.3028 100.734L83.7108 100.818C83.7108 101.639 83.8648 102.288 84.1728 102.764C84.4901 103.24 84.9941 103.478 85.6848 103.478C86.0114 103.478 86.3614 103.394 86.7348 103.226C87.1081 103.058 87.4441 102.792 87.7428 102.428L88.3728 103.016C87.5794 104.155 86.4921 104.724 85.1108 104.724ZM86.3708 99.838C86.3428 98.7833 85.9601 98.256 85.2228 98.256C84.8214 98.256 84.4994 98.4007 84.2568 98.69C84.0234 98.97 83.8694 99.3527 83.7948 99.838H86.3708ZM89.326 103.59C89.6806 103.59 89.9046 103.492 89.998 103.296C90.1006 103.1 90.152 102.783 90.152 102.344V99.992C90.152 99.572 90.1706 99.1753 90.208 98.802L89.228 98.844V97.78C89.816 97.78 90.292 97.738 90.656 97.654C91.02 97.57 91.2626 97.472 91.384 97.36H92.07C92.07 97.3787 92.0886 97.612 92.126 98.06H92.154C92.4246 97.8453 92.756 97.6633 93.148 97.514C93.5493 97.3553 93.89 97.276 94.17 97.276C95.0193 97.276 95.626 97.5187 95.99 98.004C96.354 98.4893 96.536 99.278 96.536 100.37V102.246C96.536 102.694 96.5173 103.105 96.48 103.478C96.788 103.45 97.0913 103.436 97.39 103.436V104.5H93.722V103.59C94.0766 103.59 94.3053 103.492 94.408 103.296C94.5106 103.1 94.562 102.783 94.562 102.344L94.548 100.356C94.548 99.74 94.4593 99.2873 94.282 98.998C94.114 98.7087 93.8246 98.564 93.414 98.564C93.19 98.564 92.9613 98.6153 92.728 98.718C92.4946 98.8113 92.2986 98.9327 92.14 99.082V102.246C92.14 102.694 92.1213 103.105 92.084 103.478C92.3826 103.45 92.686 103.436 92.994 103.436V104.5H89.326V103.59ZM100.916 104.724C99.4603 104.724 98.7323 103.828 98.7323 102.036L98.7603 98.662H97.8083V97.5C98.107 97.5 98.387 97.4067 98.6483 97.22C98.919 97.0333 99.1476 96.8047 99.3343 96.534C99.521 96.2633 99.6516 96.002 99.7263 95.75H100.762L100.748 97.5H102.526V98.578L100.748 98.62L100.734 102.064C100.734 102.969 101.014 103.422 101.574 103.422C102.022 103.422 102.447 103.142 102.848 102.582L103.52 103.212C103.082 103.856 102.643 104.271 102.204 104.458C101.766 104.635 101.336 104.724 100.916 104.724ZM32.9844 122.724C32.5831 122.724 32.1911 122.673 31.8084 122.57C31.4258 122.467 31.1271 122.337 30.9124 122.178H30.8984L30.9404 122.598H29.8764L29.8204 120.19H30.7304C30.7771 120.619 31.0011 120.983 31.4024 121.282C31.8131 121.571 32.3124 121.716 32.9004 121.716C33.1618 121.716 33.3858 121.655 33.5724 121.534C33.7684 121.413 33.8664 121.24 33.8664 121.016C33.8664 120.848 33.8058 120.708 33.6844 120.596C33.5631 120.484 33.4184 120.391 33.2504 120.316C33.0824 120.241 32.7464 120.106 32.2424 119.91C31.6451 119.677 31.1971 119.485 30.8984 119.336C30.5998 119.187 30.3291 118.967 30.0864 118.678C29.8531 118.379 29.7364 117.997 29.7364 117.53C29.7364 117.147 29.8298 116.788 30.0164 116.452C30.2124 116.107 30.5064 115.827 30.8984 115.612C31.2998 115.388 31.7898 115.276 32.3684 115.276C32.6391 115.276 32.9331 115.318 33.2504 115.402C33.5678 115.486 33.8338 115.603 34.0484 115.752H34.0624L34.0484 115.346H35.1124V117.824H34.2024C34.1184 117.339 33.9038 116.956 33.5584 116.676C33.2131 116.396 32.7884 116.256 32.2844 116.256C32.0231 116.256 31.8038 116.317 31.6264 116.438C31.4491 116.559 31.3604 116.746 31.3604 116.998C31.3604 117.259 31.4631 117.455 31.6684 117.586C31.8738 117.707 32.2191 117.847 32.7044 118.006C32.7604 118.015 32.8818 118.053 33.0684 118.118C33.8618 118.398 34.4684 118.725 34.8884 119.098C35.3178 119.471 35.5324 119.961 35.5324 120.568C35.5324 121.035 35.4111 121.431 35.1684 121.758C34.9351 122.075 34.6224 122.318 34.2304 122.486C33.8478 122.645 33.4324 122.724 32.9844 122.724ZM39.9894 122.724C39.308 122.724 38.6967 122.579 38.1554 122.29C37.614 122.001 37.1894 121.585 36.8814 121.044C36.5734 120.503 36.4194 119.873 36.4194 119.154C36.4194 118.398 36.578 117.726 36.8954 117.138C37.2127 116.55 37.6374 116.093 38.1694 115.766C38.7107 115.439 39.3034 115.276 39.9474 115.276C40.6194 115.276 41.2214 115.421 41.7534 115.71C42.2854 115.999 42.7054 116.419 43.0134 116.97C43.3214 117.511 43.4754 118.146 43.4754 118.874C43.4754 119.649 43.326 120.325 43.0274 120.904C42.738 121.483 42.3274 121.931 41.7954 122.248C41.2727 122.565 40.6707 122.724 39.9894 122.724ZM40.0174 121.73C40.5307 121.73 40.89 121.492 41.0954 121.016C41.3007 120.54 41.4034 119.943 41.4034 119.224C41.4034 118.421 41.2867 117.726 41.0534 117.138C40.82 116.55 40.4514 116.256 39.9474 116.256C39.434 116.256 39.0607 116.499 38.8274 116.984C38.594 117.469 38.4774 118.067 38.4774 118.776C38.4774 119.588 38.6034 120.283 38.8554 120.862C39.1074 121.441 39.4947 121.73 40.0174 121.73ZM44.2104 121.59C44.4624 121.59 44.6444 121.543 44.7564 121.45C44.8777 121.347 44.9524 121.212 44.9804 121.044C45.0177 120.876 45.0364 120.643 45.0364 120.344V114.59C45.0364 114.142 45.055 113.736 45.0924 113.372L44.1124 113.414V112.35C44.7004 112.35 45.1764 112.308 45.5404 112.224C45.9044 112.14 46.147 112.042 46.2684 111.93H47.0244V120.246C47.0244 120.694 47.0057 121.105 46.9684 121.478C47.2764 121.45 47.5797 121.436 47.8784 121.436V122.5H44.2104V121.59ZM51.6937 122.724C50.863 122.724 50.2657 122.481 49.9017 121.996C49.547 121.511 49.3697 120.722 49.3697 119.63V118.02C49.3697 117.628 49.3837 117.222 49.4117 116.802L48.4317 116.844V115.78C49.0197 115.78 49.4957 115.738 49.8597 115.654C50.2237 115.57 50.4663 115.472 50.5877 115.36H51.3577V119.644C51.3577 120.26 51.437 120.713 51.5957 121.002C51.7543 121.291 52.0063 121.436 52.3517 121.436C52.585 121.436 52.823 121.371 53.0657 121.24C53.3177 121.109 53.5277 120.951 53.6957 120.764V118.02C53.6957 117.581 53.7143 117.175 53.7517 116.802L52.7717 116.844V115.78C53.3597 115.78 53.831 115.738 54.1857 115.654C54.5497 115.57 54.7923 115.472 54.9137 115.36H55.6837V120.246C55.6837 120.694 55.665 121.105 55.6277 121.478C55.9263 121.45 56.2297 121.436 56.5377 121.436V122.5H53.8777L53.7937 121.772H53.7797C53.4343 122.071 53.0983 122.304 52.7717 122.472C52.4543 122.64 52.095 122.724 51.6937 122.724ZM60.1673 122.724C58.7113 122.724 57.9833 121.828 57.9833 120.036L58.0113 116.662H57.0593V115.5C57.358 115.5 57.638 115.407 57.8993 115.22C58.17 115.033 58.3986 114.805 58.5853 114.534C58.772 114.263 58.9026 114.002 58.9773 113.75H60.0133L59.9993 115.5H61.7773V116.578L59.9993 116.62L59.9853 120.064C59.9853 120.969 60.2653 121.422 60.8253 121.422C61.2733 121.422 61.698 121.142 62.0993 120.582L62.7713 121.212C62.3326 121.856 61.894 122.271 61.4553 122.458C61.0166 122.635 60.5873 122.724 60.1673 122.724ZM65.1525 114.114C64.8352 114.114 64.5738 114.007 64.3685 113.792C64.1632 113.568 64.0605 113.297 64.0605 112.98C64.0605 112.663 64.1678 112.392 64.3825 112.168C64.5972 111.935 64.8492 111.818 65.1385 111.818C65.4372 111.818 65.6845 111.93 65.8805 112.154C66.0858 112.378 66.1885 112.653 66.1885 112.98C66.1885 113.307 66.0905 113.577 65.8945 113.792C65.7078 114.007 65.4605 114.114 65.1525 114.114ZM63.1785 121.59C63.5332 121.59 63.7572 121.492 63.8505 121.296C63.9532 121.1 64.0045 120.783 64.0045 120.344V118.02C64.0045 117.581 64.0232 117.175 64.0605 116.802L63.0805 116.844V115.78C63.6685 115.78 64.1445 115.738 64.5085 115.654C64.8725 115.57 65.1152 115.472 65.2365 115.36H65.9925V120.246C65.9925 120.694 65.9738 121.105 65.9365 121.478C66.2352 121.45 66.5385 121.436 66.8465 121.436V122.5H63.1785V121.59ZM71.1886 122.724C70.5072 122.724 69.8959 122.579 69.3546 122.29C68.8132 122.001 68.3886 121.585 68.0806 121.044C67.7726 120.503 67.6186 119.873 67.6186 119.154C67.6186 118.398 67.7772 117.726 68.0946 117.138C68.4119 116.55 68.8366 116.093 69.3686 115.766C69.9099 115.439 70.5026 115.276 71.1466 115.276C71.8186 115.276 72.4206 115.421 72.9526 115.71C73.4846 115.999 73.9046 116.419 74.2126 116.97C74.5206 117.511 74.6746 118.146 74.6746 118.874C74.6746 119.649 74.5252 120.325 74.2266 120.904C73.9372 121.483 73.5266 121.931 72.9946 122.248C72.4719 122.565 71.8699 122.724 71.1886 122.724ZM71.2166 121.73C71.7299 121.73 72.0892 121.492 72.2946 121.016C72.4999 120.54 72.6026 119.943 72.6026 119.224C72.6026 118.421 72.4859 117.726 72.2526 117.138C72.0192 116.55 71.6506 116.256 71.1466 116.256C70.6332 116.256 70.2599 116.499 70.0266 116.984C69.7932 117.469 69.6766 118.067 69.6766 118.776C69.6766 119.588 69.8026 120.283 70.0546 120.862C70.3066 121.441 70.6939 121.73 71.2166 121.73ZM75.6883 121.59C76.0429 121.59 76.2669 121.492 76.3603 121.296C76.4629 121.1 76.5143 120.783 76.5143 120.344V117.992C76.5143 117.572 76.5329 117.175 76.5703 116.802L75.5903 116.844V115.78C76.1783 115.78 76.6543 115.738 77.0183 115.654C77.3823 115.57 77.6249 115.472 77.7463 115.36H78.4323C78.4323 115.379 78.4509 115.612 78.4883 116.06H78.5163C78.7869 115.845 79.1183 115.663 79.5103 115.514C79.9116 115.355 80.2523 115.276 80.5323 115.276C81.3816 115.276 81.9883 115.519 82.3523 116.004C82.7163 116.489 82.8983 117.278 82.8983 118.37V120.246C82.8983 120.694 82.8796 121.105 82.8423 121.478C83.1503 121.45 83.4536 121.436 83.7523 121.436V122.5H80.0843V121.59C80.4389 121.59 80.6676 121.492 80.7703 121.296C80.8729 121.1 80.9243 120.783 80.9243 120.344L80.9103 118.356C80.9103 117.74 80.8216 117.287 80.6443 116.998C80.4763 116.709 80.1869 116.564 79.7763 116.564C79.5523 116.564 79.3236 116.615 79.0903 116.718C78.8569 116.811 78.6609 116.933 78.5023 117.082V120.246C78.5023 120.694 78.4836 121.105 78.4463 121.478C78.7449 121.45 79.0483 121.436 79.3563 121.436V122.5H75.6883V121.59ZM87.8086 122.724C87.4073 122.724 87.0153 122.673 86.6326 122.57C86.25 122.467 85.9513 122.337 85.7366 122.178H85.7226L85.7646 122.598H84.7006L84.6446 120.19H85.5546C85.6013 120.619 85.8253 120.983 86.2266 121.282C86.6373 121.571 87.1366 121.716 87.7246 121.716C87.986 121.716 88.21 121.655 88.3966 121.534C88.5926 121.413 88.6906 121.24 88.6906 121.016C88.6906 120.848 88.63 120.708 88.5086 120.596C88.3873 120.484 88.2426 120.391 88.0746 120.316C87.9066 120.241 87.5706 120.106 87.0666 119.91C86.4693 119.677 86.0213 119.485 85.7226 119.336C85.424 119.187 85.1533 118.967 84.9106 118.678C84.6773 118.379 84.5606 117.997 84.5606 117.53C84.5606 117.147 84.654 116.788 84.8406 116.452C85.0366 116.107 85.3306 115.827 85.7226 115.612C86.124 115.388 86.614 115.276 87.1926 115.276C87.4633 115.276 87.7573 115.318 88.0746 115.402C88.392 115.486 88.658 115.603 88.8726 115.752H88.8866L88.8726 115.346H89.9366V117.824H89.0266C88.9426 117.339 88.728 116.956 88.3826 116.676C88.0373 116.396 87.6126 116.256 87.1086 116.256C86.8473 116.256 86.628 116.317 86.4506 116.438C86.2733 116.559 86.1846 116.746 86.1846 116.998C86.1846 117.259 86.2873 117.455 86.4926 117.586C86.698 117.707 87.0433 117.847 87.5286 118.006C87.5846 118.015 87.706 118.053 87.8926 118.118C88.686 118.398 89.2926 118.725 89.7126 119.098C90.142 119.471 90.3566 119.961 90.3566 120.568C90.3566 121.035 90.2353 121.431 89.9926 121.758C89.7593 122.075 89.4466 122.318 89.0546 122.486C88.672 122.645 88.2566 122.724 87.8086 122.724Z" fill="#777777"/>
<path d="M81.75 49.506H80.25V26.256C80.25 26.0571 80.171 25.8664 80.0303 25.7257C79.8897 25.5851 79.6989 25.506 79.5 25.506H71.25V18.006C71.25 17.8071 71.171 17.6164 71.0303 17.4757C70.8897 17.3351 70.6989 17.256 70.5 17.256H49.5C49.3011 17.256 49.1103 17.3351 48.9697 17.4757C48.829 17.6164 48.75 17.8071 48.75 18.006V25.506H40.5C40.3011 25.506 40.1103 25.5851 39.9697 25.7257C39.829 25.8664 39.75 26.0571 39.75 26.256V49.506H38.25C38.0511 49.506 37.8603 49.5851 37.7197 49.7257C37.579 49.8664 37.5 50.0571 37.5 50.256C37.5 50.455 37.579 50.6457 37.7197 50.7864C37.8603 50.927 38.0511 51.006 38.25 51.006H81.75C81.9489 51.006 82.1397 50.927 82.2803 50.7864C82.421 50.6457 82.5 50.455 82.5 50.256C82.5 50.0571 82.421 49.8664 82.2803 49.7257C82.1397 49.5851 81.9489 49.506 81.75 49.506ZM48.75 49.506H41.25V27.006H48.75V49.506ZM59.25 49.506H56.25V39.756H59.25V49.506ZM63.75 49.506H60.75V39.756H63.75V49.506ZM69.75 26.256V49.506H65.25V39.756H66C66.1989 39.756 66.3897 39.677 66.5303 39.5364C66.671 39.3957 66.75 39.205 66.75 39.006C66.75 38.8071 66.671 38.6164 66.5303 38.4757C66.3897 38.3351 66.1989 38.256 66 38.256H54C53.8011 38.256 53.6103 38.3351 53.4697 38.4757C53.329 38.6164 53.25 38.8071 53.25 39.006C53.25 39.205 53.329 39.3957 53.4697 39.5364C53.6103 39.677 53.8011 39.756 54 39.756H54.75V49.506H50.25V18.756H69.75V26.256ZM78.75 49.506H71.25V27.006H78.75V49.506Z" fill="#777777"/>
<path d="M52.5 24.756H55.5C55.6989 24.756 55.8897 24.677 56.0303 24.5364C56.171 24.3957 56.25 24.205 56.25 24.006V21.006C56.25 20.8071 56.171 20.6164 56.0303 20.4757C55.8897 20.3351 55.6989 20.256 55.5 20.256H52.5C52.3011 20.256 52.1103 20.3351 51.9697 20.4757C51.829 20.6164 51.75 20.8071 51.75 21.006V24.006C51.75 24.205 51.829 24.3957 51.9697 24.5364C52.1103 24.677 52.3011 24.756 52.5 24.756ZM53.25 21.756H54.75V23.256H53.25V21.756Z" fill="#777777"/>
<path d="M58.5 24.756H61.5C61.6989 24.756 61.8897 24.677 62.0303 24.5364C62.171 24.3957 62.25 24.205 62.25 24.006V21.006C62.25 20.8071 62.171 20.6164 62.0303 20.4757C61.8897 20.3351 61.6989 20.256 61.5 20.256H58.5C58.3011 20.256 58.1103 20.3351 57.9697 20.4757C57.829 20.6164 57.75 20.8071 57.75 21.006V24.006C57.75 24.205 57.829 24.3957 57.9697 24.5364C58.1103 24.677 58.3011 24.756 58.5 24.756ZM59.25 21.756H60.75V23.256H59.25V21.756Z" fill="#777777"/>
<path d="M64.5 24.756H67.5C67.6989 24.756 67.8897 24.677 68.0303 24.5364C68.171 24.3957 68.25 24.205 68.25 24.006V21.006C68.25 20.8071 68.171 20.6164 68.0303 20.4757C67.8897 20.3351 67.6989 20.256 67.5 20.256H64.5C64.3011 20.256 64.1103 20.3351 63.9697 20.4757C63.829 20.6164 63.75 20.8071 63.75 21.006V24.006C63.75 24.205 63.829 24.3957 63.9697 24.5364C64.1103 24.677 64.3011 24.756 64.5 24.756ZM65.25 21.756H66.75V23.256H65.25V21.756Z" fill="#777777"/>
<path d="M52.5 30.756H55.5C55.6989 30.756 55.8897 30.677 56.0303 30.5364C56.171 30.3957 56.25 30.205 56.25 30.006V27.006C56.25 26.8071 56.171 26.6164 56.0303 26.4757C55.8897 26.3351 55.6989 26.256 55.5 26.256H52.5C52.3011 26.256 52.1103 26.3351 51.9697 26.4757C51.829 26.6164 51.75 26.8071 51.75 27.006V30.006C51.75 30.205 51.829 30.3957 51.9697 30.5364C52.1103 30.677 52.3011 30.756 52.5 30.756ZM53.25 27.756H54.75V29.256H53.25V27.756Z" fill="#777777"/>
<path d="M58.5 30.756H61.5C61.6989 30.756 61.8897 30.677 62.0303 30.5364C62.171 30.3957 62.25 30.205 62.25 30.006V27.006C62.25 26.8071 62.171 26.6164 62.0303 26.4757C61.8897 26.3351 61.6989 26.256 61.5 26.256H58.5C58.3011 26.256 58.1103 26.3351 57.9697 26.4757C57.829 26.6164 57.75 26.8071 57.75 27.006V30.006C57.75 30.205 57.829 30.3957 57.9697 30.5364C58.1103 30.677 58.3011 30.756 58.5 30.756ZM59.25 27.756H60.75V29.256H59.25V27.756Z" fill="#777777"/>
<path d="M64.5 30.756H67.5C67.6989 30.756 67.8897 30.677 68.0303 30.5364C68.171 30.3957 68.25 30.205 68.25 30.006V27.006C68.25 26.8071 68.171 26.6164 68.0303 26.4757C67.8897 26.3351 67.6989 26.256 67.5 26.256H64.5C64.3011 26.256 64.1103 26.3351 63.9697 26.4757C63.829 26.6164 63.75 26.8071 63.75 27.006V30.006C63.75 30.205 63.829 30.3957 63.9697 30.5364C64.1103 30.677 64.3011 30.756 64.5 30.756ZM65.25 27.756H66.75V29.256H65.25V27.756Z" fill="#777777"/>
<path d="M52.5 36.756H55.5C55.6989 36.756 55.8897 36.677 56.0303 36.5364C56.171 36.3957 56.25 36.205 56.25 36.006V33.006C56.25 32.8071 56.171 32.6164 56.0303 32.4757C55.8897 32.3351 55.6989 32.256 55.5 32.256H52.5C52.3011 32.256 52.1103 32.3351 51.9697 32.4757C51.829 32.6164 51.75 32.8071 51.75 33.006V36.006C51.75 36.205 51.829 36.3957 51.9697 36.5364C52.1103 36.677 52.3011 36.756 52.5 36.756ZM53.25 33.756H54.75V35.256H53.25V33.756Z" fill="#777777"/>
<path d="M58.5 36.756H61.5C61.6989 36.756 61.8897 36.677 62.0303 36.5364C62.171 36.3957 62.25 36.205 62.25 36.006V33.006C62.25 32.8071 62.171 32.6164 62.0303 32.4757C61.8897 32.3351 61.6989 32.256 61.5 32.256H58.5C58.3011 32.256 58.1103 32.3351 57.9697 32.4757C57.829 32.6164 57.75 32.8071 57.75 33.006V36.006C57.75 36.205 57.829 36.3957 57.9697 36.5364C58.1103 36.677 58.3011 36.756 58.5 36.756ZM59.25 33.756H60.75V35.256H59.25V33.756Z" fill="#777777"/>
<path d="M64.5 36.756H67.5C67.6989 36.756 67.8897 36.677 68.0303 36.5364C68.171 36.3957 68.25 36.205 68.25 36.006V33.006C68.25 32.8071 68.171 32.6164 68.0303 32.4757C67.8897 32.3351 67.6989 32.256 67.5 32.256H64.5C64.3011 32.256 64.1103 32.3351 63.9697 32.4757C63.829 32.6164 63.75 32.8071 63.75 33.006V36.006C63.75 36.205 63.829 36.3957 63.9697 36.5364C64.1103 36.677 64.3011 36.756 64.5 36.756ZM65.25 33.756H66.75V35.256H65.25V33.756Z" fill="#777777"/>
<path d="M57.4047 13.9755C57.2225 14.0481 57.076 14.1892 56.9966 14.3685C56.9172 14.5478 56.9112 14.7511 56.9798 14.9348C57.0485 15.1185 57.1864 15.268 57.3639 15.3513C57.5414 15.4345 57.7445 15.445 57.9297 15.3803C59.2637 14.8793 60.7342 14.8793 62.0682 15.3803C62.2533 15.445 62.4564 15.4345 62.634 15.3513C62.8115 15.268 62.9494 15.1185 63.018 14.9348C63.0867 14.7511 63.0806 14.5478 63.0012 14.3685C62.9218 14.1892 62.7753 14.0481 62.5932 13.9755C60.9204 13.3493 59.0775 13.3493 57.4047 13.9755Z" fill="#777777"/>
<path d="M64.484 12.3525C64.6518 12.3524 64.8148 12.296 64.9468 12.1923C65.0788 12.0886 65.1722 11.9436 65.212 11.7805C65.2518 11.6175 65.2358 11.4458 65.1665 11.2929C65.0972 11.14 64.9786 11.0148 64.8297 10.9373C63.3372 10.164 61.6807 9.76044 59.9997 9.76044C58.3187 9.76044 56.6623 10.164 55.1697 10.9373C55.0795 10.981 54.999 11.0423 54.9329 11.1176C54.8668 11.1929 54.8165 11.2807 54.7849 11.3758C54.7533 11.4709 54.741 11.5714 54.7489 11.6713C54.7568 11.7712 54.7846 11.8685 54.8307 11.9575C54.8768 12.0464 54.9403 12.1253 55.0174 12.1893C55.0945 12.2533 55.1836 12.3012 55.2796 12.3302C55.3755 12.3592 55.4762 12.3687 55.5759 12.3581C55.6755 12.3475 55.7721 12.3171 55.8597 12.2685C57.1391 11.6057 58.5589 11.2598 59.9997 11.2598C61.4406 11.2598 62.8604 11.6057 64.1397 12.2685C64.2461 12.3236 64.3642 12.3524 64.484 12.3525Z" fill="#777777"/>
<path d="M66.5917 9.34503C66.7557 9.34552 66.9154 9.29223 67.0462 9.19332C67.1771 9.0944 67.2719 8.95532 67.3162 8.79737C67.3604 8.63942 67.3517 8.47132 67.2913 8.31882C67.2308 8.16632 67.1221 8.03782 66.9817 7.95303C64.8781 6.67222 62.4628 5.99475 59.9999 5.99475C57.5371 5.99475 55.1218 6.67222 53.0182 7.95303C52.848 8.05626 52.7258 8.22287 52.6785 8.41619C52.6312 8.60952 52.6626 8.81373 52.7658 8.9839C52.8691 9.15407 53.0357 9.27626 53.229 9.32359C53.4223 9.37092 53.6265 9.33951 53.7967 9.23628C55.6654 8.09732 57.8115 7.49481 59.9999 7.49481C62.1884 7.49481 64.3345 8.09732 66.2032 9.23628C66.3203 9.30733 66.4547 9.34494 66.5917 9.34503Z" fill="#777777"/>
<path d="M43.5 33.006H46.5C46.6989 33.006 46.8897 32.927 47.0303 32.7864C47.171 32.6457 47.25 32.455 47.25 32.256V29.256C47.25 29.0571 47.171 28.8664 47.0303 28.7257C46.8897 28.5851 46.6989 28.506 46.5 28.506H43.5C43.3011 28.506 43.1103 28.5851 42.9697 28.7257C42.829 28.8664 42.75 29.0571 42.75 29.256V32.256C42.75 32.455 42.829 32.6457 42.9697 32.7864C43.1103 32.927 43.3011 33.006 43.5 33.006ZM44.25 30.006H45.75V31.506H44.25V30.006Z" fill="#777777"/>
<path d="M73.5 33.006H76.5C76.6989 33.006 76.8897 32.927 77.0303 32.7864C77.171 32.6457 77.25 32.455 77.25 32.256V29.256C77.25 29.0571 77.171 28.8664 77.0303 28.7257C76.8897 28.5851 76.6989 28.506 76.5 28.506H73.5C73.3011 28.506 73.1103 28.5851 72.9697 28.7257C72.829 28.8664 72.75 29.0571 72.75 29.256V32.256C72.75 32.455 72.829 32.6457 72.9697 32.7864C73.1103 32.927 73.3011 33.006 73.5 33.006ZM74.25 30.006H75.75V31.506H74.25V30.006Z" fill="#777777"/>
<path d="M43.5 39.006H46.5C46.6989 39.006 46.8897 38.927 47.0303 38.7864C47.171 38.6457 47.25 38.455 47.25 38.256V35.256C47.25 35.0571 47.171 34.8664 47.0303 34.7257C46.8897 34.5851 46.6989 34.506 46.5 34.506H43.5C43.3011 34.506 43.1103 34.5851 42.9697 34.7257C42.829 34.8664 42.75 35.0571 42.75 35.256V38.256C42.75 38.455 42.829 38.6457 42.9697 38.7864C43.1103 38.927 43.3011 39.006 43.5 39.006ZM44.25 36.006H45.75V37.506H44.25V36.006Z" fill="#777777"/>
<path d="M73.5 39.006H76.5C76.6989 39.006 76.8897 38.927 77.0303 38.7864C77.171 38.6457 77.25 38.455 77.25 38.256V35.256C77.25 35.0571 77.171 34.8664 77.0303 34.7257C76.8897 34.5851 76.6989 34.506 76.5 34.506H73.5C73.3011 34.506 73.1103 34.5851 72.9697 34.7257C72.829 34.8664 72.75 35.0571 72.75 35.256V38.256C72.75 38.455 72.829 38.6457 72.9697 38.7864C73.1103 38.927 73.3011 39.006 73.5 39.006ZM74.25 36.006H75.75V37.506H74.25V36.006Z" fill="#777777"/>
</svg>
