<svg width="46" height="47" viewBox="0 0 46 47" fill="none" xmlns="http://www.w3.org/2000/svg">
<path d="M44.75 44.506H43.25V21.256C43.25 21.0571 43.171 20.8664 43.0303 20.7257C42.8897 20.5851 42.6989 20.506 42.5 20.506H34.25V13.006C34.25 12.8071 34.171 12.6164 34.0303 12.4757C33.8897 12.3351 33.6989 12.256 33.5 12.256H12.5C12.3011 12.256 12.1103 12.3351 11.9697 12.4757C11.829 12.6164 11.75 12.8071 11.75 13.006V20.506H3.5C3.30109 20.506 3.11032 20.5851 2.96967 20.7257C2.82902 20.8664 2.75 21.0571 2.75 21.256V44.506H1.25C1.05109 44.506 0.860322 44.5851 0.71967 44.7257C0.579018 44.8664 0.5 45.0571 0.5 45.256C0.5 45.455 0.579018 45.6457 0.71967 45.7864C0.860322 45.927 1.05109 46.006 1.25 46.006H44.75C44.9489 46.006 45.1397 45.927 45.2803 45.7864C45.421 45.6457 45.5 45.455 45.5 45.256C45.5 45.0571 45.421 44.8664 45.2803 44.7257C45.1397 44.5851 44.9489 44.506 44.75 44.506ZM11.75 44.506H4.25V22.006H11.75V44.506ZM22.25 44.506H19.25V34.756H22.25V44.506ZM26.75 44.506H23.75V34.756H26.75V44.506ZM32.75 21.256V44.506H28.25V34.756H29C29.1989 34.756 29.3897 34.677 29.5303 34.5364C29.671 34.3957 29.75 34.205 29.75 34.006C29.75 33.8071 29.671 33.6164 29.5303 33.4757C29.3897 33.3351 29.1989 33.256 29 33.256H17C16.8011 33.256 16.6103 33.3351 16.4697 33.4757C16.329 33.6164 16.25 33.8071 16.25 34.006C16.25 34.205 16.329 34.3957 16.4697 34.5364C16.6103 34.677 16.8011 34.756 17 34.756H17.75V44.506H13.25V13.756H32.75V21.256ZM41.75 44.506H34.25V22.006H41.75V44.506Z" fill="#777777"/>
<path d="M15.5 19.756H18.5C18.6989 19.756 18.8897 19.677 19.0303 19.5364C19.171 19.3957 19.25 19.205 19.25 19.006V16.006C19.25 15.8071 19.171 15.6164 19.0303 15.4757C18.8897 15.3351 18.6989 15.256 18.5 15.256H15.5C15.3011 15.256 15.1103 15.3351 14.9697 15.4757C14.829 15.6164 14.75 15.8071 14.75 16.006V19.006C14.75 19.205 14.829 19.3957 14.9697 19.5364C15.1103 19.677 15.3011 19.756 15.5 19.756ZM16.25 16.756H17.75V18.256H16.25V16.756Z" fill="#777777"/>
<path d="M21.5 19.756H24.5C24.6989 19.756 24.8897 19.677 25.0303 19.5364C25.171 19.3957 25.25 19.205 25.25 19.006V16.006C25.25 15.8071 25.171 15.6164 25.0303 15.4757C24.8897 15.3351 24.6989 15.256 24.5 15.256H21.5C21.3011 15.256 21.1103 15.3351 20.9697 15.4757C20.829 15.6164 20.75 15.8071 20.75 16.006V19.006C20.75 19.205 20.829 19.3957 20.9697 19.5364C21.1103 19.677 21.3011 19.756 21.5 19.756ZM22.25 16.756H23.75V18.256H22.25V16.756Z" fill="#777777"/>
<path d="M27.5 19.756H30.5C30.6989 19.756 30.8897 19.677 31.0303 19.5364C31.171 19.3957 31.25 19.205 31.25 19.006V16.006C31.25 15.8071 31.171 15.6164 31.0303 15.4757C30.8897 15.3351 30.6989 15.256 30.5 15.256H27.5C27.3011 15.256 27.1103 15.3351 26.9697 15.4757C26.829 15.6164 26.75 15.8071 26.75 16.006V19.006C26.75 19.205 26.829 19.3957 26.9697 19.5364C27.1103 19.677 27.3011 19.756 27.5 19.756ZM28.25 16.756H29.75V18.256H28.25V16.756Z" fill="#777777"/>
<path d="M15.5 25.756H18.5C18.6989 25.756 18.8897 25.677 19.0303 25.5364C19.171 25.3957 19.25 25.205 19.25 25.006V22.006C19.25 21.8071 19.171 21.6164 19.0303 21.4757C18.8897 21.3351 18.6989 21.256 18.5 21.256H15.5C15.3011 21.256 15.1103 21.3351 14.9697 21.4757C14.829 21.6164 14.75 21.8071 14.75 22.006V25.006C14.75 25.205 14.829 25.3957 14.9697 25.5364C15.1103 25.677 15.3011 25.756 15.5 25.756ZM16.25 22.756H17.75V24.256H16.25V22.756Z" fill="#777777"/>
<path d="M21.5 25.756H24.5C24.6989 25.756 24.8897 25.677 25.0303 25.5364C25.171 25.3957 25.25 25.205 25.25 25.006V22.006C25.25 21.8071 25.171 21.6164 25.0303 21.4757C24.8897 21.3351 24.6989 21.256 24.5 21.256H21.5C21.3011 21.256 21.1103 21.3351 20.9697 21.4757C20.829 21.6164 20.75 21.8071 20.75 22.006V25.006C20.75 25.205 20.829 25.3957 20.9697 25.5364C21.1103 25.677 21.3011 25.756 21.5 25.756ZM22.25 22.756H23.75V24.256H22.25V22.756Z" fill="#777777"/>
<path d="M27.5 25.756H30.5C30.6989 25.756 30.8897 25.677 31.0303 25.5364C31.171 25.3957 31.25 25.205 31.25 25.006V22.006C31.25 21.8071 31.171 21.6164 31.0303 21.4757C30.8897 21.3351 30.6989 21.256 30.5 21.256H27.5C27.3011 21.256 27.1103 21.3351 26.9697 21.4757C26.829 21.6164 26.75 21.8071 26.75 22.006V25.006C26.75 25.205 26.829 25.3957 26.9697 25.5364C27.1103 25.677 27.3011 25.756 27.5 25.756ZM28.25 22.756H29.75V24.256H28.25V22.756Z" fill="#777777"/>
<path d="M15.5 31.756H18.5C18.6989 31.756 18.8897 31.677 19.0303 31.5364C19.171 31.3957 19.25 31.205 19.25 31.006V28.006C19.25 27.8071 19.171 27.6164 19.0303 27.4757C18.8897 27.3351 18.6989 27.256 18.5 27.256H15.5C15.3011 27.256 15.1103 27.3351 14.9697 27.4757C14.829 27.6164 14.75 27.8071 14.75 28.006V31.006C14.75 31.205 14.829 31.3957 14.9697 31.5364C15.1103 31.677 15.3011 31.756 15.5 31.756ZM16.25 28.756H17.75V30.256H16.25V28.756Z" fill="#777777"/>
<path d="M21.5 31.756H24.5C24.6989 31.756 24.8897 31.677 25.0303 31.5364C25.171 31.3957 25.25 31.205 25.25 31.006V28.006C25.25 27.8071 25.171 27.6164 25.0303 27.4757C24.8897 27.3351 24.6989 27.256 24.5 27.256H21.5C21.3011 27.256 21.1103 27.3351 20.9697 27.4757C20.829 27.6164 20.75 27.8071 20.75 28.006V31.006C20.75 31.205 20.829 31.3957 20.9697 31.5364C21.1103 31.677 21.3011 31.756 21.5 31.756ZM22.25 28.756H23.75V30.256H22.25V28.756Z" fill="#777777"/>
<path d="M27.5 31.756H30.5C30.6989 31.756 30.8897 31.677 31.0303 31.5364C31.171 31.3957 31.25 31.205 31.25 31.006V28.006C31.25 27.8071 31.171 27.6164 31.0303 27.4757C30.8897 27.3351 30.6989 27.256 30.5 27.256H27.5C27.3011 27.256 27.1103 27.3351 26.9697 27.4757C26.829 27.6164 26.75 27.8071 26.75 28.006V31.006C26.75 31.205 26.829 31.3957 26.9697 31.5364C27.1103 31.677 27.3011 31.756 27.5 31.756ZM28.25 28.756H29.75V30.256H28.25V28.756Z" fill="#777777"/>
<path d="M20.4044 8.97554C20.2223 9.04814 20.0758 9.18921 19.9964 9.36852C19.917 9.54782 19.9109 9.7511 19.9796 9.93479C20.0482 10.1185 20.1861 10.268 20.3637 10.3513C20.5412 10.4345 20.7443 10.445 20.9294 10.3803C22.2634 9.87926 23.7339 9.87926 25.0679 10.3803C25.2531 10.445 25.4562 10.4345 25.6337 10.3513C25.8113 10.268 25.9491 10.1185 26.0178 9.93479C26.0864 9.7511 26.0804 9.54782 26.001 9.36852C25.9216 9.18921 25.7751 9.04814 25.5929 8.97554C23.9201 8.3493 22.0772 8.3493 20.4044 8.97554Z" fill="#777777"/>
<path d="M27.484 7.35254C27.6518 7.35241 27.8148 7.29598 27.9468 7.19227C28.0788 7.08857 28.1722 6.94359 28.212 6.78053C28.2518 6.61747 28.2358 6.44577 28.1665 6.29289C28.0972 6.14001 27.9786 6.0148 27.8297 5.93729C26.3372 5.16403 24.6807 4.76044 22.9997 4.76044C21.3187 4.76044 19.6623 5.16403 18.1697 5.93729C18.0795 5.98096 17.999 6.04226 17.9329 6.11758C17.8668 6.1929 17.8165 6.2807 17.7849 6.3758C17.7533 6.4709 17.741 6.57136 17.7489 6.67127C17.7568 6.77117 17.7846 6.86848 17.8307 6.95745C17.8768 7.04643 17.9403 7.12525 18.0174 7.18928C18.0945 7.25331 18.1836 7.30124 18.2796 7.33024C18.3755 7.35924 18.4762 7.36872 18.5759 7.35812C18.6755 7.34752 18.7721 7.31706 18.8597 7.26854C20.1391 6.60575 21.5589 6.25981 22.9997 6.25981C24.4406 6.25981 25.8604 6.60575 27.1397 7.26854C27.2461 7.32363 27.3642 7.35244 27.484 7.35254Z" fill="#777777"/>
<path d="M29.5915 4.34503C29.7555 4.34552 29.9152 4.29223 30.046 4.19332C30.1769 4.0944 30.2717 3.95532 30.3159 3.79737C30.3602 3.63942 30.3514 3.47132 30.291 3.31882C30.2306 3.16632 30.1219 3.03782 29.9815 2.95303C27.8779 1.67222 25.4625 0.994751 22.9997 0.994751C20.5369 0.994751 18.1215 1.67222 16.018 2.95303C15.8478 3.05626 15.7256 3.22287 15.6783 3.41619C15.6309 3.60952 15.6623 3.81373 15.7656 3.9839C15.8688 4.15407 16.0354 4.27626 16.2288 4.32359C16.4221 4.37092 16.6263 4.33951 16.7965 4.23628C18.6651 3.09732 20.8113 2.49481 22.9997 2.49481C25.1881 2.49481 27.3343 3.09732 29.203 4.23628C29.3201 4.30733 29.4545 4.34494 29.5915 4.34503Z" fill="#777777"/>
<path d="M6.5 28.006H9.5C9.69891 28.006 9.88968 27.927 10.0303 27.7864C10.171 27.6457 10.25 27.455 10.25 27.256V24.256C10.25 24.0571 10.171 23.8664 10.0303 23.7257C9.88968 23.5851 9.69891 23.506 9.5 23.506H6.5C6.30109 23.506 6.11032 23.5851 5.96967 23.7257C5.82902 23.8664 5.75 24.0571 5.75 24.256V27.256C5.75 27.455 5.82902 27.6457 5.96967 27.7864C6.11032 27.927 6.30109 28.006 6.5 28.006ZM7.25 25.006H8.75V26.506H7.25V25.006Z" fill="#777777"/>
<path d="M36.5 28.006H39.5C39.6989 28.006 39.8897 27.927 40.0303 27.7864C40.171 27.6457 40.25 27.455 40.25 27.256V24.256C40.25 24.0571 40.171 23.8664 40.0303 23.7257C39.8897 23.5851 39.6989 23.506 39.5 23.506H36.5C36.3011 23.506 36.1103 23.5851 35.9697 23.7257C35.829 23.8664 35.75 24.0571 35.75 24.256V27.256C35.75 27.455 35.829 27.6457 35.9697 27.7864C36.1103 27.927 36.3011 28.006 36.5 28.006ZM37.25 25.006H38.75V26.506H37.25V25.006Z" fill="#777777"/>
<path d="M6.5 34.006H9.5C9.69891 34.006 9.88968 33.927 10.0303 33.7864C10.171 33.6457 10.25 33.455 10.25 33.256V30.256C10.25 30.0571 10.171 29.8664 10.0303 29.7257C9.88968 29.5851 9.69891 29.506 9.5 29.506H6.5C6.30109 29.506 6.11032 29.5851 5.96967 29.7257C5.82902 29.8664 5.75 30.0571 5.75 30.256V33.256C5.75 33.455 5.82902 33.6457 5.96967 33.7864C6.11032 33.927 6.30109 34.006 6.5 34.006ZM7.25 31.006H8.75V32.506H7.25V31.006Z" fill="#777777"/>
<path d="M36.5 34.006H39.5C39.6989 34.006 39.8897 33.927 40.0303 33.7864C40.171 33.6457 40.25 33.455 40.25 33.256V30.256C40.25 30.0571 40.171 29.8664 40.0303 29.7257C39.8897 29.5851 39.6989 29.506 39.5 29.506H36.5C36.3011 29.506 36.1103 29.5851 35.9697 29.7257C35.829 29.8664 35.75 30.0571 35.75 30.256V33.256C35.75 33.455 35.829 33.6457 35.9697 33.7864C36.1103 33.927 36.3011 34.006 36.5 34.006ZM37.25 31.006H38.75V32.506H37.25V31.006Z" fill="#777777"/>
</svg>
