<svg width="120" height="127" viewBox="0 0 120 127" fill="none" xmlns="http://www.w3.org/2000/svg">
<path d="M4.96206 86.724C4.5794 86.724 4.16873 86.6633 3.73006 86.542C3.30073 86.4207 2.90406 86.2527 2.54006 86.038H2.52606L2.56806 86.626H1.49006V83.35H2.41406C2.5354 84.1153 2.8294 84.7033 3.29606 85.114C3.76273 85.5153 4.33206 85.716 5.00406 85.716C5.4894 85.716 5.89073 85.59 6.20806 85.338C6.5254 85.0767 6.68406 84.764 6.68406 84.4C6.68406 84.1013 6.57673 83.8447 6.36206 83.63C6.15673 83.4153 5.9234 83.2473 5.66206 83.126C5.41006 83.0047 5.00406 82.832 4.44406 82.608C3.4174 82.1973 2.62873 81.7307 2.07806 81.208C1.53673 80.6853 1.26606 79.9993 1.26606 79.15C1.26606 78.7207 1.3734 78.3053 1.58806 77.904C1.80273 77.4933 2.15273 77.1527 2.63806 76.882C3.13273 76.6113 3.7674 76.476 4.54206 76.476C4.9434 76.476 5.3634 76.5367 5.80206 76.658C6.24073 76.77 6.60473 76.9333 6.89406 77.148H6.90806L6.85206 76.574H7.94406V79.836H7.02006C6.89873 79.0707 6.62806 78.4873 6.20806 78.086C5.7974 77.6847 5.27006 77.484 4.62606 77.484C4.20606 77.484 3.84206 77.6007 3.53406 77.834C3.2354 78.058 3.08606 78.3427 3.08606 78.688C3.08606 79.0987 3.25873 79.444 3.60406 79.724C3.9494 80.004 4.53273 80.312 5.35406 80.648C6.29673 81.0213 7.06206 81.4553 7.65006 81.95C8.2474 82.4353 8.54606 83.084 8.54606 83.896C8.54606 84.4467 8.39673 84.9367 8.09806 85.366C7.7994 85.7953 7.3794 86.1313 6.83806 86.374C6.29673 86.6073 5.6714 86.724 4.96206 86.724ZM9.4822 85.59C9.83687 85.59 10.0609 85.492 10.1542 85.296C10.2569 85.1 10.3082 84.7827 10.3082 84.344V81.992C10.3082 81.572 10.3269 81.1753 10.3642 80.802L9.3842 80.844V79.78C9.9722 79.78 10.4482 79.738 10.8122 79.654C11.1762 79.57 11.4189 79.472 11.5402 79.36H12.2262C12.2262 79.3787 12.2449 79.612 12.2822 80.06H12.3102C12.5995 79.8267 12.9262 79.64 13.2902 79.5C13.6542 79.3507 14.0089 79.276 14.3542 79.276C14.7742 79.276 15.1242 79.3553 15.4042 79.514C15.6935 79.6633 15.9222 79.892 16.0902 80.2C16.4262 79.92 16.7995 79.696 17.2102 79.528C17.6209 79.36 18.0082 79.276 18.3722 79.276C19.1469 79.276 19.7209 79.5 20.0942 79.948C20.4769 80.396 20.6682 81.1427 20.6682 82.188V84.246C20.6682 84.694 20.6495 85.1047 20.6122 85.478C20.9109 85.45 21.2142 85.436 21.5222 85.436V86.5H17.9802V85.59C18.2789 85.59 18.4702 85.492 18.5542 85.296C18.6382 85.0907 18.6802 84.7733 18.6802 84.344V82.202C18.6709 81.614 18.5729 81.1987 18.3862 80.956C18.1995 80.704 17.9289 80.578 17.5742 80.578C17.1635 80.578 16.7622 80.732 16.3702 81.04C16.4542 81.4133 16.4962 81.8567 16.4962 82.37V84.246C16.4962 84.694 16.4775 85.1047 16.4402 85.478C16.7389 85.45 17.0422 85.436 17.3502 85.436V86.5H13.7382V85.59C14.0649 85.59 14.2749 85.492 14.3682 85.296C14.4615 85.1 14.5082 84.7827 14.5082 84.344L14.4942 82.16C14.4942 81.5813 14.4102 81.1753 14.2422 80.942C14.0742 80.6993 13.8222 80.5733 13.4862 80.564C13.0755 80.564 12.6789 80.7367 12.2962 81.082V84.246C12.2962 84.694 12.2775 85.1047 12.2402 85.478C12.5389 85.45 12.8189 85.436 13.0802 85.436V86.5H9.4822V85.59ZM24.1111 86.724C23.5231 86.724 23.0564 86.5513 22.7111 86.206C22.3751 85.8513 22.2071 85.4033 22.2071 84.862C22.2071 84.0407 22.5898 83.42 23.3551 83C24.1204 82.5707 25.0398 82.3327 26.1131 82.286V81.558C26.1131 80.7087 25.7958 80.284 25.1611 80.284C24.7504 80.284 24.4144 80.4147 24.1531 80.676C24.2651 80.8067 24.3211 80.984 24.3211 81.208C24.3211 81.432 24.2418 81.6327 24.0831 81.81C23.9338 81.9873 23.7098 82.076 23.4111 82.076C23.1311 82.076 22.9118 81.9873 22.7531 81.81C22.5944 81.6233 22.5151 81.3947 22.5151 81.124C22.5151 80.76 22.6458 80.438 22.9071 80.158C23.1684 79.878 23.5231 79.6633 23.9711 79.514C24.4284 79.3553 24.9278 79.276 25.4691 79.276C27.1958 79.276 28.0591 80.1673 28.0591 81.95L28.0451 84.246C28.0451 84.694 28.0264 85.1047 27.9891 85.478C28.2971 85.45 28.6004 85.436 28.8991 85.436V86.5H26.2531C26.2344 86.3787 26.2158 86.164 26.1971 85.856H26.1831C25.6138 86.4347 24.9231 86.724 24.1111 86.724ZM24.9931 85.352C25.4131 85.352 25.7818 85.184 26.0991 84.848V83.28C25.5484 83.336 25.0911 83.476 24.7271 83.7C24.3724 83.924 24.1951 84.2273 24.1951 84.61C24.1951 84.862 24.2698 85.0487 24.4191 85.17C24.5778 85.2913 24.7691 85.352 24.9931 85.352ZM29.7029 85.59C30.0576 85.59 30.2816 85.492 30.3749 85.296C30.4776 85.1 30.5289 84.7827 30.5289 84.344V81.992C30.5289 81.572 30.5476 81.1753 30.5849 80.802L29.6049 80.844V79.78C30.1929 79.78 30.6689 79.738 31.0329 79.654C31.3969 79.57 31.6396 79.472 31.7609 79.36H32.4469C32.4656 79.5 32.4796 79.682 32.4889 79.906C32.4982 80.13 32.5029 80.3493 32.5029 80.564H32.5309C33.1656 79.7053 33.8376 79.276 34.5469 79.276C34.9016 79.276 35.1909 79.374 35.4149 79.57C35.6482 79.766 35.7649 80.0553 35.7649 80.438C35.7649 80.6807 35.6856 80.9047 35.5269 81.11C35.3682 81.3153 35.1302 81.418 34.8129 81.418C34.5796 81.418 34.3696 81.3573 34.1829 81.236C34.0056 81.1147 33.9029 80.9047 33.8749 80.606C33.6136 80.606 33.3429 80.76 33.0629 81.068C32.7922 81.3667 32.6102 81.6653 32.5169 81.964V84.246C32.5169 84.694 32.4982 85.1047 32.4609 85.478C32.7596 85.45 33.0629 85.436 33.3709 85.436V86.5H29.7029V85.59ZM39.2015 86.724C37.7455 86.724 37.0175 85.828 37.0175 84.036L37.0455 80.662H36.0935V79.5C36.3921 79.5 36.6721 79.4067 36.9335 79.22C37.2041 79.0333 37.4328 78.8047 37.6195 78.534C37.8061 78.2633 37.9368 78.002 38.0115 77.75H39.0475L39.0335 79.5H40.8115V80.578L39.0335 80.62L39.0195 84.064C39.0195 84.9693 39.2995 85.422 39.8595 85.422C40.3075 85.422 40.7321 85.142 41.1335 84.582L41.8055 85.212C41.3668 85.856 40.9281 86.2713 40.4895 86.458C40.0508 86.6353 39.6215 86.724 39.2015 86.724ZM46.3244 81.684C46.2217 81.3947 46.1471 81.1753 46.1004 81.026C46.0537 80.8673 46.0117 80.704 45.9744 80.536L45.4284 80.564V79.5H48.7884V80.396C48.4244 80.4053 48.2424 80.6013 48.2424 80.984C48.2424 81.0773 48.2704 81.2453 48.3264 81.488L48.8024 83.196C48.9331 83.672 49.0311 84.1153 49.0964 84.526H49.1104C49.1291 84.4513 49.1664 84.274 49.2224 83.994C49.2784 83.714 49.3624 83.3873 49.4744 83.014L50.4964 79.5H52.0224L53.1424 83.364C53.2077 83.5973 53.3197 84.0173 53.4784 84.624H53.4924C53.5297 84.3533 53.6371 83.9473 53.8144 83.406L54.3604 81.628C54.4257 81.404 54.4911 81.2033 54.5564 81.026C54.6217 80.8393 54.6917 80.6713 54.7664 80.522V80.508L53.9684 80.564V79.5H56.6284V80.396C56.1337 80.396 55.7137 80.9 55.3684 81.908L53.7724 86.542H52.2884L51.3224 83.56C51.1731 83.0933 51.0097 82.5193 50.8324 81.838H50.8184C50.7157 82.398 50.5011 83.196 50.1744 84.232L49.4044 86.542H48.0184L46.3244 81.684ZM58.9334 86.724C58.3454 86.724 57.8787 86.5513 57.5334 86.206C57.1974 85.8513 57.0294 85.4033 57.0294 84.862C57.0294 84.0407 57.412 83.42 58.1774 83C58.9427 82.5707 59.862 82.3327 60.9354 82.286V81.558C60.9354 80.7087 60.618 80.284 59.9834 80.284C59.5727 80.284 59.2367 80.4147 58.9754 80.676C59.0874 80.8067 59.1434 80.984 59.1434 81.208C59.1434 81.432 59.064 81.6327 58.9054 81.81C58.756 81.9873 58.532 82.076 58.2334 82.076C57.9534 82.076 57.734 81.9873 57.5754 81.81C57.4167 81.6233 57.3374 81.3947 57.3374 81.124C57.3374 80.76 57.468 80.438 57.7294 80.158C57.9907 79.878 58.3454 79.6633 58.7934 79.514C59.2507 79.3553 59.75 79.276 60.2914 79.276C62.018 79.276 62.8814 80.1673 62.8814 81.95L62.8674 84.246C62.8674 84.694 62.8487 85.1047 62.8114 85.478C63.1194 85.45 63.4227 85.436 63.7214 85.436V86.5H61.0754C61.0567 86.3787 61.038 86.164 61.0194 85.856H61.0054C60.436 86.4347 59.7454 86.724 58.9334 86.724ZM59.8154 85.352C60.2354 85.352 60.604 85.184 60.9214 84.848V83.28C60.3707 83.336 59.9134 83.476 59.5494 83.7C59.1947 83.924 59.0174 84.2273 59.0174 84.61C59.0174 84.862 59.092 85.0487 59.2414 85.17C59.4 85.2913 59.5914 85.352 59.8154 85.352ZM65.8454 90.294C65.4814 90.294 65.1781 90.1867 64.9354 89.972C64.6928 89.7573 64.5714 89.482 64.5714 89.146C64.5714 88.8847 64.6554 88.656 64.8234 88.46C65.0008 88.2733 65.2201 88.18 65.4814 88.18C65.6868 88.18 65.8548 88.25 65.9854 88.39C66.1254 88.5393 66.1954 88.7307 66.1954 88.964C66.1954 89.0387 66.1908 89.0993 66.1814 89.146V89.16C66.3588 89.16 66.5548 88.936 66.7694 88.488C66.9934 88.04 67.1941 87.4987 67.3714 86.864L65.1594 82.426C64.9168 81.9593 64.7534 81.5953 64.6694 81.334C64.5854 81.0633 64.5248 80.7973 64.4874 80.536L63.8434 80.564V79.5H67.3294V80.396C66.9374 80.4427 66.7414 80.6247 66.7414 80.942C66.7414 81.1007 66.7881 81.2827 66.8814 81.488L68.2534 84.624H68.2674L68.5614 83.686C68.6641 83.3313 68.8601 82.7153 69.1494 81.838C69.3548 81.1847 69.5508 80.746 69.7374 80.522V80.508L68.9394 80.564V79.5H71.4314V80.396C71.1608 80.4613 70.9274 80.6293 70.7314 80.9C70.5354 81.1707 70.3581 81.5347 70.1994 81.992L68.4494 86.99C68.1694 87.8207 67.9128 88.4647 67.6794 88.922C67.4461 89.3793 67.1848 89.72 66.8954 89.944C66.6154 90.1773 66.2654 90.294 65.8454 90.294ZM72.0864 85.59C72.441 85.59 72.6697 85.492 72.7724 85.296C72.875 85.1 72.9264 84.7827 72.9264 84.344V80.648L71.9044 80.662V79.5H72.9264C73.029 77.12 74.2377 75.93 76.5524 75.93C77.355 75.93 77.9804 76.028 78.4284 76.224C78.8764 76.4107 79.1797 76.6253 79.3384 76.868C79.497 77.1107 79.5764 77.3393 79.5764 77.554C79.567 77.8247 79.483 78.0533 79.3244 78.24C79.175 78.4173 78.965 78.506 78.6944 78.506C78.433 78.506 78.223 78.4313 78.0644 78.282C77.9057 78.1233 77.8264 77.9227 77.8264 77.68C77.8264 77.5867 77.8404 77.484 77.8684 77.372C77.7844 77.2693 77.6397 77.1713 77.4344 77.078C77.2384 76.9753 76.9444 76.924 76.5524 76.924C75.871 76.924 75.4184 77.1247 75.1944 77.526C74.9797 77.9273 74.8724 78.4733 74.8724 79.164V79.5H76.0344H77.2384C77.7237 79.5 78.1017 79.4907 78.3724 79.472C78.643 79.4533 78.811 79.416 78.8764 79.36H79.6324V84.246C79.6324 84.694 79.6137 85.1047 79.5764 85.478C79.8844 85.45 80.1877 85.436 80.4864 85.436V86.5H76.8184V85.59C77.0704 85.59 77.2524 85.5433 77.3644 85.45C77.4857 85.3473 77.5604 85.212 77.5884 85.044C77.6257 84.876 77.6444 84.6427 77.6444 84.344V81.754C77.6444 81.3153 77.663 80.9093 77.7004 80.536L74.8864 80.606L74.9004 84.218C74.9004 84.6847 74.8817 85.1047 74.8444 85.478C75.1524 85.45 75.479 85.436 75.8244 85.436V86.5H72.0864V85.59ZM81.3963 85.59C81.7509 85.59 81.9749 85.492 82.0683 85.296C82.1709 85.1 82.2223 84.7827 82.2223 84.344V81.992C82.2223 81.572 82.2409 81.1753 82.2783 80.802L81.2983 80.844V79.78C81.8863 79.78 82.3623 79.738 82.7263 79.654C83.0903 79.57 83.3329 79.472 83.4543 79.36H84.1403C84.1403 79.3787 84.1589 79.612 84.1963 80.06H84.2243C84.4949 79.8453 84.8263 79.6633 85.2183 79.514C85.6196 79.3553 85.9603 79.276 86.2403 79.276C87.0896 79.276 87.6963 79.5187 88.0603 80.004C88.4243 80.4893 88.6063 81.278 88.6063 82.37V84.246C88.6063 84.694 88.5876 85.1047 88.5503 85.478C88.8583 85.45 89.1616 85.436 89.4603 85.436V86.5H85.7923V85.59C86.1469 85.59 86.3756 85.492 86.4783 85.296C86.5809 85.1 86.6323 84.7827 86.6323 84.344L86.6183 82.356C86.6183 81.74 86.5296 81.2873 86.3523 80.998C86.1843 80.7087 85.8949 80.564 85.4843 80.564C85.2603 80.564 85.0316 80.6153 84.7983 80.718C84.5649 80.8113 84.3689 80.9327 84.2103 81.082V84.246C84.2103 84.694 84.1916 85.1047 84.1543 85.478C84.4529 85.45 84.7563 85.436 85.0643 85.436V86.5H81.3963V85.59ZM92.9987 86.724C92.4387 86.724 91.944 86.5793 91.5147 86.29C91.0947 86.0007 90.7633 85.59 90.5207 85.058C90.2873 84.5167 90.1707 83.8913 90.1707 83.182C90.1707 82.4353 90.3153 81.768 90.6047 81.18C90.894 80.5827 91.3 80.116 91.8227 79.78C92.3547 79.444 92.9613 79.276 93.6427 79.276C94.0067 79.276 94.422 79.36 94.8887 79.528V78.604C94.8887 78.156 94.9073 77.7453 94.9447 77.372C94.6367 77.4 94.3053 77.414 93.9507 77.414V76.35C94.5387 76.35 95.0147 76.308 95.3787 76.224C95.7427 76.14 95.9853 76.042 96.1067 75.93H96.8627V84.246C96.8627 84.694 96.844 85.1047 96.8067 85.478C97.1147 85.45 97.418 85.436 97.7167 85.436V86.5H95.0567L94.9867 85.856H94.9727C94.422 86.4347 93.764 86.724 92.9987 86.724ZM93.7267 85.45C93.96 85.45 94.1793 85.3893 94.3847 85.268C94.59 85.1467 94.758 84.9833 94.8887 84.778V80.578C94.786 80.5033 94.6413 80.4427 94.4547 80.396C94.268 80.34 94.0813 80.312 93.8947 80.312C93.2973 80.3213 92.868 80.578 92.6067 81.082C92.3547 81.586 92.2287 82.216 92.2287 82.972C92.2287 83.644 92.35 84.2273 92.5927 84.722C92.8447 85.2073 93.2227 85.45 93.7267 85.45ZM100.611 78.114C100.293 78.114 100.032 78.0067 99.8265 77.792C99.6212 77.568 99.5185 77.2973 99.5185 76.98C99.5185 76.6627 99.6258 76.392 99.8405 76.168C100.055 75.9347 100.307 75.818 100.597 75.818C100.895 75.818 101.143 75.93 101.339 76.154C101.544 76.378 101.647 76.6533 101.647 76.98C101.647 77.3067 101.549 77.5773 101.353 77.792C101.166 78.0067 100.919 78.114 100.611 78.114ZM98.6365 85.59C98.9912 85.59 99.2152 85.492 99.3085 85.296C99.4112 85.1 99.4625 84.7827 99.4625 84.344V82.02C99.4625 81.5813 99.4812 81.1753 99.5185 80.802L98.5385 80.844V79.78C99.1265 79.78 99.6025 79.738 99.9665 79.654C100.331 79.57 100.573 79.472 100.695 79.36H101.451V84.246C101.451 84.694 101.432 85.1047 101.395 85.478C101.693 85.45 101.997 85.436 102.305 85.436V86.5H98.6365V85.59ZM103.217 85.59C103.571 85.59 103.795 85.492 103.889 85.296C103.991 85.1 104.043 84.7827 104.043 84.344V81.992C104.043 81.572 104.061 81.1753 104.099 80.802L103.119 80.844V79.78C103.707 79.78 104.183 79.738 104.547 79.654C104.911 79.57 105.153 79.472 105.275 79.36H105.961C105.961 79.3787 105.979 79.612 106.017 80.06H106.045C106.315 79.8453 106.647 79.6633 107.039 79.514C107.44 79.3553 107.781 79.276 108.061 79.276C108.91 79.276 109.517 79.5187 109.881 80.004C110.245 80.4893 110.427 81.278 110.427 82.37V84.246C110.427 84.694 110.408 85.1047 110.371 85.478C110.679 85.45 110.982 85.436 111.281 85.436V86.5H107.613V85.59C107.967 85.59 108.196 85.492 108.299 85.296C108.401 85.1 108.453 84.7827 108.453 84.344L108.439 82.356C108.439 81.74 108.35 81.2873 108.173 80.998C108.005 80.7087 107.715 80.564 107.305 80.564C107.081 80.564 106.852 80.6153 106.619 80.718C106.385 80.8113 106.189 80.9327 106.031 81.082V84.246C106.031 84.694 106.012 85.1047 105.975 85.478C106.273 85.45 106.577 85.436 106.885 85.436V86.5H103.217V85.59ZM115.127 90.294C113.998 90.294 113.181 90.1213 112.677 89.776C112.182 89.4307 111.935 88.992 111.935 88.46C111.935 88.1333 112.038 87.8253 112.243 87.536C112.458 87.256 112.798 87.0273 113.265 86.85C112.901 86.7473 112.635 86.5887 112.467 86.374C112.308 86.1593 112.229 85.9073 112.229 85.618C112.229 85.338 112.336 85.0533 112.551 84.764C112.775 84.4747 113.12 84.26 113.587 84.12V84.106C113.167 83.938 112.831 83.6767 112.579 83.322C112.336 82.958 112.215 82.5287 112.215 82.034C112.215 81.5113 112.36 81.04 112.649 80.62C112.948 80.2 113.335 79.8733 113.811 79.64C114.296 79.3973 114.805 79.276 115.337 79.276C115.617 79.276 115.911 79.3133 116.219 79.388C116.527 79.4533 116.788 79.5607 117.003 79.71C117.18 79.2247 117.418 78.8233 117.717 78.506C118.016 78.1793 118.37 78.016 118.781 78.016C119.089 78.016 119.327 78.0953 119.495 78.254C119.663 78.4127 119.747 78.632 119.747 78.912C119.747 79.1267 119.677 79.3227 119.537 79.5C119.406 79.6773 119.196 79.766 118.907 79.766C118.758 79.766 118.608 79.7147 118.459 79.612C118.319 79.5 118.235 79.3693 118.207 79.22C118.086 79.2573 117.964 79.3787 117.843 79.584C117.722 79.78 117.652 79.962 117.633 80.13C117.894 80.3633 118.095 80.634 118.235 80.942C118.384 81.25 118.459 81.5813 118.459 81.936C118.459 82.4587 118.31 82.9347 118.011 83.364C117.712 83.784 117.32 84.1153 116.835 84.358C116.35 84.5913 115.832 84.708 115.281 84.708L114.889 84.694C114.684 84.6753 114.534 84.666 114.441 84.666C114.236 84.666 114.063 84.7033 113.923 84.778C113.783 84.8527 113.713 84.9553 113.713 85.086C113.713 85.254 113.839 85.3753 114.091 85.45C114.352 85.5153 114.824 85.5667 115.505 85.604C116.681 85.6693 117.572 85.8653 118.179 86.192C118.786 86.5187 119.089 87.0647 119.089 87.83C119.089 88.334 118.893 88.7727 118.501 89.146C118.118 89.5193 117.619 89.804 117.003 90C116.396 90.196 115.771 90.294 115.127 90.294ZM115.337 83.77C115.692 83.77 115.972 83.6113 116.177 83.294C116.392 82.9767 116.499 82.608 116.499 82.188C116.499 81.656 116.396 81.194 116.191 80.802C115.986 80.41 115.696 80.214 115.323 80.214C114.968 80.214 114.684 80.3773 114.469 80.704C114.254 81.0307 114.147 81.418 114.147 81.866C114.147 82.3887 114.254 82.8367 114.469 83.21C114.684 83.5833 114.973 83.77 115.337 83.77ZM115.533 89.328C115.953 89.328 116.312 89.272 116.611 89.16C116.919 89.048 117.152 88.9033 117.311 88.726C117.47 88.558 117.549 88.3853 117.549 88.208C117.549 87.9187 117.381 87.6993 117.045 87.55C116.718 87.4007 116.214 87.312 115.533 87.284C115.458 87.2747 115.337 87.27 115.169 87.27C115.076 87.2607 114.912 87.2467 114.679 87.228C114.446 87.2187 114.254 87.2 114.105 87.172C113.965 87.284 113.853 87.4287 113.769 87.606C113.694 87.7833 113.657 87.9607 113.657 88.138C113.657 88.502 113.825 88.7913 114.161 89.006C114.506 89.2207 114.964 89.328 115.533 89.328ZM32.9844 104.724C32.5831 104.724 32.1911 104.673 31.8084 104.57C31.4258 104.467 31.1271 104.337 30.9124 104.178H30.8984L30.9404 104.598H29.8764L29.8204 102.19H30.7304C30.7771 102.619 31.0011 102.983 31.4024 103.282C31.8131 103.571 32.3124 103.716 32.9004 103.716C33.1618 103.716 33.3858 103.655 33.5724 103.534C33.7684 103.413 33.8664 103.24 33.8664 103.016C33.8664 102.848 33.8058 102.708 33.6844 102.596C33.5631 102.484 33.4184 102.391 33.2504 102.316C33.0824 102.241 32.7464 102.106 32.2424 101.91C31.6451 101.677 31.1971 101.485 30.8984 101.336C30.5998 101.187 30.3291 100.967 30.0864 100.678C29.8531 100.379 29.7364 99.9967 29.7364 99.53C29.7364 99.1473 29.8298 98.788 30.0164 98.452C30.2124 98.1067 30.5064 97.8267 30.8984 97.612C31.2998 97.388 31.7898 97.276 32.3684 97.276C32.6391 97.276 32.9331 97.318 33.2504 97.402C33.5678 97.486 33.8338 97.6027 34.0484 97.752H34.0624L34.0484 97.346H35.1124V99.824H34.2024C34.1184 99.3387 33.9038 98.956 33.5584 98.676C33.2131 98.396 32.7884 98.256 32.2844 98.256C32.0231 98.256 31.8038 98.3167 31.6264 98.438C31.4491 98.5593 31.3604 98.746 31.3604 98.998C31.3604 99.2593 31.4631 99.4553 31.6684 99.586C31.8738 99.7073 32.2191 99.8473 32.7044 100.006C32.7604 100.015 32.8818 100.053 33.0684 100.118C33.8618 100.398 34.4684 100.725 34.8884 101.098C35.3178 101.471 35.5324 101.961 35.5324 102.568C35.5324 103.035 35.4111 103.431 35.1684 103.758C34.9351 104.075 34.6224 104.318 34.2304 104.486C33.8478 104.645 33.4324 104.724 32.9844 104.724ZM39.9894 104.724C39.308 104.724 38.6967 104.579 38.1554 104.29C37.614 104.001 37.1894 103.585 36.8814 103.044C36.5734 102.503 36.4194 101.873 36.4194 101.154C36.4194 100.398 36.578 99.726 36.8954 99.138C37.2127 98.55 37.6374 98.0927 38.1694 97.766C38.7107 97.4393 39.3034 97.276 39.9474 97.276C40.6194 97.276 41.2214 97.4207 41.7534 97.71C42.2854 97.9993 42.7054 98.4193 43.0134 98.97C43.3214 99.5113 43.4754 100.146 43.4754 100.874C43.4754 101.649 43.326 102.325 43.0274 102.904C42.738 103.483 42.3274 103.931 41.7954 104.248C41.2727 104.565 40.6707 104.724 39.9894 104.724ZM40.0174 103.73C40.5307 103.73 40.89 103.492 41.0954 103.016C41.3007 102.54 41.4034 101.943 41.4034 101.224C41.4034 100.421 41.2867 99.726 41.0534 99.138C40.82 98.55 40.4514 98.256 39.9474 98.256C39.434 98.256 39.0607 98.4987 38.8274 98.984C38.594 99.4693 38.4774 100.067 38.4774 100.776C38.4774 101.588 38.6034 102.283 38.8554 102.862C39.1074 103.441 39.4947 103.73 40.0174 103.73ZM44.2104 103.59C44.4624 103.59 44.6444 103.543 44.7564 103.45C44.8777 103.347 44.9524 103.212 44.9804 103.044C45.0177 102.876 45.0364 102.643 45.0364 102.344V96.59C45.0364 96.142 45.055 95.736 45.0924 95.372L44.1124 95.414V94.35C44.7004 94.35 45.1764 94.308 45.5404 94.224C45.9044 94.14 46.147 94.042 46.2684 93.93H47.0244V102.246C47.0244 102.694 47.0057 103.105 46.9684 103.478C47.2764 103.45 47.5797 103.436 47.8784 103.436V104.5H44.2104V103.59ZM51.6937 104.724C50.863 104.724 50.2657 104.481 49.9017 103.996C49.547 103.511 49.3697 102.722 49.3697 101.63V100.02C49.3697 99.628 49.3837 99.222 49.4117 98.802L48.4317 98.844V97.78C49.0197 97.78 49.4957 97.738 49.8597 97.654C50.2237 97.57 50.4663 97.472 50.5877 97.36H51.3577V101.644C51.3577 102.26 51.437 102.713 51.5957 103.002C51.7543 103.291 52.0063 103.436 52.3517 103.436C52.585 103.436 52.823 103.371 53.0657 103.24C53.3177 103.109 53.5277 102.951 53.6957 102.764V100.02C53.6957 99.5813 53.7143 99.1753 53.7517 98.802L52.7717 98.844V97.78C53.3597 97.78 53.831 97.738 54.1857 97.654C54.5497 97.57 54.7923 97.472 54.9137 97.36H55.6837V102.246C55.6837 102.694 55.665 103.105 55.6277 103.478C55.9263 103.45 56.2297 103.436 56.5377 103.436V104.5H53.8777L53.7937 103.772H53.7797C53.4343 104.071 53.0983 104.304 52.7717 104.472C52.4543 104.64 52.095 104.724 51.6937 104.724ZM60.1673 104.724C58.7113 104.724 57.9833 103.828 57.9833 102.036L58.0113 98.662H57.0593V97.5C57.358 97.5 57.638 97.4067 57.8993 97.22C58.17 97.0333 58.3986 96.8047 58.5853 96.534C58.772 96.2633 58.9026 96.002 58.9773 95.75H60.0133L59.9993 97.5H61.7773V98.578L59.9993 98.62L59.9853 102.064C59.9853 102.969 60.2653 103.422 60.8253 103.422C61.2733 103.422 61.698 103.142 62.0993 102.582L62.7713 103.212C62.3326 103.856 61.894 104.271 61.4553 104.458C61.0166 104.635 60.5873 104.724 60.1673 104.724ZM65.1525 96.114C64.8352 96.114 64.5738 96.0067 64.3685 95.792C64.1632 95.568 64.0605 95.2973 64.0605 94.98C64.0605 94.6627 64.1678 94.392 64.3825 94.168C64.5972 93.9347 64.8492 93.818 65.1385 93.818C65.4372 93.818 65.6845 93.93 65.8805 94.154C66.0858 94.378 66.1885 94.6533 66.1885 94.98C66.1885 95.3067 66.0905 95.5773 65.8945 95.792C65.7078 96.0067 65.4605 96.114 65.1525 96.114ZM63.1785 103.59C63.5332 103.59 63.7572 103.492 63.8505 103.296C63.9532 103.1 64.0045 102.783 64.0045 102.344V100.02C64.0045 99.5813 64.0232 99.1753 64.0605 98.802L63.0805 98.844V97.78C63.6685 97.78 64.1445 97.738 64.5085 97.654C64.8725 97.57 65.1152 97.472 65.2365 97.36H65.9925V102.246C65.9925 102.694 65.9738 103.105 65.9365 103.478C66.2352 103.45 66.5385 103.436 66.8465 103.436V104.5H63.1785V103.59ZM71.1886 104.724C70.5072 104.724 69.8959 104.579 69.3546 104.29C68.8132 104.001 68.3886 103.585 68.0806 103.044C67.7726 102.503 67.6186 101.873 67.6186 101.154C67.6186 100.398 67.7772 99.726 68.0946 99.138C68.4119 98.55 68.8366 98.0927 69.3686 97.766C69.9099 97.4393 70.5026 97.276 71.1466 97.276C71.8186 97.276 72.4206 97.4207 72.9526 97.71C73.4846 97.9993 73.9046 98.4193 74.2126 98.97C74.5206 99.5113 74.6746 100.146 74.6746 100.874C74.6746 101.649 74.5252 102.325 74.2266 102.904C73.9372 103.483 73.5266 103.931 72.9946 104.248C72.4719 104.565 71.8699 104.724 71.1886 104.724ZM71.2166 103.73C71.7299 103.73 72.0892 103.492 72.2946 103.016C72.4999 102.54 72.6026 101.943 72.6026 101.224C72.6026 100.421 72.4859 99.726 72.2526 99.138C72.0192 98.55 71.6506 98.256 71.1466 98.256C70.6332 98.256 70.2599 98.4987 70.0266 98.984C69.7932 99.4693 69.6766 100.067 69.6766 100.776C69.6766 101.588 69.8026 102.283 70.0546 102.862C70.3066 103.441 70.6939 103.73 71.2166 103.73ZM75.6883 103.59C76.0429 103.59 76.2669 103.492 76.3603 103.296C76.4629 103.1 76.5143 102.783 76.5143 102.344V99.992C76.5143 99.572 76.5329 99.1753 76.5703 98.802L75.5903 98.844V97.78C76.1783 97.78 76.6543 97.738 77.0183 97.654C77.3823 97.57 77.6249 97.472 77.7463 97.36H78.4323C78.4323 97.3787 78.4509 97.612 78.4883 98.06H78.5163C78.7869 97.8453 79.1183 97.6633 79.5103 97.514C79.9116 97.3553 80.2523 97.276 80.5323 97.276C81.3816 97.276 81.9883 97.5187 82.3523 98.004C82.7163 98.4893 82.8983 99.278 82.8983 100.37V102.246C82.8983 102.694 82.8796 103.105 82.8423 103.478C83.1503 103.45 83.4536 103.436 83.7523 103.436V104.5H80.0843V103.59C80.4389 103.59 80.6676 103.492 80.7703 103.296C80.8729 103.1 80.9243 102.783 80.9243 102.344L80.9103 100.356C80.9103 99.74 80.8216 99.2873 80.6443 98.998C80.4763 98.7087 80.1869 98.564 79.7763 98.564C79.5523 98.564 79.3236 98.6153 79.0903 98.718C78.8569 98.8113 78.6609 98.9327 78.5023 99.082V102.246C78.5023 102.694 78.4836 103.105 78.4463 103.478C78.7449 103.45 79.0483 103.436 79.3563 103.436V104.5H75.6883V103.59ZM87.8086 104.724C87.4073 104.724 87.0153 104.673 86.6326 104.57C86.25 104.467 85.9513 104.337 85.7366 104.178H85.7226L85.7646 104.598H84.7006L84.6446 102.19H85.5546C85.6013 102.619 85.8253 102.983 86.2266 103.282C86.6373 103.571 87.1366 103.716 87.7246 103.716C87.986 103.716 88.21 103.655 88.3966 103.534C88.5926 103.413 88.6906 103.24 88.6906 103.016C88.6906 102.848 88.63 102.708 88.5086 102.596C88.3873 102.484 88.2426 102.391 88.0746 102.316C87.9066 102.241 87.5706 102.106 87.0666 101.91C86.4693 101.677 86.0213 101.485 85.7226 101.336C85.424 101.187 85.1533 100.967 84.9106 100.678C84.6773 100.379 84.5606 99.9967 84.5606 99.53C84.5606 99.1473 84.654 98.788 84.8406 98.452C85.0366 98.1067 85.3306 97.8267 85.7226 97.612C86.124 97.388 86.614 97.276 87.1926 97.276C87.4633 97.276 87.7573 97.318 88.0746 97.402C88.392 97.486 88.658 97.6027 88.8726 97.752H88.8866L88.8726 97.346H89.9366V99.824H89.0266C88.9426 99.3387 88.728 98.956 88.3826 98.676C88.0373 98.396 87.6126 98.256 87.1086 98.256C86.8473 98.256 86.628 98.3167 86.4506 98.438C86.2733 98.5593 86.1846 98.746 86.1846 98.998C86.1846 99.2593 86.2873 99.4553 86.4926 99.586C86.698 99.7073 87.0433 99.8473 87.5286 100.006C87.5846 100.015 87.706 100.053 87.8926 100.118C88.686 100.398 89.2926 100.725 89.7126 101.098C90.142 101.471 90.3566 101.961 90.3566 102.568C90.3566 103.035 90.2353 103.431 89.9926 103.758C89.7593 104.075 89.4466 104.318 89.0546 104.486C88.672 104.645 88.2566 104.724 87.8086 104.724Z" fill="#777777"/>
<g clip-path="url(#clip0_1_298)">
<path d="M57.5171 9.18357H66.4277C66.7812 9.18357 67.0674 8.89135 67.0674 8.53093C67.0674 8.17051 66.7812 7.87878 66.4277 7.87878H57.5171C57.1631 7.87878 56.877 8.17051 56.877 8.53093C56.877 8.89135 57.1631 9.18357 57.5171 9.18357Z" fill="#777777"/>
<path d="M70.8325 11.6279H57.5171C57.1631 11.6279 56.877 11.9201 56.877 12.2805C56.877 12.6409 57.1631 12.9326 57.5171 12.9326H70.8325C71.186 12.9326 71.4727 12.6409 71.4727 12.2805C71.4727 11.9201 71.186 11.6279 70.8325 11.6279Z" fill="#777777"/>
<path d="M49.2393 7.43776C49.002 7.17143 48.5977 7.15202 48.335 7.39495C48.0738 7.63789 48.0553 8.05008 48.293 8.31691L50.1607 10.4058L48.293 12.4946C48.0553 12.7614 48.0738 13.1736 48.335 13.4166C48.4581 13.5306 48.6119 13.5868 48.7662 13.5868C48.94 13.5868 49.1134 13.5151 49.2393 13.3737L51.4996 10.8453C51.7218 10.5964 51.7218 10.2151 51.4996 9.96618L49.2393 7.43776Z" fill="#777777"/>
<path d="M57.5171 25.1546H66.4277C66.7812 25.1546 67.0674 24.8624 67.0674 24.5019C67.0674 24.1415 66.7812 23.8493 66.4277 23.8493H57.5171C57.1631 23.8493 56.877 24.1415 56.877 24.5019C56.877 24.8624 57.1631 25.1546 57.5171 25.1546Z" fill="#777777"/>
<path d="M70.8325 27.5989H57.5171C57.1631 27.5989 56.877 27.8911 56.877 28.2515C56.877 28.6119 57.1631 28.9037 57.5171 28.9037H70.8325C71.186 28.9037 71.4727 28.6119 71.4727 28.2515C71.4727 27.8911 71.186 27.5989 70.8325 27.5989Z" fill="#777777"/>
<path d="M51.5889 23.4779C51.3389 23.223 50.9336 23.223 50.6836 23.4779L48.2036 26.0063C47.9536 26.2612 47.9536 26.6744 48.2036 26.9293L50.6836 29.4577C50.8086 29.5851 50.9727 29.6489 51.1362 29.6489C51.2998 29.6489 51.4639 29.5851 51.5889 29.4577C51.8389 29.2028 51.8389 28.7896 51.5889 28.5347L49.561 26.4678L51.5889 24.4009C51.8389 24.146 51.8389 23.7328 51.5889 23.4779Z" fill="#777777"/>
<path d="M57.5171 41.6617H66.4277C66.7812 41.6617 67.0674 41.3695 67.0674 41.0091C67.0674 40.6487 66.7812 40.3564 66.4277 40.3564H57.5171C57.1631 40.3564 56.877 40.6487 56.877 41.0091C56.877 41.3695 57.1631 41.6617 57.5171 41.6617Z" fill="#777777"/>
<path d="M70.8325 44.106H57.5171C57.1631 44.106 56.877 44.3982 56.877 44.7587C56.877 45.1191 57.1631 45.4108 57.5171 45.4108H70.8325C71.186 45.4108 71.4727 45.1191 71.4727 44.7587C71.4727 44.3982 71.186 44.106 70.8325 44.106Z" fill="#777777"/>
<path d="M51.5889 39.9851C51.3389 39.7302 50.9336 39.7302 50.6836 39.9851L48.2036 42.5135C47.9536 42.7684 47.9536 43.1811 48.2036 43.436L50.6836 45.9644C50.8086 46.0918 50.9727 46.1556 51.1362 46.1556C51.2998 46.1556 51.4639 46.0918 51.5889 45.9644C51.8389 45.7095 51.8389 45.2968 51.5889 45.0419L49.561 42.9745L51.5889 40.9076C51.8389 40.6527 51.8389 40.24 51.5889 39.9851Z" fill="#777777"/>
<path d="M84.5601 54.3949H72.125V49.8802H75.3989C75.7524 49.8802 76.0386 49.588 76.0386 49.2281V36.7214C76.0386 36.361 75.7524 36.0687 75.3989 36.0687H72.125V33.3736H75.3989C75.7524 33.3736 76.0386 33.0813 76.0386 32.7209V20.2147C76.0386 19.8543 75.7524 19.5621 75.3989 19.5621H72.125V17.312H75.3989C75.7524 17.312 76.0386 17.0197 76.0386 16.6593V4.15264C76.0386 3.79222 75.7524 3.5 75.3989 3.5H43.8013C43.4473 3.5 43.1611 3.79222 43.1611 4.15264V16.6593C43.1611 17.0197 43.4473 17.312 43.8013 17.312H47.0752V19.5621H43.8013C43.4473 19.5621 43.1611 19.8543 43.1611 20.2147V32.7209C43.1611 33.0813 43.4473 33.3736 43.8013 33.3736H47.0752V36.0687H43.8013C43.4473 36.0687 43.1611 36.361 43.1611 36.7214V49.2281C43.1611 49.588 43.4473 49.8802 43.8013 49.8802H47.0752V54.3949H34.6401C34.2861 54.3949 34 54.6871 34 55.0476C34 55.408 34.2861 55.7002 34.6401 55.7002H84.5601C84.9136 55.7002 85.2002 55.408 85.2002 55.0476C85.2002 54.6871 84.9136 54.3949 84.5601 54.3949ZM44.4414 4.80478H74.7588V16.0067H44.4414V4.80478ZM48.355 17.312H70.8452V19.5621H48.355V17.312ZM44.4414 20.8669H74.7588V32.0688H44.4414V20.8669ZM48.355 33.3736H70.8452V36.0687H48.355V33.3736ZM44.4414 37.374H74.7588V48.5754H44.4414V37.374ZM48.355 49.8802H70.8452V54.3949H48.355V49.8802Z" fill="#777777"/>
</g>
<defs>
<clipPath id="clip0_1_298">
<rect width="51.2" height="52.2" fill="white" transform="translate(34 3.5)"/>
</clipPath>
</defs>
</svg>
