<svg width="120" height="127" viewBox="0 0 120 127" fill="none" xmlns="http://www.w3.org/2000/svg">
<path d="M20.3133 85.576C20.5653 85.5667 20.7566 85.5387 20.8873 85.492C21.0179 85.436 21.1206 85.324 21.1953 85.156C21.2699 84.988 21.3073 84.722 21.3073 84.358V78.996C21.3073 78.4733 21.3259 78.0533 21.3633 77.736L20.3133 77.778V76.7H24.3313V77.624C24.0793 77.6333 23.8879 77.666 23.7573 77.722C23.6266 77.7687 23.5239 77.876 23.4493 78.044C23.3746 78.212 23.3373 78.478 23.3373 78.842V84.204C23.3373 84.7267 23.3186 85.1467 23.2813 85.464C23.5799 85.436 23.9299 85.422 24.3313 85.422V86.5H20.3133V85.576ZM25.451 85.59C25.8056 85.59 26.0296 85.492 26.123 85.296C26.2256 85.1 26.277 84.7827 26.277 84.344V81.992C26.277 81.572 26.2956 81.1753 26.333 80.802L25.353 80.844V79.78C25.941 79.78 26.417 79.738 26.781 79.654C27.145 79.57 27.3876 79.472 27.509 79.36H28.195C28.195 79.3787 28.2136 79.612 28.251 80.06H28.279C28.5496 79.8453 28.881 79.6633 29.273 79.514C29.6743 79.3553 30.015 79.276 30.295 79.276C31.1443 79.276 31.751 79.5187 32.115 80.004C32.479 80.4893 32.661 81.278 32.661 82.37V84.246C32.661 84.694 32.6423 85.1047 32.605 85.478C32.913 85.45 33.2163 85.436 33.515 85.436V86.5H29.847V85.59C30.2016 85.59 30.4303 85.492 30.533 85.296C30.6356 85.1 30.687 84.7827 30.687 84.344L30.673 82.356C30.673 81.74 30.5843 81.2873 30.407 80.998C30.239 80.7087 29.9496 80.564 29.539 80.564C29.315 80.564 29.0863 80.6153 28.853 80.718C28.6196 80.8113 28.4236 80.9327 28.265 81.082V84.246C28.265 84.694 28.2463 85.1047 28.209 85.478C28.5076 85.45 28.811 85.436 29.119 85.436V86.5H25.451V85.59ZM34.3683 81.348H39.5203V82.818L34.3683 82.86V81.348ZM44.1221 86.724C43.4875 86.724 42.9088 86.584 42.3861 86.304C41.8635 86.0147 41.4481 85.604 41.1401 85.072C40.8321 84.5307 40.6781 83.8913 40.6781 83.154C40.6781 82.454 40.8321 81.81 41.1401 81.222C41.4481 80.6247 41.8775 80.1533 42.4281 79.808C42.9881 79.4533 43.6181 79.276 44.3181 79.276C44.8875 79.276 45.3728 79.3647 45.7741 79.542C46.1848 79.7193 46.4928 79.9573 46.6981 80.256C46.9035 80.5453 47.0061 80.858 47.0061 81.194C47.0061 81.4833 46.9175 81.7307 46.7401 81.936C46.5721 82.1413 46.3388 82.244 46.0401 82.244C45.7321 82.244 45.4988 82.1507 45.3401 81.964C45.1908 81.7773 45.1161 81.5673 45.1161 81.334C45.1161 81.1193 45.1721 80.914 45.2841 80.718C45.2001 80.55 45.0648 80.4333 44.8781 80.368C44.6915 80.2933 44.5048 80.256 44.3181 80.256C43.8421 80.256 43.4548 80.4753 43.1561 80.914C42.8668 81.3433 42.7221 81.9547 42.7221 82.748C42.7221 83.5413 42.8761 84.1947 43.1841 84.708C43.4921 85.2213 43.9775 85.478 44.6401 85.478C45.0135 85.478 45.3821 85.38 45.7461 85.184C46.1101 84.988 46.4181 84.7267 46.6701 84.4L47.3141 85.03C46.8475 85.674 46.3481 86.1173 45.8161 86.36C45.2841 86.6027 44.7195 86.724 44.1221 86.724ZM51.4942 86.724C50.8129 86.724 50.2016 86.5793 49.6602 86.29C49.1189 86.0007 48.6942 85.5853 48.3862 85.044C48.0782 84.5027 47.9242 83.8727 47.9242 83.154C47.9242 82.398 48.0829 81.726 48.4002 81.138C48.7176 80.55 49.1422 80.0927 49.6742 79.766C50.2156 79.4393 50.8082 79.276 51.4522 79.276C52.1242 79.276 52.7262 79.4207 53.2582 79.71C53.7902 79.9993 54.2102 80.4193 54.5182 80.97C54.8262 81.5113 54.9802 82.146 54.9802 82.874C54.9802 83.6487 54.8309 84.3253 54.5322 84.904C54.2429 85.4827 53.8322 85.9307 53.3002 86.248C52.7776 86.5653 52.1756 86.724 51.4942 86.724ZM51.5222 85.73C52.0356 85.73 52.3949 85.492 52.6002 85.016C52.8056 84.54 52.9082 83.9427 52.9082 83.224C52.9082 82.4213 52.7916 81.726 52.5582 81.138C52.3249 80.55 51.9562 80.256 51.4522 80.256C50.9389 80.256 50.5656 80.4987 50.3322 80.984C50.0989 81.4693 49.9822 82.0667 49.9822 82.776C49.9822 83.588 50.1082 84.2833 50.3602 84.862C50.6122 85.4407 50.9996 85.73 51.5222 85.73ZM55.9939 85.59C56.3486 85.59 56.5726 85.492 56.6659 85.296C56.7686 85.1 56.8199 84.7827 56.8199 84.344V81.992C56.8199 81.572 56.8386 81.1753 56.8759 80.802L55.8959 80.844V79.78C56.4839 79.78 56.9599 79.738 57.3239 79.654C57.6879 79.57 57.9306 79.472 58.0519 79.36H58.7379C58.7379 79.3787 58.7566 79.612 58.7939 80.06H58.8219C59.1113 79.8267 59.4379 79.64 59.8019 79.5C60.1659 79.3507 60.5206 79.276 60.8659 79.276C61.2859 79.276 61.6359 79.3553 61.9159 79.514C62.2053 79.6633 62.4339 79.892 62.6019 80.2C62.9379 79.92 63.3113 79.696 63.7219 79.528C64.1326 79.36 64.5199 79.276 64.8839 79.276C65.6586 79.276 66.2326 79.5 66.6059 79.948C66.9886 80.396 67.1799 81.1427 67.1799 82.188V84.246C67.1799 84.694 67.1613 85.1047 67.1239 85.478C67.4226 85.45 67.7259 85.436 68.0339 85.436V86.5H64.4919V85.59C64.7906 85.59 64.9819 85.492 65.0659 85.296C65.1499 85.0907 65.1919 84.7733 65.1919 84.344V82.202C65.1826 81.614 65.0846 81.1987 64.8979 80.956C64.7113 80.704 64.4406 80.578 64.0859 80.578C63.6753 80.578 63.2739 80.732 62.8819 81.04C62.9659 81.4133 63.0079 81.8567 63.0079 82.37V84.246C63.0079 84.694 62.9893 85.1047 62.9519 85.478C63.2506 85.45 63.5539 85.436 63.8619 85.436V86.5H60.2499V85.59C60.5766 85.59 60.7866 85.492 60.8799 85.296C60.9733 85.1 61.0199 84.7827 61.0199 84.344L61.0059 82.16C61.0059 81.5813 60.9219 81.1753 60.7539 80.942C60.5859 80.6993 60.3339 80.5733 59.9979 80.564C59.5873 80.564 59.1906 80.7367 58.8079 81.082V84.246C58.8079 84.694 58.7893 85.1047 58.7519 85.478C59.0506 85.45 59.3306 85.436 59.5919 85.436V86.5H55.9939V85.59ZM68.6781 89.16C69.0328 89.16 69.2615 89.062 69.3641 88.866C69.4668 88.67 69.5181 88.3527 69.5181 87.914V81.992C69.5181 81.572 69.5368 81.1753 69.5741 80.802L68.5801 80.844V79.78C69.1681 79.78 69.6441 79.738 70.0081 79.654C70.3721 79.57 70.6148 79.472 70.7361 79.36H71.4221C71.4408 79.5187 71.4641 79.7427 71.4921 80.032H71.5061C72.0848 79.528 72.7101 79.276 73.3821 79.276C73.9421 79.276 74.4321 79.4207 74.8521 79.71C75.2815 79.9993 75.6128 80.4147 75.8461 80.956C76.0888 81.488 76.2101 82.1087 76.2101 82.818C76.2101 83.5647 76.0655 84.2367 75.7761 84.834C75.4868 85.422 75.0761 85.884 74.5441 86.22C74.0215 86.556 73.4195 86.724 72.7381 86.724C72.3741 86.724 71.9588 86.64 71.4921 86.472V87.816C71.4921 88.2173 71.4781 88.628 71.4501 89.048C71.7395 89.02 72.0381 89.006 72.3461 89.006V90.07H68.6781V89.16ZM72.4581 85.674C73.5875 85.674 74.1521 84.792 74.1521 83.028C74.1521 82.3373 74.0261 81.7493 73.7741 81.264C73.5315 80.7787 73.1628 80.536 72.6681 80.536C72.4348 80.536 72.2108 80.592 71.9961 80.704C71.7908 80.816 71.6228 80.9653 71.4921 81.152V85.422C71.5855 85.4873 71.7208 85.548 71.8981 85.604C72.0848 85.6507 72.2715 85.674 72.4581 85.674ZM78.9763 86.724C78.3883 86.724 77.9217 86.5513 77.5763 86.206C77.2403 85.8513 77.0723 85.4033 77.0723 84.862C77.0723 84.0407 77.455 83.42 78.2203 83C78.9857 82.5707 79.905 82.3327 80.9783 82.286V81.558C80.9783 80.7087 80.661 80.284 80.0263 80.284C79.6157 80.284 79.2797 80.4147 79.0183 80.676C79.1303 80.8067 79.1863 80.984 79.1863 81.208C79.1863 81.432 79.107 81.6327 78.9483 81.81C78.799 81.9873 78.575 82.076 78.2763 82.076C77.9963 82.076 77.777 81.9873 77.6183 81.81C77.4597 81.6233 77.3803 81.3947 77.3803 81.124C77.3803 80.76 77.511 80.438 77.7723 80.158C78.0337 79.878 78.3883 79.6633 78.8363 79.514C79.2937 79.3553 79.793 79.276 80.3343 79.276C82.061 79.276 82.9243 80.1673 82.9243 81.95L82.9103 84.246C82.9103 84.694 82.8917 85.1047 82.8543 85.478C83.1623 85.45 83.4657 85.436 83.7643 85.436V86.5H81.1183C81.0997 86.3787 81.081 86.164 81.0623 85.856H81.0483C80.479 86.4347 79.7883 86.724 78.9763 86.724ZM79.8583 85.352C80.2783 85.352 80.647 85.184 80.9643 84.848V83.28C80.4137 83.336 79.9563 83.476 79.5923 83.7C79.2377 83.924 79.0603 84.2273 79.0603 84.61C79.0603 84.862 79.135 85.0487 79.2843 85.17C79.443 85.2913 79.6343 85.352 79.8583 85.352ZM84.5681 85.59C84.9228 85.59 85.1468 85.492 85.2401 85.296C85.3428 85.1 85.3941 84.7827 85.3941 84.344V81.992C85.3941 81.572 85.4128 81.1753 85.4501 80.802L84.4701 80.844V79.78C85.0581 79.78 85.5341 79.738 85.8981 79.654C86.2621 79.57 86.5048 79.472 86.6261 79.36H87.3121C87.3121 79.3787 87.3308 79.612 87.3681 80.06H87.3961C87.6668 79.8453 87.9981 79.6633 88.3901 79.514C88.7915 79.3553 89.1321 79.276 89.4121 79.276C90.2615 79.276 90.8681 79.5187 91.2321 80.004C91.5961 80.4893 91.7781 81.278 91.7781 82.37V84.246C91.7781 84.694 91.7595 85.1047 91.7221 85.478C92.0301 85.45 92.3335 85.436 92.6321 85.436V86.5H88.9641V85.59C89.3188 85.59 89.5475 85.492 89.6501 85.296C89.7528 85.1 89.8041 84.7827 89.8041 84.344L89.7901 82.356C89.7901 81.74 89.7015 81.2873 89.5241 80.998C89.3561 80.7087 89.0668 80.564 88.6561 80.564C88.4321 80.564 88.2035 80.6153 87.9701 80.718C87.7368 80.8113 87.5408 80.9327 87.3821 81.082V84.246C87.3821 84.694 87.3635 85.1047 87.3261 85.478C87.6248 85.45 87.9281 85.436 88.2361 85.436V86.5H84.5681V85.59ZM94.7478 90.294C94.3838 90.294 94.0804 90.1867 93.8378 89.972C93.5951 89.7573 93.4738 89.482 93.4738 89.146C93.4738 88.8847 93.5578 88.656 93.7258 88.46C93.9031 88.2733 94.1224 88.18 94.3838 88.18C94.5891 88.18 94.7571 88.25 94.8878 88.39C95.0278 88.5393 95.0978 88.7307 95.0978 88.964C95.0978 89.0387 95.0931 89.0993 95.0838 89.146V89.16C95.2611 89.16 95.4571 88.936 95.6718 88.488C95.8958 88.04 96.0964 87.4987 96.2738 86.864L94.0618 82.426C93.8191 81.9593 93.6558 81.5953 93.5718 81.334C93.4878 81.0633 93.4271 80.7973 93.3898 80.536L92.7458 80.564V79.5H96.2318V80.396C95.8398 80.4427 95.6438 80.6247 95.6438 80.942C95.6438 81.1007 95.6904 81.2827 95.7838 81.488L97.1558 84.624H97.1698L97.4638 83.686C97.5664 83.3313 97.7624 82.7153 98.0518 81.838C98.2571 81.1847 98.4531 80.746 98.6398 80.522V80.508L97.8418 80.564V79.5H100.334V80.396C100.063 80.4613 99.8298 80.6293 99.6338 80.9C99.4378 81.1707 99.2604 81.5347 99.1018 81.992L97.3518 86.99C97.0718 87.8207 96.8151 88.4647 96.5818 88.922C96.3484 89.3793 96.0871 89.72 95.7978 89.944C95.5178 90.1773 95.1678 90.294 94.7478 90.294ZM11.5147 104.724C10.8801 104.724 10.3014 104.584 9.77872 104.304C9.25605 104.015 8.84072 103.604 8.53272 103.072C8.22472 102.531 8.07072 101.891 8.07072 101.154C8.07072 100.454 8.22472 99.81 8.53272 99.222C8.84072 98.6247 9.27005 98.1533 9.82072 97.808C10.3807 97.4533 11.0107 97.276 11.7107 97.276C12.2801 97.276 12.7654 97.3647 13.1667 97.542C13.5774 97.7193 13.8854 97.9573 14.0907 98.256C14.2961 98.5453 14.3987 98.858 14.3987 99.194C14.3987 99.4833 14.3101 99.7307 14.1327 99.936C13.9647 100.141 13.7314 100.244 13.4327 100.244C13.1247 100.244 12.8914 100.151 12.7327 99.964C12.5834 99.7773 12.5087 99.5673 12.5087 99.334C12.5087 99.1193 12.5647 98.914 12.6767 98.718C12.5927 98.55 12.4574 98.4333 12.2707 98.368C12.0841 98.2933 11.8974 98.256 11.7107 98.256C11.2347 98.256 10.8474 98.4753 10.5487 98.914C10.2594 99.3433 10.1147 99.9547 10.1147 100.748C10.1147 101.541 10.2687 102.195 10.5767 102.708C10.8847 103.221 11.3701 103.478 12.0327 103.478C12.4061 103.478 12.7747 103.38 13.1387 103.184C13.5027 102.988 13.8107 102.727 14.0627 102.4L14.7067 103.03C14.2401 103.674 13.7407 104.117 13.2087 104.36C12.6767 104.603 12.1121 104.724 11.5147 104.724ZM18.8868 104.724C18.2055 104.724 17.5941 104.579 17.0528 104.29C16.5115 104.001 16.0868 103.585 15.7788 103.044C15.4708 102.503 15.3168 101.873 15.3168 101.154C15.3168 100.398 15.4755 99.726 15.7928 99.138C16.1101 98.55 16.5348 98.0927 17.0668 97.766C17.6081 97.4393 18.2008 97.276 18.8448 97.276C19.5168 97.276 20.1188 97.4207 20.6508 97.71C21.1828 97.9993 21.6028 98.4193 21.9108 98.97C22.2188 99.5113 22.3728 100.146 22.3728 100.874C22.3728 101.649 22.2235 102.325 21.9248 102.904C21.6355 103.483 21.2248 103.931 20.6928 104.248C20.1701 104.565 19.5681 104.724 18.8868 104.724ZM18.9148 103.73C19.4281 103.73 19.7875 103.492 19.9928 103.016C20.1981 102.54 20.3008 101.943 20.3008 101.224C20.3008 100.421 20.1841 99.726 19.9508 99.138C19.7175 98.55 19.3488 98.256 18.8448 98.256C18.3315 98.256 17.9581 98.4987 17.7248 98.984C17.4915 99.4693 17.3748 100.067 17.3748 100.776C17.3748 101.588 17.5008 102.283 17.7528 102.862C18.0048 103.441 18.3921 103.73 18.9148 103.73ZM23.3865 103.59C23.7412 103.59 23.9652 103.492 24.0585 103.296C24.1612 103.1 24.2125 102.783 24.2125 102.344V99.992C24.2125 99.572 24.2312 99.1753 24.2685 98.802L23.2885 98.844V97.78C23.8765 97.78 24.3525 97.738 24.7165 97.654C25.0805 97.57 25.3232 97.472 25.4445 97.36H26.1305C26.1305 97.3787 26.1492 97.612 26.1865 98.06H26.2145C26.5038 97.8267 26.8305 97.64 27.1945 97.5C27.5585 97.3507 27.9132 97.276 28.2585 97.276C28.6785 97.276 29.0285 97.3553 29.3085 97.514C29.5978 97.6633 29.8265 97.892 29.9945 98.2C30.3305 97.92 30.7038 97.696 31.1145 97.528C31.5252 97.36 31.9125 97.276 32.2765 97.276C33.0512 97.276 33.6252 97.5 33.9985 97.948C34.3812 98.396 34.5725 99.1427 34.5725 100.188V102.246C34.5725 102.694 34.5538 103.105 34.5165 103.478C34.8152 103.45 35.1185 103.436 35.4265 103.436V104.5H31.8845V103.59C32.1832 103.59 32.3745 103.492 32.4585 103.296C32.5425 103.091 32.5845 102.773 32.5845 102.344V100.202C32.5752 99.614 32.4772 99.1987 32.2905 98.956C32.1038 98.704 31.8332 98.578 31.4785 98.578C31.0678 98.578 30.6665 98.732 30.2745 99.04C30.3585 99.4133 30.4005 99.8567 30.4005 100.37V102.246C30.4005 102.694 30.3818 103.105 30.3445 103.478C30.6432 103.45 30.9465 103.436 31.2545 103.436V104.5H27.6425V103.59C27.9692 103.59 28.1792 103.492 28.2725 103.296C28.3658 103.1 28.4125 102.783 28.4125 102.344L28.3985 100.16C28.3985 99.5813 28.3145 99.1753 28.1465 98.942C27.9785 98.6993 27.7265 98.5733 27.3905 98.564C26.9798 98.564 26.5832 98.7367 26.2005 99.082V102.246C26.2005 102.694 26.1818 103.105 26.1445 103.478C26.4432 103.45 26.7232 103.436 26.9845 103.436V104.5H23.3865V103.59ZM36.2654 103.59C36.6201 103.59 36.8441 103.492 36.9374 103.296C37.0401 103.1 37.0914 102.783 37.0914 102.344V99.992C37.0914 99.572 37.1101 99.1753 37.1474 98.802L36.1674 98.844V97.78C36.7554 97.78 37.2314 97.738 37.5954 97.654C37.9594 97.57 38.2021 97.472 38.3234 97.36H39.0094C39.0094 97.3787 39.0281 97.612 39.0654 98.06H39.0934C39.3827 97.8267 39.7094 97.64 40.0734 97.5C40.4374 97.3507 40.7921 97.276 41.1374 97.276C41.5574 97.276 41.9074 97.3553 42.1874 97.514C42.4767 97.6633 42.7054 97.892 42.8734 98.2C43.2094 97.92 43.5827 97.696 43.9934 97.528C44.4041 97.36 44.7914 97.276 45.1554 97.276C45.9301 97.276 46.5041 97.5 46.8774 97.948C47.2601 98.396 47.4514 99.1427 47.4514 100.188V102.246C47.4514 102.694 47.4327 103.105 47.3954 103.478C47.6941 103.45 47.9974 103.436 48.3054 103.436V104.5H44.7634V103.59C45.0621 103.59 45.2534 103.492 45.3374 103.296C45.4214 103.091 45.4634 102.773 45.4634 102.344V100.202C45.4541 99.614 45.3561 99.1987 45.1694 98.956C44.9827 98.704 44.7121 98.578 44.3574 98.578C43.9467 98.578 43.5454 98.732 43.1534 99.04C43.2374 99.4133 43.2794 99.8567 43.2794 100.37V102.246C43.2794 102.694 43.2607 103.105 43.2234 103.478C43.5221 103.45 43.8254 103.436 44.1334 103.436V104.5H40.5214V103.59C40.8481 103.59 41.0581 103.492 41.1514 103.296C41.2447 103.1 41.2914 102.783 41.2914 102.344L41.2774 100.16C41.2774 99.5813 41.1934 99.1753 41.0254 98.942C40.8574 98.6993 40.6054 98.5733 40.2694 98.564C39.8587 98.564 39.4621 98.7367 39.0794 99.082V102.246C39.0794 102.694 39.0607 103.105 39.0234 103.478C39.3221 103.45 39.6021 103.436 39.8634 103.436V104.5H36.2654V103.59ZM51.974 104.724C51.1433 104.724 50.546 104.481 50.182 103.996C49.8273 103.511 49.65 102.722 49.65 101.63V100.02C49.65 99.628 49.664 99.222 49.692 98.802L48.712 98.844V97.78C49.3 97.78 49.776 97.738 50.14 97.654C50.504 97.57 50.7466 97.472 50.868 97.36H51.638V101.644C51.638 102.26 51.7173 102.713 51.876 103.002C52.0346 103.291 52.2866 103.436 52.632 103.436C52.8653 103.436 53.1033 103.371 53.346 103.24C53.598 103.109 53.808 102.951 53.976 102.764V100.02C53.976 99.5813 53.9946 99.1753 54.032 98.802L53.052 98.844V97.78C53.64 97.78 54.1113 97.738 54.466 97.654C54.83 97.57 55.0726 97.472 55.194 97.36H55.964V102.246C55.964 102.694 55.9453 103.105 55.908 103.478C56.2066 103.45 56.51 103.436 56.818 103.436V104.5H54.158L54.074 103.772H54.06C53.7146 104.071 53.3786 104.304 53.052 104.472C52.7346 104.64 52.3753 104.724 51.974 104.724ZM57.7303 103.59C58.0849 103.59 58.3089 103.492 58.4023 103.296C58.5049 103.1 58.5563 102.783 58.5563 102.344V99.992C58.5563 99.572 58.5749 99.1753 58.6123 98.802L57.6323 98.844V97.78C58.2203 97.78 58.6963 97.738 59.0603 97.654C59.4243 97.57 59.6669 97.472 59.7883 97.36H60.4743C60.4743 97.3787 60.4929 97.612 60.5303 98.06H60.5583C60.8289 97.8453 61.1603 97.6633 61.5523 97.514C61.9536 97.3553 62.2943 97.276 62.5743 97.276C63.4236 97.276 64.0303 97.5187 64.3943 98.004C64.7583 98.4893 64.9403 99.278 64.9403 100.37V102.246C64.9403 102.694 64.9216 103.105 64.8843 103.478C65.1923 103.45 65.4956 103.436 65.7943 103.436V104.5H62.1263V103.59C62.4809 103.59 62.7096 103.492 62.8123 103.296C62.9149 103.1 62.9663 102.783 62.9663 102.344L62.9523 100.356C62.9523 99.74 62.8636 99.2873 62.6863 98.998C62.5183 98.7087 62.2289 98.564 61.8183 98.564C61.5943 98.564 61.3656 98.6153 61.1323 98.718C60.8989 98.8113 60.7029 98.9327 60.5443 99.082V102.246C60.5443 102.694 60.5256 103.105 60.4883 103.478C60.7869 103.45 61.0903 103.436 61.3983 103.436V104.5H57.7303V103.59ZM68.6046 96.114C68.2873 96.114 68.026 96.0067 67.8206 95.792C67.6153 95.568 67.5126 95.2973 67.5126 94.98C67.5126 94.6627 67.62 94.392 67.8346 94.168C68.0493 93.9347 68.3013 93.818 68.5906 93.818C68.8893 93.818 69.1366 93.93 69.3326 94.154C69.538 94.378 69.6406 94.6533 69.6406 94.98C69.6406 95.3067 69.5426 95.5773 69.3466 95.792C69.16 96.0067 68.9126 96.114 68.6046 96.114ZM66.6306 103.59C66.9853 103.59 67.2093 103.492 67.3026 103.296C67.4053 103.1 67.4566 102.783 67.4566 102.344V100.02C67.4566 99.5813 67.4753 99.1753 67.5126 98.802L66.5326 98.844V97.78C67.1206 97.78 67.5966 97.738 67.9606 97.654C68.3246 97.57 68.5673 97.472 68.6886 97.36H69.4446V102.246C69.4446 102.694 69.426 103.105 69.3886 103.478C69.6873 103.45 69.9906 103.436 70.2986 103.436V104.5H66.6306V103.59ZM74.5147 104.724C73.8801 104.724 73.3014 104.584 72.7787 104.304C72.2561 104.015 71.8407 103.604 71.5327 103.072C71.2247 102.531 71.0707 101.891 71.0707 101.154C71.0707 100.454 71.2247 99.81 71.5327 99.222C71.8407 98.6247 72.2701 98.1533 72.8207 97.808C73.3807 97.4533 74.0107 97.276 74.7107 97.276C75.2801 97.276 75.7654 97.3647 76.1667 97.542C76.5774 97.7193 76.8854 97.9573 77.0907 98.256C77.2961 98.5453 77.3987 98.858 77.3987 99.194C77.3987 99.4833 77.3101 99.7307 77.1327 99.936C76.9647 100.141 76.7314 100.244 76.4327 100.244C76.1247 100.244 75.8914 100.151 75.7327 99.964C75.5834 99.7773 75.5087 99.5673 75.5087 99.334C75.5087 99.1193 75.5647 98.914 75.6767 98.718C75.5927 98.55 75.4574 98.4333 75.2707 98.368C75.0841 98.2933 74.8974 98.256 74.7107 98.256C74.2347 98.256 73.8474 98.4753 73.5487 98.914C73.2594 99.3433 73.1147 99.9547 73.1147 100.748C73.1147 101.541 73.2687 102.195 73.5767 102.708C73.8847 103.221 74.3701 103.478 75.0327 103.478C75.4061 103.478 75.7747 103.38 76.1387 103.184C76.5027 102.988 76.8107 102.727 77.0627 102.4L77.7067 103.03C77.2401 103.674 76.7407 104.117 76.2087 104.36C75.6767 104.603 75.1121 104.724 74.5147 104.724ZM80.2068 104.724C79.6188 104.724 79.1521 104.551 78.8068 104.206C78.4708 103.851 78.3028 103.403 78.3028 102.862C78.3028 102.041 78.6855 101.42 79.4508 101C80.2161 100.571 81.1355 100.333 82.2088 100.286V99.558C82.2088 98.7087 81.8915 98.284 81.2568 98.284C80.8461 98.284 80.5101 98.4147 80.2488 98.676C80.3608 98.8067 80.4168 98.984 80.4168 99.208C80.4168 99.432 80.3375 99.6327 80.1788 99.81C80.0295 99.9873 79.8055 100.076 79.5068 100.076C79.2268 100.076 79.0075 99.9873 78.8488 99.81C78.6901 99.6233 78.6108 99.3947 78.6108 99.124C78.6108 98.76 78.7415 98.438 79.0028 98.158C79.2641 97.878 79.6188 97.6633 80.0668 97.514C80.5241 97.3553 81.0235 97.276 81.5648 97.276C83.2915 97.276 84.1548 98.1673 84.1548 99.95L84.1408 102.246C84.1408 102.694 84.1221 103.105 84.0848 103.478C84.3928 103.45 84.6961 103.436 84.9948 103.436V104.5H82.3488C82.3301 104.379 82.3115 104.164 82.2928 103.856H82.2788C81.7095 104.435 81.0188 104.724 80.2068 104.724ZM81.0888 103.352C81.5088 103.352 81.8775 103.184 82.1948 102.848V101.28C81.6441 101.336 81.1868 101.476 80.8228 101.7C80.4681 101.924 80.2908 102.227 80.2908 102.61C80.2908 102.862 80.3655 103.049 80.5148 103.17C80.6735 103.291 80.8648 103.352 81.0888 103.352ZM88.5159 104.724C87.0599 104.724 86.3319 103.828 86.3319 102.036L86.3599 98.662H85.4079V97.5C85.7066 97.5 85.9866 97.4067 86.2479 97.22C86.5186 97.0333 86.7473 96.8047 86.9339 96.534C87.1206 96.2633 87.2513 96.002 87.3259 95.75H88.3619L88.3479 97.5H90.1259V98.578L88.3479 98.62L88.3339 102.064C88.3339 102.969 88.6139 103.422 89.1739 103.422C89.6219 103.422 90.0466 103.142 90.4479 102.582L91.1199 103.212C90.6813 103.856 90.2426 104.271 89.8039 104.458C89.3653 104.635 88.9359 104.724 88.5159 104.724ZM93.5011 96.114C93.1838 96.114 92.9225 96.0067 92.7171 95.792C92.5118 95.568 92.4091 95.2973 92.4091 94.98C92.4091 94.6627 92.5165 94.392 92.7311 94.168C92.9458 93.9347 93.1978 93.818 93.4871 93.818C93.7858 93.818 94.0331 93.93 94.2291 94.154C94.4345 94.378 94.5371 94.6533 94.5371 94.98C94.5371 95.3067 94.4391 95.5773 94.2431 95.792C94.0565 96.0067 93.8091 96.114 93.5011 96.114ZM91.5271 103.59C91.8818 103.59 92.1058 103.492 92.1991 103.296C92.3018 103.1 92.3531 102.783 92.3531 102.344V100.02C92.3531 99.5813 92.3718 99.1753 92.4091 98.802L91.4291 98.844V97.78C92.0171 97.78 92.4931 97.738 92.8571 97.654C93.2211 97.57 93.4638 97.472 93.5851 97.36H94.3411V102.246C94.3411 102.694 94.3225 103.105 94.2851 103.478C94.5838 103.45 94.8871 103.436 95.1951 103.436V104.5H91.5271V103.59ZM99.5372 104.724C98.8559 104.724 98.2445 104.579 97.7032 104.29C97.1619 104.001 96.7372 103.585 96.4292 103.044C96.1212 102.503 95.9672 101.873 95.9672 101.154C95.9672 100.398 96.1259 99.726 96.4432 99.138C96.7605 98.55 97.1852 98.0927 97.7172 97.766C98.2585 97.4393 98.8512 97.276 99.4952 97.276C100.167 97.276 100.769 97.4207 101.301 97.71C101.833 97.9993 102.253 98.4193 102.561 98.97C102.869 99.5113 103.023 100.146 103.023 100.874C103.023 101.649 102.874 102.325 102.575 102.904C102.286 103.483 101.875 103.931 101.343 104.248C100.821 104.565 100.219 104.724 99.5372 104.724ZM99.5652 103.73C100.079 103.73 100.438 103.492 100.643 103.016C100.849 102.54 100.951 101.943 100.951 101.224C100.951 100.421 100.835 99.726 100.601 99.138C100.368 98.55 99.9992 98.256 99.4952 98.256C98.9819 98.256 98.6085 98.4987 98.3752 98.984C98.1419 99.4693 98.0252 100.067 98.0252 100.776C98.0252 101.588 98.1512 102.283 98.4032 102.862C98.6552 103.441 99.0425 103.73 99.5652 103.73ZM104.037 103.59C104.392 103.59 104.616 103.492 104.709 103.296C104.812 103.1 104.863 102.783 104.863 102.344V99.992C104.863 99.572 104.882 99.1753 104.919 98.802L103.939 98.844V97.78C104.527 97.78 105.003 97.738 105.367 97.654C105.731 97.57 105.974 97.472 106.095 97.36H106.781C106.781 97.3787 106.8 97.612 106.837 98.06H106.865C107.136 97.8453 107.467 97.6633 107.859 97.514C108.26 97.3553 108.601 97.276 108.881 97.276C109.73 97.276 110.337 97.5187 110.701 98.004C111.065 98.4893 111.247 99.278 111.247 100.37V102.246C111.247 102.694 111.228 103.105 111.191 103.478C111.499 103.45 111.802 103.436 112.101 103.436V104.5H108.433V103.59C108.788 103.59 109.016 103.492 109.119 103.296C109.222 103.1 109.273 102.783 109.273 102.344L109.259 100.356C109.259 99.74 109.17 99.2873 108.993 98.998C108.825 98.7087 108.536 98.564 108.125 98.564C107.901 98.564 107.672 98.6153 107.439 98.718C107.206 98.8113 107.01 98.9327 106.851 99.082V102.246C106.851 102.694 106.832 103.105 106.795 103.478C107.094 103.45 107.397 103.436 107.705 103.436V104.5H104.037V103.59ZM32.9844 122.724C32.5831 122.724 32.1911 122.673 31.8084 122.57C31.4258 122.467 31.1271 122.337 30.9124 122.178H30.8984L30.9404 122.598H29.8764L29.8204 120.19H30.7304C30.7771 120.619 31.0011 120.983 31.4024 121.282C31.8131 121.571 32.3124 121.716 32.9004 121.716C33.1618 121.716 33.3858 121.655 33.5724 121.534C33.7684 121.413 33.8664 121.24 33.8664 121.016C33.8664 120.848 33.8058 120.708 33.6844 120.596C33.5631 120.484 33.4184 120.391 33.2504 120.316C33.0824 120.241 32.7464 120.106 32.2424 119.91C31.6451 119.677 31.1971 119.485 30.8984 119.336C30.5998 119.187 30.3291 118.967 30.0864 118.678C29.8531 118.379 29.7364 117.997 29.7364 117.53C29.7364 117.147 29.8298 116.788 30.0164 116.452C30.2124 116.107 30.5064 115.827 30.8984 115.612C31.2998 115.388 31.7898 115.276 32.3684 115.276C32.6391 115.276 32.9331 115.318 33.2504 115.402C33.5678 115.486 33.8338 115.603 34.0484 115.752H34.0624L34.0484 115.346H35.1124V117.824H34.2024C34.1184 117.339 33.9038 116.956 33.5584 116.676C33.2131 116.396 32.7884 116.256 32.2844 116.256C32.0231 116.256 31.8038 116.317 31.6264 116.438C31.4491 116.559 31.3604 116.746 31.3604 116.998C31.3604 117.259 31.4631 117.455 31.6684 117.586C31.8738 117.707 32.2191 117.847 32.7044 118.006C32.7604 118.015 32.8818 118.053 33.0684 118.118C33.8618 118.398 34.4684 118.725 34.8884 119.098C35.3178 119.471 35.5324 119.961 35.5324 120.568C35.5324 121.035 35.4111 121.431 35.1684 121.758C34.9351 122.075 34.6224 122.318 34.2304 122.486C33.8478 122.645 33.4324 122.724 32.9844 122.724ZM39.9894 122.724C39.308 122.724 38.6967 122.579 38.1554 122.29C37.614 122.001 37.1894 121.585 36.8814 121.044C36.5734 120.503 36.4194 119.873 36.4194 119.154C36.4194 118.398 36.578 117.726 36.8954 117.138C37.2127 116.55 37.6374 116.093 38.1694 115.766C38.7107 115.439 39.3034 115.276 39.9474 115.276C40.6194 115.276 41.2214 115.421 41.7534 115.71C42.2854 115.999 42.7054 116.419 43.0134 116.97C43.3214 117.511 43.4754 118.146 43.4754 118.874C43.4754 119.649 43.326 120.325 43.0274 120.904C42.738 121.483 42.3274 121.931 41.7954 122.248C41.2727 122.565 40.6707 122.724 39.9894 122.724ZM40.0174 121.73C40.5307 121.73 40.89 121.492 41.0954 121.016C41.3007 120.54 41.4034 119.943 41.4034 119.224C41.4034 118.421 41.2867 117.726 41.0534 117.138C40.82 116.55 40.4514 116.256 39.9474 116.256C39.434 116.256 39.0607 116.499 38.8274 116.984C38.594 117.469 38.4774 118.067 38.4774 118.776C38.4774 119.588 38.6034 120.283 38.8554 120.862C39.1074 121.441 39.4947 121.73 40.0174 121.73ZM44.2104 121.59C44.4624 121.59 44.6444 121.543 44.7564 121.45C44.8777 121.347 44.9524 121.212 44.9804 121.044C45.0177 120.876 45.0364 120.643 45.0364 120.344V114.59C45.0364 114.142 45.055 113.736 45.0924 113.372L44.1124 113.414V112.35C44.7004 112.35 45.1764 112.308 45.5404 112.224C45.9044 112.14 46.147 112.042 46.2684 111.93H47.0244V120.246C47.0244 120.694 47.0057 121.105 46.9684 121.478C47.2764 121.45 47.5797 121.436 47.8784 121.436V122.5H44.2104V121.59ZM51.6937 122.724C50.863 122.724 50.2657 122.481 49.9017 121.996C49.547 121.511 49.3697 120.722 49.3697 119.63V118.02C49.3697 117.628 49.3837 117.222 49.4117 116.802L48.4317 116.844V115.78C49.0197 115.78 49.4957 115.738 49.8597 115.654C50.2237 115.57 50.4663 115.472 50.5877 115.36H51.3577V119.644C51.3577 120.26 51.437 120.713 51.5957 121.002C51.7543 121.291 52.0063 121.436 52.3517 121.436C52.585 121.436 52.823 121.371 53.0657 121.24C53.3177 121.109 53.5277 120.951 53.6957 120.764V118.02C53.6957 117.581 53.7143 117.175 53.7517 116.802L52.7717 116.844V115.78C53.3597 115.78 53.831 115.738 54.1857 115.654C54.5497 115.57 54.7923 115.472 54.9137 115.36H55.6837V120.246C55.6837 120.694 55.665 121.105 55.6277 121.478C55.9263 121.45 56.2297 121.436 56.5377 121.436V122.5H53.8777L53.7937 121.772H53.7797C53.4343 122.071 53.0983 122.304 52.7717 122.472C52.4543 122.64 52.095 122.724 51.6937 122.724ZM60.1673 122.724C58.7113 122.724 57.9833 121.828 57.9833 120.036L58.0113 116.662H57.0593V115.5C57.358 115.5 57.638 115.407 57.8993 115.22C58.17 115.033 58.3986 114.805 58.5853 114.534C58.772 114.263 58.9026 114.002 58.9773 113.75H60.0133L59.9993 115.5H61.7773V116.578L59.9993 116.62L59.9853 120.064C59.9853 120.969 60.2653 121.422 60.8253 121.422C61.2733 121.422 61.698 121.142 62.0993 120.582L62.7713 121.212C62.3326 121.856 61.894 122.271 61.4553 122.458C61.0166 122.635 60.5873 122.724 60.1673 122.724ZM65.1525 114.114C64.8352 114.114 64.5738 114.007 64.3685 113.792C64.1632 113.568 64.0605 113.297 64.0605 112.98C64.0605 112.663 64.1678 112.392 64.3825 112.168C64.5972 111.935 64.8492 111.818 65.1385 111.818C65.4372 111.818 65.6845 111.93 65.8805 112.154C66.0858 112.378 66.1885 112.653 66.1885 112.98C66.1885 113.307 66.0905 113.577 65.8945 113.792C65.7078 114.007 65.4605 114.114 65.1525 114.114ZM63.1785 121.59C63.5332 121.59 63.7572 121.492 63.8505 121.296C63.9532 121.1 64.0045 120.783 64.0045 120.344V118.02C64.0045 117.581 64.0232 117.175 64.0605 116.802L63.0805 116.844V115.78C63.6685 115.78 64.1445 115.738 64.5085 115.654C64.8725 115.57 65.1152 115.472 65.2365 115.36H65.9925V120.246C65.9925 120.694 65.9738 121.105 65.9365 121.478C66.2352 121.45 66.5385 121.436 66.8465 121.436V122.5H63.1785V121.59ZM71.1886 122.724C70.5072 122.724 69.8959 122.579 69.3546 122.29C68.8132 122.001 68.3886 121.585 68.0806 121.044C67.7726 120.503 67.6186 119.873 67.6186 119.154C67.6186 118.398 67.7772 117.726 68.0946 117.138C68.4119 116.55 68.8366 116.093 69.3686 115.766C69.9099 115.439 70.5026 115.276 71.1466 115.276C71.8186 115.276 72.4206 115.421 72.9526 115.71C73.4846 115.999 73.9046 116.419 74.2126 116.97C74.5206 117.511 74.6746 118.146 74.6746 118.874C74.6746 119.649 74.5252 120.325 74.2266 120.904C73.9372 121.483 73.5266 121.931 72.9946 122.248C72.4719 122.565 71.8699 122.724 71.1886 122.724ZM71.2166 121.73C71.7299 121.73 72.0892 121.492 72.2946 121.016C72.4999 120.54 72.6026 119.943 72.6026 119.224C72.6026 118.421 72.4859 117.726 72.2526 117.138C72.0192 116.55 71.6506 116.256 71.1466 116.256C70.6332 116.256 70.2599 116.499 70.0266 116.984C69.7932 117.469 69.6766 118.067 69.6766 118.776C69.6766 119.588 69.8026 120.283 70.0546 120.862C70.3066 121.441 70.6939 121.73 71.2166 121.73ZM75.6883 121.59C76.0429 121.59 76.2669 121.492 76.3603 121.296C76.4629 121.1 76.5143 120.783 76.5143 120.344V117.992C76.5143 117.572 76.5329 117.175 76.5703 116.802L75.5903 116.844V115.78C76.1783 115.78 76.6543 115.738 77.0183 115.654C77.3823 115.57 77.6249 115.472 77.7463 115.36H78.4323C78.4323 115.379 78.4509 115.612 78.4883 116.06H78.5163C78.7869 115.845 79.1183 115.663 79.5103 115.514C79.9116 115.355 80.2523 115.276 80.5323 115.276C81.3816 115.276 81.9883 115.519 82.3523 116.004C82.7163 116.489 82.8983 117.278 82.8983 118.37V120.246C82.8983 120.694 82.8796 121.105 82.8423 121.478C83.1503 121.45 83.4536 121.436 83.7523 121.436V122.5H80.0843V121.59C80.4389 121.59 80.6676 121.492 80.7703 121.296C80.8729 121.1 80.9243 120.783 80.9243 120.344L80.9103 118.356C80.9103 117.74 80.8216 117.287 80.6443 116.998C80.4763 116.709 80.1869 116.564 79.7763 116.564C79.5523 116.564 79.3236 116.615 79.0903 116.718C78.8569 116.811 78.6609 116.933 78.5023 117.082V120.246C78.5023 120.694 78.4836 121.105 78.4463 121.478C78.7449 121.45 79.0483 121.436 79.3563 121.436V122.5H75.6883V121.59ZM87.8086 122.724C87.4073 122.724 87.0153 122.673 86.6326 122.57C86.25 122.467 85.9513 122.337 85.7366 122.178H85.7226L85.7646 122.598H84.7006L84.6446 120.19H85.5546C85.6013 120.619 85.8253 120.983 86.2266 121.282C86.6373 121.571 87.1366 121.716 87.7246 121.716C87.986 121.716 88.21 121.655 88.3966 121.534C88.5926 121.413 88.6906 121.24 88.6906 121.016C88.6906 120.848 88.63 120.708 88.5086 120.596C88.3873 120.484 88.2426 120.391 88.0746 120.316C87.9066 120.241 87.5706 120.106 87.0666 119.91C86.4693 119.677 86.0213 119.485 85.7226 119.336C85.424 119.187 85.1533 118.967 84.9106 118.678C84.6773 118.379 84.5606 117.997 84.5606 117.53C84.5606 117.147 84.654 116.788 84.8406 116.452C85.0366 116.107 85.3306 115.827 85.7226 115.612C86.124 115.388 86.614 115.276 87.1926 115.276C87.4633 115.276 87.7573 115.318 88.0746 115.402C88.392 115.486 88.658 115.603 88.8726 115.752H88.8866L88.8726 115.346H89.9366V117.824H89.0266C88.9426 117.339 88.728 116.956 88.3826 116.676C88.0373 116.396 87.6126 116.256 87.1086 116.256C86.8473 116.256 86.628 116.317 86.4506 116.438C86.2733 116.559 86.1846 116.746 86.1846 116.998C86.1846 117.259 86.2873 117.455 86.4926 117.586C86.698 117.707 87.0433 117.847 87.5286 118.006C87.5846 118.015 87.706 118.053 87.8926 118.118C88.686 118.398 89.2926 118.725 89.7126 119.098C90.142 119.471 90.3566 119.961 90.3566 120.568C90.3566 121.035 90.2353 121.431 89.9926 121.758C89.7593 122.075 89.4466 122.318 89.0546 122.486C88.672 122.645 88.2566 122.724 87.8086 122.724Z" fill="#777777"/>
<g clip-path="url(#clip0_1_386)">
<path d="M51.75 31.2969H39.75C39.5511 31.2969 39.3603 31.2162 39.2197 31.0726C39.079 30.929 39 30.7343 39 30.5312V29C39 27.1725 39.7112 25.4198 40.977 24.1276C42.2429 22.8354 43.9598 22.1094 45.75 22.1094C47.5402 22.1094 49.2571 22.8354 50.523 24.1276C51.7888 25.4198 52.5 27.1725 52.5 29V30.5312C52.5 30.7343 52.421 30.929 52.2803 31.0726C52.1397 31.2162 51.9489 31.2969 51.75 31.2969ZM40.5 29.7656H51V29C51 27.5786 50.4469 26.2154 49.4623 25.2103C48.4777 24.2053 47.1424 23.6406 45.75 23.6406C44.3576 23.6406 43.0223 24.2053 42.0377 25.2103C41.0531 26.2154 40.5 27.5786 40.5 29V29.7656Z" fill="#777777"/>
<path d="M45.75 23.6406C44.86 23.6406 43.99 23.3711 43.2499 22.8664C42.5099 22.3616 41.9331 21.6442 41.5925 20.8048C41.2519 19.9654 41.1628 19.0417 41.3365 18.1506C41.5101 17.2595 41.9387 16.441 42.568 15.7985C43.1974 15.1561 43.9992 14.7186 44.8721 14.5413C45.745 14.3641 46.6498 14.4551 47.4721 14.8027C48.2943 15.1504 48.9971 15.7392 49.4916 16.4947C49.9861 17.2501 50.25 18.1383 50.25 19.0468C50.2488 20.2648 49.7743 21.4325 48.9307 22.2937C48.087 23.155 46.9431 23.6393 45.75 23.6406ZM45.75 15.9843C45.1567 15.9843 44.5766 16.1639 44.0833 16.5004C43.5899 16.837 43.2054 17.3152 42.9784 17.8748C42.7513 18.4344 42.6919 19.0502 42.8076 19.6443C42.9234 20.2383 43.2091 20.784 43.6287 21.2123C44.0482 21.6406 44.5828 21.9323 45.1647 22.0505C45.7467 22.1686 46.3499 22.108 46.8981 21.8762C47.4462 21.6444 47.9148 21.2519 48.2444 20.7482C48.5741 20.2446 48.75 19.6525 48.75 19.0468C48.75 18.2346 48.4339 17.4556 47.8713 16.8813C47.3087 16.307 46.5457 15.9843 45.75 15.9843Z" fill="#777777"/>
<path d="M80.25 49.6718H68.25C68.0511 49.6718 67.8603 49.5912 67.7197 49.4476C67.579 49.304 67.5 49.1092 67.5 48.9062V47.3749C67.5 45.5474 68.2112 43.7948 69.477 42.5025C70.7429 41.2103 72.4598 40.4843 74.25 40.4843C76.0402 40.4843 77.7571 41.2103 79.023 42.5025C80.2888 43.7948 81 45.5474 81 47.3749V48.9062C81 49.1092 80.921 49.304 80.7803 49.4476C80.6397 49.5912 80.4489 49.6718 80.25 49.6718ZM69 48.1406H79.5V47.3749C79.5 45.9535 78.9469 44.5904 77.9623 43.5853C76.9777 42.5802 75.6424 42.0156 74.25 42.0156C72.8576 42.0156 71.5223 42.5802 70.5377 43.5853C69.5531 44.5904 69 45.9535 69 47.3749V48.1406Z" fill="#777777"/>
<path d="M74.25 42.0156C73.36 42.0156 72.49 41.7461 71.7499 41.2414C71.0099 40.7366 70.4331 40.0192 70.0925 39.1798C69.7519 38.3404 69.6628 37.4167 69.8365 36.5256C70.0101 35.6345 70.4387 34.816 71.068 34.1735C71.6974 33.5311 72.4992 33.0936 73.3721 32.9163C74.245 32.7391 75.1498 32.8301 75.9721 33.1777C76.7943 33.5254 77.4971 34.1142 77.9916 34.8697C78.4861 35.6251 78.75 36.5133 78.75 37.4218C78.7488 38.6398 78.2743 39.8075 77.4307 40.6687C76.587 41.53 75.4431 42.0143 74.25 42.0156ZM74.25 34.3593C73.6567 34.3593 73.0766 34.5389 72.5833 34.8754C72.0899 35.212 71.7054 35.6902 71.4784 36.2498C71.2513 36.8094 71.1919 37.4252 71.3076 38.0193C71.4234 38.6133 71.7091 39.159 72.1287 39.5873C72.5482 40.0156 73.0828 40.3073 73.6647 40.4255C74.2467 40.5436 74.8499 40.483 75.3981 40.2512C75.9462 40.0194 76.4148 39.6269 76.7444 39.1232C77.0741 38.6196 77.25 38.0275 77.25 37.4218C77.25 36.6096 76.9339 35.8306 76.3713 35.2563C75.8087 34.682 75.0457 34.3593 74.25 34.3593Z" fill="#777777"/>
<path d="M77.2497 31.2969H59.2497C58.2555 31.2957 57.3023 30.8919 56.5993 30.1743C55.8963 29.4567 55.5009 28.4837 55.4997 27.4688V24.4062H53.2497C53.1083 24.4063 52.9699 24.3656 52.8502 24.2888C52.7306 24.212 52.6346 24.1023 52.5734 23.9723C52.5122 23.8422 52.4882 23.6972 52.5042 23.5539C52.5202 23.4105 52.5756 23.2747 52.6639 23.1621L55.4997 19.5438V18.2812C55.5009 17.2663 55.8963 16.2933 56.5993 15.5757C57.3023 14.8581 58.2555 14.4543 59.2497 14.4531H77.2497C78.2439 14.4543 79.197 14.8581 79.9 15.5757C80.603 16.2933 80.9985 17.2663 80.9997 18.2812V27.4688C80.9985 28.4837 80.603 29.4567 79.9 30.1743C79.197 30.8919 78.2439 31.2957 77.2497 31.2969ZM54.8104 22.875H56.2497C56.4486 22.875 56.6393 22.9557 56.78 23.0992C56.9207 23.2428 56.9997 23.4376 56.9997 23.6406V27.4688C56.9997 28.0779 57.2367 28.6621 57.6587 29.0929C58.0806 29.5236 58.6529 29.7656 59.2497 29.7656H77.2497C77.8464 29.7656 78.4187 29.5236 78.8407 29.0929C79.2626 28.6621 79.4997 28.0779 79.4997 27.4688V18.2812C79.4997 17.6721 79.2626 17.0879 78.8407 16.6571C78.4187 16.2264 77.8464 15.9844 77.2497 15.9844H59.2497C58.6529 15.9844 58.0806 16.2264 57.6587 16.6571C57.2367 17.0879 56.9997 17.6721 56.9997 18.2812V19.8125C56.9998 19.9864 56.9418 20.1552 56.8354 20.291L54.8104 22.875Z" fill="#777777"/>
<path d="M60.75 49.6718H42.75C41.7558 49.6706 40.8027 49.2669 40.0997 48.5492C39.3967 47.8316 39.0012 46.8586 39 45.8437V36.6562C39.0012 35.6413 39.3967 34.6683 40.0997 33.9506C40.8027 33.233 41.7558 32.8293 42.75 32.8281H60.75C61.7442 32.8293 62.6973 33.233 63.4003 33.9506C64.1033 34.6683 64.4988 35.6413 64.5 36.6562V37.9187L67.3357 41.537C67.4241 41.6497 67.4794 41.7855 67.4955 41.9288C67.5115 42.0721 67.4875 42.2172 67.4263 42.3472C67.365 42.4772 67.2691 42.587 67.1494 42.6638C67.0298 42.7405 66.8913 42.7812 66.75 42.7812H64.5V45.8437C64.4988 46.8586 64.1033 47.8316 63.4003 48.5492C62.6973 49.2669 61.7442 49.6706 60.75 49.6718ZM42.75 34.3593C42.1533 34.3593 41.581 34.6013 41.159 35.0321C40.7371 35.4628 40.5 36.047 40.5 36.6562V45.8437C40.5 46.4529 40.7371 47.0371 41.159 47.4678C41.581 47.8986 42.1533 48.1406 42.75 48.1406H60.75C61.3467 48.1406 61.919 47.8986 62.341 47.4678C62.7629 47.0371 63 46.4529 63 45.8437V42.0156C63 41.8125 63.079 41.6178 63.2197 41.4742C63.3603 41.3306 63.5511 41.2499 63.75 41.2499H65.1892L63.1643 38.666C63.0578 38.5301 62.9999 38.3614 63 38.1874V36.6562C63 36.047 62.7629 35.4628 62.341 35.0321C61.919 34.6013 61.3467 34.3593 60.75 34.3593H42.75Z" fill="#777777"/>
<path d="M62.25 25.1718C61.805 25.1718 61.37 25.0371 61 24.7847C60.63 24.5323 60.3416 24.1736 60.1713 23.7539C60.001 23.3342 59.9564 22.8724 60.0432 22.4268C60.1301 21.9813 60.3443 21.572 60.659 21.2508C60.9737 20.9296 61.3746 20.7108 61.811 20.6222C62.2475 20.5336 62.6999 20.5791 63.111 20.7529C63.5222 20.9267 63.8736 21.2211 64.1208 21.5989C64.368 21.9766 64.5 22.4207 64.5 22.8749C64.5 23.4841 64.2629 24.0683 63.841 24.4991C63.419 24.9298 62.8467 25.1718 62.25 25.1718ZM62.25 22.1093C62.1017 22.1093 61.9567 22.1542 61.8333 22.2383C61.71 22.3225 61.6139 22.442 61.5571 22.5819C61.5003 22.7218 61.4855 22.8758 61.5144 23.0243C61.5434 23.1728 61.6148 23.3092 61.7197 23.4163C61.8246 23.5234 61.9582 23.5963 62.1037 23.6259C62.2492 23.6554 62.4 23.6402 62.537 23.5823C62.6741 23.5243 62.7912 23.4262 62.8736 23.3003C62.956 23.1744 63 23.0264 63 22.8749C63 22.6719 62.921 22.4771 62.7803 22.3336C62.6397 22.19 62.4489 22.1093 62.25 22.1093Z" fill="#777777"/>
<path d="M68.25 25.1718C67.805 25.1718 67.37 25.0371 67 24.7847C66.63 24.5323 66.3416 24.1736 66.1713 23.7539C66.001 23.3342 65.9564 22.8724 66.0432 22.4268C66.1301 21.9813 66.3443 21.572 66.659 21.2508C66.9737 20.9296 67.3746 20.7108 67.811 20.6222C68.2475 20.5336 68.6999 20.5791 69.111 20.7529C69.5222 20.9267 69.8736 21.2211 70.1208 21.5989C70.368 21.9766 70.5 22.4207 70.5 22.8749C70.5 23.4841 70.2629 24.0683 69.841 24.4991C69.419 24.9298 68.8467 25.1718 68.25 25.1718ZM68.25 22.1093C68.1017 22.1093 67.9567 22.1542 67.8333 22.2383C67.71 22.3225 67.6139 22.442 67.5571 22.5819C67.5003 22.7218 67.4855 22.8758 67.5144 23.0243C67.5434 23.1728 67.6148 23.3092 67.7197 23.4163C67.8246 23.5234 67.9582 23.5963 68.1037 23.6259C68.2492 23.6554 68.4 23.6402 68.537 23.5823C68.6741 23.5243 68.7912 23.4262 68.8736 23.3003C68.956 23.1744 69 23.0264 69 22.8749C69 22.6719 68.921 22.4771 68.7803 22.3336C68.6397 22.19 68.4489 22.1093 68.25 22.1093Z" fill="#777777"/>
<path d="M74.25 25.1718C73.805 25.1718 73.37 25.0371 73 24.7847C72.63 24.5323 72.3416 24.1736 72.1713 23.7539C72.001 23.3342 71.9564 22.8724 72.0432 22.4268C72.1301 21.9813 72.3443 21.572 72.659 21.2508C72.9737 20.9296 73.3746 20.7108 73.811 20.6222C74.2475 20.5336 74.6999 20.5791 75.111 20.7529C75.5222 20.9267 75.8736 21.2211 76.1208 21.5989C76.368 21.9766 76.5 22.4207 76.5 22.8749C76.5 23.4841 76.2629 24.0683 75.841 24.4991C75.419 24.9298 74.8467 25.1718 74.25 25.1718ZM74.25 22.1093C74.1017 22.1093 73.9567 22.1542 73.8333 22.2383C73.71 22.3225 73.6139 22.442 73.5571 22.5819C73.5003 22.7218 73.4855 22.8758 73.5144 23.0243C73.5434 23.1728 73.6148 23.3092 73.7197 23.4163C73.8246 23.5234 73.9582 23.5963 74.1037 23.6259C74.2492 23.6554 74.4 23.6402 74.537 23.5823C74.6741 23.5243 74.7912 23.4262 74.8736 23.3003C74.956 23.1744 75 23.0264 75 22.8749C75 22.6719 74.921 22.4771 74.7803 22.3336C74.6397 22.19 74.4489 22.1093 74.25 22.1093Z" fill="#777777"/>
<path d="M45.75 43.5468C45.305 43.5468 44.87 43.4121 44.5 43.1597C44.13 42.9073 43.8416 42.5486 43.6713 42.1289C43.501 41.7092 43.4564 41.2474 43.5432 40.8018C43.6301 40.3563 43.8443 39.947 44.159 39.6258C44.4737 39.3046 44.8746 39.0858 45.311 38.9972C45.7475 38.9086 46.1999 38.9541 46.611 39.1279C47.0222 39.3018 47.3736 39.5961 47.6208 39.9739C47.868 40.3516 48 40.7957 48 41.2499C48 41.8591 47.7629 42.4433 47.341 42.8741C46.919 43.3048 46.3467 43.5468 45.75 43.5468ZM45.75 40.4843C45.6017 40.4843 45.4567 40.5292 45.3333 40.6133C45.21 40.6975 45.1139 40.817 45.0571 40.9569C45.0003 41.0968 44.9855 41.2508 45.0144 41.3993C45.0434 41.5478 45.1148 41.6842 45.2197 41.7913C45.3246 41.8984 45.4582 41.9713 45.6037 42.0009C45.7492 42.0304 45.9 42.0152 46.037 41.9573C46.1741 41.8993 46.2912 41.8012 46.3736 41.6753C46.456 41.5494 46.5 41.4014 46.5 41.2499C46.5 41.0469 46.421 40.8521 46.2803 40.7086C46.1397 40.565 45.9489 40.4843 45.75 40.4843Z" fill="#777777"/>
<path d="M51.75 43.5468C51.305 43.5468 50.87 43.4121 50.5 43.1597C50.13 42.9073 49.8416 42.5486 49.6713 42.1289C49.501 41.7092 49.4564 41.2474 49.5432 40.8018C49.6301 40.3563 49.8443 39.947 50.159 39.6258C50.4737 39.3046 50.8746 39.0858 51.311 38.9972C51.7475 38.9086 52.1999 38.9541 52.611 39.1279C53.0222 39.3018 53.3736 39.5961 53.6208 39.9739C53.868 40.3516 54 40.7957 54 41.2499C54 41.8591 53.7629 42.4433 53.341 42.8741C52.919 43.3048 52.3467 43.5468 51.75 43.5468ZM51.75 40.4843C51.6017 40.4843 51.4567 40.5292 51.3333 40.6133C51.21 40.6975 51.1139 40.817 51.0571 40.9569C51.0003 41.0968 50.9855 41.2508 51.0144 41.3993C51.0434 41.5478 51.1148 41.6842 51.2197 41.7913C51.3246 41.8984 51.4582 41.9713 51.6037 42.0009C51.7492 42.0304 51.9 42.0152 52.037 41.9573C52.1741 41.8993 52.2912 41.8012 52.3736 41.6753C52.456 41.5494 52.5 41.4014 52.5 41.2499C52.5 41.0469 52.421 40.8521 52.2803 40.7086C52.1397 40.565 51.9489 40.4843 51.75 40.4843Z" fill="#777777"/>
<path d="M57.75 43.5468C57.305 43.5468 56.87 43.4121 56.5 43.1597C56.13 42.9073 55.8416 42.5486 55.6713 42.1289C55.501 41.7092 55.4564 41.2474 55.5432 40.8018C55.6301 40.3563 55.8443 39.947 56.159 39.6258C56.4737 39.3046 56.8746 39.0858 57.311 38.9972C57.7475 38.9086 58.1999 38.9541 58.611 39.1279C59.0222 39.3018 59.3736 39.5961 59.6208 39.9739C59.868 40.3516 60 40.7957 60 41.2499C60 41.8591 59.763 42.4433 59.341 42.8741C58.919 43.3048 58.3467 43.5468 57.75 43.5468ZM57.75 40.4843C57.6017 40.4843 57.4567 40.5292 57.3333 40.6133C57.21 40.6975 57.1139 40.817 57.0571 40.9569C57.0003 41.0968 56.9855 41.2508 57.0144 41.3993C57.0434 41.5478 57.1148 41.6842 57.2197 41.7913C57.3246 41.8984 57.4582 41.9713 57.6037 42.0009C57.7492 42.0304 57.9 42.0152 58.037 41.9573C58.1741 41.8993 58.2912 41.8012 58.3736 41.6753C58.456 41.5494 58.5 41.4014 58.5 41.2499C58.5 41.0469 58.421 40.8521 58.2803 40.7086C58.1397 40.565 57.9489 40.4843 57.75 40.4843Z" fill="#777777"/>
<path d="M37.5 13.6875H36V8.32812C36.0012 7.31322 36.3967 6.34022 37.0997 5.62257C37.8027 4.90493 38.7558 4.50122 39.75 4.5H54V6.03125H39.75C39.1533 6.03125 38.581 6.27324 38.159 6.70399C37.7371 7.13474 37.5 7.71896 37.5 8.32812V13.6875Z" fill="#777777"/>
<path d="M80.25 53.5H39.75C38.7558 53.4988 37.8027 53.0951 37.0997 52.3774C36.3967 51.6598 36.0012 50.6868 36 49.6719V15.2188H37.5V49.6719C37.5 50.281 37.7371 50.8653 38.159 51.296C38.581 51.7268 39.1533 51.9688 39.75 51.9688H80.25C80.8467 51.9688 81.419 51.7268 81.841 51.296C82.2629 50.8653 82.5 50.281 82.5 49.6719V8.32812C82.5 7.71896 82.2629 7.13474 81.841 6.70399C81.419 6.27324 80.8467 6.03125 80.25 6.03125H62.25V4.5H80.25C81.2442 4.50122 82.1973 4.90493 82.9003 5.62257C83.6033 6.34022 83.9988 7.31322 84 8.32812V49.6719C83.9988 50.6868 83.6033 51.6598 82.9003 52.3774C82.1973 53.0951 81.2442 53.4988 80.25 53.5Z" fill="#777777"/>
<path d="M59.25 4.5H60.75V6.03125H59.25V4.5Z" fill="#777777"/>
<path d="M59.25 12.1563H57C56.8011 12.1563 56.6103 12.0756 56.4697 11.932C56.329 11.7884 56.25 11.5937 56.25 11.3906V8.32815C56.266 8.02222 56.2188 7.71628 56.1113 7.43021C56.0039 7.14414 55.8388 6.88435 55.6265 6.66772C55.4143 6.45108 55.1598 6.28246 54.8796 6.17281C54.5994 6.06316 54.2997 6.01494 54 6.03127V4.50002C54.4975 4.48079 54.9936 4.56664 55.4571 4.75222C55.9206 4.93779 56.3415 5.21908 56.6936 5.57847C57.0456 5.93785 57.3212 6.36758 57.5029 6.84073C57.6847 7.31389 57.7688 7.82027 57.75 8.32815V10.625H59.25V12.1563Z" fill="#777777"/>
<path d="M60.75 10.625H83.25V12.1562H60.75V10.625Z" fill="#777777"/>
<path d="M39 7.5625H51.75V9.09375H39V7.5625Z" fill="#777777"/>
<path d="M53.25 7.5625H54.75V9.09375H53.25V7.5625Z" fill="#777777"/>
<path d="M79.5 7.5625H81V9.09375H79.5V7.5625Z" fill="#777777"/>
<path d="M76.5 7.5625H78V9.09375H76.5V7.5625Z" fill="#777777"/>
<path d="M73.5 7.5625H75V9.09375H73.5V7.5625Z" fill="#777777"/>
<path d="M36.75 10.625H57V12.1562H36.75V10.625Z" fill="#777777"/>
</g>
<defs>
<clipPath id="clip0_1_386">
<rect width="48" height="49" fill="white" transform="translate(36 4.5)"/>
</clipPath>
</defs>
</svg>
