<svg width="120" height="127" viewBox="0 0 120 127" fill="none" xmlns="http://www.w3.org/2000/svg">
<path d="M23.5329 86.724C22.4129 86.724 21.4889 86.4767 20.7609 85.982C20.0329 85.4873 19.5009 84.8527 19.1649 84.078C18.8289 83.3033 18.6609 82.4773 18.6609 81.6C18.6609 80.7693 18.8476 79.962 19.2209 79.178C19.5942 78.394 20.1496 77.75 20.8869 77.246C21.6336 76.7327 22.5296 76.476 23.5749 76.476C24.6482 76.476 25.5489 76.7327 26.2769 77.246C27.0142 77.75 27.5602 78.394 27.9149 79.178C28.2696 79.962 28.4469 80.7693 28.4469 81.6C28.4469 82.412 28.2602 83.2147 27.8869 84.008C27.5136 84.792 26.9536 85.4407 26.2069 85.954C25.4696 86.4673 24.5782 86.724 23.5329 86.724ZM23.6729 85.702C24.2796 85.702 24.7742 85.5107 25.1569 85.128C25.5396 84.7453 25.8149 84.26 25.9829 83.672C26.1509 83.084 26.2349 82.4727 26.2349 81.838C26.2349 80.5127 26.0016 79.458 25.5349 78.674C25.0682 77.89 24.3776 77.498 23.4629 77.498C22.8469 77.498 22.3429 77.694 21.9509 78.086C21.5589 78.478 21.2789 78.9727 21.1109 79.57C20.9429 80.1673 20.8589 80.788 20.8589 81.432C20.8589 82.0853 20.9522 82.7387 21.1389 83.392C21.3256 84.0453 21.6289 84.596 22.0489 85.044C22.4782 85.4827 23.0196 85.702 23.6729 85.702ZM32.4027 86.724C31.572 86.724 30.9747 86.4813 30.6107 85.996C30.256 85.5107 30.0787 84.722 30.0787 83.63V82.02C30.0787 81.628 30.0927 81.222 30.1207 80.802L29.1407 80.844V79.78C29.7287 79.78 30.2047 79.738 30.5687 79.654C30.9327 79.57 31.1753 79.472 31.2967 79.36H32.0667V83.644C32.0667 84.26 32.146 84.7127 32.3047 85.002C32.4633 85.2913 32.7153 85.436 33.0607 85.436C33.294 85.436 33.532 85.3707 33.7747 85.24C34.0267 85.1093 34.2367 84.9507 34.4047 84.764V82.02C34.4047 81.5813 34.4233 81.1753 34.4607 80.802L33.4807 80.844V79.78C34.0687 79.78 34.54 79.738 34.8947 79.654C35.2587 79.57 35.5013 79.472 35.6227 79.36H36.3927V84.246C36.3927 84.694 36.374 85.1047 36.3367 85.478C36.6353 85.45 36.9387 85.436 37.2467 85.436V86.5H34.5867L34.5027 85.772H34.4887C34.1433 86.0707 33.8073 86.304 33.4807 86.472C33.1633 86.64 32.804 86.724 32.4027 86.724ZM40.8763 86.724C39.4203 86.724 38.6923 85.828 38.6923 84.036L38.7203 80.662H37.7683V79.5C38.0669 79.5 38.3469 79.4067 38.6083 79.22C38.8789 79.0333 39.1076 78.8047 39.2943 78.534C39.4809 78.2633 39.6116 78.002 39.6863 77.75H40.7223L40.7083 79.5H42.4863V80.578L40.7083 80.62L40.6943 84.064C40.6943 84.9693 40.9743 85.422 41.5343 85.422C41.9823 85.422 42.4069 85.142 42.8083 84.582L43.4803 85.212C43.0416 85.856 42.6029 86.2713 42.1643 86.458C41.7256 86.6353 41.2963 86.724 40.8763 86.724ZM47.1075 86.724C46.7061 86.724 46.3141 86.6727 45.9315 86.57C45.5488 86.4673 45.2501 86.3367 45.0355 86.178H45.0215L45.0635 86.598H43.9995L43.9435 84.19H44.8535C44.9001 84.6193 45.1241 84.9833 45.5255 85.282C45.9361 85.5713 46.4355 85.716 47.0235 85.716C47.2848 85.716 47.5088 85.6553 47.6955 85.534C47.8915 85.4127 47.9895 85.24 47.9895 85.016C47.9895 84.848 47.9288 84.708 47.8075 84.596C47.6861 84.484 47.5415 84.3907 47.3735 84.316C47.2055 84.2413 46.8695 84.106 46.3655 83.91C45.7681 83.6767 45.3201 83.4853 45.0215 83.336C44.7228 83.1867 44.4521 82.9673 44.2095 82.678C43.9761 82.3793 43.8595 81.9967 43.8595 81.53C43.8595 81.1473 43.9528 80.788 44.1395 80.452C44.3355 80.1067 44.6295 79.8267 45.0215 79.612C45.4228 79.388 45.9128 79.276 46.4915 79.276C46.7621 79.276 47.0561 79.318 47.3735 79.402C47.6908 79.486 47.9568 79.6027 48.1715 79.752H48.1855L48.1715 79.346H49.2355V81.824H48.3255C48.2415 81.3387 48.0268 80.956 47.6815 80.676C47.3361 80.396 46.9115 80.256 46.4075 80.256C46.1461 80.256 45.9268 80.3167 45.7495 80.438C45.5721 80.5593 45.4835 80.746 45.4835 80.998C45.4835 81.2593 45.5861 81.4553 45.7915 81.586C45.9968 81.7073 46.3421 81.8473 46.8275 82.006C46.8835 82.0153 47.0048 82.0527 47.1915 82.118C47.9848 82.398 48.5915 82.7247 49.0115 83.098C49.4408 83.4713 49.6555 83.9613 49.6555 84.568C49.6555 85.0347 49.5341 85.4313 49.2915 85.758C49.0581 86.0753 48.7455 86.318 48.3535 86.486C47.9708 86.6447 47.5555 86.724 47.1075 86.724ZM54.1124 86.724C53.4311 86.724 52.8197 86.5793 52.2784 86.29C51.7371 86.0007 51.3124 85.5853 51.0044 85.044C50.6964 84.5027 50.5424 83.8727 50.5424 83.154C50.5424 82.398 50.7011 81.726 51.0184 81.138C51.3357 80.55 51.7604 80.0927 52.2924 79.766C52.8337 79.4393 53.4264 79.276 54.0704 79.276C54.7424 79.276 55.3444 79.4207 55.8764 79.71C56.4084 79.9993 56.8284 80.4193 57.1364 80.97C57.4444 81.5113 57.5984 82.146 57.5984 82.874C57.5984 83.6487 57.4491 84.3253 57.1504 84.904C56.8611 85.4827 56.4504 85.9307 55.9184 86.248C55.3957 86.5653 54.7937 86.724 54.1124 86.724ZM54.1404 85.73C54.6537 85.73 55.0131 85.492 55.2184 85.016C55.4237 84.54 55.5264 83.9427 55.5264 83.224C55.5264 82.4213 55.4097 81.726 55.1764 81.138C54.9431 80.55 54.5744 80.256 54.0704 80.256C53.5571 80.256 53.1837 80.4987 52.9504 80.984C52.7171 81.4693 52.6004 82.0667 52.6004 82.776C52.6004 83.588 52.7264 84.2833 52.9784 84.862C53.2304 85.4407 53.6177 85.73 54.1404 85.73ZM61.5101 86.724C60.6794 86.724 60.0821 86.4813 59.7181 85.996C59.3634 85.5107 59.1861 84.722 59.1861 83.63V82.02C59.1861 81.628 59.2001 81.222 59.2281 80.802L58.2481 80.844V79.78C58.8361 79.78 59.3121 79.738 59.6761 79.654C60.0401 79.57 60.2828 79.472 60.4041 79.36H61.1741V83.644C61.1741 84.26 61.2534 84.7127 61.4121 85.002C61.5708 85.2913 61.8228 85.436 62.1681 85.436C62.4014 85.436 62.6394 85.3707 62.8821 85.24C63.1341 85.1093 63.3441 84.9507 63.5121 84.764V82.02C63.5121 81.5813 63.5308 81.1753 63.5681 80.802L62.5881 80.844V79.78C63.1761 79.78 63.6474 79.738 64.0021 79.654C64.3661 79.57 64.6088 79.472 64.7301 79.36H65.5001V84.246C65.5001 84.694 65.4814 85.1047 65.4441 85.478C65.7428 85.45 66.0461 85.436 66.3541 85.436V86.5H63.6941L63.6101 85.772H63.5961C63.2508 86.0707 62.9148 86.304 62.5881 86.472C62.2708 86.64 61.9114 86.724 61.5101 86.724ZM67.2664 85.59C67.621 85.59 67.845 85.492 67.9384 85.296C68.041 85.1 68.0924 84.7827 68.0924 84.344V81.992C68.0924 81.572 68.111 81.1753 68.1484 80.802L67.1684 80.844V79.78C67.7564 79.78 68.2324 79.738 68.5964 79.654C68.9604 79.57 69.203 79.472 69.3244 79.36H70.0104C70.029 79.5 70.043 79.682 70.0524 79.906C70.0617 80.13 70.0664 80.3493 70.0664 80.564H70.0944C70.729 79.7053 71.401 79.276 72.1104 79.276C72.465 79.276 72.7544 79.374 72.9784 79.57C73.2117 79.766 73.3284 80.0553 73.3284 80.438C73.3284 80.6807 73.249 80.9047 73.0904 81.11C72.9317 81.3153 72.6937 81.418 72.3764 81.418C72.143 81.418 71.933 81.3573 71.7464 81.236C71.569 81.1147 71.4664 80.9047 71.4384 80.606C71.177 80.606 70.9064 80.76 70.6264 81.068C70.3557 81.3667 70.1737 81.6653 70.0804 81.964V84.246C70.0804 84.694 70.0617 85.1047 70.0244 85.478C70.323 85.45 70.6264 85.436 70.9344 85.436V86.5H67.2664V85.59ZM77.1876 86.724C76.5529 86.724 75.9742 86.584 75.4516 86.304C74.9289 86.0147 74.5136 85.604 74.2056 85.072C73.8976 84.5307 73.7436 83.8913 73.7436 83.154C73.7436 82.454 73.8976 81.81 74.2056 81.222C74.5136 80.6247 74.9429 80.1533 75.4936 79.808C76.0536 79.4533 76.6836 79.276 77.3836 79.276C77.9529 79.276 78.4382 79.3647 78.8396 79.542C79.2502 79.7193 79.5582 79.9573 79.7636 80.256C79.9689 80.5453 80.0716 80.858 80.0716 81.194C80.0716 81.4833 79.9829 81.7307 79.8056 81.936C79.6376 82.1413 79.4042 82.244 79.1056 82.244C78.7976 82.244 78.5642 82.1507 78.4056 81.964C78.2562 81.7773 78.1816 81.5673 78.1816 81.334C78.1816 81.1193 78.2376 80.914 78.3496 80.718C78.2656 80.55 78.1302 80.4333 77.9436 80.368C77.7569 80.2933 77.5702 80.256 77.3836 80.256C76.9076 80.256 76.5202 80.4753 76.2216 80.914C75.9322 81.3433 75.7876 81.9547 75.7876 82.748C75.7876 83.5413 75.9416 84.1947 76.2496 84.708C76.5576 85.2213 77.0429 85.478 77.7056 85.478C78.0789 85.478 78.4476 85.38 78.8116 85.184C79.1756 84.988 79.4836 84.7267 79.7356 84.4L80.3796 85.03C79.9129 85.674 79.4136 86.1173 78.8816 86.36C78.3496 86.6027 77.7849 86.724 77.1876 86.724ZM83.1037 78.114C82.7863 78.114 82.525 78.0067 82.3197 77.792C82.1143 77.568 82.0117 77.2973 82.0117 76.98C82.0117 76.6627 82.119 76.392 82.3337 76.168C82.5483 75.9347 82.8003 75.818 83.0897 75.818C83.3883 75.818 83.6357 75.93 83.8317 76.154C84.037 76.378 84.1397 76.6533 84.1397 76.98C84.1397 77.3067 84.0417 77.5773 83.8457 77.792C83.659 78.0067 83.4117 78.114 83.1037 78.114ZM81.1297 85.59C81.4843 85.59 81.7083 85.492 81.8017 85.296C81.9043 85.1 81.9557 84.7827 81.9557 84.344V82.02C81.9557 81.5813 81.9743 81.1753 82.0117 80.802L81.0317 80.844V79.78C81.6197 79.78 82.0957 79.738 82.4597 79.654C82.8237 79.57 83.0663 79.472 83.1877 79.36H83.9437V84.246C83.9437 84.694 83.925 85.1047 83.8877 85.478C84.1863 85.45 84.4897 85.436 84.7977 85.436V86.5H81.1297V85.59ZM85.7097 85.59C86.0644 85.59 86.2884 85.492 86.3817 85.296C86.4844 85.1 86.5357 84.7827 86.5357 84.344V81.992C86.5357 81.572 86.5544 81.1753 86.5917 80.802L85.6117 80.844V79.78C86.1997 79.78 86.6757 79.738 87.0397 79.654C87.4037 79.57 87.6464 79.472 87.7677 79.36H88.4537C88.4537 79.3787 88.4724 79.612 88.5097 80.06H88.5377C88.8084 79.8453 89.1397 79.6633 89.5317 79.514C89.9331 79.3553 90.2737 79.276 90.5537 79.276C91.4031 79.276 92.0097 79.5187 92.3737 80.004C92.7377 80.4893 92.9197 81.278 92.9197 82.37V84.246C92.9197 84.694 92.9011 85.1047 92.8637 85.478C93.1717 85.45 93.4751 85.436 93.7737 85.436V86.5H90.1057V85.59C90.4604 85.59 90.6891 85.492 90.7917 85.296C90.8944 85.1 90.9457 84.7827 90.9457 84.344L90.9317 82.356C90.9317 81.74 90.8431 81.2873 90.6657 80.998C90.4977 80.7087 90.2084 80.564 89.7977 80.564C89.5737 80.564 89.3451 80.6153 89.1117 80.718C88.8784 80.8113 88.6824 80.9327 88.5237 81.082V84.246C88.5237 84.694 88.5051 85.1047 88.4677 85.478C88.7664 85.45 89.0697 85.436 89.3777 85.436V86.5H85.7097V85.59ZM97.6201 90.294C96.4908 90.294 95.6741 90.1213 95.1701 89.776C94.6755 89.4307 94.4281 88.992 94.4281 88.46C94.4281 88.1333 94.5308 87.8253 94.7361 87.536C94.9508 87.256 95.2915 87.0273 95.7581 86.85C95.3941 86.7473 95.1281 86.5887 94.9601 86.374C94.8015 86.1593 94.7221 85.9073 94.7221 85.618C94.7221 85.338 94.8295 85.0533 95.0441 84.764C95.2681 84.4747 95.6135 84.26 96.0801 84.12V84.106C95.6601 83.938 95.3241 83.6767 95.0721 83.322C94.8295 82.958 94.7081 82.5287 94.7081 82.034C94.7081 81.5113 94.8528 81.04 95.1421 80.62C95.4408 80.2 95.8281 79.8733 96.3041 79.64C96.7895 79.3973 97.2981 79.276 97.8301 79.276C98.1101 79.276 98.4041 79.3133 98.7121 79.388C99.0201 79.4533 99.2815 79.5607 99.4961 79.71C99.6735 79.2247 99.9115 78.8233 100.21 78.506C100.509 78.1793 100.863 78.016 101.274 78.016C101.582 78.016 101.82 78.0953 101.988 78.254C102.156 78.4127 102.24 78.632 102.24 78.912C102.24 79.1267 102.17 79.3227 102.03 79.5C101.899 79.6773 101.689 79.766 101.4 79.766C101.251 79.766 101.101 79.7147 100.952 79.612C100.812 79.5 100.728 79.3693 100.7 79.22C100.579 79.2573 100.457 79.3787 100.336 79.584C100.215 79.78 100.145 79.962 100.126 80.13C100.387 80.3633 100.588 80.634 100.728 80.942C100.877 81.25 100.952 81.5813 100.952 81.936C100.952 82.4587 100.803 82.9347 100.504 83.364C100.205 83.784 99.8135 84.1153 99.3281 84.358C98.8428 84.5913 98.3248 84.708 97.7741 84.708L97.3821 84.694C97.1768 84.6753 97.0275 84.666 96.9341 84.666C96.7288 84.666 96.5561 84.7033 96.4161 84.778C96.2761 84.8527 96.2061 84.9553 96.2061 85.086C96.2061 85.254 96.3321 85.3753 96.5841 85.45C96.8455 85.5153 97.3168 85.5667 97.9981 85.604C99.1741 85.6693 100.065 85.8653 100.672 86.192C101.279 86.5187 101.582 87.0647 101.582 87.83C101.582 88.334 101.386 88.7727 100.994 89.146C100.611 89.5193 100.112 89.804 99.4961 90C98.8895 90.196 98.2641 90.294 97.6201 90.294ZM97.8301 83.77C98.1848 83.77 98.4648 83.6113 98.6701 83.294C98.8848 82.9767 98.9921 82.608 98.9921 82.188C98.9921 81.656 98.8895 81.194 98.6841 80.802C98.4788 80.41 98.1895 80.214 97.8161 80.214C97.4615 80.214 97.1768 80.3773 96.9621 80.704C96.7475 81.0307 96.6401 81.418 96.6401 81.866C96.6401 82.3887 96.7475 82.8367 96.9621 83.21C97.1768 83.5833 97.4661 83.77 97.8301 83.77ZM98.0261 89.328C98.4461 89.328 98.8055 89.272 99.1041 89.16C99.4121 89.048 99.6455 88.9033 99.8041 88.726C99.9628 88.558 100.042 88.3853 100.042 88.208C100.042 87.9187 99.8741 87.6993 99.5381 87.55C99.2115 87.4007 98.7075 87.312 98.0261 87.284C97.9515 87.2747 97.8301 87.27 97.6621 87.27C97.5688 87.2607 97.4055 87.2467 97.1721 87.228C96.9388 87.2187 96.7475 87.2 96.5981 87.172C96.4581 87.284 96.3461 87.4287 96.2621 87.606C96.1875 87.7833 96.1501 87.9607 96.1501 88.138C96.1501 88.502 96.3181 88.7913 96.6541 89.006C96.9995 89.2207 97.4568 89.328 98.0261 89.328ZM36.3477 104.724C35.9464 104.724 35.5544 104.673 35.1717 104.57C34.789 104.467 34.4904 104.337 34.2757 104.178H34.2617L34.3037 104.598H33.2397L33.1837 102.19H34.0937C34.1404 102.619 34.3644 102.983 34.7657 103.282C35.1764 103.571 35.6757 103.716 36.2637 103.716C36.525 103.716 36.749 103.655 36.9357 103.534C37.1317 103.413 37.2297 103.24 37.2297 103.016C37.2297 102.848 37.169 102.708 37.0477 102.596C36.9264 102.484 36.7817 102.391 36.6137 102.316C36.4457 102.241 36.1097 102.106 35.6057 101.91C35.0084 101.677 34.5604 101.485 34.2617 101.336C33.963 101.187 33.6924 100.967 33.4497 100.678C33.2164 100.379 33.0997 99.9967 33.0997 99.53C33.0997 99.1473 33.193 98.788 33.3797 98.452C33.5757 98.1067 33.8697 97.8267 34.2617 97.612C34.663 97.388 35.153 97.276 35.7317 97.276C36.0024 97.276 36.2964 97.318 36.6137 97.402C36.931 97.486 37.197 97.6027 37.4117 97.752H37.4257L37.4117 97.346H38.4757V99.824H37.5657C37.4817 99.3387 37.267 98.956 36.9217 98.676C36.5764 98.396 36.1517 98.256 35.6477 98.256C35.3864 98.256 35.167 98.3167 34.9897 98.438C34.8124 98.5593 34.7237 98.746 34.7237 98.998C34.7237 99.2593 34.8264 99.4553 35.0317 99.586C35.237 99.7073 35.5824 99.8473 36.0677 100.006C36.1237 100.015 36.245 100.053 36.4317 100.118C37.225 100.398 37.8317 100.725 38.2517 101.098C38.681 101.471 38.8957 101.961 38.8957 102.568C38.8957 103.035 38.7744 103.431 38.5317 103.758C38.2984 104.075 37.9857 104.318 37.5937 104.486C37.211 104.645 36.7957 104.724 36.3477 104.724ZM43.2406 104.724C42.5593 104.724 41.9573 104.575 41.4346 104.276C40.912 103.968 40.506 103.534 40.2166 102.974C39.9273 102.414 39.7826 101.761 39.7826 101.014C39.7826 100.361 39.9273 99.7493 40.2166 99.18C40.5153 98.6013 40.9306 98.1393 41.4626 97.794C41.9946 97.4487 42.6013 97.276 43.2826 97.276C44.188 97.276 44.9393 97.542 45.5366 98.074C46.1433 98.606 46.442 99.4927 46.4326 100.734L41.8406 100.818C41.8406 101.639 41.9946 102.288 42.3026 102.764C42.62 103.24 43.124 103.478 43.8146 103.478C44.1413 103.478 44.4913 103.394 44.8646 103.226C45.238 103.058 45.574 102.792 45.8726 102.428L46.5026 103.016C45.7093 104.155 44.622 104.724 43.2406 104.724ZM44.5006 99.838C44.4726 98.7833 44.09 98.256 43.3526 98.256C42.9513 98.256 42.6293 98.4007 42.3866 98.69C42.1533 98.97 41.9993 99.3527 41.9246 99.838H44.5006ZM47.4558 103.59C47.8105 103.59 48.0345 103.492 48.1278 103.296C48.2305 103.1 48.2818 102.783 48.2818 102.344V99.992C48.2818 99.572 48.3005 99.1753 48.3378 98.802L47.3578 98.844V97.78C47.9458 97.78 48.4218 97.738 48.7858 97.654C49.1498 97.57 49.3925 97.472 49.5138 97.36H50.1998C50.2185 97.5 50.2325 97.682 50.2418 97.906C50.2512 98.13 50.2558 98.3493 50.2558 98.564H50.2838C50.9185 97.7053 51.5905 97.276 52.2998 97.276C52.6545 97.276 52.9438 97.374 53.1678 97.57C53.4012 97.766 53.5178 98.0553 53.5178 98.438C53.5178 98.6807 53.4385 98.9047 53.2798 99.11C53.1212 99.3153 52.8832 99.418 52.5658 99.418C52.3325 99.418 52.1225 99.3573 51.9358 99.236C51.7585 99.1147 51.6558 98.9047 51.6278 98.606C51.3665 98.606 51.0958 98.76 50.8158 99.068C50.5452 99.3667 50.3632 99.6653 50.2698 99.964V102.246C50.2698 102.694 50.2512 103.105 50.2138 103.478C50.5125 103.45 50.8158 103.436 51.1238 103.436V104.5H47.4558V103.59ZM54.7248 99.684C54.6128 99.432 54.5335 99.2407 54.4868 99.11C54.4495 98.9793 54.4215 98.8673 54.4028 98.774C54.3841 98.6713 54.3701 98.592 54.3608 98.536L53.8428 98.564V97.5H57.1188V98.396C56.8015 98.4053 56.6428 98.5593 56.6428 98.858C56.6428 99.026 56.6895 99.236 56.7828 99.488L57.9588 102.386H57.9728L58.9948 99.502C59.1255 99.1473 59.2795 98.8207 59.4568 98.522V98.508L58.5888 98.564V97.5H61.2488V98.396C60.9595 98.4427 60.7121 98.6247 60.5068 98.942C60.3108 99.2593 60.1241 99.6373 59.9468 100.076L58.1548 104.542H56.9368L54.7248 99.684ZM63.84 96.114C63.5227 96.114 63.2613 96.0067 63.056 95.792C62.8507 95.568 62.748 95.2973 62.748 94.98C62.748 94.6627 62.8553 94.392 63.07 94.168C63.2847 93.9347 63.5367 93.818 63.826 93.818C64.1247 93.818 64.372 93.93 64.568 94.154C64.7733 94.378 64.876 94.6533 64.876 94.98C64.876 95.3067 64.778 95.5773 64.582 95.792C64.3953 96.0067 64.148 96.114 63.84 96.114ZM61.866 103.59C62.2207 103.59 62.4447 103.492 62.538 103.296C62.6407 103.1 62.692 102.783 62.692 102.344V100.02C62.692 99.5813 62.7107 99.1753 62.748 98.802L61.768 98.844V97.78C62.356 97.78 62.832 97.738 63.196 97.654C63.56 97.57 63.8027 97.472 63.924 97.36H64.68V102.246C64.68 102.694 64.6613 103.105 64.624 103.478C64.9227 103.45 65.226 103.436 65.534 103.436V104.5H61.866V103.59ZM69.7501 104.724C69.1154 104.724 68.5367 104.584 68.0141 104.304C67.4914 104.015 67.0761 103.604 66.7681 103.072C66.4601 102.531 66.3061 101.891 66.3061 101.154C66.3061 100.454 66.4601 99.81 66.7681 99.222C67.0761 98.6247 67.5054 98.1533 68.0561 97.808C68.6161 97.4533 69.2461 97.276 69.9461 97.276C70.5154 97.276 71.0007 97.3647 71.4021 97.542C71.8127 97.7193 72.1207 97.9573 72.3261 98.256C72.5314 98.5453 72.6341 98.858 72.6341 99.194C72.6341 99.4833 72.5454 99.7307 72.3681 99.936C72.2001 100.141 71.9667 100.244 71.6681 100.244C71.3601 100.244 71.1267 100.151 70.9681 99.964C70.8187 99.7773 70.7441 99.5673 70.7441 99.334C70.7441 99.1193 70.8001 98.914 70.9121 98.718C70.8281 98.55 70.6927 98.4333 70.5061 98.368C70.3194 98.2933 70.1327 98.256 69.9461 98.256C69.4701 98.256 69.0827 98.4753 68.7841 98.914C68.4947 99.3433 68.3501 99.9547 68.3501 100.748C68.3501 101.541 68.5041 102.195 68.8121 102.708C69.1201 103.221 69.6054 103.478 70.2681 103.478C70.6414 103.478 71.0101 103.38 71.3741 103.184C71.7381 102.988 72.0461 102.727 72.2981 102.4L72.9421 103.03C72.4754 103.674 71.9761 104.117 71.4441 104.36C70.9121 104.603 70.3474 104.724 69.7501 104.724ZM77.0102 104.724C76.3288 104.724 75.7268 104.575 75.2042 104.276C74.6815 103.968 74.2755 103.534 73.9862 102.974C73.6968 102.414 73.5522 101.761 73.5522 101.014C73.5522 100.361 73.6968 99.7493 73.9862 99.18C74.2848 98.6013 74.7002 98.1393 75.2322 97.794C75.7642 97.4487 76.3708 97.276 77.0522 97.276C77.9575 97.276 78.7088 97.542 79.3062 98.074C79.9128 98.606 80.2115 99.4927 80.2022 100.734L75.6102 100.818C75.6102 101.639 75.7642 102.288 76.0722 102.764C76.3895 103.24 76.8935 103.478 77.5842 103.478C77.9108 103.478 78.2608 103.394 78.6342 103.226C79.0075 103.058 79.3435 102.792 79.6422 102.428L80.2722 103.016C79.4788 104.155 78.3915 104.724 77.0102 104.724ZM78.2702 99.838C78.2422 98.7833 77.8595 98.256 77.1222 98.256C76.7208 98.256 76.3988 98.4007 76.1562 98.69C75.9228 98.97 75.7688 99.3527 75.6942 99.838H78.2702ZM84.4454 104.724C84.044 104.724 83.652 104.673 83.2694 104.57C82.8867 104.467 82.588 104.337 82.3734 104.178H82.3594L82.4014 104.598H81.3374L81.2814 102.19H82.1914C82.238 102.619 82.462 102.983 82.8634 103.282C83.274 103.571 83.7734 103.716 84.3614 103.716C84.6227 103.716 84.8467 103.655 85.0334 103.534C85.2294 103.413 85.3274 103.24 85.3274 103.016C85.3274 102.848 85.2667 102.708 85.1454 102.596C85.024 102.484 84.8794 102.391 84.7114 102.316C84.5434 102.241 84.2074 102.106 83.7034 101.91C83.106 101.677 82.658 101.485 82.3594 101.336C82.0607 101.187 81.79 100.967 81.5474 100.678C81.314 100.379 81.1974 99.9967 81.1974 99.53C81.1974 99.1473 81.2907 98.788 81.4774 98.452C81.6734 98.1067 81.9674 97.8267 82.3594 97.612C82.7607 97.388 83.2507 97.276 83.8294 97.276C84.1 97.276 84.394 97.318 84.7114 97.402C85.0287 97.486 85.2947 97.6027 85.5094 97.752H85.5234L85.5094 97.346H86.5734V99.824H85.6634C85.5794 99.3387 85.3647 98.956 85.0194 98.676C84.674 98.396 84.2494 98.256 83.7454 98.256C83.484 98.256 83.2647 98.3167 83.0874 98.438C82.91 98.5593 82.8214 98.746 82.8214 98.998C82.8214 99.2593 82.924 99.4553 83.1294 99.586C83.3347 99.7073 83.68 99.8473 84.1654 100.006C84.2214 100.015 84.3427 100.053 84.5294 100.118C85.3227 100.398 85.9294 100.725 86.3494 101.098C86.7787 101.471 86.9934 101.961 86.9934 102.568C86.9934 103.035 86.872 103.431 86.6294 103.758C86.396 104.075 86.0834 104.318 85.6914 104.486C85.3087 104.645 84.8934 104.724 84.4454 104.724Z" fill="#777777"/>
<path d="M74.75 42.7812H71.8475C71.8958 42.6557 71.9285 42.5246 71.945 42.3908L73.7 31.672C73.7533 31.3431 73.7359 31.0063 73.6489 30.685C73.5619 30.3636 73.4074 30.0655 73.1962 29.8112C72.9849 29.5569 72.722 29.3527 72.4256 29.2126C72.1293 29.0725 71.8066 29 71.48 29H59.405C58.6953 28.9988 58.0082 29.2554 57.4669 29.7239C56.9255 30.1924 56.565 30.8422 56.45 31.5572L55.115 39.7188H54.5V36.35C54.4984 34.9361 54.0708 33.5569 53.2752 32.3996C52.4796 31.2422 51.3545 30.3628 50.0525 29.8805L46.25 28.4641V27.8286C47.5647 27.3551 48.7034 26.4774 49.5093 25.316C50.3152 24.1547 50.7486 22.7669 50.75 21.3438V11.3906C50.75 11.1876 50.671 10.9928 50.5303 10.8492C50.3897 10.7057 50.1989 10.625 50 10.625H41C40.0054 10.625 39.0516 11.0283 38.3483 11.7462C37.6451 12.4641 37.25 13.4378 37.25 14.4531V17.6458C36.8089 17.8051 36.4275 18.1009 36.1588 18.4919C35.8901 18.8829 35.7475 19.3496 35.7508 19.8272C35.7541 20.3048 35.9032 20.7695 36.1772 21.1566C36.4513 21.5437 36.8368 21.8339 37.28 21.9869C37.422 23.5884 38.1125 25.0875 39.23 26.2208C39.5436 26.5378 39.8851 26.8249 40.25 27.0783V28.4641L36.4475 29.8805C35.1455 30.3628 34.0204 31.2422 33.2248 32.3996C32.4292 33.5569 32.0016 34.9361 32 36.35V40.4844C32.0023 41.316 32.2739 42.1236 32.7725 42.7812H31.25C31.0511 42.7812 30.8603 42.8619 30.7197 43.0055C30.579 43.1491 30.5 43.3438 30.5 43.5469V46.6094C30.5 46.8124 30.579 47.0072 30.7197 47.1508C30.8603 47.2943 31.0511 47.375 31.25 47.375H32.75V51.2031C32.75 51.4062 32.829 51.6009 32.9697 51.7445C33.1103 51.8881 33.3011 51.9688 33.5 51.9688H72.5C72.6989 51.9688 72.8897 51.8881 73.0303 51.7445C73.171 51.6009 73.25 51.4062 73.25 51.2031V47.375H74.75C74.9489 47.375 75.1397 47.2943 75.2803 47.1508C75.421 47.0072 75.5 46.8124 75.5 46.6094V43.5469C75.5 43.3438 75.421 43.1491 75.2803 43.0055C75.1397 42.8619 74.9489 42.7812 74.75 42.7812ZM71.48 30.5312C71.5883 30.5312 71.6954 30.5552 71.7938 30.6014C71.8922 30.6477 71.9796 30.7152 72.05 30.7992C72.1216 30.8848 72.1742 30.9853 72.2039 31.0937C72.2337 31.2022 72.2401 31.3159 72.2225 31.427L70.4675 42.1458C70.4391 42.3237 70.3495 42.4854 70.2148 42.6019C70.0801 42.7183 69.9091 42.782 69.7325 42.7812H59.135L61.1375 30.5312H71.48ZM57.9275 31.8098C57.9844 31.4521 58.1645 31.1268 58.4353 30.8925C58.7061 30.6581 59.05 30.53 59.405 30.5312H59.615L57.6125 42.7812H56.135L57.9275 31.8098ZM54.8675 41.25L54.6125 42.7812H49.25C49.0511 42.7812 48.8603 42.7006 48.7197 42.557C48.579 42.4134 48.5 42.2187 48.5 42.0156V41.25H54.8675ZM38.75 14.4531C38.7518 13.8445 38.9894 13.2614 39.411 12.831C39.8325 12.4006 40.4038 12.1581 41 12.1562H49.25V14.6139C48.8075 14.6828 48.4025 14.767 48.005 14.8436C46.9363 15.0873 45.845 15.2131 44.75 15.2188C44.0713 15.2572 43.3926 15.1421 42.7625 14.8819C41.9634 14.5618 41.1076 14.4158 40.25 14.4531C40.0511 14.4531 39.8603 14.5338 39.7197 14.6774C39.579 14.821 39.5 15.0157 39.5 15.2188V16.75C39.5 16.9531 39.421 17.1478 39.2803 17.2914C39.1397 17.435 38.9489 17.5156 38.75 17.5156V14.4531ZM38.75 21.3438C38.75 21.1407 38.671 20.946 38.5303 20.8024C38.3897 20.6588 38.1989 20.5781 38 20.5781C37.8011 20.5781 37.6103 20.4975 37.4697 20.3539C37.329 20.2103 37.25 20.0156 37.25 19.8125C37.25 19.6094 37.329 19.4147 37.4697 19.2711C37.6103 19.1275 37.8011 19.0469 38 19.0469H38.75C39.3462 19.0451 39.9175 18.8025 40.339 18.3721C40.7606 17.9418 40.9982 17.3586 41 16.75V16.015C41.4261 16.0475 41.8441 16.1509 42.2375 16.3212C43.0366 16.6413 43.8924 16.7873 44.75 16.75C45.9433 16.7441 47.1325 16.6081 48.2975 16.3442C48.5975 16.283 48.92 16.2217 49.25 16.1681V21.3438C49.25 22.0476 49.1142 22.7445 48.8504 23.3947C48.5865 24.0449 48.1998 24.6357 47.7123 25.1334C47.2248 25.6311 46.646 26.0258 46.0091 26.2952C45.3721 26.5645 44.6894 26.7031 44 26.7031C43.3106 26.7031 42.6279 26.5645 41.9909 26.2952C41.354 26.0258 40.7752 25.6311 40.2877 25.1334C39.8002 24.6357 39.4135 24.0449 39.1496 23.3947C38.8858 22.7445 38.75 22.0476 38.75 21.3438ZM44.75 28.1884V29C44.75 29.4061 44.592 29.7956 44.3107 30.0828C44.0294 30.3699 43.6478 30.5312 43.25 30.5312C42.8522 30.5312 42.4706 30.3699 42.1893 30.0828C41.908 29.7956 41.75 29.4061 41.75 29V27.8363C42.4729 28.0965 43.2335 28.231 44 28.2344C44.2507 28.2346 44.5011 28.2192 44.75 28.1884ZM33.5 36.35C33.5001 35.2505 33.8321 34.1777 34.4508 33.2777C35.0694 32.3776 35.9447 31.694 36.9575 31.3198L40.4375 30.0259C40.6416 30.6212 41.0219 31.1371 41.5257 31.502C42.0296 31.867 42.6322 32.063 43.25 32.063C43.8678 32.063 44.4704 31.867 44.9743 31.502C45.4781 31.1371 45.8584 30.6212 46.0625 30.0259L49.5425 31.3198C50.5553 31.694 51.4306 32.3776 52.0492 33.2777C52.6679 34.1777 52.9999 35.2505 53 36.35V39.7188H50.75V35.125H49.25V39.7188H47.75C47.5511 39.7188 47.3603 39.7994 47.2197 39.943C47.079 40.0866 47 40.2813 47 40.4844V42.0156C47.002 42.2768 47.0477 42.5357 47.135 42.7812H43.25C43.25 41.766 42.8549 40.7923 42.1517 40.0744C41.4484 39.3564 40.4946 38.9531 39.5 38.9531H37.25V35.125H35.75V39.7188C35.75 39.9218 35.829 40.1165 35.9697 40.2601C36.1103 40.4037 36.3011 40.4844 36.5 40.4844H38V42.7812H35.75C35.1538 42.7794 34.5825 42.5369 34.161 42.1065C33.7394 41.6761 33.5018 41.093 33.5 40.4844V36.35ZM41.75 42.7812H39.5V40.4844C40.0962 40.4862 40.6675 40.7288 41.089 41.1591C41.5106 41.5895 41.7482 42.1726 41.75 42.7812ZM71.75 50.4375H34.25V47.375H71.75V50.4375ZM74 45.8438H32V44.3125H74V45.8438Z" fill="#777777"/>
<path d="M65.75 38.9531C66.195 38.9531 66.63 38.8184 67 38.566C67.37 38.3137 67.6584 37.9549 67.8287 37.5352C67.999 37.1155 68.0436 36.6537 67.9568 36.2082C67.87 35.7626 67.6557 35.3533 67.341 35.0321C67.0263 34.7109 66.6254 34.4921 66.189 34.4035C65.7525 34.3149 65.3001 34.3604 64.889 34.5342C64.4778 34.7081 64.1264 35.0025 63.8792 35.3802C63.632 35.7579 63.5 36.202 63.5 36.6563C63.5 37.2654 63.7371 37.8496 64.159 38.2804C64.581 38.7111 65.1533 38.9531 65.75 38.9531ZM65.75 35.8906C65.8983 35.8906 66.0433 35.9355 66.1667 36.0197C66.29 36.1038 66.3861 36.2234 66.4429 36.3633C66.4997 36.5032 66.5145 36.6571 66.4856 36.8056C66.4567 36.9541 66.3852 37.0906 66.2803 37.1976C66.1754 37.3047 66.0418 37.3776 65.8963 37.4072C65.7508 37.4367 65.6 37.4215 65.463 37.3636C65.3259 37.3056 65.2088 37.2075 65.1264 37.0816C65.044 36.9557 65 36.8077 65 36.6563C65 36.4532 65.079 36.2585 65.2197 36.1149C65.3603 35.9713 65.5511 35.8906 65.75 35.8906Z" fill="#777777"/>
<path d="M43.25 18.2812H41.75V19.8125H43.25V18.2812Z" fill="#777777"/>
<path d="M47.75 18.2812H46.25V19.8125H47.75V18.2812Z" fill="#777777"/>
<path d="M53.6435 19.0392L55.655 19.3325C55.7909 19.7642 55.9613 20.1839 56.1643 20.5873L54.9455 22.2464C54.8374 22.3938 54.785 22.576 54.7978 22.7596C54.8106 22.9433 54.8878 23.1161 55.0153 23.2463L57.1362 25.4115C57.2639 25.5416 57.4331 25.6204 57.613 25.6335C57.7929 25.6466 57.9714 25.5931 58.1157 25.4827L59.741 24.2386C60.1362 24.4458 60.5473 24.6197 60.9702 24.7584L61.2575 26.8118C61.2831 26.9942 61.3723 27.161 61.5087 27.2817C61.6451 27.4024 61.8195 27.4688 62 27.4688H65C65.1805 27.4688 65.3549 27.4024 65.4913 27.2817C65.6277 27.161 65.7169 26.9942 65.7425 26.8118L66.0298 24.7584C66.4527 24.6195 66.8638 24.4457 67.259 24.2386L68.8843 25.4827C69.0286 25.5931 69.2071 25.6466 69.387 25.6335C69.5669 25.6204 69.7362 25.5416 69.8638 25.4115L71.9847 23.2463C72.1122 23.1161 72.1894 22.9433 72.2022 22.7596C72.215 22.576 72.1626 22.3938 72.0545 22.2464L70.8357 20.5873C71.0387 20.1839 71.2091 19.7642 71.345 19.3325L73.3565 19.0392C73.5351 19.0131 73.6986 18.922 73.8168 18.7828C73.935 18.6436 74 18.4655 74 18.2812V15.2188C74 15.0345 73.935 14.8564 73.8168 14.7172C73.6986 14.578 73.5351 14.4869 73.3565 14.4608L71.345 14.1675C71.2091 13.7358 71.0387 13.3161 70.8357 12.9127L72.0545 11.2536C72.1626 11.1062 72.215 10.924 72.2022 10.7404C72.1894 10.5567 72.1122 10.3839 71.9847 10.2537L69.8638 8.08848C69.7362 7.95838 69.5669 7.87957 69.387 7.86649C69.2071 7.85341 69.0286 7.90694 68.8843 8.01728L67.259 9.26142C66.8638 9.05433 66.4527 8.88046 66.0298 8.74156L65.7425 6.68816C65.7169 6.50579 65.6277 6.33896 65.4913 6.2183C65.3549 6.09764 65.1805 6.03123 65 6.03125H62C61.8195 6.03123 61.6451 6.09764 61.5087 6.2183C61.3723 6.33896 61.2831 6.50579 61.2575 6.68816L60.9702 8.74156C60.5473 8.88034 60.1362 9.0542 59.741 9.26142L58.1157 8.01728C57.9714 7.90694 57.7929 7.85341 57.613 7.86649C57.4331 7.87957 57.2639 7.95838 57.1362 8.08848L55.0153 10.2537C54.8878 10.3839 54.8106 10.5567 54.7978 10.7404C54.785 10.924 54.8374 11.1062 54.9455 11.2536L56.1643 12.9127C55.9613 13.3161 55.7909 13.7358 55.655 14.1675L53.6435 14.4608C53.4649 14.4869 53.3014 14.578 53.1832 14.7172C53.065 14.8564 53 15.0345 53 15.2188V18.2812C53 18.4655 53.065 18.6436 53.1832 18.7828C53.3014 18.922 53.4649 19.0131 53.6435 19.0392ZM54.5 15.8825L56.3473 15.6138C56.4943 15.5922 56.6317 15.5266 56.7421 15.4252C56.8525 15.3238 56.931 15.1912 56.9675 15.0442C57.1256 14.4101 57.3724 13.8026 57.7002 13.2404C57.7759 13.11 57.8119 12.9596 57.8037 12.8084C57.7956 12.6571 57.7436 12.5117 57.6545 12.3905L56.5355 10.8662L57.7355 9.64117L59.2288 10.7835C59.3474 10.8745 59.4899 10.9275 59.6381 10.9358C59.7863 10.9441 59.9335 10.9074 60.0613 10.8302C60.612 10.4955 61.2071 10.2436 61.8282 10.0822C61.9722 10.0449 62.1021 9.96483 62.2015 9.8521C62.3008 9.73938 62.3651 9.59908 62.3862 9.449L62.6503 7.5625H64.3497L64.613 9.44823C64.6341 9.59832 64.6985 9.73861 64.7978 9.85134C64.8971 9.96406 65.027 10.0441 65.171 10.0814C65.7921 10.2428 66.3872 10.4948 66.938 10.8294C67.0657 10.9066 67.213 10.9434 67.3612 10.935C67.5094 10.9267 67.6518 10.8737 67.7705 10.7827L69.2638 9.64041L70.4637 10.8654L69.3447 12.3898C69.2556 12.5109 69.2037 12.6563 69.1955 12.8076C69.1874 12.9589 69.2234 13.1092 69.299 13.2396C69.6268 13.8018 69.8736 14.4094 70.0317 15.0434C70.0683 15.1904 70.1467 15.323 70.2571 15.4244C70.3675 15.5258 70.505 15.5915 70.652 15.613L72.5 15.8825V17.6175L70.6527 17.8862C70.5057 17.9078 70.3683 17.9734 70.2579 18.0748C70.1475 18.1762 70.069 18.3088 70.0325 18.4558C69.8744 19.0899 69.6276 19.6974 69.2998 20.2596C69.2241 20.39 69.1881 20.5404 69.1963 20.6916C69.2044 20.8429 69.2564 20.9883 69.3455 21.1095L70.4645 22.6338L69.2645 23.8588L67.7712 22.7165C67.6526 22.6255 67.5101 22.5725 67.3619 22.5642C67.2137 22.5559 67.0665 22.5926 66.9387 22.6698C66.388 23.0045 65.7929 23.2564 65.1718 23.4178C65.0278 23.4551 64.8979 23.5352 64.7985 23.6479C64.6992 23.7606 64.6349 23.9009 64.6138 24.051L64.3497 25.9375H62.6503L62.387 24.0518C62.3659 23.9017 62.3015 23.7614 62.2022 23.6487C62.1029 23.5359 61.973 23.4559 61.829 23.4186C61.2079 23.2572 60.6128 23.0052 60.062 22.6706C59.9343 22.5934 59.787 22.5566 59.6388 22.565C59.4906 22.5733 59.3482 22.6263 59.2295 22.7173L57.7362 23.8596L56.5363 22.6346L57.6553 21.1102C57.7444 20.9891 57.7963 20.8437 57.8045 20.6924C57.8126 20.5411 57.7766 20.3908 57.701 20.2604C57.3732 19.6982 57.1264 19.0906 56.9683 18.4566C56.9317 18.3096 56.8533 18.177 56.7429 18.0756C56.6325 17.9742 56.495 17.9085 56.348 17.887L54.5 17.6175V15.8825Z" fill="#777777"/>
<path d="M63.5 21.3438C64.39 21.3438 65.26 21.0743 66.0001 20.5696C66.7401 20.0648 67.3169 19.3474 67.6575 18.508C67.9981 17.6686 68.0872 16.7449 67.9135 15.8538C67.7399 14.9627 67.3113 14.1442 66.682 13.5017C66.0526 12.8593 65.2508 12.4218 64.3779 12.2445C63.505 12.0673 62.6002 12.1582 61.7779 12.5059C60.9557 12.8536 60.2529 13.4424 59.7584 14.1979C59.2639 14.9533 59 15.8414 59 16.75C59.0012 17.968 59.4757 19.1357 60.3193 19.9969C61.163 20.8582 62.3069 21.3425 63.5 21.3438ZM63.5 13.6875C64.0933 13.6875 64.6734 13.8671 65.1667 14.2036C65.6601 14.5401 66.0446 15.0184 66.2716 15.578C66.4987 16.1376 66.5581 16.7534 66.4424 17.3475C66.3266 17.9415 66.0409 18.4872 65.6213 18.9155C65.2018 19.3438 64.6672 19.6355 64.0853 19.7537C63.5033 19.8718 62.9001 19.8112 62.3519 19.5794C61.8038 19.3476 61.3352 18.9551 61.0056 18.4514C60.6759 17.9478 60.5 17.3557 60.5 16.75C60.5 15.9378 60.8161 15.1588 61.3787 14.5845C61.9413 14.0102 62.7043 13.6875 63.5 13.6875Z" fill="#777777"/>
<path d="M44.75 25.1719C45.5456 25.1719 46.3087 24.8492 46.8713 24.2749C47.4339 23.7006 47.75 22.9216 47.75 22.1094H46.25C46.25 22.5155 46.092 22.905 45.8107 23.1921C45.5294 23.4793 45.1478 23.6406 44.75 23.6406C44.3522 23.6406 43.9706 23.4793 43.6893 23.1921C43.408 22.905 43.25 22.5155 43.25 22.1094H41.75C41.75 22.9216 42.0661 23.7006 42.6287 24.2749C43.1913 24.8492 43.9544 25.1719 44.75 25.1719Z" fill="#777777"/>
</svg>
