<svg width="120" height="127" viewBox="0 0 120 127" fill="none" xmlns="http://www.w3.org/2000/svg">
<path d="M8.41016 86.724C7.4675 86.724 6.63216 86.5047 5.90416 86.066C5.17616 85.6273 4.6115 85.03 4.21016 84.274C3.80883 83.5087 3.60816 82.664 3.60816 81.74C3.60816 80.8533 3.79483 80.0087 4.16816 79.206C4.55083 78.394 5.11083 77.736 5.84816 77.232C6.5855 76.728 7.47216 76.476 8.50816 76.476C8.8815 76.476 9.28283 76.5367 9.71216 76.658C10.1508 76.7793 10.5522 76.9473 10.9162 77.162H10.9302L10.8742 76.574H11.9522V79.836H11.0422C10.7902 78.2867 10.0062 77.5027 8.69016 77.484C8.06483 77.484 7.53283 77.6707 7.09416 78.044C6.66483 78.408 6.34283 78.8933 6.12816 79.5C5.9135 80.1067 5.80616 80.76 5.80616 81.46C5.80616 82.2627 5.92283 82.9767 6.15616 83.602C6.3895 84.2273 6.7255 84.7173 7.16416 85.072C7.60283 85.4173 8.13016 85.59 8.74616 85.59C9.3435 85.59 9.92683 85.436 10.4962 85.128C11.0748 84.82 11.5602 84.4 11.9522 83.868L12.6242 84.484C12.0082 85.3333 11.3315 85.9213 10.5942 86.248C9.85683 86.5653 9.12883 86.724 8.41016 86.724ZM16.2288 86.724C15.3982 86.724 14.8008 86.4813 14.4368 85.996C14.0822 85.5107 13.9048 84.722 13.9048 83.63V82.02C13.9048 81.628 13.9188 81.222 13.9468 80.802L12.9668 80.844V79.78C13.5548 79.78 14.0308 79.738 14.3948 79.654C14.7588 79.57 15.0015 79.472 15.1228 79.36H15.8928V83.644C15.8928 84.26 15.9722 84.7127 16.1308 85.002C16.2895 85.2913 16.5415 85.436 16.8868 85.436C17.1202 85.436 17.3582 85.3707 17.6008 85.24C17.8528 85.1093 18.0628 84.9507 18.2308 84.764V82.02C18.2308 81.5813 18.2495 81.1753 18.2868 80.802L17.3068 80.844V79.78C17.8948 79.78 18.3662 79.738 18.7208 79.654C19.0848 79.57 19.3275 79.472 19.4488 79.36H20.2188V84.246C20.2188 84.694 20.2002 85.1047 20.1628 85.478C20.4615 85.45 20.7648 85.436 21.0728 85.436V86.5H18.4128L18.3288 85.772H18.3148C17.9695 86.0707 17.6335 86.304 17.3068 86.472C16.9895 86.64 16.6302 86.724 16.2288 86.724ZM25.2051 86.724C24.8038 86.724 24.4118 86.6727 24.0291 86.57C23.6465 86.4673 23.3478 86.3367 23.1331 86.178H23.1191L23.1611 86.598H22.0971L22.0411 84.19H22.9511C22.9978 84.6193 23.2218 84.9833 23.6231 85.282C24.0338 85.5713 24.5331 85.716 25.1211 85.716C25.3825 85.716 25.6065 85.6553 25.7931 85.534C25.9891 85.4127 26.0871 85.24 26.0871 85.016C26.0871 84.848 26.0265 84.708 25.9051 84.596C25.7838 84.484 25.6391 84.3907 25.4711 84.316C25.3031 84.2413 24.9671 84.106 24.4631 83.91C23.8658 83.6767 23.4178 83.4853 23.1191 83.336C22.8205 83.1867 22.5498 82.9673 22.3071 82.678C22.0738 82.3793 21.9571 81.9967 21.9571 81.53C21.9571 81.1473 22.0505 80.788 22.2371 80.452C22.4331 80.1067 22.7271 79.8267 23.1191 79.612C23.5205 79.388 24.0105 79.276 24.5891 79.276C24.8598 79.276 25.1538 79.318 25.4711 79.402C25.7885 79.486 26.0545 79.6027 26.2691 79.752H26.2831L26.2691 79.346H27.3331V81.824H26.4231C26.3391 81.3387 26.1245 80.956 25.7791 80.676C25.4338 80.396 25.0091 80.256 24.5051 80.256C24.2438 80.256 24.0245 80.3167 23.8471 80.438C23.6698 80.5593 23.5811 80.746 23.5811 80.998C23.5811 81.2593 23.6838 81.4553 23.8891 81.586C24.0945 81.7073 24.4398 81.8473 24.9251 82.006C24.9811 82.0153 25.1025 82.0527 25.2891 82.118C26.0825 82.398 26.6891 82.7247 27.1091 83.098C27.5385 83.4713 27.7531 83.9613 27.7531 84.568C27.7531 85.0347 27.6318 85.4313 27.3891 85.758C27.1558 86.0753 26.8431 86.318 26.4511 86.486C26.0685 86.6447 25.6531 86.724 25.2051 86.724ZM31.5521 86.724C30.0961 86.724 29.3681 85.828 29.3681 84.036L29.3961 80.662H28.4441V79.5C28.7427 79.5 29.0227 79.4067 29.2841 79.22C29.5547 79.0333 29.7834 78.8047 29.9701 78.534C30.1567 78.2633 30.2874 78.002 30.3621 77.75H31.3981L31.3841 79.5H33.1621V80.578L31.3841 80.62L31.3701 84.064C31.3701 84.9693 31.6501 85.422 32.2101 85.422C32.6581 85.422 33.0827 85.142 33.4841 84.582L34.1561 85.212C33.7174 85.856 33.2787 86.2713 32.8401 86.458C32.4014 86.6353 31.9721 86.724 31.5521 86.724ZM37.9933 86.724C37.3119 86.724 36.7006 86.5793 36.1593 86.29C35.6179 86.0007 35.1933 85.5853 34.8853 85.044C34.5773 84.5027 34.4233 83.8727 34.4233 83.154C34.4233 82.398 34.5819 81.726 34.8993 81.138C35.2166 80.55 35.6413 80.0927 36.1733 79.766C36.7146 79.4393 37.3073 79.276 37.9513 79.276C38.6233 79.276 39.2253 79.4207 39.7573 79.71C40.2893 79.9993 40.7093 80.4193 41.0173 80.97C41.3253 81.5113 41.4793 82.146 41.4793 82.874C41.4793 83.6487 41.3299 84.3253 41.0313 84.904C40.7419 85.4827 40.3313 85.9307 39.7993 86.248C39.2766 86.5653 38.6746 86.724 37.9933 86.724ZM38.0213 85.73C38.5346 85.73 38.8939 85.492 39.0993 85.016C39.3046 84.54 39.4073 83.9427 39.4073 83.224C39.4073 82.4213 39.2906 81.726 39.0573 81.138C38.8239 80.55 38.4553 80.256 37.9513 80.256C37.4379 80.256 37.0646 80.4987 36.8313 80.984C36.5979 81.4693 36.4813 82.0667 36.4813 82.776C36.4813 83.588 36.6073 84.2833 36.8593 84.862C37.1113 85.4407 37.4986 85.73 38.0213 85.73ZM42.4929 85.59C42.8476 85.59 43.0716 85.492 43.1649 85.296C43.2676 85.1 43.3189 84.7827 43.3189 84.344V81.992C43.3189 81.572 43.3376 81.1753 43.3749 80.802L42.3949 80.844V79.78C42.9829 79.78 43.4589 79.738 43.8229 79.654C44.1869 79.57 44.4296 79.472 44.5509 79.36H45.2369C45.2369 79.3787 45.2556 79.612 45.2929 80.06H45.3209C45.6103 79.8267 45.9369 79.64 46.3009 79.5C46.6649 79.3507 47.0196 79.276 47.3649 79.276C47.7849 79.276 48.1349 79.3553 48.4149 79.514C48.7043 79.6633 48.9329 79.892 49.1009 80.2C49.4369 79.92 49.8103 79.696 50.2209 79.528C50.6316 79.36 51.0189 79.276 51.3829 79.276C52.1576 79.276 52.7316 79.5 53.1049 79.948C53.4876 80.396 53.6789 81.1427 53.6789 82.188V84.246C53.6789 84.694 53.6603 85.1047 53.6229 85.478C53.9216 85.45 54.2249 85.436 54.5329 85.436V86.5H50.9909V85.59C51.2896 85.59 51.4809 85.492 51.5649 85.296C51.6489 85.0907 51.6909 84.7733 51.6909 84.344V82.202C51.6816 81.614 51.5836 81.1987 51.3969 80.956C51.2103 80.704 50.9396 80.578 50.5849 80.578C50.1743 80.578 49.7729 80.732 49.3809 81.04C49.4649 81.4133 49.5069 81.8567 49.5069 82.37V84.246C49.5069 84.694 49.4883 85.1047 49.4509 85.478C49.7496 85.45 50.0529 85.436 50.3609 85.436V86.5H46.7489V85.59C47.0756 85.59 47.2856 85.492 47.3789 85.296C47.4723 85.1 47.5189 84.7827 47.5189 84.344L47.5049 82.16C47.5049 81.5813 47.4209 81.1753 47.2529 80.942C47.0849 80.6993 46.8329 80.5733 46.4969 80.564C46.0863 80.564 45.6896 80.7367 45.3069 81.082V84.246C45.3069 84.694 45.2883 85.1047 45.2509 85.478C45.5496 85.45 45.8296 85.436 46.0909 85.436V86.5H42.4929V85.59ZM62.2696 86.724C61.8683 86.724 61.4763 86.6727 61.0936 86.57C60.7109 86.4673 60.4123 86.3367 60.1976 86.178H60.1836L60.2256 86.598H59.1616L59.1056 84.19H60.0156C60.0623 84.6193 60.2863 84.9833 60.6876 85.282C61.0983 85.5713 61.5976 85.716 62.1856 85.716C62.4469 85.716 62.6709 85.6553 62.8576 85.534C63.0536 85.4127 63.1516 85.24 63.1516 85.016C63.1516 84.848 63.0909 84.708 62.9696 84.596C62.8483 84.484 62.7036 84.3907 62.5356 84.316C62.3676 84.2413 62.0316 84.106 61.5276 83.91C60.9303 83.6767 60.4823 83.4853 60.1836 83.336C59.8849 83.1867 59.6143 82.9673 59.3716 82.678C59.1383 82.3793 59.0216 81.9967 59.0216 81.53C59.0216 81.1473 59.1149 80.788 59.3016 80.452C59.4976 80.1067 59.7916 79.8267 60.1836 79.612C60.5849 79.388 61.0749 79.276 61.6536 79.276C61.9243 79.276 62.2183 79.318 62.5356 79.402C62.8529 79.486 63.1189 79.6027 63.3336 79.752H63.3476L63.3336 79.346H64.3976V81.824H63.4876C63.4036 81.3387 63.1889 80.956 62.8436 80.676C62.4983 80.396 62.0736 80.256 61.5696 80.256C61.3083 80.256 61.0889 80.3167 60.9116 80.438C60.7343 80.5593 60.6456 80.746 60.6456 80.998C60.6456 81.2593 60.7483 81.4553 60.9536 81.586C61.1589 81.7073 61.5043 81.8473 61.9896 82.006C62.0456 82.0153 62.1669 82.0527 62.3536 82.118C63.1469 82.398 63.7536 82.7247 64.1736 83.098C64.6029 83.4713 64.8176 83.9613 64.8176 84.568C64.8176 85.0347 64.6963 85.4313 64.4536 85.758C64.2203 86.0753 63.9076 86.318 63.5156 86.486C63.1329 86.6447 62.7176 86.724 62.2696 86.724ZM69.2745 86.724C68.5932 86.724 67.9818 86.5793 67.4405 86.29C66.8992 86.0007 66.4745 85.5853 66.1665 85.044C65.8585 84.5027 65.7045 83.8727 65.7045 83.154C65.7045 82.398 65.8632 81.726 66.1805 81.138C66.4978 80.55 66.9225 80.0927 67.4545 79.766C67.9958 79.4393 68.5885 79.276 69.2325 79.276C69.9045 79.276 70.5065 79.4207 71.0385 79.71C71.5705 79.9993 71.9905 80.4193 72.2985 80.97C72.6065 81.5113 72.7605 82.146 72.7605 82.874C72.7605 83.6487 72.6112 84.3253 72.3125 84.904C72.0232 85.4827 71.6125 85.9307 71.0805 86.248C70.5578 86.5653 69.9558 86.724 69.2745 86.724ZM69.3025 85.73C69.8158 85.73 70.1752 85.492 70.3805 85.016C70.5858 84.54 70.6885 83.9427 70.6885 83.224C70.6885 82.4213 70.5718 81.726 70.3385 81.138C70.1052 80.55 69.7365 80.256 69.2325 80.256C68.7192 80.256 68.3458 80.4987 68.1125 80.984C67.8792 81.4693 67.7625 82.0667 67.7625 82.776C67.7625 83.588 67.8885 84.2833 68.1405 84.862C68.3925 85.4407 68.7798 85.73 69.3025 85.73ZM73.7475 85.59C74.1022 85.59 74.3308 85.492 74.4335 85.296C74.5362 85.1 74.5875 84.7827 74.5875 84.344V80.648L73.5655 80.662V79.5H74.5875V79.094C74.5875 78.002 74.8255 77.204 75.3015 76.7C75.7775 76.1867 76.4542 75.93 77.3315 75.93C77.9382 75.93 78.3862 76.0513 78.6755 76.294C78.9648 76.5367 79.1095 76.826 79.1095 77.162C79.1095 77.4233 79.0302 77.6473 78.8715 77.834C78.7128 78.0113 78.4935 78.1 78.2135 78.1C77.9522 78.1 77.7468 78.0253 77.5975 77.876C77.4575 77.7267 77.3875 77.5353 77.3875 77.302C77.3875 77.1807 77.3968 77.0873 77.4155 77.022C77.3408 76.9473 77.2335 76.91 77.0935 76.91C76.7202 76.9193 76.5335 77.2087 76.5335 77.778V79.5H78.1015V80.578L76.5475 80.62L76.5615 84.218C76.5615 84.6847 76.5428 85.1047 76.5055 85.478C76.8135 85.45 77.1402 85.436 77.4855 85.436V86.5H73.7475V85.59ZM81.6595 86.724C80.2035 86.724 79.4755 85.828 79.4755 84.036L79.5035 80.662H78.5515V79.5C78.8501 79.5 79.1301 79.4067 79.3915 79.22C79.6621 79.0333 79.8908 78.8047 80.0775 78.534C80.2641 78.2633 80.3948 78.002 80.4695 77.75H81.5055L81.4915 79.5H83.2695V80.578L81.4915 80.62L81.4775 84.064C81.4775 84.9693 81.7575 85.422 82.3175 85.422C82.7655 85.422 83.1901 85.142 83.5915 84.582L84.2635 85.212C83.8248 85.856 83.3861 86.2713 82.9475 86.458C82.5088 86.6353 82.0795 86.724 81.6595 86.724ZM85.1047 81.684C85.002 81.3947 84.9273 81.1753 84.8807 81.026C84.834 80.8673 84.792 80.704 84.7547 80.536L84.2087 80.564V79.5H87.5687V80.396C87.2047 80.4053 87.0227 80.6013 87.0227 80.984C87.0227 81.0773 87.0507 81.2453 87.1067 81.488L87.5827 83.196C87.7133 83.672 87.8113 84.1153 87.8767 84.526H87.8907C87.9093 84.4513 87.9467 84.274 88.0027 83.994C88.0587 83.714 88.1427 83.3873 88.2547 83.014L89.2767 79.5H90.8027L91.9227 83.364C91.988 83.5973 92.1 84.0173 92.2587 84.624H92.2727C92.31 84.3533 92.4173 83.9473 92.5947 83.406L93.1407 81.628C93.206 81.404 93.2713 81.2033 93.3367 81.026C93.402 80.8393 93.472 80.6713 93.5467 80.522V80.508L92.7487 80.564V79.5H95.4087V80.396C94.914 80.396 94.494 80.9 94.1487 81.908L92.5527 86.542H91.0687L90.1027 83.56C89.9533 83.0933 89.79 82.5193 89.6127 81.838H89.5987C89.496 82.398 89.2813 83.196 88.9547 84.232L88.1847 86.542H86.7987L85.1047 81.684ZM97.7136 86.724C97.1256 86.724 96.659 86.5513 96.3136 86.206C95.9776 85.8513 95.8096 85.4033 95.8096 84.862C95.8096 84.0407 96.1923 83.42 96.9576 83C97.723 82.5707 98.6423 82.3327 99.7156 82.286V81.558C99.7156 80.7087 99.3983 80.284 98.7636 80.284C98.353 80.284 98.017 80.4147 97.7556 80.676C97.8676 80.8067 97.9236 80.984 97.9236 81.208C97.9236 81.432 97.8443 81.6327 97.6856 81.81C97.5363 81.9873 97.3123 82.076 97.0136 82.076C96.7336 82.076 96.5143 81.9873 96.3556 81.81C96.197 81.6233 96.1176 81.3947 96.1176 81.124C96.1176 80.76 96.2483 80.438 96.5096 80.158C96.771 79.878 97.1256 79.6633 97.5736 79.514C98.031 79.3553 98.5303 79.276 99.0716 79.276C100.798 79.276 101.662 80.1673 101.662 81.95L101.648 84.246C101.648 84.694 101.629 85.1047 101.592 85.478C101.9 85.45 102.203 85.436 102.502 85.436V86.5H99.8556C99.837 86.3787 99.8183 86.164 99.7996 85.856H99.7856C99.2163 86.4347 98.5256 86.724 97.7136 86.724ZM98.5956 85.352C99.0156 85.352 99.3843 85.184 99.7016 84.848V83.28C99.151 83.336 98.6936 83.476 98.3296 83.7C97.975 83.924 97.7976 84.2273 97.7976 84.61C97.7976 84.862 97.8723 85.0487 98.0216 85.17C98.1803 85.2913 98.3716 85.352 98.5956 85.352ZM103.305 85.59C103.66 85.59 103.884 85.492 103.977 85.296C104.08 85.1 104.131 84.7827 104.131 84.344V81.992C104.131 81.572 104.15 81.1753 104.187 80.802L103.207 80.844V79.78C103.795 79.78 104.271 79.738 104.635 79.654C104.999 79.57 105.242 79.472 105.363 79.36H106.049C106.068 79.5 106.082 79.682 106.091 79.906C106.101 80.13 106.105 80.3493 106.105 80.564H106.133C106.768 79.7053 107.44 79.276 108.149 79.276C108.504 79.276 108.793 79.374 109.017 79.57C109.251 79.766 109.367 80.0553 109.367 80.438C109.367 80.6807 109.288 80.9047 109.129 81.11C108.971 81.3153 108.733 81.418 108.415 81.418C108.182 81.418 107.972 81.3573 107.785 81.236C107.608 81.1147 107.505 80.9047 107.477 80.606C107.216 80.606 106.945 80.76 106.665 81.068C106.395 81.3667 106.213 81.6653 106.119 81.964V84.246C106.119 84.694 106.101 85.1047 106.063 85.478C106.362 85.45 106.665 85.436 106.973 85.436V86.5H103.305V85.59ZM113.241 86.724C112.559 86.724 111.957 86.5747 111.435 86.276C110.912 85.968 110.506 85.534 110.217 84.974C109.927 84.414 109.783 83.7607 109.783 83.014C109.783 82.3607 109.927 81.7493 110.217 81.18C110.515 80.6013 110.931 80.1393 111.463 79.794C111.995 79.4487 112.601 79.276 113.283 79.276C114.188 79.276 114.939 79.542 115.537 80.074C116.143 80.606 116.442 81.4927 116.433 82.734L111.841 82.818C111.841 83.6393 111.995 84.288 112.303 84.764C112.62 85.24 113.124 85.478 113.815 85.478C114.141 85.478 114.491 85.394 114.865 85.226C115.238 85.058 115.574 84.792 115.873 84.428L116.503 85.016C115.709 86.1547 114.622 86.724 113.241 86.724ZM114.501 81.838C114.473 80.7833 114.09 80.256 113.353 80.256C112.951 80.256 112.629 80.4007 112.387 80.69C112.153 80.97 111.999 81.3527 111.925 81.838H114.501ZM32.9844 104.724C32.5831 104.724 32.1911 104.673 31.8084 104.57C31.4258 104.467 31.1271 104.337 30.9124 104.178H30.8984L30.9404 104.598H29.8764L29.8204 102.19H30.7304C30.7771 102.619 31.0011 102.983 31.4024 103.282C31.8131 103.571 32.3124 103.716 32.9004 103.716C33.1618 103.716 33.3858 103.655 33.5724 103.534C33.7684 103.413 33.8664 103.24 33.8664 103.016C33.8664 102.848 33.8058 102.708 33.6844 102.596C33.5631 102.484 33.4184 102.391 33.2504 102.316C33.0824 102.241 32.7464 102.106 32.2424 101.91C31.6451 101.677 31.1971 101.485 30.8984 101.336C30.5998 101.187 30.3291 100.967 30.0864 100.678C29.8531 100.379 29.7364 99.9967 29.7364 99.53C29.7364 99.1473 29.8298 98.788 30.0164 98.452C30.2124 98.1067 30.5064 97.8267 30.8984 97.612C31.2998 97.388 31.7898 97.276 32.3684 97.276C32.6391 97.276 32.9331 97.318 33.2504 97.402C33.5678 97.486 33.8338 97.6027 34.0484 97.752H34.0624L34.0484 97.346H35.1124V99.824H34.2024C34.1184 99.3387 33.9038 98.956 33.5584 98.676C33.2131 98.396 32.7884 98.256 32.2844 98.256C32.0231 98.256 31.8038 98.3167 31.6264 98.438C31.4491 98.5593 31.3604 98.746 31.3604 98.998C31.3604 99.2593 31.4631 99.4553 31.6684 99.586C31.8738 99.7073 32.2191 99.8473 32.7044 100.006C32.7604 100.015 32.8818 100.053 33.0684 100.118C33.8618 100.398 34.4684 100.725 34.8884 101.098C35.3178 101.471 35.5324 101.961 35.5324 102.568C35.5324 103.035 35.4111 103.431 35.1684 103.758C34.9351 104.075 34.6224 104.318 34.2304 104.486C33.8478 104.645 33.4324 104.724 32.9844 104.724ZM39.9894 104.724C39.308 104.724 38.6967 104.579 38.1554 104.29C37.614 104.001 37.1894 103.585 36.8814 103.044C36.5734 102.503 36.4194 101.873 36.4194 101.154C36.4194 100.398 36.578 99.726 36.8954 99.138C37.2127 98.55 37.6374 98.0927 38.1694 97.766C38.7107 97.4393 39.3034 97.276 39.9474 97.276C40.6194 97.276 41.2214 97.4207 41.7534 97.71C42.2854 97.9993 42.7054 98.4193 43.0134 98.97C43.3214 99.5113 43.4754 100.146 43.4754 100.874C43.4754 101.649 43.326 102.325 43.0274 102.904C42.738 103.483 42.3274 103.931 41.7954 104.248C41.2727 104.565 40.6707 104.724 39.9894 104.724ZM40.0174 103.73C40.5307 103.73 40.89 103.492 41.0954 103.016C41.3007 102.54 41.4034 101.943 41.4034 101.224C41.4034 100.421 41.2867 99.726 41.0534 99.138C40.82 98.55 40.4514 98.256 39.9474 98.256C39.434 98.256 39.0607 98.4987 38.8274 98.984C38.594 99.4693 38.4774 100.067 38.4774 100.776C38.4774 101.588 38.6034 102.283 38.8554 102.862C39.1074 103.441 39.4947 103.73 40.0174 103.73ZM44.2104 103.59C44.4624 103.59 44.6444 103.543 44.7564 103.45C44.8777 103.347 44.9524 103.212 44.9804 103.044C45.0177 102.876 45.0364 102.643 45.0364 102.344V96.59C45.0364 96.142 45.055 95.736 45.0924 95.372L44.1124 95.414V94.35C44.7004 94.35 45.1764 94.308 45.5404 94.224C45.9044 94.14 46.147 94.042 46.2684 93.93H47.0244V102.246C47.0244 102.694 47.0057 103.105 46.9684 103.478C47.2764 103.45 47.5797 103.436 47.8784 103.436V104.5H44.2104V103.59ZM51.6937 104.724C50.863 104.724 50.2657 104.481 49.9017 103.996C49.547 103.511 49.3697 102.722 49.3697 101.63V100.02C49.3697 99.628 49.3837 99.222 49.4117 98.802L48.4317 98.844V97.78C49.0197 97.78 49.4957 97.738 49.8597 97.654C50.2237 97.57 50.4663 97.472 50.5877 97.36H51.3577V101.644C51.3577 102.26 51.437 102.713 51.5957 103.002C51.7543 103.291 52.0063 103.436 52.3517 103.436C52.585 103.436 52.823 103.371 53.0657 103.24C53.3177 103.109 53.5277 102.951 53.6957 102.764V100.02C53.6957 99.5813 53.7143 99.1753 53.7517 98.802L52.7717 98.844V97.78C53.3597 97.78 53.831 97.738 54.1857 97.654C54.5497 97.57 54.7923 97.472 54.9137 97.36H55.6837V102.246C55.6837 102.694 55.665 103.105 55.6277 103.478C55.9263 103.45 56.2297 103.436 56.5377 103.436V104.5H53.8777L53.7937 103.772H53.7797C53.4343 104.071 53.0983 104.304 52.7717 104.472C52.4543 104.64 52.095 104.724 51.6937 104.724ZM60.1673 104.724C58.7113 104.724 57.9833 103.828 57.9833 102.036L58.0113 98.662H57.0593V97.5C57.358 97.5 57.638 97.4067 57.8993 97.22C58.17 97.0333 58.3986 96.8047 58.5853 96.534C58.772 96.2633 58.9026 96.002 58.9773 95.75H60.0133L59.9993 97.5H61.7773V98.578L59.9993 98.62L59.9853 102.064C59.9853 102.969 60.2653 103.422 60.8253 103.422C61.2733 103.422 61.698 103.142 62.0993 102.582L62.7713 103.212C62.3326 103.856 61.894 104.271 61.4553 104.458C61.0166 104.635 60.5873 104.724 60.1673 104.724ZM65.1525 96.114C64.8352 96.114 64.5738 96.0067 64.3685 95.792C64.1632 95.568 64.0605 95.2973 64.0605 94.98C64.0605 94.6627 64.1678 94.392 64.3825 94.168C64.5972 93.9347 64.8492 93.818 65.1385 93.818C65.4372 93.818 65.6845 93.93 65.8805 94.154C66.0858 94.378 66.1885 94.6533 66.1885 94.98C66.1885 95.3067 66.0905 95.5773 65.8945 95.792C65.7078 96.0067 65.4605 96.114 65.1525 96.114ZM63.1785 103.59C63.5332 103.59 63.7572 103.492 63.8505 103.296C63.9532 103.1 64.0045 102.783 64.0045 102.344V100.02C64.0045 99.5813 64.0232 99.1753 64.0605 98.802L63.0805 98.844V97.78C63.6685 97.78 64.1445 97.738 64.5085 97.654C64.8725 97.57 65.1152 97.472 65.2365 97.36H65.9925V102.246C65.9925 102.694 65.9738 103.105 65.9365 103.478C66.2352 103.45 66.5385 103.436 66.8465 103.436V104.5H63.1785V103.59ZM71.1886 104.724C70.5072 104.724 69.8959 104.579 69.3546 104.29C68.8132 104.001 68.3886 103.585 68.0806 103.044C67.7726 102.503 67.6186 101.873 67.6186 101.154C67.6186 100.398 67.7772 99.726 68.0946 99.138C68.4119 98.55 68.8366 98.0927 69.3686 97.766C69.9099 97.4393 70.5026 97.276 71.1466 97.276C71.8186 97.276 72.4206 97.4207 72.9526 97.71C73.4846 97.9993 73.9046 98.4193 74.2126 98.97C74.5206 99.5113 74.6746 100.146 74.6746 100.874C74.6746 101.649 74.5252 102.325 74.2266 102.904C73.9372 103.483 73.5266 103.931 72.9946 104.248C72.4719 104.565 71.8699 104.724 71.1886 104.724ZM71.2166 103.73C71.7299 103.73 72.0892 103.492 72.2946 103.016C72.4999 102.54 72.6026 101.943 72.6026 101.224C72.6026 100.421 72.4859 99.726 72.2526 99.138C72.0192 98.55 71.6506 98.256 71.1466 98.256C70.6332 98.256 70.2599 98.4987 70.0266 98.984C69.7932 99.4693 69.6766 100.067 69.6766 100.776C69.6766 101.588 69.8026 102.283 70.0546 102.862C70.3066 103.441 70.6939 103.73 71.2166 103.73ZM75.6883 103.59C76.0429 103.59 76.2669 103.492 76.3603 103.296C76.4629 103.1 76.5143 102.783 76.5143 102.344V99.992C76.5143 99.572 76.5329 99.1753 76.5703 98.802L75.5903 98.844V97.78C76.1783 97.78 76.6543 97.738 77.0183 97.654C77.3823 97.57 77.6249 97.472 77.7463 97.36H78.4323C78.4323 97.3787 78.4509 97.612 78.4883 98.06H78.5163C78.7869 97.8453 79.1183 97.6633 79.5103 97.514C79.9116 97.3553 80.2523 97.276 80.5323 97.276C81.3816 97.276 81.9883 97.5187 82.3523 98.004C82.7163 98.4893 82.8983 99.278 82.8983 100.37V102.246C82.8983 102.694 82.8796 103.105 82.8423 103.478C83.1503 103.45 83.4536 103.436 83.7523 103.436V104.5H80.0843V103.59C80.4389 103.59 80.6676 103.492 80.7703 103.296C80.8729 103.1 80.9243 102.783 80.9243 102.344L80.9103 100.356C80.9103 99.74 80.8216 99.2873 80.6443 98.998C80.4763 98.7087 80.1869 98.564 79.7763 98.564C79.5523 98.564 79.3236 98.6153 79.0903 98.718C78.8569 98.8113 78.6609 98.9327 78.5023 99.082V102.246C78.5023 102.694 78.4836 103.105 78.4463 103.478C78.7449 103.45 79.0483 103.436 79.3563 103.436V104.5H75.6883V103.59ZM87.8086 104.724C87.4073 104.724 87.0153 104.673 86.6326 104.57C86.25 104.467 85.9513 104.337 85.7366 104.178H85.7226L85.7646 104.598H84.7006L84.6446 102.19H85.5546C85.6013 102.619 85.8253 102.983 86.2266 103.282C86.6373 103.571 87.1366 103.716 87.7246 103.716C87.986 103.716 88.21 103.655 88.3966 103.534C88.5926 103.413 88.6906 103.24 88.6906 103.016C88.6906 102.848 88.63 102.708 88.5086 102.596C88.3873 102.484 88.2426 102.391 88.0746 102.316C87.9066 102.241 87.5706 102.106 87.0666 101.91C86.4693 101.677 86.0213 101.485 85.7226 101.336C85.424 101.187 85.1533 100.967 84.9106 100.678C84.6773 100.379 84.5606 99.9967 84.5606 99.53C84.5606 99.1473 84.654 98.788 84.8406 98.452C85.0366 98.1067 85.3306 97.8267 85.7226 97.612C86.124 97.388 86.614 97.276 87.1926 97.276C87.4633 97.276 87.7573 97.318 88.0746 97.402C88.392 97.486 88.658 97.6027 88.8726 97.752H88.8866L88.8726 97.346H89.9366V99.824H89.0266C88.9426 99.3387 88.728 98.956 88.3826 98.676C88.0373 98.396 87.6126 98.256 87.1086 98.256C86.8473 98.256 86.628 98.3167 86.4506 98.438C86.2733 98.5593 86.1846 98.746 86.1846 98.998C86.1846 99.2593 86.2873 99.4553 86.4926 99.586C86.698 99.7073 87.0433 99.8473 87.5286 100.006C87.5846 100.015 87.706 100.053 87.8926 100.118C88.686 100.398 89.2926 100.725 89.7126 101.098C90.142 101.471 90.3566 101.961 90.3566 102.568C90.3566 103.035 90.2353 103.431 89.9926 103.758C89.7593 104.075 89.4466 104.318 89.0546 104.486C88.672 104.645 88.2566 104.724 87.8086 104.724Z" fill="#777777"/>
<g clip-path="url(#clip0_1_392)">
<path d="M48.25 26.4194H72.25V27.9516H48.25V26.4194Z" fill="#777777"/>
<path d="M62.5 29.4839H72.25V31.0161H62.5V29.4839Z" fill="#777777"/>
<path d="M48.25 29.4839H58V31.0161H48.25V29.4839Z" fill="#777777"/>
<path d="M62.5 23.3549H72.25V24.8871H62.5V23.3549Z" fill="#777777"/>
<path d="M48.25 23.3549H58V24.8871H48.25V23.3549Z" fill="#777777"/>
<path d="M48.25 20.2903H72.25V21.8226H48.25V20.2903Z" fill="#777777"/>
<path d="M76.75 24.2519V20.2903C76.75 17.7551 74.7318 15.6935 72.25 15.6935V17.2258C73.9045 17.2258 75.25 18.6002 75.25 20.2903V24.2519C75.25 25.6102 75.6887 26.9004 76.4988 27.9516C75.6887 29.0028 75.25 30.293 75.25 31.6513V35.6129C75.25 37.303 73.9045 38.6774 72.25 38.6774V40.2097C74.7318 40.2097 76.75 38.1481 76.75 35.6129V31.6513C76.75 30.4584 77.2045 29.3368 78.0303 28.4933L78.5605 27.9516L78.0303 27.4099C77.2045 26.5664 76.75 25.4456 76.75 24.2519Z" fill="#777777"/>
<path d="M45.25 35.6129V31.6513C45.25 30.293 44.8113 29.0028 44.0012 27.9516C44.8113 26.9004 45.25 25.6102 45.25 24.2519V20.2903C45.25 18.6002 46.5955 17.2258 48.25 17.2258V15.6935C45.7682 15.6935 43.75 17.7551 43.75 20.2903V24.2519C43.75 25.4449 43.2955 26.5664 42.4697 27.4099L41.9395 27.9516L42.4697 28.4933C43.2955 29.3368 43.75 30.4576 43.75 31.6513V35.6129C43.75 38.1481 45.7682 40.2097 48.25 40.2097V38.6774C46.5955 38.6774 45.25 37.303 45.25 35.6129Z" fill="#777777"/>
<path d="M60.25 40.2097C58.5955 40.2097 57.25 41.584 57.25 43.2742C57.25 44.9643 58.5955 46.3387 60.25 46.3387C61.9045 46.3387 63.25 44.9643 63.25 43.2742C63.25 41.584 61.9045 40.2097 60.25 40.2097ZM60.25 44.8064C59.4227 44.8064 58.75 44.1192 58.75 43.2742C58.75 42.4291 59.4227 41.7419 60.25 41.7419C61.0773 41.7419 61.75 42.4291 61.75 43.2742C61.75 44.1192 61.0773 44.8064 60.25 44.8064Z" fill="#777777"/>
<path d="M60.2501 37.1451C59.254 37.1451 58.2664 37.4003 57.3948 37.8821L58.1096 39.2299C58.7629 38.8689 59.5023 38.6774 60.2501 38.6774C62.7319 38.6774 64.7501 40.739 64.7501 43.2742C64.7501 44.0381 64.5626 44.7933 64.2092 45.4607L65.5287 46.1909C66.0004 45.3006 66.2501 44.2917 66.2501 43.2742C66.2501 39.8947 63.5585 37.1451 60.2501 37.1451Z" fill="#777777"/>
<path d="M60.25 47.8709C57.7682 47.8709 55.75 45.8094 55.75 43.2742C55.75 42.5103 55.9375 41.755 56.2909 41.0876L54.9714 40.3574C54.4998 41.2477 54.25 42.2567 54.25 43.2742C54.25 46.6537 56.9417 49.4032 60.25 49.4032C61.2461 49.4032 62.2338 49.1481 63.1053 48.6663L62.3905 47.3184C61.7372 47.6794 60.9978 47.8709 60.25 47.8709Z" fill="#777777"/>
<path d="M83.5 8.79839C83.5 7.53136 82.4904 6.5 81.25 6.5H39.25C38.0096 6.5 37 7.53136 37 8.79839V44.0403H49.75V45.4046L51.6272 45.8846C51.8059 46.4988 52.0465 47.0917 52.3464 47.6559L51.3496 49.352L54.2987 52.3645L55.9591 51.3462C56.5114 51.6534 57.0918 51.8991 57.6931 52.0809L58.1644 54H62.3356L62.8054 52.0824C63.4067 51.8999 63.9872 51.6541 64.5394 51.3477L66.1998 52.366L69.1489 49.3535L68.1521 47.6574C68.4528 47.0932 68.6934 46.5003 68.8713 45.8861L70.75 45.4046V44.0403H83.5V8.79839ZM39.25 8.03226H81.25C81.6631 8.03226 82 8.37642 82 8.79839V12.629H38.5V8.79839C38.5 8.37642 38.8369 8.03226 39.25 8.03226ZM69.25 44.2083L67.6405 44.6194L67.5339 45.0709C67.3519 45.8445 67.0516 46.5822 66.6437 47.2635L66.406 47.6596L67.2611 49.1144L65.968 50.4353L64.5438 49.5618L64.156 49.8046C63.4891 50.2214 62.767 50.5277 62.0096 50.714L61.5676 50.8229L61.1644 52.4677H59.3356L58.9331 50.8236L58.4911 50.7148C57.7338 50.5289 57.0116 50.2221 56.3447 49.8054L55.9569 49.5626L54.5327 50.4361L53.2396 49.1152L54.0947 47.6604L53.8571 47.2642C53.4491 46.583 53.1492 45.8453 52.9668 45.0717L52.8602 44.6202L51.25 44.2083V42.3401L52.8595 41.929L52.9661 41.4775C53.1481 40.7038 53.4484 39.9661 53.8563 39.2849L54.094 38.8888L53.2389 37.434L54.532 36.1131L55.9562 36.9865L56.344 36.7438C57.0109 36.327 57.733 36.0207 58.4904 35.8344L58.9324 35.7255L59.3356 34.0806H61.1644L61.5669 35.7248L62.0089 35.8336C62.7662 36.0195 63.4884 36.3263 64.1553 36.743L64.5431 36.9858L65.9673 36.1123L67.2604 37.4332L66.4053 38.888L66.6429 39.2842C67.0509 39.9654 67.3508 40.7031 67.5332 41.4767L67.6398 41.9282L69.25 42.3401V44.2083ZM70.75 42.5081V41.1438L68.8728 40.6638C68.6941 40.0496 68.4535 39.4566 68.1536 38.8925L69.1504 37.1964L66.2013 34.1839L64.5409 35.2022C63.9886 34.895 63.4082 34.6493 62.8069 34.4674L62.3356 32.5484H58.1644L57.6946 34.466C57.0933 34.6485 56.5128 34.8943 55.9606 35.2007L54.3002 34.1824L51.3511 37.1949L52.3479 38.891C52.0472 39.4551 51.8066 40.0481 51.6287 40.6623L49.75 41.1438V42.5081H38.5V14.1613H82V42.5081H70.75Z" fill="#777777"/>
<path d="M40 9.56451H41.5V11.0968H40V9.56451Z" fill="#777777"/>
<path d="M43 9.56451H44.5V11.0968H43V9.56451Z" fill="#777777"/>
<path d="M46 9.56451H47.5V11.0968H46V9.56451Z" fill="#777777"/>
</g>
<defs>
<clipPath id="clip0_1_392">
<rect width="46.5" height="47.5" fill="white" transform="translate(37 6.5)"/>
</clipPath>
</defs>
</svg>
