<svg width="224" height="45" viewBox="0 0 224 45" fill="none" xmlns="http://www.w3.org/2000/svg">
<path d="M55.2601 12.1668C58.592 12.1668 61.2827 9.52681 61.2827 6.27081C61.2827 3.00224 58.592 0.362244 55.2601 0.362244C51.9407 0.362244 49.25 3.00224 49.25 6.27081C49.25 9.52681 51.9407 12.1668 55.2601 12.1668Z" fill="black"/>
<path d="M64.7152 29.9051C62.7789 28.2582 61.6096 25.7062 61.597 22.5885H61.2827H51.0857H50.7713C50.7588 25.7062 49.5769 28.2582 47.6531 29.9051C45.1133 32.1554 42.234 32.8091 30.6413 32.8091C19.0487 32.8091 16.1694 32.1554 13.6295 29.9051C11.6807 28.2457 10.4988 25.6685 10.4988 22.5131C10.4988 16.6925 14.2205 13.7005 19.0487 12.544C21.4753 12.2171 25.5743 11.9154 30.6413 11.9154H31.27H44.8115V0.362244H31.27H30.6413C26.6053 0.362244 22.3052 0.513101 19.0487 0.827387C6.43757 2.90167 0 11.6262 0 22.5885C0 29.0754 2.3638 34.3931 6.60103 38.5417C12.6991 44.5257 20.2306 44.3622 30.6413 44.3622C41.0521 44.3622 48.5836 44.5257 54.6817 38.5417C55.2097 38.0262 55.7127 37.4857 56.1905 36.92C56.6557 37.4857 57.1586 38.0262 57.6867 38.5417C63.7848 44.5257 71.3162 44.3622 81.727 44.3622V32.8091C70.1343 32.8091 67.255 32.1554 64.7152 29.9051Z" fill="black"/>
<path d="M124.991 2.69458C125.483 2.69458 126.112 2.77045 126.879 2.92161L127.261 3.0069L127.205 4.51144C126.458 4.43615 125.904 4.39792 125.544 4.39792C124.891 4.39792 124.458 4.5379 124.245 4.8167C124.032 5.09608 123.926 5.62367 123.926 6.39946C123.926 7.17585 124.032 7.70814 124.245 7.99634C124.458 8.28513 124.895 8.42982 125.558 8.42982L127.205 8.31572L127.261 9.83496C126.25 10.0338 125.478 10.1332 124.948 10.1332C123.898 10.1332 123.142 9.83731 122.684 9.24561C122.225 8.6545 121.995 7.70579 121.995 6.39946C121.995 5.09372 122.232 4.14971 122.705 3.56801C123.178 2.98572 123.94 2.69458 124.991 2.69458Z" fill="black"/>
<path d="M134.105 5.07961V8.03222C134.124 8.25925 134.162 8.41806 134.218 8.50746C134.276 8.59745 134.394 8.66156 134.574 8.6992L134.517 10.1332C134.035 10.1332 133.649 10.0996 133.359 10.0338C133.071 9.9673 132.779 9.83496 132.486 9.63616C131.805 9.9673 131.11 10.1332 130.399 10.1332C128.932 10.1332 128.199 9.35737 128.199 7.80519C128.199 7.04821 128.403 6.51121 128.81 6.1936C129.217 5.87717 129.842 5.69013 130.684 5.63308L132.203 5.51956V5.07961C132.203 4.78611 132.136 4.58496 132.004 4.47615C131.871 4.36733 131.658 4.31322 131.365 4.31322L128.696 4.42674L128.639 3.1063C129.652 2.83221 130.615 2.69458 131.529 2.69458C132.442 2.69458 133.099 2.88397 133.502 3.26275C133.904 3.64094 134.105 4.24676 134.105 5.07961ZM130.911 6.95352C130.38 7.00057 130.116 7.28466 130.116 7.80519C130.116 8.32572 130.348 8.58569 130.811 8.58569C131.171 8.58569 131.564 8.52863 131.99 8.41512L132.203 8.35865V6.83941L130.911 6.95352Z" fill="black"/>
<path d="M141.019 4.63964C139.846 4.48789 139.024 4.41261 138.556 4.41261C138.087 4.41261 137.784 4.45495 137.647 4.54024C137.51 4.62552 137.441 4.76022 137.441 4.9449C137.441 5.129 137.534 5.25722 137.718 5.3278C137.903 5.39897 138.376 5.50307 139.137 5.64012C139.9 5.77775 140.441 6.00243 140.763 6.31475C141.084 6.62648 141.246 7.13289 141.246 7.8334C141.246 9.36617 140.295 10.1331 138.393 10.1331C137.768 10.1331 137.01 10.0479 136.121 9.87729L135.667 9.79201L135.723 8.20218C136.897 8.35393 137.713 8.4298 138.173 8.4298C138.631 8.4298 138.943 8.38452 139.109 8.29453C139.275 8.20512 139.357 8.06985 139.357 7.88986C139.357 7.71047 139.27 7.57755 139.095 7.49285C138.92 7.40757 138.466 7.30346 137.733 7.18053C136.998 7.05761 136.453 6.84939 136.093 6.5559C135.732 6.2624 135.552 5.73952 135.552 4.98725C135.552 4.23498 135.809 3.66681 136.32 3.28391C136.83 2.90042 137.489 2.70868 138.293 2.70868C138.851 2.70868 139.614 2.79926 140.579 2.97865L141.047 3.06393L141.019 4.63964Z" fill="black"/>
<path d="M146.555 4.48321H144.808V7.39347C144.808 7.67697 144.817 7.87813 144.831 7.99635C144.845 8.11516 144.897 8.21632 144.986 8.30161C145.077 8.38689 145.215 8.42983 145.405 8.42983L146.484 8.40101L146.57 9.92025C145.935 10.062 145.452 10.1332 145.121 10.1332C144.269 10.1332 143.687 9.94143 143.375 9.55794C143.062 9.17504 142.907 8.46747 142.907 7.43582V4.48321H142.069V2.86516H142.907V0.891846H144.808V2.86516H146.555V4.48321Z" fill="black"/>
<path d="M150.913 1.95643V0.026062H152.816V1.95643H150.913ZM150.913 9.9626V2.86516H152.816V9.9626H150.913Z" fill="black"/>
<path d="M158.51 4.48321H156.763V7.39347C156.763 7.67697 156.771 7.87813 156.785 7.99635C156.799 8.11516 156.851 8.21632 156.941 8.30161C157.031 8.38689 157.17 8.42983 157.359 8.42983L158.438 8.40101L158.524 9.92025C157.89 10.062 157.406 10.1332 157.076 10.1332C156.224 10.1332 155.642 9.94143 155.33 9.55794C155.017 9.17504 154.862 8.46747 154.862 7.43582V4.48321H154.024V2.86516H154.862V0.891846H156.763V2.86516H158.51V4.48321Z" fill="black"/>
<path d="M124.238 25.3615H122.335V18.264H124.224V18.6616C124.867 18.2828 125.459 18.0934 125.998 18.0934C126.945 18.0934 127.598 18.3728 127.958 18.931C128.317 19.4898 128.497 20.3508 128.497 21.5148V25.3615H126.594V21.5713C126.594 20.9661 126.524 20.5185 126.382 20.2297C126.24 19.9415 125.956 19.7968 125.53 19.7968C125.141 19.7968 124.769 19.8632 124.408 19.9956L124.238 20.0526V25.3615Z" fill="black"/>
<path d="M135.624 20.4785V23.4311C135.643 23.6581 135.681 23.8169 135.737 23.9063C135.795 23.9969 135.913 24.0604 136.093 24.0981L136.036 25.532C135.554 25.532 135.168 25.4991 134.878 25.432C134.59 25.3662 134.298 25.2332 134.005 25.0344C133.324 25.3662 132.629 25.532 131.918 25.532C130.451 25.532 129.718 24.7556 129.718 23.2041C129.718 22.4465 129.922 21.9101 130.329 21.5925C130.736 21.276 131.361 21.089 132.203 21.0319L133.722 20.9184V20.4785C133.722 20.185 133.655 19.9838 133.523 19.875C133.39 19.7662 133.177 19.7121 132.884 19.7121L130.215 19.8256L130.158 18.5052C131.171 18.2311 132.134 18.0934 133.048 18.0934C133.961 18.0934 134.618 18.2828 135.021 18.6616C135.423 19.0398 135.624 19.6456 135.624 20.4785ZM132.43 22.3524C131.9 22.3994 131.635 22.6841 131.635 23.2041C131.635 23.724 131.867 23.984 132.33 23.984C132.69 23.984 133.083 23.9275 133.509 23.8146L133.722 23.7569V22.2383L132.43 22.3524Z" fill="black"/>
<path d="M137.441 25.3615V18.264H139.329V19.0163C140.125 18.5434 140.881 18.2358 141.601 18.0934V20.0097C140.834 20.1709 140.176 20.3361 139.627 20.5067L139.343 20.6061V25.3615H137.441Z" fill="black"/>
<path d="M142.722 25.3615V18.264H144.61V19.0163C145.406 18.5434 146.162 18.2358 146.882 18.0934V20.0097C146.115 20.1709 145.458 20.3361 144.908 20.5067L144.625 20.6061V25.3615H142.722Z" fill="black"/>
<path d="M148.387 19.0657C148.888 18.4181 149.726 18.0934 150.9 18.0934C152.073 18.0934 152.911 18.4181 153.413 19.0657C153.915 19.7144 154.165 20.6249 154.165 21.7983C154.165 24.2875 153.077 25.532 150.9 25.532C148.723 25.532 147.634 24.2875 147.634 21.7983C147.634 20.6249 147.885 19.7144 148.387 19.0657ZM149.857 23.4029C150.051 23.7428 150.398 23.9134 150.9 23.9134C151.402 23.9134 151.75 23.7428 151.944 23.4029C152.138 23.0617 152.234 22.5265 152.234 21.7983C152.234 21.0702 152.138 20.5402 151.944 20.2085C151.75 19.8774 151.402 19.7121 150.9 19.7121C150.398 19.7121 150.051 19.8774 149.857 20.2085C149.663 20.5402 149.566 21.0702 149.566 21.7983C149.566 22.5265 149.663 23.0617 149.857 23.4029Z" fill="black"/>
<path d="M155.018 18.264H156.891L157.758 23.7428H158.098L159.177 18.4058H161.137L162.216 23.7428H162.556L163.422 18.264H165.296L163.948 25.3615H160.967L160.157 21.0178L159.348 25.3615H156.366L155.018 18.264Z" fill="black"/>
<path d="M169.172 18.0934C169.663 18.0934 170.293 18.1693 171.06 18.3205L171.442 18.4058L171.386 19.9103C170.639 19.835 170.085 19.7968 169.725 19.7968C169.072 19.7968 168.639 19.9368 168.426 20.2156C168.213 20.4949 168.107 21.0225 168.107 21.7983C168.107 22.5747 168.213 23.1064 168.426 23.3958C168.639 23.684 169.076 23.8287 169.739 23.8287L171.386 23.7146L171.442 25.2332C170.431 25.432 169.659 25.532 169.129 25.532C168.079 25.532 167.323 25.2356 166.865 24.6451C166.406 24.0534 166.176 23.1041 166.176 21.7983C166.176 20.4926 166.413 19.5486 166.886 18.9669C167.359 18.3846 168.121 18.0934 169.172 18.0934Z" fill="black"/>
<path d="M178.286 20.4785V23.4311C178.305 23.6581 178.342 23.8169 178.399 23.9063C178.457 23.9969 178.574 24.0604 178.754 24.0981L178.698 25.532C178.215 25.532 177.83 25.4991 177.54 25.432C177.252 25.3662 176.96 25.2332 176.667 25.0344C175.986 25.3662 175.291 25.532 174.58 25.532C173.113 25.532 172.38 24.7556 172.38 23.2041C172.38 22.4465 172.583 21.9101 172.99 21.5925C173.398 21.276 174.022 21.089 174.865 21.0319L176.384 20.9184V20.4785C176.384 20.185 176.317 19.9838 176.185 19.875C176.052 19.7662 175.839 19.7121 175.546 19.7121L172.876 19.8256L172.82 18.5052C173.833 18.2311 174.795 18.0934 175.709 18.0934C176.622 18.0934 177.28 18.2828 177.682 18.6616C178.085 19.0398 178.286 19.6456 178.286 20.4785ZM175.092 22.3524C174.561 22.3994 174.296 22.6841 174.296 23.2041C174.296 23.724 174.528 23.984 174.992 23.984C175.352 23.984 175.745 23.9275 176.171 23.8146L176.384 23.7569V22.2383L175.092 22.3524Z" fill="black"/>
<path d="M185.199 20.0386C184.026 19.8868 183.205 19.8115 182.737 19.8115C182.267 19.8115 181.965 19.8539 181.827 19.9392C181.691 20.0244 181.621 20.1591 181.621 20.3438C181.621 20.5279 181.714 20.6561 181.899 20.7267C182.084 20.7979 182.557 20.902 183.318 21.039C184.08 21.1767 184.622 21.4014 184.944 21.7137C185.265 22.0254 185.426 22.5312 185.426 23.2323C185.426 24.7651 184.476 25.5321 182.573 25.5321C181.949 25.5321 181.191 25.4462 180.301 25.2768L179.847 25.1909L179.904 23.6017C181.078 23.7523 181.893 23.8287 182.353 23.8287C182.812 23.8287 183.124 23.784 183.29 23.6934C183.456 23.6041 183.538 23.4688 183.538 23.2888C183.538 23.1088 183.451 22.9771 183.276 22.8912C183.1 22.8065 182.646 22.703 181.913 22.5795C181.179 22.4559 180.633 22.2489 180.273 21.9548C179.913 21.6613 179.733 21.1384 179.733 20.3862C179.733 19.6339 179.99 19.0657 180.5 18.6828C181.011 18.2993 181.67 18.1076 182.473 18.1076C183.032 18.1076 183.795 18.1982 184.759 18.3776L185.228 18.4629L185.199 20.0386Z" fill="black"/>
<path d="M190.737 19.8821H188.99V22.7923C188.99 23.0758 188.998 23.277 189.013 23.3958C189.027 23.5134 189.078 23.6158 189.168 23.7005C189.258 23.7863 189.397 23.8287 189.587 23.8287L190.666 23.8005L190.751 25.3191C190.117 25.4603 189.634 25.532 189.303 25.532C188.451 25.532 187.869 25.3403 187.557 24.9568C187.244 24.5733 187.089 23.8663 187.089 22.8347V19.8821H186.251V18.264H187.089V16.2907H188.99V18.264H190.737V19.8821Z" fill="black"/>
<path d="M191.971 17.3553V15.4249H193.874V17.3553H191.971ZM191.971 25.3615V18.264H193.874V25.3615H191.971Z" fill="black"/>
<path d="M197.536 25.3615H195.634V18.264H197.522V18.6616C198.166 18.2828 198.758 18.0934 199.297 18.0934C200.244 18.0934 200.897 18.3728 201.257 18.931C201.615 19.4898 201.795 20.3508 201.795 21.5148V25.3615H199.893V21.5713C199.893 20.9661 199.822 20.5185 199.68 20.2297C199.539 19.9415 199.254 19.7968 198.828 19.7968C198.44 19.7968 198.067 19.8632 197.707 19.9956L197.536 20.0526V25.3615Z" fill="black"/>
<path d="M209.917 26.2484C209.917 27.0577 209.604 27.6565 208.979 28.0447C208.355 28.4317 207.51 28.6258 206.445 28.6258C205.38 28.6258 204.561 28.4846 203.99 28.2C203.417 27.9165 203.13 27.4012 203.13 26.6531C203.13 26.0567 203.471 25.4944 204.152 24.9638C203.803 24.7274 203.627 24.3674 203.627 23.8851C203.627 23.6957 203.77 23.384 204.053 22.9476L204.18 22.75C203.537 22.2865 203.216 21.6025 203.216 20.6984C203.216 19.795 203.487 19.1392 204.032 18.7322C204.576 18.3258 205.298 18.1223 206.197 18.1223C206.604 18.1223 207.006 18.1693 207.404 18.264L207.631 18.3064L209.917 18.2358V19.7544L208.852 19.6691C209.059 19.9909 209.164 20.3132 209.164 20.6343C209.164 21.5807 208.923 22.2347 208.44 22.5935C207.957 22.9535 207.2 23.1323 206.169 23.1323C205.951 23.1323 205.757 23.1135 205.586 23.0758C205.492 23.3217 205.444 23.5228 205.444 23.6793C205.444 23.8357 205.525 23.9416 205.686 23.9992C205.846 24.0557 206.225 24.0886 206.822 24.0981C208.015 24.1075 208.828 24.2663 209.263 24.5733C209.698 24.8815 209.917 25.4391 209.917 26.2484ZM205.004 26.4543C205.004 26.8613 205.504 27.0648 206.502 27.0648C207.5 27.0648 207.999 26.8283 207.999 26.3555C207.999 26.099 207.915 25.9367 207.744 25.8649C207.573 25.7943 207.215 25.7543 206.665 25.7449L205.387 25.6449C205.132 25.9014 205.004 26.1708 205.004 26.4543ZM205.118 20.6414C205.118 21.3372 205.48 21.6848 206.204 21.6848C206.927 21.6848 207.29 21.3372 207.29 20.6414C207.29 19.9462 206.927 19.5986 206.204 19.5986C205.48 19.5986 205.118 19.9462 205.118 20.6414Z" fill="black"/>
<path d="M123.826 31.229C124.357 30.8456 125.073 30.6538 125.977 30.6538C126.882 30.6538 127.584 30.8503 128.085 31.2432C128.587 31.6361 128.838 32.1725 128.838 32.8547C128.838 33.5358 128.696 34.0699 128.412 34.4581C128.129 34.8463 127.622 35.2956 126.893 35.8074L128.284 37.1978C128.342 37.0554 128.398 36.7814 128.455 36.3743C128.511 35.9673 128.544 35.6368 128.555 35.3815L130.399 35.4239C130.258 36.5214 130.016 37.4825 129.676 38.3047L131.265 39.6963L130.186 40.9315L128.682 39.6963C128.35 40.0563 127.927 40.3516 127.411 40.5833C126.896 40.815 126.349 40.9315 125.771 40.9315C124.39 40.9315 123.407 40.6833 122.825 40.1857C122.244 39.6893 121.952 38.9541 121.952 37.9789C121.952 37.2119 122.113 36.6084 122.435 36.1685C122.757 35.7285 123.267 35.3721 123.968 35.0968C123.58 34.624 123.327 34.2405 123.208 33.9476C123.091 33.6547 123.031 33.2712 123.031 32.7971C123.031 32.1348 123.297 31.6125 123.826 31.229ZM125.53 39.2281C125.909 39.2281 126.278 39.1764 126.637 39.0717C126.997 38.9682 127.247 38.8305 127.39 38.66L124.933 36.2038C124.233 36.5449 123.883 37.0849 123.883 37.8224C123.883 38.76 124.432 39.2281 125.53 39.2281ZM124.963 33.2229C124.963 33.6017 125.176 34.0181 125.601 34.4722L125.843 34.7275C126.231 34.444 126.505 34.1911 126.666 33.9687C126.826 33.7464 126.907 33.4794 126.907 33.1665C126.907 32.5701 126.583 32.2725 125.934 32.2725C125.286 32.2725 124.963 32.5901 124.963 33.2229Z" fill="black"/>
<path d="M141.444 30.8244V40.7609H139.556V40.4633C138.894 40.7751 138.321 40.9315 137.838 40.9315C136.807 40.9315 136.087 40.6327 135.68 40.0375C135.272 39.4411 135.07 38.4965 135.07 37.2049C135.07 35.9132 135.314 34.9722 135.801 34.3805C136.288 33.7888 137.024 33.4935 138.008 33.4935C138.311 33.4935 138.733 33.5406 139.271 33.6347L139.542 33.6923V30.8244H141.444ZM139.343 39.0576L139.542 39.0153V35.2816C139.021 35.1874 138.557 35.1392 138.15 35.1392C137.383 35.1392 137.001 35.8215 137.001 37.1837C137.001 37.9224 137.085 38.4471 137.256 38.76C137.427 39.0717 137.708 39.2282 138.101 39.2282C138.494 39.2282 138.908 39.1705 139.343 39.0576Z" fill="black"/>
<path d="M143.205 32.7548V30.8244H145.107V32.7548H143.205ZM143.205 40.7609V33.6629H145.107V40.7609H143.205Z" fill="black"/>
<path d="M153.299 41.6479C153.299 42.4572 152.986 43.056 152.361 43.4442C151.737 43.8312 150.892 44.0253 149.827 44.0253C148.762 44.0253 147.944 43.8841 147.372 43.5994C146.799 43.3159 146.512 42.8007 146.512 42.0525C146.512 41.4561 146.853 40.8938 147.534 40.3633C147.185 40.1269 147.009 39.7669 147.009 39.2846C147.009 39.0952 147.152 38.7835 147.435 38.3483L147.562 38.1494C146.919 37.686 146.598 37.0013 146.598 36.0979C146.598 35.1945 146.869 34.5393 147.414 34.1322C147.958 33.7252 148.68 33.5217 149.579 33.5217C149.986 33.5217 150.388 33.5688 150.786 33.6629L151.013 33.7064L153.299 33.6347V35.1533L152.234 35.0686C152.441 35.3909 152.546 35.7121 152.546 36.0344C152.546 36.9802 152.305 37.633 151.823 37.993C151.339 38.353 150.582 38.5318 149.551 38.5318C149.333 38.5318 149.139 38.5129 148.968 38.4753C148.874 38.7211 148.826 38.9223 148.826 39.0788C148.826 39.2352 148.907 39.3411 149.068 39.3987C149.228 39.4552 149.607 39.4881 150.204 39.4975C151.397 39.5069 152.21 39.6657 152.645 39.9728C153.08 40.281 153.299 40.8386 153.299 41.6479ZM148.386 41.8537C148.386 42.2608 148.886 42.4643 149.884 42.4643C150.883 42.4643 151.381 42.2278 151.381 41.7549C151.381 41.4985 151.297 41.3362 151.126 41.2644C150.955 41.1938 150.597 41.1538 150.047 41.1444L148.769 41.0444C148.514 41.3009 148.386 41.5702 148.386 41.8537ZM148.5 36.0414C148.5 36.7367 148.862 37.0849 149.586 37.0849C150.31 37.0849 150.672 36.7367 150.672 36.0414C150.672 35.3451 150.31 34.998 149.586 34.998C148.862 34.998 148.5 35.3451 148.5 36.0414Z" fill="black"/>
<path d="M154.449 32.7548V30.8244H156.351V32.7548H154.449ZM154.449 40.7609V33.6629H156.351V40.7609H154.449Z" fill="black"/>
<path d="M162.045 35.2816H160.298V38.1918C160.298 38.4753 160.307 38.6765 160.321 38.7953C160.335 38.9129 160.387 39.0153 160.476 39.0999C160.567 39.1858 160.705 39.2282 160.895 39.2282L161.974 39.1999L162.06 40.7186C161.425 40.8598 160.942 40.9315 160.611 40.9315C159.759 40.9315 159.177 40.7398 158.865 40.3563C158.552 39.9728 158.397 39.2658 158.397 38.2342V35.2816H157.559V33.6629H158.397V31.6902H160.298V33.6629H162.045V35.2816Z" fill="black"/>
<path d="M168.717 35.878V38.8306C168.736 39.0576 168.774 39.2164 168.83 39.3058C168.888 39.3964 169.006 39.4599 169.186 39.4976L169.129 40.9315C168.647 40.9315 168.261 40.8986 167.971 40.8315C167.683 40.7657 167.391 40.6327 167.099 40.4339C166.417 40.7657 165.722 40.9315 165.011 40.9315C163.544 40.9315 162.811 40.1551 162.811 38.6035C162.811 37.846 163.015 37.3096 163.422 36.992C163.829 36.6755 164.454 36.4885 165.296 36.432L166.815 36.3179V35.878C166.815 35.5851 166.748 35.3839 166.616 35.2745C166.483 35.1663 166.27 35.111 165.977 35.111L163.308 35.2251L163.251 33.9053C164.264 33.63 165.227 33.4935 166.141 33.4935C167.054 33.4935 167.711 33.6829 168.114 34.0605C168.516 34.4393 168.717 35.0451 168.717 35.878ZM165.523 37.7519C164.993 37.7989 164.728 38.0824 164.728 38.6035C164.728 39.1235 164.96 39.3835 165.423 39.3835C165.783 39.3835 166.176 39.327 166.602 39.2141L166.815 39.1564V37.6378L165.523 37.7519Z" fill="black"/>
<path d="M170.62 40.7609V30.8244H172.522V40.7609H170.62Z" fill="black"/>
<path d="M182.587 35.438C181.414 35.2863 180.593 35.211 180.125 35.211C179.656 35.211 179.353 35.2533 179.216 35.338C179.079 35.4239 179.01 35.558 179.01 35.7427C179.01 35.9274 179.103 36.0556 179.287 36.1262C179.472 36.1967 179.945 36.3014 180.706 36.4391C181.469 36.5755 182.01 36.8002 182.332 37.1131C182.653 37.4248 182.815 37.9318 182.815 38.6318C182.815 40.1645 181.864 40.9315 179.961 40.9315C179.337 40.9315 178.579 40.8456 177.69 40.6762L177.235 40.5904L177.292 39.0011C178.466 39.1517 179.281 39.2282 179.741 39.2282C180.2 39.2282 180.512 39.1835 180.678 39.0929C180.844 39.0035 180.926 38.8682 180.926 38.6882C180.926 38.5083 180.839 38.3765 180.664 38.2906C180.489 38.2059 180.034 38.1012 179.301 37.9789C178.567 37.8554 178.021 37.6472 177.661 37.3543C177.301 37.0614 177.121 36.5379 177.121 35.785C177.121 35.0333 177.378 34.4652 177.888 34.0817C178.399 33.6994 179.058 33.5076 179.861 33.5076C180.42 33.5076 181.183 33.597 182.147 33.777L182.616 33.8617L182.587 35.438Z" fill="black"/>
<path d="M184.191 32.7548V30.8244H186.094V32.7548H184.191ZM184.191 40.7609V33.6629H186.094V40.7609H184.191Z" fill="black"/>
<path d="M194.286 41.6479C194.286 42.4572 193.973 43.056 193.348 43.4442C192.723 43.8312 191.878 44.0253 190.814 44.0253C189.749 44.0253 188.93 43.8841 188.358 43.5994C187.785 43.3159 187.498 42.8007 187.498 42.0525C187.498 41.4561 187.839 40.8938 188.521 40.3633C188.171 40.1269 187.996 39.7669 187.996 39.2846C187.996 39.0952 188.138 38.7835 188.422 38.3483L188.549 38.1494C187.905 37.686 187.584 37.0013 187.584 36.0979C187.584 35.1945 187.856 34.5393 188.401 34.1322C188.944 33.7252 189.667 33.5217 190.565 33.5217C190.973 33.5217 191.375 33.5688 191.773 33.6629L192 33.7064L194.286 33.6347V35.1533L193.221 35.0686C193.428 35.3909 193.533 35.7121 193.533 36.0344C193.533 36.9802 193.291 37.633 192.809 37.993C192.326 38.353 191.569 38.5318 190.537 38.5318C190.32 38.5318 190.125 38.5129 189.955 38.4753C189.861 38.7211 189.812 38.9223 189.812 39.0788C189.812 39.2352 189.894 39.3411 190.055 39.3987C190.215 39.4552 190.594 39.4881 191.19 39.4975C192.383 39.5069 193.196 39.6657 193.631 39.9728C194.067 40.281 194.286 40.8386 194.286 41.6479ZM189.372 41.8537C189.372 42.2608 189.873 42.4643 190.87 42.4643C191.869 42.4643 192.368 42.2278 192.368 41.7549C192.368 41.4985 192.283 41.3362 192.113 41.2644C191.942 41.1938 191.583 41.1538 191.034 41.1444L189.756 41.0444C189.501 41.3009 189.372 41.5702 189.372 41.8537ZM189.487 36.0414C189.487 36.7367 189.849 37.0849 190.573 37.0849C191.296 37.0849 191.658 36.7367 191.658 36.0414C191.658 35.3451 191.296 34.998 190.573 34.998C189.849 34.998 189.487 35.3451 189.487 36.0414Z" fill="black"/>
<path d="M197.337 40.761H195.435V33.6629H197.323V34.0605C197.967 33.6829 198.559 33.4935 199.098 33.4935C200.045 33.4935 200.698 33.7723 201.058 34.3311C201.416 34.8887 201.596 35.7497 201.596 36.9143V40.761H199.694V36.9708C199.694 36.365 199.623 35.918 199.481 35.6298C199.34 35.3404 199.055 35.1969 198.629 35.1969C198.241 35.1969 197.868 35.2627 197.508 35.3957L197.337 35.4521V40.761Z" fill="black"/>
<path d="M208.724 35.878V38.8306C208.743 39.0576 208.78 39.2164 208.837 39.3058C208.895 39.3964 209.012 39.4599 209.192 39.4976L209.136 40.9315C208.653 40.9315 208.268 40.8986 207.978 40.8315C207.69 40.7657 207.398 40.6327 207.105 40.4339C206.424 40.7657 205.729 40.9315 205.018 40.9315C203.551 40.9315 202.818 40.1551 202.818 38.6035C202.818 37.846 203.021 37.3096 203.428 36.992C203.836 36.6755 204.46 36.4885 205.303 36.432L206.822 36.3179V35.878C206.822 35.5851 206.755 35.3839 206.623 35.2745C206.49 35.1663 206.277 35.111 205.984 35.111L203.314 35.2251L203.258 33.9053C204.271 33.63 205.233 33.4935 206.147 33.4935C207.06 33.4935 207.718 33.6829 208.12 34.0605C208.523 34.4393 208.724 35.0451 208.724 35.878ZM205.53 37.7519C204.999 37.7989 204.734 38.0824 204.734 38.6035C204.734 39.1235 204.966 39.3835 205.43 39.3835C205.79 39.3835 206.183 39.327 206.609 39.2141L206.822 39.1564V37.6378L205.53 37.7519Z" fill="black"/>
<path d="M216.973 41.6479C216.973 42.4572 216.66 43.056 216.035 43.4442C215.41 43.8312 214.566 44.0253 213.501 44.0253C212.436 44.0253 211.617 43.8841 211.045 43.5994C210.472 43.3159 210.185 42.8007 210.185 42.0525C210.185 41.4561 210.526 40.8938 211.208 40.3633C210.858 40.1269 210.683 39.7669 210.683 39.2846C210.683 39.0952 210.825 38.7835 211.109 38.3483L211.236 38.1494C210.592 37.686 210.271 37.0013 210.271 36.0979C210.271 35.1945 210.543 34.5393 211.088 34.1322C211.631 33.7252 212.354 33.5217 213.253 33.5217C213.66 33.5217 214.062 33.5688 214.46 33.6629L214.687 33.7064L216.973 33.6347V35.1533L215.908 35.0686C216.115 35.3909 216.22 35.7121 216.22 36.0344C216.22 36.9802 215.979 37.633 215.496 37.993C215.013 38.353 214.256 38.5318 213.224 38.5318C213.007 38.5318 212.812 38.5129 212.642 38.4753C212.548 38.7211 212.5 38.9223 212.5 39.0788C212.5 39.2352 212.581 39.3411 212.742 39.3987C212.902 39.4552 213.281 39.4881 213.877 39.4975C215.07 39.5069 215.883 39.6657 216.319 39.9728C216.754 40.281 216.973 40.8386 216.973 41.6479ZM212.06 41.8537C212.06 42.2608 212.56 42.4643 213.557 42.4643C214.556 42.4643 215.055 42.2278 215.055 41.7549C215.055 41.4985 214.97 41.3362 214.8 41.2644C214.629 41.1938 214.27 41.1538 213.721 41.1444L212.443 41.0444C212.188 41.3009 212.06 41.5702 212.06 41.8537ZM212.174 36.0414C212.174 36.7367 212.536 37.0849 213.26 37.0849C213.983 37.0849 214.346 36.7367 214.346 36.0414C214.346 35.3451 213.983 34.998 213.26 34.998C212.536 34.998 212.174 35.3451 212.174 36.0414Z" fill="black"/>
<path d="M220.032 38.9659C220.254 39.1588 220.574 39.2564 220.991 39.2564C221.871 39.2564 222.656 39.2282 223.347 39.1705L223.745 39.1282L223.773 40.5339C222.685 40.7986 221.7 40.9315 220.82 40.9315C219.75 40.9315 218.974 40.6468 218.492 40.0799C218.009 39.5117 217.767 38.5894 217.767 37.3119C217.767 34.7663 218.813 33.4935 220.905 33.4935C222.968 33.4935 224 34.5628 224 36.7014L223.858 38.0213H219.685C219.693 38.4565 219.809 38.7718 220.032 38.9659ZM222.126 36.5732C222.126 36.0062 222.036 35.6109 221.856 35.3886C221.676 35.1663 221.361 35.0545 220.912 35.0545C220.462 35.0545 220.146 35.171 219.961 35.4027C219.776 35.6345 219.679 36.025 219.669 36.5732H222.126Z" fill="black"/>
<path d="M103.092 0.026062H101.844V44.0253H103.092V0.026062Z" fill="black"/>
</svg>
