<svg width="240" height="59" viewBox="0 0 240 59" fill="none" xmlns="http://www.w3.org/2000/svg">
<path d="M30.3796 36.4168C30.453 35.9667 30.5081 35.498 30.5456 35.0211L29.8792 34.9677C29.888 34.8641 29.8984 34.7621 29.9048 34.6576H28.4365V33.9808H27.1054V34.6576H25.3307V33.9808H23.9996V34.6576H22.2935C22.2887 34.6803 22.2831 34.7022 22.2784 34.7256L21.6288 34.5856C21.541 35.0066 21.4253 35.4089 21.2849 35.7797L21.9057 36.0201C21.6831 36.6119 21.4014 37.1398 21.067 37.6012L20.5324 37.2005C20.2969 37.5268 20.0288 37.8166 19.7352 38.0627L20.1589 38.5816C19.704 38.9637 19.1917 39.2617 18.6275 39.4705L18.4009 38.8366C18.0426 38.9694 17.6572 39.0601 17.2558 39.1103L17.3356 39.779C17.0762 39.8106 16.8097 39.8276 16.536 39.8276C16.2032 39.8276 15.8801 39.8008 15.5656 39.7547L15.6622 39.0876C15.2656 39.0301 14.881 38.9289 14.5203 38.7881L14.2825 39.4171C13.7311 39.2018 13.2187 38.9038 12.7511 38.5241L13.1661 37.9979C12.8636 37.7534 12.5796 37.466 12.321 37.1479L11.8087 37.5753C11.4504 37.1333 11.1296 36.6306 10.8519 36.0655L11.4464 35.7651C11.2685 35.4032 11.1081 35.0122 10.97 34.6018L10.3412 34.8204C10.1592 34.2812 10.0084 33.7007 9.89112 33.0814L10.5423 32.9527C10.4641 32.5438 10.4018 32.1131 10.3556 31.6735L9.69561 31.7456C9.63576 31.174 9.59985 30.575 9.59107 29.9483L10.2542 29.9411L10.2526 29.6213C10.2526 29.2821 10.2598 28.9526 10.2742 28.6304L9.61182 28.5988C9.64215 27.9706 9.69801 27.3731 9.78259 26.808L10.4393 26.9092C10.5048 26.472 10.5886 26.0478 10.6875 25.6487L10.0435 25.4844C10.196 24.8691 10.3867 24.3016 10.6109 23.7818L11.2198 24.0522C11.389 23.6604 11.5829 23.2929 11.7959 22.9609L11.2381 22.5934C11.5749 22.068 11.9595 21.6138 12.388 21.2317L12.8269 21.7377C13.1238 21.4729 13.4486 21.2446 13.7909 21.0592L13.4797 20.4658C13.992 20.1898 14.549 19.993 15.1467 19.8765L15.2712 20.5371C15.6502 20.4634 16.054 20.427 16.469 20.427V19.7518C16.5456 19.7518 16.6214 19.7542 16.6972 19.7566L16.6772 20.4302C17.0914 20.4415 17.492 20.4917 17.8694 20.5784L18.0155 19.921C18.6148 20.0578 19.1654 20.2772 19.6593 20.5727L19.3218 21.1532C19.657 21.3539 19.9658 21.596 20.2395 21.8729L20.7087 21.3968C21.1173 21.8121 21.4628 22.2995 21.7373 22.8533L21.1436 23.1568C21.3168 23.505 21.4588 23.8863 21.5666 24.2894L22.2081 24.113C22.3542 24.6618 22.4459 25.2553 22.4779 25.8883L21.8147 25.9223C21.8227 26.0786 21.8267 26.2365 21.8267 26.3984V27.0744H23.3205V26.3984H25.0961V27.0744H26.4271V26.3984H28.2027V27.0744H29.5337V26.3984H29.5736V24.6376H30.2399V23.2872H29.5736V21.4867H30.2399V20.1363H29.5736V18.3358H30.2399V16.9847H29.5736V15.1842H30.2399V13.7035H29.035V14.3795H28.9081H27.2594V13.7035H25.9284V14.3795H24.1536V13.7035H22.2895V14.5139H22.9559V15.0546V16.3152H22.2895V16.3832C22.248 16.3338 22.2065 16.2852 22.1642 16.2374L21.6663 16.6876C21.2689 16.2358 20.8348 15.8278 20.3664 15.4667L20.7694 14.9292C20.3927 14.6393 19.9913 14.3738 19.574 14.1406L19.2524 14.7316C18.7409 14.445 18.199 14.2062 17.6277 14.0135L17.8375 13.3707C17.3978 13.2226 16.9374 13.1003 16.4706 13.0064L16.3413 13.6703C15.7771 13.5569 15.1898 13.4849 14.5809 13.4557L14.6128 12.7806C14.1532 12.7579 13.6784 12.7595 13.2188 12.7822L13.2507 13.4574C12.6482 13.4857 12.0609 13.5561 11.4887 13.6581L11.3722 12.9886C10.9094 13.0712 10.4505 13.1781 10.0092 13.3052L10.1928 13.9593C9.61821 14.1253 9.06201 14.3285 8.52735 14.5721L8.25284 13.9536C7.82591 14.1487 7.40697 14.3689 7.00638 14.6094L7.34712 15.1923C6.8388 15.4975 6.35362 15.8407 5.89477 16.2212L5.47263 15.6974C5.11274 15.9946 4.76481 16.3176 4.43604 16.6584L4.91324 17.132C4.50547 17.5546 4.12403 18.0136 3.76812 18.5042L3.22788 18.1019C2.95656 18.4751 2.69722 18.8726 2.45782 19.2814L3.03397 19.6287C2.73871 20.1339 2.4658 20.6658 2.22161 21.2268L1.61115 20.9532C1.42921 21.3709 1.25843 21.8113 1.10442 22.2606L1.73723 22.4841C1.54811 23.037 1.38053 23.6118 1.23928 24.2101L0.589717 24.053C0.484382 24.4991 0.392613 24.9581 0.315207 25.4196L0.975945 25.5329C0.879387 26.1102 0.803579 26.7052 0.750114 27.318L0.0837889 27.2589C0.0438898 27.7107 0.0159602 28.177 0.00159663 28.6425L0.667122 28.6652C0.657546 28.9582 0.65196 29.2537 0.65196 29.5541C0.65196 29.8617 0.657546 30.1653 0.666323 30.4657L0 30.4859C0.0143636 30.9563 0.0383039 31.4218 0.0734146 31.867L0.740537 31.8136C0.788417 32.4273 0.856246 33.0231 0.944026 33.6003L0.284085 33.7048C0.353511 34.1703 0.438895 34.6317 0.535453 35.0729L1.18901 34.9272C1.31988 35.5287 1.4731 36.1084 1.65184 36.6638L1.01664 36.8742C1.16268 37.3276 1.32467 37.7696 1.49863 38.1914L2.11787 37.9267C2.35168 38.491 2.61183 39.0301 2.9015 39.5394L2.32136 39.8778C2.55517 40.289 2.81053 40.6898 3.07866 41.0694L3.62369 40.6711C3.97241 41.1609 4.34826 41.6232 4.75683 42.0523L4.27804 42.5226C4.60282 42.8626 4.94915 43.1881 5.30665 43.4893L5.73278 42.9671C6.18444 43.3468 6.66643 43.6933 7.17635 44.0098L6.82523 44.5895C7.21705 44.8323 7.62961 45.0606 8.05175 45.2671L8.34142 44.6575C8.86251 44.9125 9.41153 45.1359 9.98369 45.3327L9.76823 45.9779C10.1968 46.1252 10.6428 46.258 11.0945 46.3738L11.2581 45.7188C11.8167 45.8621 12.3968 45.9795 12.9969 46.0734L12.8956 46.7421C13.3369 46.8101 13.7957 46.8684 14.2561 46.9105L14.3168 46.2337C14.8905 46.2863 15.4811 46.3187 16.0883 46.3309L16.0756 47.0101C16.2551 47.0133 16.4195 47.0174 16.6198 47.0149C16.8975 47.0149 17.1728 47.0101 17.4441 46.9996L17.4194 46.3236C18.029 46.3009 18.618 46.2507 19.1877 46.1762L19.2723 46.8498C19.7352 46.7899 20.194 46.713 20.6353 46.6199L20.4996 45.9552C21.0957 45.8297 21.6663 45.6727 22.2113 45.4865L22.4252 46.1309C22.8737 45.9763 23.311 45.8006 23.7259 45.6087L23.4474 44.9902C23.9964 44.736 24.5135 44.4462 24.9971 44.1215L25.3666 44.6874C25.7624 44.4235 26.1414 44.1329 26.495 43.8244L26.0608 43.3111C26.5101 42.9193 26.9219 42.4902 27.2961 42.0256L27.8124 42.4554C28.1093 42.0879 28.3862 41.6952 28.6368 41.2872L28.0686 40.9286C28.3758 40.4283 28.6463 39.8948 28.8794 39.3305L29.4962 39.5928C29.6734 39.1661 29.8314 38.7144 29.967 38.2529L29.3262 38.0603C29.4898 37.5017 29.6207 36.9171 29.7196 36.3067L30.3796 36.4168ZM22.6111 17.6655H22.9559V18.5423C22.8074 18.2695 22.6486 18.0072 22.4811 17.7538L22.6111 17.6655Z" fill="#333333"/>
<path d="M50.9478 41.5082V40.1579H50.2823V39.2908H49.3614V38.6156H48.0303V39.2908H46.6458V38.2181H45.9803V36.4176H46.6458V35.0681H45.9803V33.266H46.6458V31.9156H45.9803V30.1151H46.6458V28.7648H45.9803V26.9635H46.6458V25.6123H45.9803V23.8126H46.6458V22.4622H45.9803V20.6601H46.6458V19.3098H45.9803V17.5093H46.6458V16.1581H45.9803V14.9883V14.3349L46.6458 14.3131V13.6371H44.6931V14.3131H42.9176V13.6371H41.5866V14.3131H39.811V13.6371H38.4808V14.3131H36.7052V13.6371H35.3742V14.3131H33.7407H33.5986V13.6371H32.4096V15.1324H33.0744V16.9329H32.4096V18.2832H33.0744V19.6814V20.0845H32.4096V21.0317H34.1381V20.3565H35.9128V21.0317H37.2447V21.2276H36.5791V22.578H37.2447V24.3785H36.5791V25.7305H37.2447V27.531H36.5791V28.8813H37.2447V30.6826H36.5791V32.033H37.2447V33.8335H36.5791V35.1838H37.2447V36.9843H36.5791V38.3363H37.2447V39.2908H36.4116V38.6156H35.0797V39.2908H33.542H33.3042V38.6156H32.2109V40.2072H32.8765V42.0077H32.2109V43.3581H32.8765V44.8607V45.1586H32.2109V46.211H33.8372V45.5359H35.6128V46.211H36.9438V45.5359H38.7186V46.211H40.0504V45.5359H41.8252V46.211H43.157V45.5359H44.9309V46.211H46.262V45.5359H48.0383V46.211H49.3694V45.5359H50.2823V44.6599H50.9478V43.3103H50.2823V41.5082H50.9478Z" fill="#333333"/>
<path d="M37.0835 9.81426V10.4894H38.4146V9.81426H40.1893V10.4894H41.5203V9.81426H43.2951V10.4894H44.6261V9.81426H45.9795V9.38519H46.645V8.03482H45.9795V6.23352H46.645V4.88315H45.9795V3.08267H46.645V1.7323H45.9795V0.951062H44.9733V0.275879H43.6422V0.951062H41.8675V0.275879H40.5364V0.951062H38.7617V0.275879H37.429V0.951062H36.8457V2.16056H36.1802V3.51093H36.8457V5.31223H36.1802V6.66259H36.8457V8.46389H36.1802V9.81426H36.8457H37.0835Z" fill="#333333"/>
<path d="M74.2268 38.6714C74.2754 38.218 74.3026 37.7436 74.3082 37.2587L73.6402 37.2514C73.641 37.1923 73.6442 37.1348 73.6442 37.0741C73.6442 36.5681 73.5972 36.0152 73.5437 35.4541L74.206 35.3885L74.1135 34.4519H72.5039V35.1262H70.7292V34.4519H69.3981V35.1262H68.1501V35.6622H67.4845V35.9998C67.4845 36.3357 67.4694 36.6515 67.439 36.9381L68.099 37.0109C68.0248 37.7063 67.8684 38.282 67.625 38.7321L67.0424 38.4099C66.8765 38.7191 66.6642 38.9385 66.3969 39.0802L66.7041 39.6752C66.349 39.8639 65.9292 39.9618 65.4369 39.9618C65.2725 39.9618 65.1209 39.9481 64.9772 39.9262L65.077 39.2607C64.6509 39.1952 64.4681 39.0138 64.3684 38.8818L63.8441 39.2939C63.5464 38.9029 63.386 38.3394 63.3374 37.5971L63.9997 37.5509C63.9893 37.4003 63.9845 37.2408 63.9845 37.0741V36.2467H63.319V34.4462H63.9845V33.0958H63.319V31.2953H63.9845V29.9442H63.319V28.1429H63.9845V26.7925H63.319V24.992H63.9845V23.6417H63.319V21.8404H63.9845V21.1644H64.1904V20.49H65.9652V21.1644H67.297V20.49H69.0725V21.1644H70.4028V20.49H71.4601V19.7606H72.1257V18.4102H71.4601V16.6089H72.1257V15.2585H71.4601V14.313H70.6175V13.637H69.2864V14.313H67.5109V13.637H66.1798V14.313H64.4051V13.637H63.319V12.2623H63.9845V10.9111H63.319V9.11064H63.9845V7.76027H63.319V5.95897H63.9845V3.948L62.8091 4.38193L63.0006 4.91301H62.6535V5.15831L61.3695 5.63191L61.1421 4.9972L59.89 5.45947L60.1183 6.09336L58.4497 6.70864L58.2222 6.07393L56.9702 6.5362L57.1984 7.1709L55.5306 7.78618L55.3024 7.15148L53.9171 7.66231V8.46379H54.5826V10.2643H53.9171V11.6146H54.5826V13.4159H53.9171V14.313H52.361V13.637H51.0291V14.313H49.6861V14.7501H49.0198V16.1013H49.6861V17.9018H49.0198V19.2521H49.6861V20.49H50.2407V21.1644H51.5718V20.49H53.3473V21.1644H54.5826V22.3876H53.9171V23.738H54.5826V25.5385H53.9171V26.8897H54.5826V28.691H53.9171V30.0413H54.5826V31.841H53.9171V33.1922H54.5826V34.9927H53.9171V36.3438H54.5826V38.014C54.5826 38.0585 54.585 38.1006 54.585 38.1451L53.9179 38.15C53.9218 38.6422 53.9474 39.1174 53.9937 39.5635L54.6568 39.4931C54.7222 40.1278 54.834 40.7147 54.992 41.2563L54.352 41.4482C54.4924 41.9347 54.672 42.397 54.8834 42.8172L55.4771 42.5095C55.7524 43.0576 56.0956 43.5425 56.5034 43.9684L56.023 44.4404C56.3581 44.7925 56.7412 45.1107 57.1601 45.3892L57.5256 44.8249C57.9956 45.1366 58.5263 45.3989 59.1152 45.6118L58.8893 46.2498C59.3123 46.4044 59.7703 46.5364 60.2499 46.6432L60.3936 45.9818C60.9362 46.1024 61.5211 46.1915 62.1452 46.2506L62.0829 46.9249C62.5194 46.967 62.9815 46.9938 63.4563 47.0075L63.4738 46.3307C63.6837 46.3364 63.896 46.3404 64.113 46.3404C64.5016 46.3404 64.8799 46.3259 65.247 46.3L65.2932 46.9743C65.7696 46.9403 66.2365 46.8853 66.6802 46.8076L66.5684 46.1397C67.1773 46.0344 67.7503 45.8879 68.2857 45.7001L68.5044 46.3412C68.9664 46.1785 69.4069 45.9858 69.8179 45.7664L69.5058 45.1666C70.0421 44.88 70.5289 44.5416 70.9646 44.1522L71.4067 44.6606C71.7698 44.3367 72.1041 43.9757 72.401 43.5879L71.8735 43.1718C72.2286 42.7071 72.5318 42.1946 72.7824 41.632L73.3913 41.9113C73.582 41.4838 73.7456 41.0232 73.8757 40.5455L73.2325 40.3642C73.3849 39.812 73.4958 39.2243 73.5628 38.5985L74.2268 38.6714Z" fill="#333333"/>
<path d="M112.86 17.1903V15.8399H112.194V14.3131H111.924V13.6371H110.593V14.3131H108.819V13.6371H107.487V14.3131H105.712V13.6371H104.381V14.3131H102.605V13.6371H101.274V14.3131H99.4996V13.6371H98.1669V14.3131H96.9117H96.393V13.6371H95.5783V15.5137H96.2454V17.315H95.5783V18.6653H96.2454V20.3557H96.3531V21.0309H97.6842V20.3557H99.4605V21.0309H100.331L99.8539 22.1821L99.2402 21.919L98.7215 23.1633L99.3352 23.4264L98.6457 25.0852L98.0313 24.8229L97.515 26.0673L98.1278 26.3296L97.4368 27.9884L96.8239 27.7261L96.306 28.9704L96.9189 29.2327L96.2294 30.8923L95.6158 30.63L95.0987 31.8743L95.7115 32.1366L95.0213 33.7954L94.4084 33.5331L93.8905 34.7774L94.5026 35.0397L94.165 35.8526L93.9384 35.2737L93.3199 35.5239L92.664 33.8505L93.2824 33.6011L92.7901 32.3463L92.1724 32.5948L91.5165 30.9215L92.1349 30.6721L91.6434 29.4173L91.0241 29.6666L90.3682 27.9932L90.9874 27.7439L90.495 26.489L89.8766 26.7376L89.2206 25.065L89.8399 24.8149L89.3483 23.56L88.7291 23.8094L88.0731 22.136L88.6916 21.8866L88.2008 20.631L87.5816 20.8811L87.3757 20.3557H88.5942V21.0309H89.9253V20.3557H91.0784H91.7232L91.7447 21.0309H92.4102V19.0499H91.7447V17.2494H92.4102V15.8982H91.7447V14.3131H91.5316V13.6371H90.2006V14.3131H88.425V13.6371H87.094V14.3131H85.3193V13.6371H83.9874V14.3131H82.2127V13.6371H80.8816V14.3131H79.1069V13.6371H77.7758V14.3131H75.9995V13.6371H74.6685V14.3131V14.9883V15.8586H74.0029V17.2089H74.6685V19.0102H74.0029V21.0309H74.6732L74.6708 20.3557H75.334H76.4488V21.0309H77.7798V20.3557H78.1102L78.6975 21.6939L78.0902 21.9692L78.6313 23.203L79.2394 22.9277L79.9615 24.5736L79.3535 24.848L79.8953 26.0818L80.5034 25.8074L81.2256 27.4524L80.6175 27.7277L81.1593 28.9615L81.7674 28.6862L82.4888 30.3313L81.8807 30.6065L82.4226 31.8403L83.0306 31.5651L83.7528 33.2101L83.1455 33.4846L83.6866 34.7192L84.2946 34.4439L85.016 36.0898L84.4088 36.3642L84.9498 37.5972L85.5579 37.3227L86.28 38.9678L85.672 39.243L86.2146 40.4768L86.8219 40.2024L87.5441 41.8474L86.936 42.1219L87.4778 43.3557L88.0859 43.0804L88.8073 44.7263L88.2 45.0015L88.4642 45.6031C88.4474 45.6783 88.429 45.7528 88.4115 45.8257L89.0563 45.9876C88.9007 46.6247 88.7259 47.1955 88.5272 47.7039L87.9087 47.4554C87.7468 47.8699 87.5664 48.2406 87.3733 48.5548L87.9383 48.9118C87.5991 49.4623 87.2073 49.8986 86.7477 50.2289L86.363 49.6784C86.067 49.8922 85.7398 50.05 85.3655 50.1626L85.5555 50.8094C85.0376 50.9657 84.4566 51.0409 83.8015 51.0409L83.8023 50.3658C83.4184 50.365 82.9915 50.3423 82.5335 50.301L82.4736 50.9729C81.9501 50.9252 81.3636 50.8483 80.7132 50.7406L80.8202 50.0751C80.5249 50.0274 80.2153 49.9699 79.8905 49.9067L79.0989 49.7529V50.943H79.6934L79.6392 51.2336C79.6822 51.2417 79.7229 51.2482 79.7652 51.2571V52.7443H79.0989V54.0955H79.7652V55.896H79.0989V57.8033L79.6711 57.8859L79.7932 57.222C80.3813 57.3135 80.9686 57.3961 81.5511 57.4665L81.4721 58.1377C81.9262 58.1927 82.3771 58.2397 82.8215 58.2761L82.8758 57.6025C83.4799 57.6519 84.072 57.6811 84.6482 57.6859L84.6434 58.3619L84.795 58.3627H84.8101C85.2291 58.3627 85.6281 58.3538 86.0111 58.3352L85.9792 57.6592C86.6136 57.6284 87.1993 57.5718 87.7428 57.4835L87.8473 58.153C88.3365 58.0745 88.8001 57.9701 89.2278 57.8454L89.0419 57.1953C89.6388 57.0188 90.1798 56.7922 90.6746 56.5056L91.005 57.0933C91.4239 56.8512 91.8237 56.5647 92.194 56.24L91.7583 55.7292C92.1876 55.3535 92.5834 54.9164 92.9592 54.4104L93.4923 54.8176C93.7588 54.4582 94.0134 54.0728 94.2703 53.6372L93.6974 53.2891C93.9815 52.8074 94.2584 52.2796 94.5337 51.7016L95.1338 51.9946L95.7051 50.7689L95.1027 50.4807L95.8591 48.8511L96.4616 49.1393L97.029 47.9176L96.4249 47.6302L97.1822 46.0005L97.7839 46.2879L98.3513 45.0663L97.7496 44.7781L98.5045 43.1492L99.1086 43.4374L99.6759 42.215L99.0727 41.9276L99.8292 40.2979L100.431 40.5861L100.998 39.3637L100.396 39.0755L101.151 37.4466L101.755 37.7356L102.321 36.5124L101.719 36.225L102.475 34.5953L103.079 34.8835L103.645 33.6619L103.043 33.3736L103.799 31.7448L104.402 32.0314L104.967 30.8105L104.366 30.5223L105.122 28.8927L105.726 29.1817L106.293 27.9584L105.69 27.671L106.445 26.0422L107.049 26.3296L107.614 25.1079L107.013 24.8197L107.769 23.1908L108.372 23.4782L108.938 22.2566L108.337 21.9684L109.085 20.3557H109.103V21.0309H110.434V20.3557H112.194V20.342H112.86V18.9908H112.194V17.1903H112.86Z" fill="#333333"/>
<path d="M150.185 42.3687V41.0183H149.521V39.2907H149.448V38.6147H148.116V39.2907H146.341V38.6147H145.086V37.4133H145.752V36.0621H145.086V34.2608H145.752V32.9096H145.086V31.1099H145.752V29.7596H145.086V27.9583H145.752V26.6079H145.086V24.8058H145.752V23.4554H145.086V21.655H145.752V20.3046H145.086V18.5033H145.752V17.1529H145.086V15.3524H145.752V14.0021H145.086V12.2008H145.752V10.8496H145.086V9.0491H145.752V7.69874H145.086V5.89744H145.752V4.54707H145.086V2.74577H145.752V1.0141H144.796V1.68928H144.42H143.021V1.0141H141.69V1.68928H139.914V1.0141H138.583V1.68928H136.808V1.0141H135.477V1.68928H133.701V1.0141H132.37V1.68928H132.18V3.2979H131.514V4.64908H132.18V6.44957H131.514V7.79993H132.18H132.847H133.383V8.47512H134.713V7.79993H136.416V7.8736H135.75V9.22397H136.416V11.0245H135.75V12.3748H136.416V14.1769H135.75V15.5273H136.416V17.3278H135.75V18.041C135.637 17.9074 135.522 17.7763 135.407 17.6492L135.893 17.1902C135.574 16.8396 135.238 16.5061 134.896 16.2009L134.454 16.7068C134.004 16.3037 133.534 15.9386 133.046 15.6147L133.412 15.048C133.017 14.7873 132.609 14.5485 132.193 14.3364L131.895 14.9404C131.366 14.6708 130.82 14.4441 130.254 14.2587L130.459 13.6159C130.019 13.471 129.562 13.3495 129.101 13.2532L128.967 13.9163C128.398 13.7972 127.812 13.7171 127.21 13.6758L127.254 13.0006C126.799 12.9691 126.327 12.961 125.867 12.9691L125.879 13.6491C125.273 13.6604 124.682 13.7025 124.11 13.777L124.026 13.1042C123.56 13.165 123.099 13.2459 122.655 13.3463L122.801 14.0094C122.212 14.1421 121.644 14.3097 121.099 14.5137L120.868 13.8766C120.427 14.0425 119.993 14.232 119.581 14.4409L119.879 15.0472C119.346 15.3176 118.839 15.6253 118.359 15.9709L117.973 15.4172C117.592 15.6916 117.223 15.9912 116.874 16.3093L117.322 16.8129C116.887 17.2112 116.481 17.6476 116.101 18.1171L115.582 17.6864C115.292 18.0467 115.013 18.4329 114.755 18.8328L115.316 19.2052C114.999 19.6966 114.706 20.2172 114.443 20.7701L113.842 20.477C113.645 20.8931 113.46 21.3287 113.296 21.7699L113.921 22.0104C113.717 22.5576 113.534 23.1268 113.378 23.7234L112.734 23.5494C112.62 23.9857 112.516 24.4439 112.427 24.9102L113.084 25.0398C112.975 25.6129 112.886 26.2056 112.818 26.8184L112.155 26.7423C112.104 27.1932 112.065 27.6587 112.038 28.1234L112.705 28.1631C112.674 28.7039 112.656 29.256 112.656 29.8235C112.656 29.8705 112.658 29.9158 112.658 29.9628L111.99 29.9652C111.992 30.4275 112.006 30.893 112.031 31.3496L112.7 31.3123C112.734 31.926 112.787 32.5235 112.862 33.1039L112.198 33.1914C112.257 33.6528 112.33 34.1151 112.415 34.5652L113.071 34.4373C113.185 35.0412 113.324 35.6241 113.484 36.1868L112.841 36.3746C112.969 36.8271 113.114 37.2756 113.27 37.7047L113.896 37.4699C114.106 38.0464 114.344 38.5961 114.601 39.1199L114.003 39.4234C114.212 39.8485 114.439 40.2622 114.679 40.6564L115.247 40.3002C115.564 40.8216 115.908 41.3081 116.275 41.7655L115.756 42.1946C116.051 42.5613 116.367 42.9167 116.695 43.2471L117.168 42.7654C117.591 43.1928 118.038 43.5846 118.51 43.9384L118.112 44.4841C118.488 44.7658 118.883 45.0281 119.287 45.2653L119.621 44.6768C120.133 44.9763 120.664 45.2394 121.217 45.4588L120.973 46.0886C121.405 46.2603 121.853 46.4109 122.305 46.5347L122.48 45.8822C123.042 46.0368 123.624 46.1502 124.219 46.2255L124.135 46.9007C124.591 46.9589 125.058 46.9962 125.526 47.0091L125.545 46.3291C125.683 46.3331 125.819 46.3404 125.958 46.3404C126.424 46.3404 126.877 46.321 127.317 46.2813L127.376 46.9549C127.848 46.912 128.313 46.848 128.759 46.7622L128.636 46.0976C129.228 45.985 129.798 45.8288 130.348 45.6337L130.569 46.2724C131.014 46.1146 131.452 45.9267 131.869 45.7179L131.572 45.1107C132.099 44.846 132.605 44.5391 133.092 44.187L133.479 44.7367C133.854 44.4663 134.221 44.1651 134.573 43.8429L134.128 43.341C134.556 42.9516 134.967 42.5209 135.364 42.0513L135.87 42.4909C136.161 42.146 136.449 41.7744 136.727 41.3875L136.188 40.9916C136.331 40.7916 136.471 40.5844 136.61 40.3723V40.4135H137.275V42.2132H136.61V43.5644H137.275V44.8597V45.3657H136.61V46.2101H138.44V45.5349H140.215V46.2101H141.546V45.5349H143.322V46.2101H144.654V45.5349H146.428V46.2101H147.759V45.5349H149.521V45.5195H150.185V44.1692H149.521V42.3687H150.185ZM136.416 18.679V18.8789C136.366 18.8109 136.315 18.7453 136.264 18.679H136.416ZM125.386 38.5839L125.744 38.0148C125.413 37.8003 125.098 37.5469 124.809 37.2611L124.347 37.7444C123.935 37.3388 123.564 36.8725 123.239 36.3454L123.803 35.9868C123.592 35.6452 123.401 35.2736 123.235 34.8834L122.624 35.1505C122.399 34.6227 122.211 34.0535 122.062 33.4439L122.708 33.2828C122.611 32.8837 122.53 32.4595 122.469 32.024L121.812 32.1195C121.732 31.5495 121.682 30.9513 121.665 30.3263L122.329 30.3068C122.325 30.1466 122.322 29.9863 122.322 29.8235C122.322 29.5434 122.327 29.2706 122.339 29.0026L121.676 28.9759C121.701 28.3469 121.754 27.7494 121.835 27.1835L122.491 27.2815C122.555 26.8419 122.636 26.4185 122.733 26.0218L122.09 25.8599C122.241 25.2446 122.43 24.6771 122.658 24.1573L123.264 24.4294C123.434 24.04 123.629 23.674 123.845 23.3429L123.291 22.9729C123.628 22.4548 124.015 22.0031 124.449 21.6193L124.885 22.1269C125.183 21.8646 125.509 21.6347 125.856 21.4453L125.539 20.8519C126.047 20.5734 126.6 20.3661 127.197 20.2269L127.345 20.8826C127.724 20.7944 128.13 20.7361 128.552 20.711L128.512 20.0382C128.695 20.0277 128.88 20.0196 129.069 20.0196C129.486 20.0196 129.892 20.0512 130.281 20.1135L130.178 20.7814C130.581 20.8454 130.972 20.9474 131.338 21.0834L131.567 20.4519C132.127 20.6592 132.649 20.9409 133.127 21.2939L132.736 21.8371C133.053 22.0719 133.352 22.3447 133.623 22.6475L134.114 22.1941C134.498 22.6224 134.842 23.1106 135.138 23.6578L134.557 23.9833C134.748 24.3346 134.921 24.7184 135.071 25.1207L135.692 24.8835C135.89 25.4195 136.054 25.9951 136.18 26.612L135.529 26.748C135.611 27.1536 135.677 27.5818 135.723 28.019L136.383 27.9461C136.444 28.5169 136.478 29.116 136.481 29.7426H135.816V29.8243C135.816 30.2348 135.802 30.6444 135.772 31.0419L136.434 31.0921C136.388 31.7163 136.308 32.3105 136.195 32.874L135.544 32.7404C135.46 33.1654 135.354 33.5791 135.228 33.9734L135.86 34.1798C135.67 34.7765 135.439 35.3286 135.17 35.8346L134.586 35.5156C134.388 35.888 134.165 36.2378 133.924 36.5551L134.449 36.968C134.077 37.4554 133.659 37.8804 133.201 38.239L132.795 37.7071C132.479 37.9557 132.14 38.1686 131.784 38.3435L132.074 38.9515C131.55 39.2097 130.986 39.3943 130.392 39.5044L130.272 38.8422C129.887 38.9142 129.481 38.9506 129.069 38.9506V39.6266C128.807 39.6266 128.55 39.6129 128.299 39.587L128.365 38.9158C127.957 38.8737 127.561 38.7952 127.186 38.6811L126.996 39.3263C126.42 39.1522 125.882 38.9045 125.386 38.5839Z" fill="#333333"/>
<path d="M207.947 38.6714C207.995 38.218 208.022 37.7436 208.028 37.2587L207.36 37.2514C207.361 37.1923 207.363 37.1356 207.363 37.0749C207.363 36.5689 207.316 36.0152 207.262 35.4542L207.926 35.3894L207.833 34.4527H206.223V35.1263H204.449V34.4527H203.118V35.1263H201.869V35.6622H201.204V36.0006C201.204 36.3366 201.189 36.6523 201.158 36.9389L201.818 37.011C201.744 37.708 201.588 38.282 201.344 38.7329L200.761 38.4099C200.595 38.7192 200.385 38.9386 200.116 39.0802L200.424 39.6753C200.069 39.8639 199.65 39.9627 199.157 39.9627C198.993 39.9627 198.841 39.9481 198.698 39.9262L198.797 39.2616C198.37 39.196 198.188 39.0147 198.088 38.8827L197.563 39.2948C197.266 38.9037 197.106 38.3387 197.057 37.5971L197.718 37.5518C197.708 37.4012 197.704 37.2417 197.704 37.0749V36.2467H197.039V34.4462H197.704V33.0967H197.039V31.2962H197.704V29.9442H197.039V28.1437H197.704V26.7934H197.039V24.9921H197.704V23.6417H197.039V21.8412H197.704V21.1644H197.91V20.4908H199.685V21.1644H201.018V20.4908H202.793V21.1644H204.123V20.4908H205.179V19.7598H205.845V18.4094H205.179V16.6089H205.845V15.2586H205.179V14.313H204.336V13.637H203.004V14.313H201.23V13.637H199.898V14.313H198.123V13.637H197.039V12.2615H197.704V10.9104H197.039V9.10987H197.704V7.75951H197.039V5.95821H197.704V3.94885L196.528 4.38278L196.719 4.91305H196.372V5.15835L195.088 5.63195L194.859 4.99725L193.61 5.45951L193.837 6.09341L192.169 6.70949L191.941 6.0756L190.691 6.53624L190.917 7.17095L189.249 7.78622L189.022 7.15233L187.636 7.66236V8.46384H188.303V10.2651H187.636V11.6155H188.303V13.4176H187.636V14.313H186.079V13.637H184.747V14.313H183.405V14.751H182.739V16.1013H183.405V17.9018H182.739V19.2538H183.405V20.4908H183.961V21.1644H185.292V20.4908H187.066V21.1644H188.303V22.3877H187.636V23.738H188.303V25.5385H187.636V26.8897H188.303V28.691H187.636V30.0422H188.303V31.841H187.636V33.193H188.303V34.9935H187.636V36.3439H188.303V38.014C188.303 38.0586 188.304 38.1006 188.304 38.1452L187.638 38.15C187.641 38.6423 187.667 39.1175 187.712 39.5635L188.376 39.4939C188.442 40.1286 188.554 40.7156 188.711 41.2572L188.07 41.449C188.213 41.9356 188.391 42.397 188.603 42.8172L189.197 42.5104C189.473 43.0585 189.814 43.5434 190.222 43.9692L189.742 44.4412C190.078 44.7934 190.461 45.1107 190.88 45.3892L191.244 44.8258C191.714 45.1375 192.245 45.3989 192.834 45.6127L192.609 46.2506C193.033 46.4052 193.489 46.5364 193.969 46.6433L194.112 45.9818C194.656 46.1033 195.241 46.1923 195.864 46.2514L195.802 46.9258C196.238 46.9679 196.7 46.9946 197.175 47.0084L197.193 46.3316C197.403 46.3372 197.615 46.3413 197.832 46.3413C198.221 46.3413 198.599 46.3259 198.966 46.3L199.014 46.9752C199.49 46.9412 199.955 46.8853 200.4 46.8076L200.286 46.1397C200.896 46.0345 201.47 45.8887 202.006 45.7009L202.224 46.3421C202.685 46.1794 203.126 45.9867 203.537 45.7673L203.225 45.1674C203.762 44.8808 204.248 44.5416 204.685 44.1522L205.126 44.6614C205.489 44.3376 205.823 43.9765 206.12 43.5887L205.593 43.1718C205.948 42.7079 206.251 42.1955 206.502 41.6328L207.111 41.9121C207.302 41.4847 207.465 41.0232 207.596 40.5456L206.953 40.3642C207.104 39.8121 207.215 39.2243 207.283 38.5985L207.947 38.6714Z" fill="#333333"/>
<path d="M239.398 36.4411V35.0899H238.734V34.1873H237.849V33.5121H236.518V34.1873H234.742V33.5121H233.411V34.1873H231.784V34.3362H231.118V35.6874H231.784V37.4887H231.118V38.8391H231.784V39.2908H230.454V38.6148H229.123V39.2908H227.346V38.6148H226.016V39.2908H224.24V38.6148H222.909V39.2908H221.243L221.134 39.1799V38.6148H221.072L222.085 37.594L222.554 38.074L223.498 37.1228L223.029 36.6427L224.289 35.3749L224.758 35.8534L225.702 34.9021L225.234 34.4229L226.494 33.1534L226.963 33.6327L227.907 32.6815L227.439 32.203L228.698 30.9336L229.166 31.4129L230.112 30.4616L229.643 29.9815L230.903 28.7138L231.371 29.193L232.316 28.241L231.848 27.7625L233.108 26.4931L233.577 26.9724L234.521 26.0203L234.053 25.5418L235.312 24.2732L235.78 24.7525L236.726 23.8005L236.257 23.3212L237.517 22.0526L237.986 22.5319L239.068 21.4422V21.0762H238.402V19.2749H239.068V17.9246H238.402V16.1233H239.068V14.7729H238.402V14.3131H237.081V13.6371H235.75V14.3131H233.974V13.6371H232.642V14.3131H230.868V13.6371H229.537V14.3131H227.761V13.6371H226.43V14.3131H224.655V13.6371H223.324V14.3131H221.548V13.6371H220.217V14.3131H218.441V13.6371H217.11V14.3131H215.336V13.6371H214.004V14.3131H212.229V13.6371H210.898V14.3131H210.274V15.4805H209.608V16.8317H210.274V18.6321H209.608V19.9825H210.274V21.7838H209.608V23.1342H210.274V24.7865H210.421V25.4617H211.752V24.7865H213.527V25.4617H214.858V24.7865H216.629L216.634 25.4617H217.955V24.1016H217.29V22.3011H217.955V20.95H217.29V20.3557H218.479V21.0309H219.81V20.3557H221.585V21.0309H222.917V20.3557H224.692V21.0309H226.022V20.3557H226.865L226.408 20.8123L226.875 21.294L225.611 22.5578L225.143 22.0761L224.196 23.0241L224.663 23.505L223.398 24.7695L222.93 24.2878L221.982 25.2358L222.45 25.7167L221.185 26.9813L220.718 26.4996L219.769 27.4476L220.237 27.9293L218.972 29.193L218.505 28.7121L217.557 29.6593L218.024 30.141L216.759 31.4048L216.292 30.9239L215.344 31.8719L215.811 32.3528L214.547 33.6173L214.08 33.1356L213.132 34.0836L213.598 34.5653L212.334 35.8291L211.867 35.3474L210.919 36.2954L211.386 36.7763L210.122 38.0416L209.655 37.5599L209.079 38.1347V39.2309H209.745V41.033H209.079V42.3834H209.745V44.1839H209.079V45.5342H209.745H210.411H210.419V46.2094H211.751V45.5342H213.526V46.2094H214.858V45.5342H216.632V46.2094H217.963V45.5342H219.738V46.2094H221.069V45.5342H222.846V46.2094H224.176V45.5342H225.951V46.2094H227.282V45.5342H229.058V46.2094H230.389V45.5342H232.164V46.2094H233.496V45.5342H235.271V46.2094H236.601V45.5342H238.067H238.377V46.2094H239.398V44.5449H238.734V42.7436H239.398V41.3933H238.734V39.5936H239.398V38.2424H238.734V36.4411H239.398Z" fill="#333333"/>
<path d="M183.961 30.2383L183.963 29.891C183.963 29.2765 183.941 28.6669 183.898 28.0792L182.877 28.1561C182.825 27.4493 182.741 26.7644 182.625 26.1014L183.634 25.9217C183.507 25.1898 183.341 24.4725 183.141 23.7901L182.157 24.0872C181.959 23.4112 181.725 22.7619 181.454 22.1442L182.392 21.7216C182.093 21.0408 181.749 20.3826 181.369 19.7641L180.501 20.3146C180.137 19.7236 179.73 19.1698 179.29 18.6501L180.068 17.9709C179.592 17.4106 179.069 16.882 178.513 16.3995L177.846 17.1921C177.332 16.7476 176.784 16.3388 176.201 15.9712L176.74 15.0888C176.132 14.7059 175.482 14.3586 174.808 14.0574L174.395 15.0095C173.785 14.7374 173.145 14.501 172.478 14.3019L172.769 13.3037C172.095 13.1021 171.389 12.9345 170.669 12.8058L170.491 13.8299C169.838 13.7133 169.163 13.6267 168.466 13.5741L168.542 12.5386C167.255 12.4415 165.869 12.4512 164.597 12.5654L164.688 13.6C163.992 13.6631 163.319 13.7595 162.667 13.8858L162.473 12.8633C161.756 13.0025 161.052 13.1814 160.381 13.3952L160.686 14.3845C160.022 14.5949 159.39 14.8475 158.783 15.1309L158.354 14.1853C157.686 14.497 157.042 14.8556 156.439 15.2515L156.995 16.1259C156.418 16.5031 155.874 16.9176 155.368 17.3718L154.69 16.5954C154.143 17.086 153.629 17.6236 153.162 18.1935L153.951 18.859C153.52 19.3852 153.126 19.9486 152.771 20.5453L151.893 20.0069C151.521 20.6295 151.188 21.2925 150.898 21.9782L151.84 22.3863C151.578 23.008 151.355 23.6605 151.165 24.339L150.178 24.0556C149.986 24.7421 149.83 25.461 149.711 26.1913L150.72 26.3597C150.613 27.0235 150.54 27.71 150.495 28.4168L149.471 28.3512C149.44 28.8556 149.424 29.3737 149.424 29.891C149.424 30.0983 149.427 30.3071 149.431 30.5128L150.457 30.4877C150.474 31.196 150.519 31.8858 150.597 32.5545L149.58 32.6743C149.665 33.411 149.786 34.1348 149.94 34.8245L150.94 34.5954C151.093 35.2852 151.28 35.9482 151.503 36.5837L150.538 36.9327C150.784 37.6338 151.075 38.3162 151.399 38.9598L152.312 38.4838C152.627 39.1056 152.979 39.6974 153.37 40.2511L152.538 40.855C152.965 41.4606 153.44 42.0354 153.95 42.5632L154.681 41.8354C155.155 42.3277 155.669 42.7802 156.216 43.1963L155.601 44.0302C156.179 44.4706 156.8 44.873 157.447 45.2267L157.933 44.3103C158.522 44.6325 159.141 44.9199 159.79 45.1676L159.43 46.1399C160.091 46.3917 160.787 46.6087 161.5 46.7835L161.742 45.7724C162.387 45.9303 163.056 46.0574 163.748 46.1505L163.615 47.181C164.305 47.2725 165.023 47.3332 165.745 47.36L165.782 46.3229C166.072 46.3334 166.364 46.3407 166.661 46.3407C167.055 46.3407 167.441 46.3269 167.823 46.3083L167.874 47.3462C168.599 47.3098 169.316 47.2393 170.003 47.1373L169.855 46.1075C170.545 46.0047 171.214 45.8712 171.857 45.7011L172.114 46.705C172.821 46.5188 173.513 46.2897 174.172 46.0242L173.794 45.0559C174.438 44.7968 175.053 44.5022 175.636 44.1678L176.139 45.0713C176.783 44.7029 177.397 44.2884 177.965 43.8391L177.335 43.0198C177.874 42.5948 178.376 42.1301 178.843 41.6298L179.588 42.3447C180.087 41.8103 180.552 41.2283 180.971 40.617L180.129 40.0236C180.512 39.4634 180.86 38.87 181.168 38.2442L182.083 38.7048C182.4 38.0612 182.681 37.3763 182.92 36.6704L181.95 36.3328C182.166 35.6932 182.352 35.0302 182.498 34.3388L183.497 34.5566C183.643 33.8652 183.756 33.1414 183.835 32.4039L182.815 32.2922C182.885 31.6235 182.926 30.9345 182.935 30.2262L183.961 30.2383ZM172.758 24.9623L167.417 22.8842L168.364 20.3802L173.703 22.4583L172.758 24.9623ZM165.024 20.3802L165.971 22.8842L160.631 24.9623L159.684 22.4583L165.024 20.3802ZM164.896 38.7129L164.64 39.7152C163.954 39.5338 163.338 39.2505 162.787 38.87L163.361 38.0175C162.91 37.705 162.508 37.3034 162.167 36.8234L161.339 37.4289C160.964 36.9027 160.646 36.2947 160.386 35.605L161.338 35.235C161.133 34.691 160.965 34.0789 160.838 33.4167L159.837 33.6134C159.715 32.9763 159.627 32.2914 159.574 31.5595L160.591 31.4834C160.555 30.9596 160.536 30.401 160.536 29.8238L160.537 29.5016L159.518 29.4886C159.528 28.7576 159.572 28.0703 159.643 27.421L159.665 27.4234V28.2451H161.497V27.2097H163.54V28.2451H165.583V27.2097H167.626V28.2451H169.669V27.2097H171.711V28.2451H173.726V27.2372H173.73C173.805 27.8849 173.852 28.573 173.868 29.3041L172.849 29.3284C172.853 29.4895 172.854 29.6538 172.854 29.8238C172.854 30.3395 172.839 30.8382 172.808 31.3061L173.825 31.375C173.777 32.106 173.695 32.7917 173.579 33.4305L172.576 33.2418C172.455 33.9041 172.294 34.5193 172.093 35.0723L173.05 35.4285C172.798 36.1207 172.49 36.7335 172.127 37.2678L171.289 36.6809C170.953 37.1731 170.559 37.5876 170.116 37.9155L170.719 38.7534C170.179 39.1541 169.568 39.4529 168.894 39.6544L168.606 38.6627C168.077 38.8206 167.489 38.908 166.858 38.9226L166.882 39.9564C166.808 39.958 166.735 39.9621 166.661 39.9621V38.9258C166.024 38.9258 165.43 38.8546 164.896 38.7129Z" fill="#333333"/>
</svg>
