<svg width="249" height="38" viewBox="0 0 249 38" fill="none" xmlns="http://www.w3.org/2000/svg">
<path d="M249 0H0V38H249V0Z" fill="#303030"/>
<path d="M21.9215 28.0945H15.785V9.86635H21.8625C23.1606 9.80698 24.4587 9.9851 25.6978 10.3413C26.6419 10.6382 27.468 11.1726 28.058 12.0039C28.6481 12.7758 29.0021 13.7258 29.2381 14.6758C29.4741 15.982 29.5921 17.3476 29.5331 18.7132C29.5331 20.0789 29.4741 21.4445 29.2381 22.8101C29.0611 23.8195 28.7071 24.8289 28.117 25.7195C27.527 26.6101 26.7009 27.2632 25.7568 27.5601C24.5767 27.9757 23.2196 28.1539 21.9215 28.0945ZM25.7568 20.8507C25.8158 20.257 25.8158 19.4851 25.8158 18.4757C25.8158 17.6445 25.8158 16.8726 25.6978 16.0414C25.6388 15.4476 25.4618 14.9133 25.1668 14.3789C24.9308 13.9039 24.5177 13.5476 23.9867 13.3695C23.2786 13.132 22.5706 13.0726 21.8625 13.0726H19.5023V24.8882H21.9215C23.2786 24.8882 24.2227 24.532 24.8128 23.8789C25.3438 23.3445 25.6388 22.3351 25.7568 20.8507Z" fill="white"/>
<path d="M32.4243 28.0945V9.86633H36.0826V28.0945H32.4243Z" fill="white"/>
<path d="M47.5885 21.5632V18.3569H52.8399V27.7976C50.7748 28.1538 48.7096 28.3913 46.6444 28.3913C43.8122 28.3913 41.8651 27.6194 40.803 26.1351C39.7409 24.6507 39.2098 22.2163 39.2098 18.8913C39.2098 15.5663 39.7409 13.1913 40.862 11.707C41.9831 10.2226 43.8122 9.51007 46.4674 9.51007C48.2376 9.51007 50.0667 9.68817 51.8369 10.0444L52.7809 10.2226L52.6629 13.0726C50.9518 12.8944 49.1816 12.7757 47.4115 12.7163C46.4084 12.6569 45.4643 12.8351 44.5203 13.1913C43.9302 13.607 43.4582 14.2601 43.2812 14.9726C42.9861 16.457 42.8091 17.9413 42.8681 19.4257C42.8681 21.5038 43.1042 22.9882 43.6352 23.8194C44.1662 24.6507 45.2283 25.0663 46.8215 25.0663L49.0046 24.9476V21.3851L47.5885 21.5632Z" fill="white"/>
<path d="M55.9082 28.0945V9.86633H59.5665V28.0945H55.9082Z" fill="white"/>
<path d="M62.1627 13.132V9.86633H75.4978V13.132H70.7184V28.0945H67.0601V13.132H62.1627Z" fill="white"/>
<path d="M74.7898 28.0945L78.8611 9.86633H85.8237L89.895 28.0945H86.2367L85.5287 24.7695H79.2152L78.5071 28.0945H74.7898ZM81.6933 12.9538L79.8642 21.6226H84.8206L82.9915 12.9538H81.6933Z" fill="white"/>
<path d="M101.991 28.0945H91.665V9.86633H95.3233V24.8288H101.932V28.0945H101.991Z" fill="white"/>
<path d="M104.233 28.0945V9.86633H115.975V13.0726H107.95V17.3476H114.382V20.4945H107.95V24.8882H115.975V28.0945H104.233Z" fill="white"/>
<path d="M128.543 21.9788V28.0945H124.885V9.86633H131.906C136.155 9.86633 138.279 11.8851 138.279 15.8632C138.279 18.2382 137.394 20.0195 135.624 21.1476L138.22 28.0945H134.208L132.083 21.9788H128.543ZM133.913 18.0601C134.385 17.4663 134.562 16.6945 134.562 15.9226C134.621 15.1507 134.385 14.4382 133.854 13.8445C133.323 13.3101 132.614 13.0132 131.906 13.0726H128.543V18.8913H131.965C132.674 18.8913 133.382 18.5944 133.913 18.0601Z" fill="white"/>
<path d="M140.993 28.0945V9.86633H152.735V13.0726H144.71V17.3476H151.083V20.4945H144.651V24.8882H152.676V28.0945H140.993Z" fill="white"/>
<path d="M166.719 27.7976C165.067 28.2132 163.356 28.3913 161.645 28.3913C160.406 28.4507 159.166 28.2726 158.045 27.857C157.16 27.5007 156.393 26.8476 155.921 26.0757C155.39 25.1851 155.036 24.2351 154.859 23.1663C154.623 21.8007 154.564 20.3757 154.564 19.0101C154.564 15.507 155.036 13.0132 156.039 11.6476C157.042 10.282 158.812 9.56946 161.468 9.56946C163.238 9.62883 165.008 9.86634 166.778 10.282L166.66 13.2507C165.185 13.0132 163.769 12.8945 162.294 12.8351C161.409 12.7757 160.583 12.9538 159.816 13.3101C159.225 13.7257 158.871 14.3788 158.694 15.0913C158.399 16.5757 158.281 18.0601 158.34 19.5445C158.34 21.682 158.576 23.107 159.048 23.9382C159.52 24.7695 160.524 25.1851 161.999 25.1851C163.592 25.1851 165.126 25.0663 166.66 24.8288L166.719 27.7976Z" fill="white"/>
<path d="M169.669 28.0945V9.86633H181.411V13.0726H173.387V17.3476H179.818V20.4945H173.387V24.8882H181.411V28.0945H169.669Z" fill="white"/>
<path d="M190.97 22.8101H187.961V28.0945H184.302V9.86633H190.97C195.277 9.86633 197.402 12.0038 197.402 16.2195C197.402 18.357 196.871 19.9601 195.749 21.0882C194.687 22.2163 193.094 22.8101 190.97 22.8101ZM187.961 19.6632H190.911C192.74 19.6632 193.684 18.5351 193.684 16.2195C193.743 15.3288 193.507 14.4976 193.035 13.7851C192.504 13.2507 191.737 12.9538 190.97 13.0726H188.02V19.6632H187.961Z" fill="white"/>
<path d="M198.641 13.132V9.86633H211.976V13.132H207.197V28.0945H203.538V13.132H198.641Z" fill="white"/>
<path d="M214.808 28.0945V9.86633H218.466V28.0945H214.808Z" fill="white"/>
<path d="M221.476 28.0945V9.86633H233.217V13.0726H225.193V17.3476H231.624V20.4945H225.193V24.8882H233.217V28.0945H221.476Z" fill="white"/>
</svg>
