<svg width="168" height="36" viewBox="0 0 168 36" fill="none" xmlns="http://www.w3.org/2000/svg">
<g clip-path="url(#clip0_1_48)">
<path d="M77.035 29.1287C80.1019 29.1287 82.2712 26.5146 82.2712 22.332C82.2712 18.1494 80.1767 15.5353 77.035 15.5353C73.7436 15.5353 71.8735 17.9254 71.8735 22.332C71.7987 26.5146 73.8932 29.1287 77.035 29.1287ZM79.2043 6.9461V2.68884H88.3302V28.8299H91.472V33.1619H82.8696V28.8299C80.9247 32.1909 78.4562 33.7594 74.8657 33.7594C69.4798 33.7594 65.5153 29.4274 65.5153 22.332C65.5153 15.2366 69.1806 11.054 75.0901 11.054C77.9326 10.9793 80.6255 12.3237 82.2712 14.7137V6.9461H79.2043Z" fill="#303030"/>
<path d="M103.453 2.8009H102.705V33.1992H103.453V2.8009Z" fill="#303030"/>
<path d="M118.695 0.594823C119.021 0.676879 119.312 0.818014 119.57 1.01787L119.549 0.55726H120.096L119.978 2.91499H119.591C119.584 2.35081 119.427 1.8738 119.119 1.48431C118.811 1.09482 118.364 0.90007 117.777 0.90007C117.333 0.90007 116.98 1.03063 116.714 1.29138C116.45 1.55214 116.318 1.86833 116.318 2.23995C116.318 2.51164 116.396 2.74541 116.554 2.94198C116.711 3.13855 116.904 3.30448 117.133 3.44015C117.362 3.57618 117.677 3.737 118.078 3.92263C118.536 4.12978 118.908 4.32087 119.195 4.49593C119.48 4.67098 119.722 4.89453 119.919 5.16586C120.116 5.43756 120.214 5.76979 120.214 6.16257C120.214 6.58415 120.11 6.95759 119.902 7.28253C119.695 7.60784 119.395 7.8613 119.001 8.04364C118.607 8.22563 118.139 8.3168 117.595 8.3168C117.265 8.3168 116.931 8.28106 116.591 8.20958C116.251 8.13846 115.96 8.0203 115.717 7.85619L115.749 8.2311H115.191L115.244 5.94813H115.663C115.67 6.58415 115.856 7.06299 116.221 7.38428C116.586 7.70594 117.069 7.86677 117.67 7.86677C118.128 7.86677 118.516 7.74168 118.834 7.4915C119.153 7.24169 119.312 6.89523 119.312 6.45213C119.312 6.15199 119.23 5.89452 119.065 5.68044C118.901 5.46601 118.701 5.28731 118.464 5.14435C118.228 5.00139 117.902 4.82998 117.487 4.62977C117.044 4.42262 116.688 4.237 116.419 4.07252C116.151 3.90841 115.924 3.69762 115.738 3.44015C115.552 3.18304 115.459 2.86867 115.459 2.49705C115.459 2.2115 115.527 1.91282 115.663 1.6021C115.798 1.29138 116.037 1.02516 116.376 0.803791C116.717 0.582424 117.169 0.471558 117.734 0.471558C118.049 0.471557 118.369 0.512768 118.695 0.594823Z" fill="#303030"/>
<path d="M124.878 2.94708C125.189 3.13307 125.432 3.40258 125.608 3.75633C125.783 4.11008 125.871 4.52984 125.871 5.01561C125.871 5.60167 125.765 6.14105 125.554 6.63411C125.343 7.12717 125.039 7.52213 124.642 7.81863C124.244 8.11512 123.778 8.26319 123.241 8.26319C122.561 8.26319 122.048 8.04 121.701 7.59325C121.353 7.14687 121.18 6.56993 121.18 5.86242C121.18 5.27673 121.287 4.74063 121.502 4.25486C121.717 3.7691 122.024 3.38325 122.426 3.09733C122.826 2.81142 123.295 2.66846 123.832 2.66846C124.218 2.66846 124.567 2.76145 124.878 2.94708ZM122.838 3.40258C122.606 3.62796 122.428 3.93503 122.307 4.32452C122.185 4.71401 122.125 5.14799 122.125 5.62683C122.125 6.21982 122.221 6.73951 122.415 7.18625C122.607 7.63264 122.922 7.85619 123.359 7.85619C123.724 7.85619 124.023 7.71652 124.255 7.43789C124.488 7.15927 124.658 6.81646 124.765 6.4091C124.873 6.00174 124.926 5.60532 124.926 5.21947C124.926 4.61919 124.831 4.11008 124.642 3.69215C124.452 3.27421 124.125 3.06524 123.659 3.06524C123.345 3.06524 123.071 3.17757 122.838 3.40258Z" fill="#303030"/>
<path d="M131.774 3.21512L133.493 3.1936L133.525 2.78661H131.818L132.011 1.27533H131.603C131.46 1.77532 131.256 2.15241 130.991 2.40587C130.726 2.65969 130.379 2.78661 129.95 2.78661H128.426C128.49 2.0007 128.596 1.40771 128.743 1.00728C128.889 0.607211 129.131 0.406996 129.467 0.406996C129.589 0.406996 129.671 0.421583 129.714 0.450029C129.706 0.607211 129.744 0.735947 129.827 0.835873C129.909 0.935798 130.021 0.985761 130.165 0.985761C130.3 0.985761 130.403 0.939445 130.47 0.846449C130.538 0.753817 130.573 0.657174 130.573 0.557249C130.573 0.37855 130.505 0.241061 130.369 0.144418C130.233 0.0481392 130.04 0 129.789 0C129.109 0 128.608 0.242884 128.286 0.728653C127.964 1.21479 127.739 1.90041 127.61 2.78661H126.665L126.612 3.24721L127.557 3.23664C127.506 3.70818 127.463 4.21182 127.427 4.74792L127.363 5.5196C127.327 5.86241 127.288 6.39122 127.245 7.10565C127.18 7.99185 127.12 8.65996 127.063 9.10999C127.005 9.56002 126.909 9.92617 126.773 10.2084C126.637 10.4907 126.44 10.6318 126.182 10.6318C126.054 10.6318 125.95 10.6034 125.871 10.5461C125.871 10.3963 125.832 10.2763 125.753 10.1873C125.674 10.0976 125.567 10.0531 125.431 10.0531C125.295 10.0531 125.191 10.1012 125.12 10.1979C125.048 10.2941 125.012 10.3926 125.012 10.4925C125.012 10.6782 125.084 10.8175 125.227 10.9105C125.37 11.0035 125.578 11.0498 125.849 11.0498C126.458 11.0498 126.92 10.839 127.234 10.4174C127.549 9.99583 127.764 9.47979 127.879 8.86893C127.993 8.25807 128.093 7.4273 128.179 6.37699L128.243 5.61588C128.272 5.25885 128.311 4.66221 128.362 3.82598L128.394 3.22606H130.873C130.788 3.97623 130.719 4.68884 130.669 5.36425C130.619 6.03929 130.594 6.58414 130.594 6.99843C130.594 7.37005 130.682 7.67384 130.857 7.90943C131.032 8.14538 131.316 8.26318 131.71 8.26318C132.04 8.26318 132.324 8.172 132.563 7.99002C132.804 7.80768 133.034 7.52759 133.256 7.14868L132.977 6.96633C132.677 7.46669 132.34 7.7165 131.968 7.7165C131.761 7.7165 131.625 7.6308 131.56 7.4594C131.495 7.28799 131.463 7.06298 131.463 6.78435C131.463 6.21981 131.542 5.25885 131.7 3.9011L131.774 3.21512Z" fill="#303030"/>
<path d="M141.414 3.20455C141.636 3.56195 141.747 4.00833 141.747 4.54406C141.747 5.01561 141.657 5.4981 141.478 5.99116C141.235 6.65563 140.871 7.20048 140.384 7.62571C139.897 8.05094 139.361 8.26319 138.773 8.26319C138.466 8.26319 138.206 8.16326 137.995 7.96305C137.784 7.76319 137.679 7.42367 137.679 6.94483C137.679 6.81646 137.682 6.71653 137.689 6.64505H137.668C137.518 7.08815 137.267 7.46852 136.916 7.78617C136.566 8.10418 136.201 8.26319 135.821 8.26319C135.428 8.26319 135.143 8.13664 134.968 7.88281C134.793 7.62935 134.705 7.29165 134.705 6.87007C134.705 6.58415 134.723 6.25556 134.759 5.88394C134.795 5.51232 134.834 5.16222 134.877 4.83363C134.948 4.21912 134.984 3.84386 134.984 3.70819C134.984 3.54408 134.965 3.41899 134.925 3.33292C134.886 3.24722 134.809 3.20455 134.695 3.20455C134.566 3.20455 134.433 3.28843 134.298 3.45619C134.162 3.62431 134.043 3.88689 133.943 4.24392L133.642 4.17974C133.707 3.82963 133.856 3.49047 134.088 3.16152C134.321 2.83293 134.626 2.66846 135.006 2.66846C135.292 2.66846 135.509 2.75817 135.656 2.93651C135.802 3.1152 135.875 3.37231 135.875 3.70819C135.875 4.10862 135.818 4.77309 135.704 5.70159C135.625 6.39487 135.585 6.8449 135.585 7.05205C135.585 7.23804 135.621 7.39157 135.693 7.51302C135.764 7.63446 135.883 7.69536 136.047 7.69536C136.362 7.69536 136.662 7.54511 136.949 7.24497C137.235 6.94483 137.468 6.51449 137.646 5.9536C137.825 5.3927 137.915 4.73699 137.915 3.98682C137.915 3.58675 137.889 3.18668 137.84 2.78662H138.763C138.792 2.89347 138.805 3.0543 138.805 3.26874C138.805 3.61191 138.788 3.94597 138.752 4.27091C138.716 4.59622 138.666 4.97659 138.602 5.41239C138.566 5.6768 138.532 5.93755 138.5 6.19466C138.468 6.45213 138.452 6.67714 138.452 6.87007C138.452 7.12024 138.494 7.32192 138.58 7.47545C138.666 7.62935 138.82 7.70594 139.042 7.70594C139.442 7.70594 139.833 7.52031 140.212 7.14869C140.592 6.77707 140.874 6.30917 141.06 5.74463C141.103 5.60896 141.141 5.43902 141.173 5.23552C141.205 5.03202 141.221 4.8267 141.221 4.61919C141.221 3.94779 141.05 3.53679 140.706 3.38653C140.627 3.56523 140.481 3.65458 140.266 3.65458C140.151 3.65458 140.047 3.61556 139.955 3.53679C139.861 3.45801 139.815 3.34387 139.815 3.19361C139.815 3.05795 139.867 2.93651 139.971 2.82929C140.074 2.72207 140.237 2.66846 140.459 2.66846C140.874 2.66846 141.192 2.84716 141.414 3.20455Z" fill="#303030"/>
<path d="M147.157 2.8508C146.842 5.18009 146.685 6.60931 146.685 7.13775C146.685 7.32374 146.702 7.46852 146.738 7.5721C146.774 7.67567 146.856 7.72745 146.985 7.72745C147.121 7.72745 147.26 7.64175 147.403 7.47035C147.547 7.29858 147.669 7.03782 147.769 6.68772L148.07 6.75191C148.033 6.95212 147.956 7.17021 147.839 7.4058C147.721 7.64175 147.563 7.84379 147.366 8.01155C147.169 8.17931 146.939 8.26319 146.674 8.26319C146.144 8.26319 145.88 7.94189 145.88 7.29858C145.88 6.98421 145.944 6.50574 146.073 5.86242H146.04C145.74 6.80552 145.411 7.44154 145.053 7.77012C144.695 8.09908 144.327 8.26319 143.948 8.26319C143.533 8.26319 143.202 8.1133 142.955 7.81316C142.708 7.51302 142.584 7.04147 142.584 6.39852C142.584 5.71254 142.702 5.08745 142.939 4.52291C143.175 3.95837 143.529 3.50834 144.001 3.17246C144.473 2.83658 145.046 2.66846 145.718 2.66846C146.205 2.66846 146.685 2.72936 147.157 2.8508ZM144.334 3.49922C144.048 3.79572 143.835 4.18521 143.695 4.66733C143.556 5.14982 143.486 5.66622 143.486 6.21617C143.486 7.26649 143.718 7.79164 144.183 7.79164C144.498 7.79164 144.813 7.54511 145.128 7.05205C145.443 6.55898 145.704 5.94995 145.912 5.22494C146.119 4.49957 146.223 3.81906 146.223 3.18304C146.008 3.09733 145.729 3.0543 145.386 3.0543C144.971 3.0543 144.62 3.20273 144.334 3.49922Z" fill="#303030"/>
<path d="M152.765 2.83476C152.905 2.94562 152.974 3.09733 152.974 3.29026C152.974 3.42592 152.928 3.5459 152.835 3.64911C152.742 3.75305 152.624 3.80484 152.48 3.80484C152.352 3.80484 152.241 3.76545 152.148 3.68668C152.055 3.60827 152.001 3.4974 151.987 3.35444C151.958 3.34751 151.919 3.34387 151.869 3.34387C151.568 3.34387 151.275 3.5831 150.989 4.06194C150.702 4.54078 150.469 5.12283 150.291 5.80881C150.112 6.4948 150.022 7.12024 150.022 7.68442C150.022 7.74897 150.03 7.90251 150.044 8.14539H149.153C149.146 8.08121 149.142 7.98821 149.142 7.86677C149.142 7.43096 149.2 6.69866 149.314 5.6695L149.454 4.42627C149.496 4.05501 149.518 3.80848 149.518 3.68668C149.518 3.53679 149.499 3.41899 149.459 3.33292C149.42 3.24722 149.343 3.20455 149.228 3.20455C149.092 3.20455 148.953 3.29026 148.81 3.46166C148.666 3.63307 148.544 3.89418 148.444 4.24392L148.144 4.17974C148.18 3.97989 148.257 3.7618 148.375 3.52585C148.493 3.29026 148.65 3.08858 148.847 2.92046C149.044 2.7527 149.275 2.66846 149.539 2.66846C149.818 2.66846 150.019 2.75817 150.141 2.93651C150.262 3.1152 150.323 3.37231 150.323 3.70819C150.323 4.03678 150.269 4.4693 150.162 5.00503H150.194C150.488 4.14072 150.802 3.53496 151.139 3.18851C151.475 2.84205 151.837 2.66846 152.223 2.66846C152.445 2.66846 152.626 2.72389 152.765 2.83476Z" fill="#303030"/>
<path d="M156.624 2.9686C156.91 3.16881 157.053 3.47953 157.053 3.90111C157.053 4.42992 156.735 4.84092 156.098 5.13377C155.461 5.42662 154.724 5.61954 153.887 5.71254C153.887 6.3843 153.987 6.88794 154.188 7.22382C154.388 7.5597 154.695 7.72746 155.11 7.72746C155.44 7.72746 155.758 7.61841 156.066 7.40033C156.373 7.18261 156.642 6.85913 156.871 6.43061L157.225 6.63411C156.925 7.19865 156.588 7.61148 156.216 7.87224C155.844 8.13299 155.415 8.26319 154.928 8.26319C154.269 8.26319 153.774 8.05787 153.441 7.64686C153.109 7.23622 152.942 6.66985 152.942 5.94813C152.942 5.36936 153.041 4.83181 153.237 4.3351C153.434 3.83875 153.73 3.43686 154.123 3.12943C154.516 2.82236 154.993 2.66846 155.551 2.66846C155.98 2.66846 156.337 2.76875 156.624 2.9686ZM154.337 3.69762C154.087 4.14072 153.941 4.68338 153.898 5.32669C154.52 5.24099 155.053 5.06922 155.497 4.81211C155.941 4.55501 156.162 4.23335 156.162 3.8475C156.162 3.61191 156.096 3.41717 155.964 3.26327C155.831 3.10973 155.644 3.03315 155.4 3.03315C154.942 3.03315 154.588 3.25452 154.337 3.69762Z" fill="#303030"/>
<path d="M121.092 15.3529H120.684C120.699 14.9029 120.672 14.5436 120.604 14.2756C120.536 14.0079 120.406 13.8077 120.217 13.6757C120.027 13.5433 119.75 13.4773 119.385 13.4773L118.473 13.4879L118.119 19.3185C118.097 19.7259 118.072 20.0082 118.043 20.165L118.935 20.1223L118.913 20.5939H116.433L116.454 20.2401C116.677 20.2332 116.841 20.1723 116.948 20.0581C117.056 19.9436 117.129 19.8007 117.169 19.6293C117.208 19.4578 117.235 19.2219 117.249 18.9218L117.582 13.4879L116.476 13.4988C116.032 13.4988 115.709 13.6469 115.505 13.9433C115.301 14.2398 115.181 14.7099 115.145 15.3529H114.748L114.931 13.0914H121.146L121.092 15.3529Z" fill="#303030"/>
<path d="M124.591 15.4171C124.877 15.6173 125.02 15.928 125.02 16.3496C125.02 16.8784 124.702 17.2894 124.065 17.5823C123.428 17.8751 122.691 18.068 121.854 18.161C121.854 18.8328 121.954 19.3364 122.155 19.6723C122.355 20.0082 122.662 20.1759 123.077 20.1759C123.407 20.1759 123.725 20.0669 124.033 19.8488C124.34 19.6311 124.609 19.3076 124.838 18.8791L125.192 19.0826C124.892 19.6471 124.555 20.06 124.183 20.3207C123.811 20.5815 123.382 20.7117 122.895 20.7117C122.236 20.7117 121.741 20.5064 121.408 20.0953C121.076 19.6847 120.909 19.1183 120.909 18.3966C120.909 17.8178 121.008 17.2803 121.204 16.7836C121.401 16.2872 121.697 15.8853 122.09 15.5779C122.483 15.2708 122.96 15.1169 123.518 15.1169C123.947 15.1169 124.304 15.2172 124.591 15.4171ZM122.304 16.1461C122.054 16.5892 121.908 17.1319 121.865 17.7752C122.487 17.6895 123.02 17.5177 123.464 17.2606C123.908 17.0035 124.129 16.6818 124.129 16.296C124.129 16.0604 124.063 15.8657 123.931 15.7118C123.798 15.5582 123.61 15.4816 123.367 15.4816C122.909 15.4816 122.555 15.703 122.304 16.1461Z" fill="#303030"/>
<path d="M129.362 15.2832C129.609 15.3941 129.803 15.544 129.942 15.7333C130.082 15.9229 130.151 16.1352 130.151 16.3711C130.151 16.5356 130.108 16.664 130.023 16.757C129.937 16.85 129.822 16.8963 129.679 16.8963C129.536 16.8963 129.427 16.85 129.351 16.757C129.277 16.664 129.239 16.5677 129.239 16.4674C129.239 16.296 129.286 16.1603 129.378 16.0604C129.343 15.8675 129.248 15.7245 129.094 15.6315C128.94 15.5389 128.752 15.4922 128.53 15.4922C127.965 15.4922 127.555 15.7566 127.302 16.2854C127.047 16.8142 126.92 17.4251 126.92 18.118C126.92 18.8328 127.036 19.3561 127.269 19.6883C127.502 20.0206 127.822 20.1865 128.23 20.1865C128.545 20.1865 128.849 20.0811 129.142 19.8703C129.436 19.6599 129.679 19.3149 129.872 18.8361L130.248 19.0184C129.991 19.6114 129.672 20.0417 129.293 20.3098C128.913 20.5778 128.498 20.7117 128.047 20.7117C127.397 20.7117 126.888 20.5173 126.523 20.1278C126.158 19.7383 125.976 19.1508 125.976 18.3645C125.976 17.8645 126.071 17.3642 126.26 16.8642C126.45 16.3642 126.738 15.9477 127.124 15.6155C127.511 15.2832 127.983 15.1169 128.541 15.1169C128.842 15.1169 129.115 15.1724 129.362 15.2832Z" fill="#303030"/>
<path d="M132.685 13.0378C132.57 13.7238 132.502 14.1523 132.48 14.3241C132.43 14.6884 132.371 15.2154 132.303 15.9046C132.235 16.5943 132.187 17.1285 132.159 17.5071H132.191C132.527 16.5997 132.865 15.9743 133.205 15.6315C133.544 15.2887 133.912 15.1169 134.305 15.1169C134.706 15.1169 135.003 15.2475 135.196 15.5082C135.39 15.769 135.486 16.103 135.486 16.5104C135.486 16.9892 135.425 17.6752 135.304 18.5683C135.225 19.1325 135.185 19.5041 135.185 19.6828C135.185 19.84 135.205 19.9615 135.244 20.0472C135.284 20.1329 135.361 20.1759 135.475 20.1759C135.611 20.1759 135.751 20.092 135.894 19.9239C136.037 19.7561 136.159 19.4936 136.259 19.1362L136.527 19.2113C136.463 19.5541 136.315 19.89 136.082 20.2186C135.849 20.5475 135.543 20.7116 135.164 20.7116C134.842 20.7116 134.617 20.6278 134.488 20.46C134.359 20.2922 134.295 20.0329 134.295 19.6828C134.295 19.4115 134.341 18.9363 134.434 18.2573C134.448 18.1646 134.48 17.8984 134.531 17.459C134.58 17.0195 134.606 16.6245 134.606 16.2744C134.606 16.1103 134.566 15.9601 134.488 15.8244C134.409 15.6887 134.276 15.6209 134.091 15.6209C133.783 15.6209 133.468 15.8496 133.146 16.3065C132.824 16.7642 132.559 17.3375 132.352 18.0268C132.144 18.7164 132.04 19.3827 132.04 20.0257C132.04 20.1617 132.048 20.351 132.062 20.5938H131.181C131.174 20.5297 131.171 20.4367 131.171 20.3152C131.171 19.7864 131.232 18.7558 131.353 17.223C131.475 15.6906 131.593 14.5312 131.707 13.7453C131.722 13.6592 131.754 13.4703 131.804 13.1771L131.053 13.2202L131.096 12.7913C131.525 12.7913 131.833 12.7665 132.019 12.7161C132.205 12.6662 132.352 12.5947 132.459 12.5017H132.77L132.685 13.0378Z" fill="#303030"/>
<path d="M141.803 15.5028C141.993 15.7603 142.088 16.0961 142.088 16.5104C142.088 16.9893 142.019 17.6753 141.883 18.5684C141.805 19.1326 141.766 19.5042 141.766 19.6829C141.766 19.8401 141.785 19.9615 141.825 20.0472C141.863 20.1329 141.941 20.1759 142.056 20.1759C142.191 20.1759 142.331 20.0921 142.474 19.9239C142.617 19.7562 142.739 19.4936 142.839 19.1362L143.14 19.2113C143.104 19.4115 143.026 19.6274 142.909 19.8598C142.79 20.0921 142.633 20.2923 142.436 20.46C142.24 20.6278 142.009 20.7117 141.744 20.7117C141.422 20.7117 141.196 20.6278 141.068 20.46C140.939 20.2923 140.874 20.033 140.874 19.6829C140.874 19.4185 140.921 18.9469 141.014 18.2682C141.143 17.3963 141.207 16.7318 141.207 16.2745C141.207 16.1104 141.169 15.9601 141.094 15.8244C141.02 15.6888 140.889 15.6209 140.703 15.6209C140.388 15.6209 140.066 15.8584 139.737 16.3336C139.407 16.8087 139.134 17.3944 138.915 18.0914C138.697 18.7879 138.588 19.4327 138.588 20.0257C138.588 20.1617 138.595 20.351 138.61 20.5939H137.708C137.7 20.5297 137.697 20.4367 137.697 20.3153C137.697 20.1438 137.713 19.9042 137.746 19.5972C137.778 19.2901 137.826 18.8864 137.89 18.386C137.89 18.343 137.898 18.2719 137.912 18.1716C137.919 18.079 137.93 17.9823 137.944 17.8824C137.958 17.7821 137.969 17.6822 137.976 17.5823C138.026 17.1464 138.062 16.8284 138.084 16.6282C138.105 16.4284 138.116 16.2639 138.116 16.1352C138.116 15.9853 138.096 15.8675 138.057 15.7814C138.017 15.6957 137.941 15.653 137.826 15.653C137.69 15.653 137.551 15.7387 137.407 15.9101C137.264 16.0816 137.142 16.3427 137.042 16.6924L136.742 16.6282C136.778 16.4284 136.854 16.2103 136.973 15.9743C137.09 15.7387 137.248 15.5371 137.445 15.3689C137.642 15.2012 137.873 15.1169 138.137 15.1169C138.674 15.1169 138.942 15.4853 138.942 16.2209C138.942 16.4284 138.922 16.6552 138.883 16.9017C138.844 17.1483 138.806 17.3678 138.77 17.5607H138.803C139.146 16.6461 139.488 16.0104 139.828 15.653C140.168 15.2956 140.531 15.1169 140.917 15.1169C141.318 15.1169 141.614 15.2457 141.803 15.5028Z" fill="#303030"/>
<path d="M147.385 15.3956C147.696 15.5816 147.939 15.8511 148.115 16.2048C148.29 16.5586 148.378 16.9783 148.378 17.4641C148.378 18.0502 148.272 18.5895 148.061 19.0826C147.85 19.5757 147.546 19.9706 147.149 20.2671C146.751 20.5636 146.284 20.7117 145.747 20.7117C145.068 20.7117 144.555 20.4885 144.208 20.0417C143.86 19.5954 143.687 19.0184 143.687 18.3109C143.687 17.7252 143.794 17.1891 144.009 16.7034C144.224 16.2176 144.531 15.8317 144.932 15.5458C145.333 15.2599 145.802 15.1169 146.338 15.1169C146.725 15.1169 147.073 15.2099 147.385 15.3956ZM145.345 15.8511C145.113 16.0764 144.935 16.3835 144.814 16.773C144.692 17.1625 144.631 17.5965 144.631 18.0753C144.631 18.6683 144.728 19.188 144.921 19.6347C145.114 20.0811 145.429 20.3047 145.866 20.3047C146.231 20.3047 146.53 20.165 146.762 19.8864C146.994 19.6078 147.165 19.2649 147.272 18.8576C147.379 18.4502 147.433 18.0538 147.433 17.668C147.433 17.0677 147.338 16.5586 147.149 16.1406C146.959 15.7227 146.631 15.5137 146.166 15.5137C145.851 15.5137 145.578 15.6261 145.345 15.8511Z" fill="#303030"/>
<path d="M150.987 13.2628C150.9 13.7632 150.847 14.1169 150.826 14.3241C150.711 15.1599 150.602 16.13 150.498 17.2339C150.394 18.3379 150.342 19.1325 150.342 19.6187C150.342 19.7974 150.361 19.9348 150.396 20.0311C150.432 20.1278 150.51 20.1759 150.632 20.1759C150.768 20.1759 150.908 20.092 151.051 19.9239C151.194 19.7561 151.315 19.4936 151.416 19.1362L151.716 19.2113C151.681 19.4115 151.605 19.6274 151.491 19.8597C151.377 20.092 151.221 20.2922 151.024 20.46C150.827 20.6278 150.597 20.7116 150.332 20.7116C150.031 20.7116 149.813 20.6329 149.677 20.476C149.541 20.3189 149.473 20.0793 149.473 19.758C149.473 19.2864 149.536 18.4181 149.661 17.1533C149.786 15.8886 149.917 14.7562 150.053 13.7559L150.15 13.1771L149.387 13.2202L149.441 12.7913C149.863 12.7913 150.167 12.7665 150.353 12.7161C150.54 12.6662 150.689 12.5947 150.804 12.5017H151.105L150.987 13.2628Z" fill="#303030"/>
<path d="M155.961 15.3956C156.273 15.5816 156.516 15.8511 156.692 16.2048C156.866 16.5586 156.955 16.9783 156.955 17.4641C156.955 18.0502 156.849 18.5895 156.638 19.0826C156.427 19.5757 156.123 19.9706 155.725 20.2671C155.328 20.5636 154.861 20.7117 154.324 20.7117C153.645 20.7117 153.131 20.4885 152.784 20.0417C152.437 19.5954 152.264 19.0184 152.264 18.3109C152.264 17.7252 152.371 17.1891 152.586 16.7034C152.801 16.2176 153.108 15.8317 153.509 15.5458C153.909 15.2599 154.378 15.1169 154.915 15.1169C155.302 15.1169 155.65 15.2099 155.961 15.3956ZM153.922 15.8511C153.69 16.0764 153.512 16.3835 153.391 16.773C153.269 17.1625 153.208 17.5965 153.208 18.0753C153.208 18.6683 153.305 19.188 153.498 19.6347C153.691 20.0811 154.006 20.3047 154.443 20.3047C154.808 20.3047 155.107 20.165 155.339 19.8864C155.571 19.6078 155.742 19.2649 155.849 18.8576C155.956 18.4502 156.01 18.0538 156.01 17.668C156.01 17.0677 155.915 16.5586 155.725 16.1406C155.536 15.7227 155.208 15.5137 154.743 15.5137C154.428 15.5137 154.155 15.6261 153.922 15.8511Z" fill="#303030"/>
<path d="M161.726 15.1654C161.973 15.1975 162.179 15.242 162.343 15.2993C162.307 15.8853 162.214 17.0571 162.064 18.8145L161.924 20.444C161.839 21.4582 161.56 22.2211 161.087 22.7321C160.615 23.243 159.978 23.4983 159.176 23.4983C158.969 23.4983 158.744 23.4698 158.501 23.4126C158.257 23.3553 158.046 23.259 157.867 23.1234C157.688 22.9873 157.595 22.8123 157.588 22.5982C157.588 22.448 157.636 22.3196 157.733 22.2124C157.829 22.1052 157.949 22.0515 158.092 22.0515C158.228 22.0515 158.343 22.0942 158.436 22.1803C158.529 22.266 158.576 22.3874 158.576 22.5446C158.576 22.6372 158.554 22.7302 158.511 22.8232C158.576 22.9232 158.679 22.9983 158.823 23.0482C158.965 23.0982 159.108 23.1234 159.251 23.1234C159.76 23.1234 160.148 22.9498 160.417 22.6033C160.685 22.2569 160.865 21.8408 160.959 21.355C161.051 20.8689 161.13 20.2401 161.195 19.4684C161.238 18.9396 161.277 18.5538 161.313 18.3109H161.281C161.008 19.2471 160.708 19.8813 160.379 20.2135C160.05 20.5457 159.688 20.7117 159.295 20.7117C158.815 20.7117 158.454 20.5224 158.211 20.1438C157.967 19.7649 157.845 19.2613 157.845 18.6326C157.845 17.9965 157.96 17.4127 158.189 16.8802C158.418 16.3478 158.769 15.9207 159.241 15.5994C159.713 15.2778 160.293 15.1169 160.98 15.1169C161.23 15.1169 161.479 15.133 161.726 15.1654ZM159.612 15.9638C159.3 16.2712 159.078 16.6479 158.946 17.0947C158.813 17.541 158.747 17.9933 158.747 18.4502C158.747 18.9863 158.808 19.4134 158.93 19.731C159.051 20.049 159.248 20.208 159.52 20.208C159.835 20.208 160.14 19.9633 160.438 19.4739C160.734 18.9845 160.98 18.3806 161.173 17.6625C161.366 16.9444 161.481 16.2712 161.517 15.6421C161.33 15.5495 161.095 15.5028 160.808 15.5028C160.322 15.5028 159.923 15.6567 159.612 15.9638Z" fill="#303030"/>
<path d="M167.795 15.5137C167.931 15.7781 168 16.1031 168 16.4889C168 17.1392 167.871 17.8197 167.614 18.5308C167.356 19.2416 167.009 19.9903 166.572 20.7762C166.057 21.7193 165.567 22.4086 165.101 22.8448C164.636 23.2802 164.182 23.4983 163.738 23.4983C163.48 23.4983 163.271 23.4341 163.11 23.3054C162.949 23.177 162.869 23.0162 162.869 22.8232C162.869 22.673 162.915 22.5534 163.008 22.464C163.101 22.3747 163.201 22.3302 163.309 22.3302C163.459 22.3302 163.575 22.3783 163.658 22.475C163.74 22.5712 163.778 22.7087 163.77 22.8874C163.87 22.9374 163.949 22.9625 164.006 22.9625C164.278 22.9768 164.57 22.8054 164.881 22.448C165.193 22.0906 165.448 21.7408 165.649 21.3977C165.52 20.5188 165.341 19.6329 165.112 18.7398C164.883 17.8467 164.625 17.0535 164.339 16.3602C164.253 16.1745 164.178 16.0371 164.114 15.9477C164.049 15.8584 163.96 15.8139 163.846 15.8139C163.724 15.8139 163.626 15.8886 163.551 16.0389C163.475 16.1888 163.437 16.3926 163.437 16.6497C163.437 16.7712 163.441 16.8642 163.448 16.9284L163.105 16.9714C163.098 16.8999 163.094 16.7927 163.094 16.6497C163.094 16.2282 163.171 15.8675 163.325 15.5673C163.479 15.2672 163.731 15.1169 164.082 15.1169C164.404 15.1169 164.654 15.2296 164.833 15.4546C165.012 15.6797 165.166 15.9711 165.295 16.3281C165.437 16.7139 165.567 17.1304 165.681 17.5768C165.795 18.0235 165.931 18.5968 166.089 19.297C166.132 19.5042 166.185 19.8689 166.25 20.3904H166.272C166.615 19.7901 166.905 19.1595 167.141 18.4984C167.377 17.8375 167.495 17.2391 167.495 16.7034C167.495 16.5319 167.479 16.3784 167.447 16.2424C167.415 16.1067 167.377 16.0068 167.335 15.9422C167.269 15.9853 167.18 16.0068 167.066 16.0068C166.937 16.0068 166.833 15.9656 166.754 15.8835C166.676 15.8015 166.636 15.703 166.636 15.5885C166.636 15.4386 166.687 15.3226 166.787 15.2402C166.887 15.1582 167.005 15.1169 167.141 15.1169C167.441 15.1169 167.66 15.2493 167.795 15.5137Z" fill="#303030"/>
<path d="M119.475 27.6401H119.121C119.149 27.0544 119.042 26.654 118.799 26.4396C118.555 26.2255 118.205 26.1252 117.747 26.1394L116.823 26.1609C116.566 26.1682 116.378 26.2146 116.26 26.3003C116.142 26.386 116.065 26.5092 116.029 26.6701C115.994 26.8309 115.965 27.0865 115.943 27.4363L115.847 29.1514L116.62 29.162C116.956 29.1693 117.213 29.1514 117.392 29.1084C117.571 29.0657 117.707 28.9727 117.8 28.8298C117.893 28.6868 117.947 28.4618 117.961 28.1547H118.316L118.197 30.4909H117.843C117.85 30.2196 117.827 30.0161 117.774 29.8801C117.72 29.7444 117.628 29.6532 117.5 29.6069C117.371 29.5606 117.189 29.5373 116.952 29.5373L116.609 29.5478L115.826 29.5799L115.696 32.0343C115.675 32.4347 115.649 32.7134 115.621 32.8705L117.671 32.8381C118.173 32.8312 118.563 32.7042 118.842 32.4577C119.121 32.2112 119.274 31.7845 119.303 31.1769H119.668L119.496 33.267H114L114.022 32.9132C114.272 32.9063 114.453 32.849 114.564 32.7418C114.675 32.6346 114.743 32.5058 114.768 32.356C114.793 32.2061 114.812 31.9522 114.827 31.5948L115.085 26.9647C115.091 26.7222 115.117 26.4647 115.159 26.193L114.376 26.2361L114.397 25.7645H119.517L119.475 27.6401Z" fill="#303030"/>
<path d="M125.583 27.9348C125.683 28.0315 125.733 28.1584 125.733 28.3152C125.733 28.437 125.69 28.5442 125.604 28.6369C125.519 28.7298 125.415 28.7762 125.293 28.7762C125.157 28.7762 125.058 28.7477 124.998 28.6905C124.937 28.6332 124.871 28.5548 124.799 28.4545C124.405 28.5118 123.955 29.1693 123.447 30.4268L123.522 30.6197C123.815 31.3771 124.058 31.9183 124.252 32.2433C124.445 32.5686 124.627 32.7312 124.799 32.7312C125.057 32.7312 125.24 32.449 125.347 31.8844L125.647 31.9271C125.519 32.899 125.161 33.3848 124.574 33.3848C124.33 33.3848 124.134 33.3293 123.983 33.2188C123.833 33.108 123.681 32.9008 123.527 32.597C123.373 32.2936 123.161 31.7951 122.889 31.1018H122.878C122.656 31.7593 122.437 32.2542 122.223 32.5865C122.009 32.9187 121.81 33.135 121.627 33.2349C121.445 33.3348 121.246 33.3848 121.031 33.3848C120.831 33.3848 120.67 33.3348 120.548 33.2349C120.427 33.135 120.366 33.0026 120.366 32.8381C120.366 32.6955 120.409 32.5773 120.495 32.4847C120.58 32.3917 120.684 32.3454 120.806 32.3454C121.057 32.3454 121.193 32.4916 121.214 32.7849C121.651 32.8775 122.137 32.1383 122.674 30.5661C122.531 30.1802 122.437 29.9231 122.395 29.7944C122.194 29.2514 122.046 28.8907 121.949 28.712C121.853 28.5333 121.732 28.4439 121.59 28.4439C121.26 28.4439 121.078 28.794 121.042 29.4942L120.731 29.5052C120.731 29.0905 120.815 28.701 120.983 28.3367C121.151 27.9724 121.446 27.79 121.869 27.79C122.084 27.79 122.257 27.8473 122.389 27.9618C122.521 28.076 122.631 28.2313 122.716 28.4279C122.803 28.6245 122.917 28.9301 123.06 29.3444C123.103 29.4942 123.168 29.6802 123.253 29.9016H123.264C123.593 29.08 123.921 28.5227 124.246 28.2295C124.572 27.9366 124.874 27.79 125.153 27.79C125.34 27.79 125.483 27.8385 125.583 27.9348Z" fill="#303030"/>
<path d="M131.219 28.3797C131.466 28.7725 131.59 29.2692 131.59 29.8695C131.59 30.5697 131.469 31.1842 131.225 31.713C130.981 32.2418 130.622 32.6525 130.146 32.9453C129.67 33.2385 129.096 33.3848 128.423 33.3848C128.251 33.3848 128.083 33.3742 127.919 33.3527L127.833 34.7031C127.826 34.7531 127.823 34.8319 127.823 34.9391C127.808 35.2177 127.783 35.4354 127.747 35.5926L128.423 35.5605V36H126.395V35.6783C126.566 35.6783 126.695 35.6251 126.781 35.5179C126.867 35.4106 126.926 35.2728 126.958 35.105C126.991 34.9373 127.017 34.6995 127.039 34.3924C127.039 34.2994 127.042 34.2279 127.05 34.178C127.114 33.4205 127.21 32.3381 127.339 30.9304C127.454 29.7514 127.511 29.0727 127.511 28.894C127.511 28.7083 127.493 28.5672 127.457 28.4709C127.422 28.3743 127.343 28.3261 127.221 28.3261C127.085 28.3261 126.948 28.4118 126.808 28.5832C126.668 28.7546 126.549 29.0158 126.449 29.3655L126.137 29.3013C126.172 29.1015 126.25 28.8834 126.367 28.6474C126.486 28.4118 126.643 28.2102 126.84 28.042C127.037 27.8743 127.267 27.79 127.533 27.79C128.076 27.79 128.349 28.1653 128.349 28.9155C128.349 29.2302 128.298 29.6372 128.198 30.1372H128.23C128.502 29.2371 128.796 28.6208 129.111 28.2886C129.425 27.9563 129.769 27.79 130.141 27.79C130.613 27.79 130.973 27.9866 131.219 28.3797ZM129.164 28.8137C128.913 29.1602 128.692 29.6106 128.498 30.1642C128.306 30.7181 128.162 31.2878 128.069 31.8735C128.026 32.124 127.987 32.4632 127.951 32.8917C128.209 32.9778 128.427 33.0204 128.606 33.0204C129.078 33.0204 129.47 32.8724 129.781 32.5755C130.092 32.2794 130.318 31.9041 130.458 31.4504C130.597 30.9968 130.667 30.534 130.667 30.0624C130.667 29.5121 130.61 29.08 130.495 28.7656C130.381 28.4512 130.187 28.294 129.916 28.294C129.665 28.294 129.414 28.4673 129.164 28.8137Z" fill="#303030"/>
<path d="M136.174 28.0902C136.46 28.2904 136.603 28.6011 136.603 29.0227C136.603 29.5515 136.285 29.9625 135.648 30.2554C135.011 30.5482 134.274 30.7411 133.436 30.8341C133.436 31.5059 133.537 32.0095 133.737 32.3454C133.938 32.6813 134.245 32.849 134.66 32.849C134.99 32.849 135.308 32.74 135.616 32.5219C135.923 32.3042 136.192 31.9807 136.421 31.5522L136.775 31.7557C136.475 32.3202 136.138 32.7331 135.766 32.9938C135.393 33.2546 134.965 33.3848 134.478 33.3848C133.819 33.3848 133.324 33.1795 132.991 32.7684C132.658 32.3578 132.492 31.7914 132.492 31.0697C132.492 30.4909 132.591 29.9534 132.787 29.4567C132.984 28.9603 133.279 28.5584 133.672 28.251C134.066 27.9439 134.542 27.79 135.101 27.79C135.53 27.79 135.887 27.8903 136.174 28.0902ZM133.887 28.8192C133.637 29.2623 133.491 29.805 133.447 30.4483C134.07 30.3626 134.603 30.1908 135.046 29.9337C135.491 29.6766 135.712 29.3549 135.712 28.9691C135.712 28.7335 135.646 28.5388 135.514 28.3849C135.381 28.2313 135.193 28.1547 134.95 28.1547C134.492 28.1547 134.138 28.3761 133.887 28.8192Z" fill="#303030"/>
<path d="M141.89 27.9563C142.029 28.0672 142.099 28.2189 142.099 28.4118C142.099 28.5475 142.053 28.6675 141.959 28.7707C141.867 28.8746 141.748 28.9264 141.605 28.9264C141.476 28.9264 141.365 28.887 141.273 28.8083C141.179 28.7298 141.126 28.619 141.111 28.476C141.083 28.4691 141.043 28.4654 140.994 28.4654C140.693 28.4654 140.4 28.7047 140.113 29.1835C139.827 29.6624 139.594 30.2444 139.416 30.9304C139.237 31.6164 139.147 32.2418 139.147 32.806C139.147 32.8706 139.154 33.0241 139.169 33.267H138.278C138.27 33.2028 138.267 33.1098 138.267 32.9883C138.267 32.5525 138.324 31.8202 138.439 30.7911L138.579 29.5479C138.621 29.1766 138.643 28.9301 138.643 28.8083C138.643 28.6584 138.623 28.5406 138.584 28.4545C138.544 28.3688 138.467 28.3261 138.353 28.3261C138.217 28.3261 138.077 28.4118 137.934 28.5832C137.791 28.7546 137.669 29.0158 137.569 29.3655L137.269 29.3013C137.305 29.1015 137.381 28.8834 137.5 28.6474C137.617 28.4118 137.775 28.2102 137.971 28.042C138.169 27.8743 138.4 27.79 138.664 27.79C138.943 27.79 139.143 27.8798 139.265 28.0581C139.386 28.2368 139.448 28.4939 139.448 28.8298C139.448 29.1584 139.394 29.5909 139.286 30.1266H139.319C139.612 29.2623 139.927 28.6565 140.264 28.3101C140.6 27.9636 140.961 27.79 141.348 27.79C141.569 27.79 141.75 27.8455 141.89 27.9563Z" fill="#303030"/>
<path d="M144.283 28.0903C144.436 28.2905 144.514 28.5618 144.514 28.905C144.514 29.1836 144.452 29.6731 144.331 30.3733C144.26 30.8233 144.204 31.2004 144.165 31.5042C144.125 31.808 144.105 32.1059 144.105 32.3991C144.105 32.6989 144.216 32.8492 144.439 32.8492C144.574 32.8492 144.714 32.7635 144.857 32.592C145 32.4203 145.122 32.1595 145.222 31.8094L145.523 31.8736C145.436 32.2594 145.283 32.6081 145.061 32.9188C144.839 33.2295 144.55 33.3849 144.192 33.3849C143.547 33.3849 143.225 33.0494 143.225 32.3776C143.225 32.099 143.243 31.8273 143.279 31.5629C143.315 31.2989 143.368 30.9699 143.44 30.5768C143.512 30.1413 143.563 29.8036 143.596 29.564C143.628 29.3248 143.644 29.0728 143.644 28.8084C143.644 28.6869 143.621 28.5764 143.574 28.4761C143.528 28.3762 143.451 28.3263 143.344 28.3263C143.208 28.3263 143.068 28.412 142.925 28.5834C142.782 28.7548 142.66 29.0159 142.56 29.3656L142.259 29.3014C142.324 28.9513 142.471 28.6122 142.699 28.2832C142.929 27.9546 143.233 27.7902 143.612 27.7902C143.905 27.7902 144.129 27.8904 144.283 28.0903ZM144.631 25.6469C144.739 25.761 144.793 25.9076 144.793 26.0863C144.793 26.2647 144.735 26.4094 144.621 26.5203C144.506 26.6312 144.371 26.6862 144.213 26.6862C144.056 26.6862 143.921 26.6312 143.81 26.5203C143.699 26.4094 143.644 26.2647 143.644 26.0863C143.644 25.9076 143.701 25.761 143.816 25.6469C143.93 25.5324 144.066 25.4751 144.224 25.4751C144.388 25.4751 144.524 25.5324 144.631 25.6469Z" fill="#303030"/>
<path d="M149.602 28.0902C149.888 28.2904 150.031 28.6011 150.031 29.0227C150.031 29.5515 149.713 29.9625 149.076 30.2554C148.439 30.5482 147.702 30.7411 146.865 30.8341C146.865 31.5059 146.965 32.0095 147.165 32.3454C147.366 32.6813 147.673 32.849 148.088 32.849C148.418 32.849 148.736 32.74 149.044 32.5219C149.351 32.3042 149.62 31.9807 149.849 31.5522L150.203 31.7557C149.903 32.3202 149.566 32.7331 149.194 32.9938C148.822 33.2546 148.393 33.3848 147.906 33.3848C147.247 33.3848 146.752 33.1795 146.419 32.7684C146.087 32.3578 145.92 31.7914 145.92 31.0697C145.92 30.4909 146.019 29.9534 146.215 29.4567C146.412 28.9603 146.707 28.5584 147.1 28.251C147.494 27.9439 147.97 27.79 148.529 27.79C148.958 27.79 149.315 27.8903 149.602 28.0902ZM147.315 28.8192C147.065 29.2623 146.919 29.805 146.875 30.4483C147.498 30.3626 148.031 30.1908 148.475 29.9337C148.919 29.6766 149.14 29.3549 149.14 28.9691C149.14 28.7335 149.074 28.5388 148.942 28.3849C148.809 28.2313 148.621 28.1547 148.378 28.1547C147.92 28.1547 147.566 28.3761 147.315 28.8192Z" fill="#303030"/>
<path d="M155.704 28.1759C155.894 28.4334 155.989 28.7692 155.989 29.1835C155.989 29.6624 155.92 30.3483 155.784 31.2415C155.706 31.8057 155.666 32.1773 155.666 32.356C155.666 32.5132 155.686 32.6346 155.726 32.7203C155.764 32.806 155.842 32.849 155.956 32.849C156.092 32.849 156.232 32.7652 156.375 32.597C156.518 32.4293 156.639 32.1667 156.739 31.8093L157.04 31.8844C157.005 32.0846 156.927 32.3005 156.81 32.5329C156.691 32.7652 156.534 32.9654 156.337 33.1331C156.14 33.3009 155.91 33.3848 155.644 33.3848C155.323 33.3848 155.097 33.3009 154.969 33.1331C154.839 32.9654 154.775 32.7061 154.775 32.356C154.775 32.0916 154.822 31.62 154.915 30.9413C155.044 30.0694 155.108 29.4049 155.108 28.9476C155.108 28.7835 155.07 28.6332 154.995 28.4975C154.921 28.3619 154.79 28.294 154.603 28.294C154.289 28.294 153.966 28.5315 153.638 29.0066C153.308 29.4818 153.034 30.0675 152.816 30.7645C152.598 31.461 152.489 32.1058 152.489 32.6988C152.489 32.8348 152.496 33.0241 152.511 33.267H151.608C151.601 33.2028 151.598 33.1098 151.598 32.9884C151.598 32.8169 151.614 32.5773 151.646 32.2703C151.679 31.9632 151.727 31.5595 151.791 31.0591C151.791 31.0161 151.798 30.945 151.813 30.8447C151.82 30.7521 151.831 30.6554 151.845 30.5555C151.859 30.4552 151.87 30.3553 151.877 30.2554C151.927 29.8195 151.963 29.5015 151.985 29.3013C152.006 29.1015 152.017 28.937 152.017 28.8083C152.017 28.6584 151.997 28.5406 151.958 28.4545C151.918 28.3688 151.841 28.3261 151.727 28.3261C151.591 28.3261 151.451 28.4118 151.308 28.5832C151.165 28.7546 151.043 29.0158 150.943 29.3655L150.643 29.3013C150.679 29.1015 150.755 28.8834 150.874 28.6474C150.991 28.4118 151.149 28.2102 151.345 28.042C151.543 27.8743 151.774 27.79 152.038 27.79C152.575 27.79 152.843 28.1584 152.843 28.894C152.843 29.1015 152.823 29.3283 152.784 29.5748C152.744 29.8214 152.707 30.0409 152.671 30.2338H152.703C153.047 29.3192 153.389 28.6835 153.729 28.3261C154.069 27.9687 154.432 27.79 154.818 27.79C155.219 27.79 155.514 27.9188 155.704 28.1759Z" fill="#303030"/>
<path d="M160.921 27.9563C161.168 28.0672 161.361 28.2171 161.501 28.4064C161.64 28.596 161.71 28.8083 161.71 29.0442C161.71 29.2087 161.667 29.3371 161.581 29.4301C161.495 29.5231 161.38 29.5694 161.238 29.5694C161.095 29.5694 160.985 29.5231 160.91 29.4301C160.835 29.3371 160.797 29.2408 160.797 29.1405C160.797 28.9691 160.844 28.8334 160.937 28.7335C160.901 28.5406 160.806 28.3976 160.653 28.3046C160.499 28.212 160.311 28.1653 160.089 28.1653C159.523 28.1653 159.114 28.4297 158.86 28.9585C158.606 29.4873 158.479 30.0982 158.479 30.7911C158.479 31.5059 158.595 32.0292 158.828 32.3614C159.06 32.6937 159.381 32.8596 159.789 32.8596C160.103 32.8596 160.407 32.7542 160.701 32.5434C160.995 32.333 161.238 31.988 161.431 31.5092L161.806 31.6915C161.549 32.2845 161.231 32.7148 160.851 32.9829C160.472 33.2509 160.057 33.3848 159.606 33.3848C158.955 33.3848 158.447 33.1904 158.081 32.8009C157.717 32.4114 157.534 31.8239 157.534 31.0376C157.534 30.5376 157.629 30.0373 157.818 29.5373C158.008 29.0373 158.296 28.6208 158.683 28.2886C159.069 27.9563 159.542 27.79 160.1 27.79C160.4 27.79 160.674 27.8455 160.921 27.9563Z" fill="#303030"/>
<path d="M166.293 28.0902C166.579 28.2904 166.722 28.6011 166.722 29.0227C166.722 29.5515 166.404 29.9625 165.767 30.2554C165.13 30.5482 164.393 30.7411 163.556 30.8341C163.556 31.5059 163.656 32.0095 163.857 32.3454C164.057 32.6813 164.364 32.849 164.779 32.849C165.109 32.849 165.427 32.74 165.735 32.5219C166.042 32.3042 166.311 31.9807 166.54 31.5522L166.894 31.7557C166.594 32.3202 166.257 32.7331 165.885 32.9938C165.513 33.2546 165.084 33.3848 164.597 33.3848C163.939 33.3848 163.443 33.1795 163.11 32.7684C162.778 32.3578 162.611 31.7914 162.611 31.0697C162.611 30.4909 162.71 29.9534 162.906 29.4567C163.103 28.9603 163.399 28.5584 163.792 28.251C164.185 27.9439 164.662 27.79 165.22 27.79C165.649 27.79 166.007 27.8903 166.293 28.0902ZM164.006 28.8192C163.756 29.2623 163.61 29.805 163.567 30.4483C164.189 30.3626 164.722 30.1908 165.166 29.9337C165.61 29.6766 165.831 29.3549 165.831 28.9691C165.831 28.7335 165.766 28.5388 165.633 28.3849C165.5 28.2313 165.313 28.1547 165.069 28.1547C164.611 28.1547 164.257 28.3761 164.006 28.8192Z" fill="#303030"/>
<path d="M13.9134 6.12443C14.811 6.1991 15.7087 6.4232 16.5315 6.79665V2.09122C15.1102 1.86716 13.6142 1.79249 12.1929 1.71777C6.95669 1.71777 3.81494 4.48127 3.81494 8.51448V11.502H0V11.7261V12.2058V15.7593H3.81494V28.8298H0V33.1618H13.8386V28.8298H10.0236V15.7593H14.9606V15.5352V15.0555V11.502H10.0236C9.94881 11.2033 9.94881 10.9045 9.94881 10.6058C9.94881 7.61821 11.2205 6.12443 13.9134 6.12443Z" fill="#303030"/>
<path d="M31.1181 6.12443C32.0157 6.1991 32.9134 6.4232 33.7362 6.79665V2.09122C32.315 1.86716 30.8189 1.79249 29.3976 1.71777C24.2362 1.71777 21.0945 4.48127 21.0945 8.51448V11.502H17.3543V11.7261V12.2058V15.7593H21.0945L21.1693 28.8298H17.3543V33.1618H31.1181V28.8298H27.3032V15.7593H32.1654V15.5352V15.0555V11.502H27.2284C27.1535 11.2033 27.1535 10.9045 27.1535 10.6058C27.1535 7.61821 28.5 6.12443 31.1181 6.12443Z" fill="#303030"/>
<path d="M62.9095 28.4564L58.7389 11.5021H50.2497L46.1536 28.4564L42.6023 15.7503H45.63V15.6847V15.61V13.4604V13.1333V11.5021H34.5591V13.1333V13.4604V15.61V15.6847V15.7503H36.4722L41.815 33.1618H49.7441L54.1575 15.61L58.7205 33.1618H62.9843L62.9095 28.4564Z" fill="#303030"/>
</g>
<defs>
<clipPath id="clip0_1_48">
<rect width="168" height="36" fill="white"/>
</clipPath>
</defs>
</svg>
