<svg width="219" height="69" viewBox="0 0 219 69" fill="none" xmlns="http://www.w3.org/2000/svg">
<g clip-path="url(#clip0_1_636)">
<path d="M93.0603 34.2305H81.3059V33.5836H93.0603V34.2305Z" fill="#303030"/>
<path d="M115.215 35.4164C115.215 36.8718 114.944 38.1656 114.402 39.2976C113.861 40.4297 113.102 41.2922 112.127 41.939C111.152 42.5859 110.015 42.8554 108.769 42.8554C106.819 42.8554 105.302 42.1547 104.111 40.807C102.919 39.4593 102.323 37.6265 102.323 35.3086V32.8828C102.323 31.4273 102.594 30.1336 103.136 29.0015C103.677 27.8695 104.436 27.007 105.411 26.3601C106.386 25.7672 107.523 25.4437 108.769 25.4437C110.069 25.4437 111.152 25.7672 112.182 26.3601C113.157 26.9531 113.915 27.8695 114.457 29.0015C114.998 30.1336 115.269 31.4273 115.269 32.8828V35.4164H115.215ZM114.565 32.8289C114.565 30.7804 114.023 29.1094 112.994 27.8695C111.965 26.6297 110.556 25.9828 108.769 25.9828C107.036 25.9828 105.627 26.5758 104.544 27.8156C103.515 29.0554 102.973 30.7265 102.973 32.8289V35.3086C102.973 36.6562 103.19 37.8422 103.677 38.9203C104.165 39.9445 104.815 40.7531 105.681 41.3461C106.548 41.8851 107.577 42.2086 108.769 42.2086C110.556 42.2086 111.965 41.6156 112.994 40.3758C114.023 39.1359 114.565 37.4648 114.565 35.3086V32.8289Z" fill="#303030"/>
<path d="M126.915 42.6398V40.5914C126.536 41.2922 125.994 41.8312 125.29 42.2625C124.586 42.6937 123.665 42.8554 122.582 42.8554C121.173 42.8554 120.144 42.4781 119.44 41.6695C118.736 40.8609 118.411 39.675 118.356 38.1656V30.0258H119.006V38.1656C119.006 39.5133 119.331 40.5375 119.927 41.1844C120.523 41.8312 121.39 42.2086 122.527 42.2086C123.719 42.2086 124.748 41.939 125.507 41.3461C126.265 40.7531 126.752 39.9445 126.969 38.8664V30.0258H127.619V42.6398H126.915Z" fill="#303030"/>
<path d="M132.549 26.5758V29.9719H135.42V30.6188H132.549V39.6211C132.549 40.5375 132.711 41.1844 132.982 41.6156C133.253 42.0469 133.74 42.2625 134.445 42.2625C134.77 42.2625 135.203 42.2086 135.691 42.1547L135.799 42.7477C135.528 42.8555 135.095 42.9094 134.499 42.9094C133.578 42.9094 132.928 42.6399 132.495 42.1547C132.115 41.6696 131.899 40.861 131.899 39.7289V30.6188H129.57V29.9719H131.899V26.5758H132.549Z" fill="#303030"/>
<path d="M145.711 39.5672C145.711 38.0578 144.411 36.9797 141.757 36.4406C140.186 36.1172 139.103 35.686 138.453 35.1469C137.857 34.6078 137.532 33.9071 137.532 32.9907C137.532 32.0742 137.911 31.3196 138.724 30.7266C139.536 30.1336 140.511 29.8102 141.811 29.8102C143.165 29.8102 144.303 30.1336 145.115 30.7805C145.928 31.4274 146.361 32.2899 146.361 33.4219H145.711C145.711 32.5594 145.332 31.8586 144.628 31.3196C143.924 30.7266 142.949 30.4571 141.811 30.4571C140.674 30.4571 139.807 30.6727 139.157 31.1578C138.507 31.643 138.182 32.236 138.182 32.9907C138.182 33.5836 138.29 34.0149 138.561 34.3383C138.778 34.6617 139.211 34.9313 139.753 35.2008C140.295 35.4703 141.107 35.7399 142.136 35.9555C143.165 36.1711 144.032 36.4946 144.628 36.818C145.224 37.1414 145.657 37.5188 145.928 38.0039C146.199 38.4352 146.361 38.9742 146.361 39.6211C146.361 40.5914 145.928 41.4 145.115 42.0469C144.303 42.6399 143.22 42.9633 141.865 42.9633C140.457 42.9633 139.32 42.6399 138.399 41.993C137.532 41.3461 137.099 40.5375 137.099 39.5133H137.749C137.803 40.3758 138.182 41.0766 138.94 41.5617C139.699 42.0469 140.62 42.3164 141.865 42.3164C143.003 42.3164 143.924 42.0469 144.628 41.5078C145.332 40.9688 145.711 40.3219 145.711 39.5672Z" fill="#303030"/>
<path d="M148.311 36.0633C148.311 34.8773 148.528 33.7992 149.015 32.8289C149.503 31.8586 150.153 31.1039 150.966 30.5648C151.832 30.0258 152.753 29.7562 153.836 29.7562C154.92 29.7562 155.841 30.0258 156.707 30.5648C157.574 31.1039 158.224 31.8047 158.711 32.775C159.199 33.7453 159.416 34.8234 159.416 36.0094V36.5484C159.416 37.7883 159.199 38.8664 158.711 39.7828C158.224 40.6992 157.574 41.5078 156.761 42.0468C155.895 42.5859 154.974 42.8554 153.891 42.8554C152.807 42.8554 151.832 42.5859 151.02 42.0468C150.207 41.5078 149.503 40.7531 149.015 39.8367C148.528 38.8664 148.311 37.7883 148.311 36.6023V36.0633ZM148.907 36.5484C148.907 37.6265 149.124 38.5429 149.557 39.4593C149.99 40.3758 150.532 41.0226 151.291 41.5078C152.049 41.9929 152.916 42.2625 153.836 42.2625C155.299 42.2625 156.436 41.7234 157.357 40.6453C158.278 39.5672 158.711 38.1656 158.711 36.4406V36.0633C158.711 35.039 158.495 34.0687 158.061 33.2062C157.628 32.3437 157.032 31.6429 156.328 31.1578C155.57 30.6726 154.757 30.4031 153.782 30.4031C152.32 30.4031 151.128 30.9422 150.261 32.0742C149.34 33.1523 148.907 34.5539 148.907 36.225V36.5484Z" fill="#303030"/>
<path d="M170.466 42.6398V40.5914C170.087 41.2922 169.545 41.8312 168.841 42.2625C168.137 42.6937 167.216 42.8554 166.133 42.8554C164.724 42.8554 163.695 42.4781 162.991 41.6695C162.287 40.8609 161.962 39.675 161.907 38.1656V30.0258H162.557V38.1656C162.557 39.5133 162.882 40.5375 163.478 41.1844C164.074 41.8312 164.941 42.2086 166.078 42.2086C167.27 42.2086 168.299 41.939 169.058 41.3461C169.816 40.7531 170.303 39.9445 170.52 38.8664V30.0258H171.17V42.6398H170.466Z" fill="#303030"/>
<path d="M180.108 30.4571L179.296 30.4032C178.212 30.4032 177.291 30.7266 176.587 31.4274C175.883 32.1281 175.395 33.0985 175.179 34.3383V42.586H174.529V30.0258H175.179V32.6672C175.504 31.8047 176.045 31.1039 176.75 30.5649C177.454 30.0258 178.321 29.8102 179.35 29.8102C179.729 29.8102 180 29.8641 180.216 29.918L180.108 30.4571Z" fill="#303030"/>
<path d="M185.904 42.2625C187.042 42.2625 188.017 41.9391 188.775 41.3461C189.533 40.7531 189.912 39.8906 190.021 38.8125H190.671C190.617 40.0524 190.129 41.0227 189.262 41.7774C188.396 42.5321 187.258 42.9094 185.958 42.9094C184.387 42.9094 183.087 42.3164 182.166 41.1844C181.246 40.0524 180.758 38.4891 180.758 36.5485V36.1172C180.758 34.1766 181.246 32.6672 182.166 31.5352C183.087 30.4031 184.333 29.8102 185.904 29.8102C187.258 29.8102 188.342 30.1875 189.262 30.9961C190.129 31.8047 190.617 32.8828 190.671 34.1766H190.021C189.967 33.0446 189.587 32.1281 188.829 31.4274C188.071 30.7266 187.096 30.4032 185.958 30.4032C184.55 30.4032 183.412 30.8883 182.654 31.9125C181.841 32.9367 181.462 34.3383 181.462 36.1711V36.6024C181.462 38.3813 181.841 39.7828 182.654 40.7531C183.358 41.7235 184.441 42.2625 185.904 42.2625Z" fill="#303030"/>
<path d="M192.891 26.0367C192.891 25.875 192.946 25.7133 193.054 25.5516C193.162 25.4438 193.325 25.3359 193.487 25.3359C193.65 25.3359 193.812 25.3898 193.975 25.5516C194.137 25.7133 194.191 25.8211 194.191 26.0367C194.191 26.1984 194.137 26.3602 193.975 26.468C193.866 26.5758 193.704 26.6297 193.487 26.6297C193.325 26.6297 193.162 26.5758 193.054 26.468C192.946 26.4141 192.891 26.2523 192.891 26.0367ZM193.866 42.6398H193.216V30.0258H193.866V42.6398Z" fill="#303030"/>
<path d="M197.983 32.9367C198.416 31.9664 199.012 31.1578 199.825 30.6187C200.637 30.0258 201.504 29.7562 202.479 29.7562C203.833 29.7562 204.862 30.1336 205.512 30.8883C206.162 31.6429 206.487 32.8289 206.542 34.3383V42.5859H205.892V34.3922C205.892 33.0445 205.621 32.0203 205.079 31.3734C204.537 30.7265 203.671 30.4031 202.479 30.4031C201.396 30.4031 200.421 30.7804 199.608 31.589C198.796 32.3437 198.254 33.3679 197.983 34.6078V42.6937H197.333V30.0258H197.983V32.9367Z" fill="#303030"/>
<path d="M209.304 36.1711C209.304 34.1766 209.738 32.5594 210.604 31.4273C211.471 30.2953 212.608 29.7023 214.125 29.7023C215.046 29.7023 215.913 29.918 216.671 30.3492C217.429 30.7805 217.971 31.4273 218.459 32.2359V29.918H219.109V42.3164C219.109 43.9875 218.675 45.2812 217.809 46.1976C216.942 47.114 215.804 47.5992 214.288 47.5992C213.421 47.5992 212.663 47.4375 211.958 47.0601C211.254 46.6828 210.658 46.1437 210.171 45.4969L210.604 45.0656C211.092 45.7125 211.633 46.1437 212.229 46.4672C212.825 46.7906 213.529 46.9523 214.288 46.9523C215.588 46.9523 216.617 46.575 217.321 45.7664C218.025 44.9578 218.404 43.8797 218.459 42.4242V40.4836C218.025 41.1844 217.429 41.7773 216.671 42.1547C215.913 42.532 215.1 42.7476 214.125 42.7476C212.663 42.7476 211.471 42.1547 210.658 41.0226C209.846 39.8906 209.358 38.2734 209.358 36.225V36.1711H209.304ZM209.954 36.4406C209.954 38.2734 210.333 39.675 211.038 40.6992C211.742 41.7234 212.771 42.2625 214.071 42.2625C215.154 42.2625 216.075 41.993 216.779 41.5078C217.484 41.0226 218.079 40.3219 218.35 39.4055V33.6914C217.646 31.4812 216.238 30.4031 214.017 30.4031C212.717 30.4031 211.688 30.8883 210.983 31.9125C210.279 32.9367 209.954 34.4461 209.954 36.4406Z" fill="#303030"/>
<path d="M51.2427 33.3141C49.5093 33.3141 48.5343 34.5539 48.5343 36.9258C48.4802 39.136 49.6177 40.5375 51.2427 40.5375C52.8677 40.5375 54.0053 39.136 54.0053 36.9258C54.0053 34.7157 52.9219 33.3141 51.2427 33.3141Z" fill="#303030"/>
<path d="M34.6673 0C15.5461 0 0 15.4711 0 34.5C0 53.5289 15.5461 69 34.6673 69C53.7885 69 69.3347 53.5289 69.3347 34.5C69.3347 15.4711 53.7885 0 34.6673 0ZM19.1754 28.732C18.742 28.5164 18.2545 28.4086 17.767 28.3547C16.3586 28.3547 15.6545 29.1633 15.6545 30.7266C15.6545 30.8883 15.6545 31.05 15.7086 31.2117H18.3087V33.0984V33.368V33.4758H15.7086V40.3758H17.7128V42.6398H10.4544V40.3758H12.4586V33.4758H10.4544V31.5891V31.3195V31.2117H12.4586V29.6484C12.4586 27.4922 14.1378 26.0367 16.9003 26.0367C17.6587 26.0906 18.4712 26.0906 19.1754 26.2523V28.732ZM28.2755 28.732C27.8422 28.5164 27.3547 28.4086 26.8672 28.3547C25.4588 28.3547 24.7546 29.1633 24.7546 30.7266C24.7546 30.8883 24.7546 31.05 24.8088 31.2117H27.4089V33.0984V33.368V33.4758H24.9171V40.3758H26.9213V42.6398H19.6087V40.3758H21.6671L21.6129 33.4758H19.6087V31.5891V31.3195V31.2117H21.6129V29.6484C21.6129 27.4922 23.2921 26.0367 26.0005 26.0367C26.7588 26.0906 27.5714 26.0906 28.2755 26.2523V28.732ZM41.5466 42.6398L39.1091 33.368L36.7799 42.6398H32.5548L29.7381 33.4219H28.7089V33.368V32.2359V32.0742V31.2117H34.559V32.0742V32.2359V33.368V33.4219V33.4758H32.934L34.8298 40.1602L36.9965 31.2117H41.4925L43.7133 40.1602L43.7675 42.6398H41.5466ZM58.8803 42.6398H54.3302V40.3758C53.301 42.1547 52.001 42.9633 50.1051 42.9633C47.2342 42.9633 45.1759 40.6992 45.1759 36.9258C45.1759 33.1523 47.1259 30.9961 50.2676 30.9961C51.7843 30.9422 53.1927 31.643 54.0594 32.9367V28.8398H52.4343V26.5758H57.2553V40.3758H58.9345V42.6398H58.8803Z" fill="#303030"/>
</g>
<defs>
<clipPath id="clip0_1_636">
<rect width="219" height="69" fill="white"/>
</clipPath>
</defs>
</svg>
