<svg width="207" height="46" viewBox="0 0 207 46" fill="none" xmlns="http://www.w3.org/2000/svg">
<path fill-rule="evenodd" clip-rule="evenodd" d="M0.822266 1.03735H46.1861V45.8957H0.926711L0.822266 1.03735Z" fill="#303030"/>
<path d="M26.8637 30.9429C33.1127 30.9429 38.1785 25.883 38.1785 19.6414C38.1785 13.3997 33.1127 8.33984 26.8637 8.33984C20.6147 8.33984 15.5488 13.3997 15.5488 19.6414C15.5488 25.883 20.6147 30.9429 26.8637 30.9429Z" fill="#303030" stroke="white" stroke-width="0.5"/>
<path d="M46.186 1.03735H27.1074V19.9891H46.186V1.03735Z" fill="#303030"/>
<path fill-rule="evenodd" clip-rule="evenodd" d="M26.9338 19.7109H46.1516C46.1516 19.7109 45.4902 38.1063 27.0382 38.3497L27.0034 41.8619C27.0034 41.8619 6.35818 42.3835 4.44336 19.7805H8.44708C8.44708 19.7805 7.47226 2.21968 27.0731 1.07214V8.30511C27.0731 8.30511 19.0656 7.33144 16.2108 16.6508C13.356 25.9702 25.6805 37.1674 35.2894 27.083H26.9338V19.7109Z" fill="white" stroke="white" stroke-width="0.5"/>
<path d="M82.5687 43.844C82.9169 43.844 83.1258 43.6701 83.1258 43.4267C83.1258 43.1485 82.9169 43.0442 82.5339 42.8355C81.9769 42.5226 81.6635 42.2792 81.6635 41.7575C81.6635 41.0968 82.1858 40.6448 82.9865 40.6448C83.4739 40.6448 83.8917 40.8186 84.2398 41.2012L83.7524 41.7228C83.5087 41.4446 83.2302 41.3055 82.9169 41.3055C82.6732 41.3055 82.4643 41.4793 82.4643 41.688C82.4643 42.001 82.7776 42.0705 83.2302 42.3139C83.7176 42.5573 83.9613 42.8355 83.9613 43.3224C83.9613 44.0178 83.4391 44.4699 82.6035 44.4699C82.0465 44.4699 81.5939 44.2613 81.2109 43.8092L81.6635 43.2876C81.9072 43.6701 82.2554 43.844 82.5687 43.844Z" fill="#303030"/>
<path d="M88.5552 42.4182C88.5552 43.5658 87.7197 44.4699 86.5011 44.4699C85.4219 44.4699 84.7256 43.7744 84.7256 42.7312C84.7256 41.5141 85.5611 40.6448 86.7797 40.6448C87.8589 40.6448 88.5552 41.3403 88.5552 42.4182ZM85.5263 42.7312C85.5263 43.3571 85.9093 43.7397 86.4663 43.7397C87.1974 43.7397 87.6848 43.218 87.6848 42.3835C87.6848 41.7228 87.3367 41.3403 86.71 41.3403C86.0485 41.375 85.5263 41.9314 85.5263 42.7312Z" fill="#303030"/>
<path d="M89.8786 41.4793H89.252L89.3564 40.7838H89.9831L90.1223 39.9145C90.2616 38.9061 90.5053 38.4888 91.306 38.4888C91.5149 38.4888 91.7238 38.5235 91.9327 38.6279L91.8283 39.3233C91.6542 39.2538 91.5149 39.219 91.4105 39.219C91.0623 39.219 90.9579 39.4972 90.8882 40.0536L90.7838 40.8186H91.5149L91.4105 41.5141H90.6794L90.2964 44.3656H89.4957L89.8786 41.4793Z" fill="#303030"/>
<path d="M92.3845 41.4794H91.7578L91.8623 40.7839H92.4541L92.6282 39.4277H93.4289L93.2549 40.7839H93.8815L93.7771 41.4794H93.1504L92.7674 44.3309H91.9667L92.3845 41.4794Z" fill="#303030"/>
<path d="M94.9619 40.7839L95.5189 42.5922C95.5886 42.7661 95.6582 42.9747 95.6582 43.1486C95.7278 42.9747 95.7974 42.7661 95.9367 42.5574L97.1204 40.5405L97.7123 42.627C97.7819 42.8008 97.7819 42.9747 97.8167 43.1486C97.8863 42.9399 97.956 42.7661 98.0604 42.627L99.1397 40.7839H100.045L97.6426 44.5395L97.0508 42.5574C97.016 42.4183 96.9811 42.2444 96.9463 42.0706C96.8071 42.314 96.7374 42.4879 96.7026 42.5574L95.4841 44.5395L94.1611 40.7839H94.9619Z" fill="#303030"/>
<path d="M102.865 44.3308L102.935 43.9483C102.656 44.296 102.308 44.4699 101.821 44.4699C100.915 44.4699 100.358 43.8788 100.358 42.8008C100.358 41.5141 101.055 40.6796 102.03 40.6796C102.517 40.6796 102.9 40.8882 103.248 41.2707L103.318 40.7839H104.118L103.666 44.3308H102.865ZM102.064 43.7397C102.691 43.7397 103.109 43.2181 103.109 42.2792C103.109 41.688 102.761 41.2707 102.169 41.2707C101.577 41.2707 101.159 41.7923 101.159 42.6269C101.194 43.3572 101.507 43.7397 102.064 43.7397Z" fill="#303030"/>
<path d="M106.972 41.375C106.381 41.375 106.067 41.7923 105.963 42.6617L105.754 44.3308H104.953L105.406 40.7839H106.172L106.102 41.2359C106.381 40.8534 106.729 40.6448 107.112 40.6448C107.286 40.6448 107.46 40.6795 107.634 40.7839L107.39 41.4793C107.216 41.4098 107.112 41.375 106.972 41.375Z" fill="#303030"/>
<path d="M111.116 43.7049C110.699 44.2265 110.246 44.4699 109.619 44.4699C108.575 44.4699 107.844 43.7744 107.844 42.7312C107.844 41.5141 108.679 40.6448 109.828 40.6448C110.768 40.6448 111.395 41.2707 111.395 42.2792C111.395 42.3487 111.395 42.4878 111.36 42.6617H108.679C108.679 43.3224 109.027 43.7049 109.584 43.7049C109.967 43.7049 110.316 43.531 110.559 43.1833L111.116 43.7049ZM110.559 42.1401C110.559 41.6532 110.246 41.375 109.759 41.375C109.202 41.375 108.819 41.688 108.714 42.1401H110.559Z" fill="#303030"/>
<path d="M115.155 41.4793H114.528L114.633 40.7838H115.259L115.399 39.9145C115.538 38.9061 115.782 38.4888 116.582 38.4888C116.791 38.4888 117 38.5235 117.209 38.6279L117.105 39.3233C116.931 39.2538 116.791 39.219 116.687 39.219C116.339 39.219 116.234 39.4972 116.165 40.0536L116.06 40.8186H116.791L116.687 41.5141H115.956L115.573 44.3656H114.772L115.155 41.4793Z" fill="#303030"/>
<path d="M121.039 42.4182C121.039 43.5658 120.203 44.4699 118.985 44.4699C117.905 44.4699 117.209 43.7744 117.209 42.7312C117.209 41.5141 118.045 40.6448 119.263 40.6448C120.342 40.6448 121.039 41.3403 121.039 42.4182ZM118.01 42.7312C118.01 43.3571 118.393 43.7397 118.95 43.7397C119.681 43.7397 120.168 43.218 120.168 42.3835C120.168 41.7228 119.82 41.3403 119.193 41.3403C118.532 41.375 118.01 41.9314 118.01 42.7312Z" fill="#303030"/>
<path d="M123.823 41.375C123.231 41.375 122.918 41.7923 122.813 42.6617L122.604 44.3308H121.804L122.256 40.7839H123.022L122.953 41.2359C123.231 40.8534 123.579 40.6448 123.962 40.6448C124.136 40.6448 124.31 40.6795 124.484 40.7839L124.241 41.4793C124.102 41.4098 123.997 41.375 123.823 41.375Z" fill="#303030"/>
<path d="M127.235 44.3308L128.001 38.5236H128.802L128.036 44.3308H127.235Z" fill="#303030"/>
<path d="M133.154 42.4182C133.154 43.5658 132.318 44.4699 131.1 44.4699C130.021 44.4699 129.324 43.7744 129.324 42.7312C129.324 41.5141 130.16 40.6448 131.378 40.6448C132.458 40.6448 133.154 41.3403 133.154 42.4182ZM130.125 42.7312C130.125 43.3571 130.508 43.7397 131.065 43.7397C131.796 43.7397 132.283 43.218 132.283 42.3835C132.283 41.7228 131.935 41.3403 131.309 41.3403C130.647 41.375 130.125 41.9314 130.125 42.7312Z" fill="#303030"/>
<path d="M135.417 46C134.442 46 133.815 45.4784 133.711 44.6786L134.442 44.5742C134.512 45.0958 134.825 45.3045 135.417 45.3045C136.183 45.3045 136.426 44.922 136.496 43.8788C136.183 44.1917 135.835 44.3656 135.382 44.3656C134.477 44.3656 133.92 43.7744 133.92 42.7312C133.92 41.4794 134.616 40.6796 135.591 40.6796C136.044 40.6796 136.461 40.8534 136.844 41.2707L136.914 40.8187H137.715L137.262 44.3308C137.088 45.4436 136.496 46 135.417 46ZM135.661 43.6701C136.287 43.6701 136.705 43.1485 136.705 42.3139C136.705 41.688 136.322 41.2707 135.765 41.2707C135.173 41.2707 134.755 41.7923 134.755 42.6269C134.755 43.2876 135.104 43.6701 135.661 43.6701Z" fill="#303030"/>
<path d="M139.003 40.7839H139.804L139.352 44.3308H138.551L139.003 40.7839ZM139.56 39.08C139.839 39.08 140.048 39.2886 140.048 39.5668C140.048 39.845 139.839 40.0536 139.56 40.0536C139.282 40.0536 139.073 39.845 139.073 39.5668C139.073 39.2886 139.282 39.08 139.56 39.08Z" fill="#303030"/>
<path d="M141.753 43.844C142.101 43.844 142.31 43.6701 142.31 43.4267C142.31 43.1485 142.101 43.0442 141.718 42.8355C141.161 42.5226 140.848 42.2792 140.848 41.7575C140.848 41.0968 141.37 40.6448 142.171 40.6448C142.658 40.6448 143.076 40.8186 143.424 41.2012L142.937 41.7228C142.693 41.4446 142.415 41.3055 142.101 41.3055C141.858 41.3055 141.649 41.4793 141.649 41.688C141.649 42.001 141.962 42.0705 142.415 42.3139C142.902 42.5573 143.146 42.8355 143.146 43.3224C143.146 44.0178 142.624 44.4699 141.788 44.4699C141.231 44.4699 140.778 44.2613 140.396 43.8092L140.848 43.2876C141.092 43.6701 141.44 43.844 141.753 43.844Z" fill="#303030"/>
<path d="M144.399 41.4794H143.772L143.877 40.7839H144.469L144.643 39.4277H145.444L145.27 40.7839H145.896L145.792 41.4794H145.165L144.782 44.3309H143.981L144.399 41.4794Z" fill="#303030"/>
<path d="M146.871 40.7839H147.671L147.219 44.3308H146.418L146.871 40.7839ZM147.428 39.08C147.706 39.08 147.915 39.2886 147.915 39.5668C147.915 39.845 147.706 40.0536 147.428 40.0536C147.149 40.0536 146.94 39.845 146.94 39.5668C146.94 39.2886 147.149 39.08 147.428 39.08Z" fill="#303030"/>
<path d="M150.562 41.375C149.865 41.375 149.343 41.9314 149.343 42.7312C149.343 43.3571 149.726 43.7397 150.283 43.7397C150.631 43.7397 151.014 43.6006 151.397 43.3571L151.223 44.2265C150.945 44.3656 150.596 44.4699 150.248 44.4699C149.169 44.4699 148.473 43.7744 148.473 42.7312C148.473 41.5141 149.343 40.6448 150.527 40.6448C150.979 40.6448 151.362 40.7491 151.745 41.0273L151.571 41.7923C151.258 41.5141 150.91 41.375 150.562 41.375Z" fill="#303030"/>
<path d="M155.854 43.844C156.202 43.844 156.411 43.6701 156.411 43.4267C156.411 43.1485 156.202 43.0442 155.819 42.8355C155.262 42.5226 154.949 42.2792 154.949 41.7575C154.949 41.0968 155.471 40.6448 156.272 40.6448C156.759 40.6448 157.177 40.8186 157.525 41.2012L157.038 41.7228C156.794 41.4446 156.515 41.3055 156.202 41.3055C155.958 41.3055 155.749 41.4793 155.749 41.688C155.749 42.001 156.063 42.0705 156.515 42.3139C157.003 42.5573 157.246 42.8355 157.246 43.3224C157.246 44.0178 156.724 44.4699 155.889 44.4699C155.332 44.4699 154.879 44.2613 154.496 43.8092L154.949 43.2876C155.192 43.6701 155.506 43.844 155.854 43.844Z" fill="#303030"/>
<path d="M161.284 43.7049C160.867 44.2265 160.414 44.4699 159.787 44.4699C158.743 44.4699 158.012 43.7744 158.012 42.7312C158.012 41.5141 158.847 40.6448 159.996 40.6448C160.936 40.6448 161.563 41.2707 161.563 42.2792C161.563 42.3487 161.563 42.4878 161.528 42.6617H158.812C158.812 43.3224 159.161 43.7049 159.718 43.7049C160.101 43.7049 160.449 43.531 160.692 43.1833L161.284 43.7049ZM160.727 42.1401C160.727 41.6532 160.414 41.375 159.927 41.375C159.369 41.375 158.987 41.688 158.882 42.1401H160.727Z" fill="#303030"/>
<path d="M164.383 41.375C163.791 41.375 163.477 41.7923 163.373 42.6617L163.164 44.3308H162.363L162.816 40.7839H163.582L163.512 41.2359C163.791 40.8534 164.139 40.6448 164.522 40.6448C164.696 40.6448 164.87 40.6795 165.044 40.7839L164.8 41.4793C164.661 41.4098 164.522 41.375 164.383 41.375Z" fill="#303030"/>
<path d="M165.044 40.7839H165.88L166.437 42.4879C166.506 42.6617 166.541 42.8704 166.576 43.1138C166.645 42.9051 166.715 42.6965 166.854 42.5226L167.864 40.7839H168.769L166.402 44.5395L165.044 40.7839Z" fill="#303030"/>
<path d="M169.535 40.7839H170.335L169.883 44.3308H169.082L169.535 40.7839ZM170.092 39.08C170.37 39.08 170.579 39.2886 170.579 39.5668C170.579 39.845 170.37 40.0536 170.092 40.0536C169.813 40.0536 169.604 39.845 169.604 39.5668C169.604 39.2886 169.813 39.08 170.092 39.08Z" fill="#303030"/>
<path d="M173.226 41.375C172.529 41.375 172.007 41.9314 172.007 42.7312C172.007 43.3571 172.39 43.7397 172.947 43.7397C173.295 43.7397 173.678 43.6006 174.061 43.3571L173.887 44.2265C173.609 44.3656 173.26 44.4699 172.912 44.4699C171.833 44.4699 171.137 43.7744 171.137 42.7312C171.137 41.5141 172.007 40.6448 173.191 40.6448C173.643 40.6448 174.026 40.7491 174.409 41.0273L174.235 41.7923C173.957 41.5141 173.574 41.375 173.226 41.375Z" fill="#303030"/>
<path d="M178.204 43.7049C177.786 44.2265 177.334 44.4699 176.707 44.4699C175.663 44.4699 174.932 43.7744 174.932 42.7312C174.932 41.5141 175.767 40.6448 176.916 40.6448C177.856 40.6448 178.483 41.2707 178.483 42.2792C178.483 42.3487 178.483 42.4878 178.448 42.6617H175.732C175.732 43.3224 176.081 43.7049 176.638 43.7049C177.021 43.7049 177.369 43.531 177.612 43.1833L178.204 43.7049ZM177.682 42.1401C177.682 41.6532 177.369 41.375 176.881 41.375C176.324 41.375 175.941 41.688 175.837 42.1401H177.682Z" fill="#303030"/>
<path d="M180.398 43.844C180.746 43.844 180.955 43.6701 180.955 43.4267C180.955 43.1485 180.746 43.0442 180.363 42.8355C179.806 42.5226 179.493 42.2792 179.493 41.7575C179.493 41.0968 180.015 40.6448 180.816 40.6448C181.303 40.6448 181.721 40.8186 182.069 41.2012L181.582 41.7228C181.338 41.4446 181.059 41.3055 180.746 41.3055C180.502 41.3055 180.293 41.4793 180.293 41.688C180.293 42.001 180.607 42.0705 181.059 42.3139C181.547 42.5573 181.79 42.8355 181.79 43.3224C181.79 44.0178 181.268 44.4699 180.433 44.4699C179.876 44.4699 179.423 44.2613 179.04 43.8092L179.493 43.2876C179.736 43.6701 180.05 43.844 180.398 43.844Z" fill="#303030"/>
<path d="M82.289 20.1977C82.3238 20.6497 82.3238 21.1018 82.3238 21.5539C82.3238 29.7953 77.1016 35.0809 69.9645 35.0809C61.5393 35.0809 55.5859 29.065 55.5859 20.9627C55.5859 12.8256 61.6786 6.91406 69.9645 6.91406C74.3164 6.91406 78.0068 8.75708 80.8616 12.4083L76.9971 15.2598C75.2912 13.1734 73.3764 11.8867 70.2778 11.8867C64.986 11.8867 61.5045 15.4684 61.5045 20.9627C61.5045 26.457 65.0904 30.0387 70.1386 30.0387C73.9334 30.0387 76.5097 28.0566 76.5097 25.2399V24.9269H70.0341V20.1977H82.289Z" fill="#303030"/>
<path d="M98.5473 34.3855L98.6169 32.2295C97.1895 34.5246 95.2747 35.081 92.4199 35.081C87.7547 35.081 84.4473 31.3602 84.4473 25.3791C84.4473 19.3284 88.0332 15.7467 92.594 15.7815C95.414 15.8163 97.5725 16.2683 98.6518 18.7373V16.4074H103.63V34.3855H98.5473ZM94.3347 20.0935C91.4799 20.0935 89.7391 22.0756 89.7391 25.3443C89.7391 28.5783 91.4451 30.4909 94.2999 30.4909C97.1547 30.4909 98.8606 28.6131 98.8606 25.3443C98.8606 22.006 97.0154 20.0935 94.3347 20.0935Z" fill="#303030"/>
<path d="M108.365 20.4759H105.858V16.3726H108.365V10.3915H113.587V16.3726H116.094V20.4759H113.587V34.3855H108.365V20.4759Z" fill="#303030"/>
<path d="M122.604 26.6657C123.022 29.2737 124.484 30.5256 126.991 30.5256C128.871 30.5256 130.264 29.7954 131.204 28.3001L135.416 30.3865C133.467 33.5509 130.716 35.0462 126.887 35.0462C120.933 35.0462 117.417 31.1863 117.417 25.4486C117.417 19.8848 121.281 15.7467 126.921 15.7467C132.596 15.7467 136.217 19.3284 136.217 25.2747C136.217 25.7268 136.182 26.1789 136.147 26.6309H122.604V26.6657ZM126.921 20.0587C124.589 20.0587 123.161 21.2062 122.744 23.5013H130.925C130.647 21.2758 129.289 20.0587 126.921 20.0587Z" fill="#303030"/>
<path d="M137.332 16.4074H143.007C143.007 16.4074 144.469 25.8659 144.643 27.2569C144.991 26.318 150.631 16.3379 150.631 16.3379L153.939 16.3727C155.958 25.3443 156.062 25.3096 156.271 27.5003C156.724 26.005 162.503 16.4074 162.503 16.4074H168.283L156.724 34.6637L153.695 34.7333C153.695 34.7333 151.432 25.2748 151.362 24.0577C150.701 25.6573 145.339 34.5942 145.339 34.5942H142.554L137.332 16.4074Z" fill="#303030"/>
<path d="M178.03 34.316L178.343 32.3686C177.125 34.1421 175.314 35.081 172.842 35.081C168.247 35.081 165.531 31.9514 165.531 26.5266C165.531 20.163 169.256 15.7815 174.2 15.7815C176.637 15.7815 178.691 16.0945 180.049 18.2504L180.362 16.3727H185.55L183.182 34.316H178.03ZM175.419 19.9196C172.529 19.9196 170.614 22.1799 170.614 26.1441C170.614 28.7522 172.216 30.4561 174.931 30.4561C177.682 30.4561 179.562 28.0914 179.562 24.3706C179.562 21.554 177.995 19.9196 175.419 19.9196Z" fill="#303030"/>
<path d="M186.942 16.3727H192.547C192.547 16.3727 195.263 25.6921 195.507 27.2221C195.82 26.005 200.833 16.3727 200.833 16.3727H206.821L189.797 44.47H184.122L191.085 32.8207L186.942 16.3727Z" fill="#303030"/>
</svg>
