<svg width="242" height="29" viewBox="0 0 242 29" fill="none" xmlns="http://www.w3.org/2000/svg">
<path d="M4.11853 1.22986L17.4656 19.6115V1.22986H22.0412V27.924H17.9227L4.57564 9.58142V27.924H0V1.22986H4.11853Z" fill="#333333"/>
<path d="M35.4609 1.22986H40.1129L50.4846 27.924H45.8708L43.4308 21.5935H32.143L29.7021 27.924H25.0883L35.4609 1.22986ZM33.7824 17.3986H41.7905L37.7865 6.98871L33.7824 17.3986Z" fill="#333333"/>
<path d="M57.7637 1.22986L66.4579 14.6542L75.153 1.22986H79.3851V27.924H74.8095V10.0004L66.4579 22.7004L58.1072 10.0004V27.924H53.5307V1.22986H57.7637Z" fill="#333333"/>
<path d="M89.6008 12.0596H100.278V16.4072H89.6008V23.5773H101.422V27.924H85.0243V1.22986H101.193V5.57831H89.6008V12.0596Z" fill="#333333"/>
<path d="M106.377 1.22986H113.622C118.16 1.22986 121.211 3.89891 121.211 8.09286C121.211 12.136 118.503 13.66 118.045 13.8517C118.503 13.9653 122.66 15.4157 122.66 20.6784C122.66 24.9487 119.724 27.924 114.576 27.924H106.377V1.22986ZM113.966 13.2792C117.588 13.2792 119.152 10.9918 119.152 8.09286C119.152 5.15664 117.092 3.06011 113.431 3.06011H108.36V13.2792H113.966ZM114.385 26.0919C119.076 26.0919 120.601 23.3093 120.601 20.6784C120.601 18.0466 119.038 15.1104 114.918 15.1104H108.36V26.0919H114.385Z" fill="#333333"/>
<path d="M125.707 14.5769C125.707 6.87332 131.312 0.772766 138.901 0.772766C146.49 0.772766 152.095 6.87332 152.095 14.5769C152.095 22.2796 146.528 28.3811 138.901 28.3811C131.274 28.3811 125.707 22.2796 125.707 14.5769ZM127.766 14.5769C127.766 21.1364 132.228 26.4363 138.901 26.4363C145.575 26.4363 150.036 21.1364 150.036 14.5769C150.036 8.01836 145.575 2.71753 138.901 2.71753C132.228 2.71753 127.766 8.01836 127.766 14.5769Z" fill="#333333"/>
<path d="M164.409 1.22986H166.621L177.26 27.924H175.124L172.073 20.144H158.956L155.905 27.924H153.77L164.409 1.22986ZM159.719 18.3147H171.311L165.515 3.4418L159.719 18.3147Z" fill="#333333"/>
<path d="M181.069 1.23077H187.515C193.007 1.23077 196.171 4.3951 196.171 8.78081C196.171 14.5388 191.136 16.0273 189.268 16.2172L196.896 27.9231H194.492L187.019 16.3327H183.053V27.9231H181.069V1.23077ZM187.629 14.4252C191.634 14.4252 194.112 12.2886 194.112 8.78081C194.112 5.27206 191.595 3.13828 187.629 3.13828H183.053V14.4252H187.629Z" fill="#333333"/>
<path d="M208.827 1.22986C216.53 1.22986 222.021 6.8733 222.021 14.576C222.021 22.2787 216.53 27.924 208.827 27.924H201.544V1.22986H208.827ZM208.446 26.0919C215.463 26.0919 219.962 21.4781 219.962 14.576C219.962 7.67392 215.463 3.06011 208.446 3.06011H203.526V26.0919H208.446Z" fill="#333333"/>
<path d="M233.992 15.224C230.064 13.5082 226.823 11.4499 226.823 7.40766C226.823 4.3951 229.263 0.771851 234.258 0.771851C239.025 0.771851 241.505 4.62411 241.505 4.62411L239.979 5.80551C239.979 5.80551 238.072 2.71752 234.297 2.71752C230.941 2.71752 228.806 4.73862 228.806 7.40766C228.806 10.6874 231.818 12.1369 235.631 13.8136C239.712 15.6066 242 17.6658 242 21.2491C242 25.5585 238.492 28.382 234.03 28.382C228.158 28.382 225.756 22.9276 225.756 22.9276L227.548 21.8598C227.548 21.8598 229.302 26.4354 234.03 26.4354C237.348 26.4354 240.016 24.4525 240.016 21.2491C240.016 17.9312 237.119 16.5971 233.992 15.224Z" fill="#333333"/>
</svg>
