<svg width="56" height="57" viewBox="0 0 56 57" fill="none" xmlns="http://www.w3.org/2000/svg">
<g clip-path="url(#clip0_1_809)">
<path d="M25.5171 9.18357H34.4277C34.7812 9.18357 35.0674 8.89135 35.0674 8.53093C35.0674 8.17051 34.7812 7.87878 34.4277 7.87878H25.5171C25.1631 7.87878 24.877 8.17051 24.877 8.53093C24.877 8.89135 25.1631 9.18357 25.5171 9.18357Z" fill="#777777"/>
<path d="M38.8325 11.6279H25.5171C25.1631 11.6279 24.877 11.9201 24.877 12.2805C24.877 12.6409 25.1631 12.9326 25.5171 12.9326H38.8325C39.186 12.9326 39.4727 12.6409 39.4727 12.2805C39.4727 11.9201 39.186 11.6279 38.8325 11.6279Z" fill="#777777"/>
<path d="M17.2391 7.43776C17.0018 7.17143 16.5975 7.15202 16.3348 7.39495C16.0736 7.63789 16.055 8.05008 16.2928 8.31691L18.1605 10.4058L16.2928 12.4946C16.055 12.7614 16.0736 13.1736 16.3348 13.4166C16.4578 13.5306 16.6117 13.5868 16.7659 13.5868C16.9398 13.5868 17.1131 13.5151 17.2391 13.3737L19.4993 10.8453C19.7215 10.5964 19.7215 10.2151 19.4993 9.96618L17.2391 7.43776Z" fill="#777777"/>
<path d="M25.5171 25.1546H34.4277C34.7812 25.1546 35.0674 24.8624 35.0674 24.5019C35.0674 24.1415 34.7812 23.8493 34.4277 23.8493H25.5171C25.1631 23.8493 24.877 24.1415 24.877 24.5019C24.877 24.8624 25.1631 25.1546 25.5171 25.1546Z" fill="#777777"/>
<path d="M38.8325 27.5989H25.5171C25.1631 27.5989 24.877 27.8911 24.877 28.2515C24.877 28.6119 25.1631 28.9037 25.5171 28.9037H38.8325C39.186 28.9037 39.4727 28.6119 39.4727 28.2515C39.4727 27.8911 39.186 27.5989 38.8325 27.5989Z" fill="#777777"/>
<path d="M19.5889 23.4779C19.3389 23.223 18.9336 23.223 18.6836 23.4779L16.2036 26.0063C15.9536 26.2612 15.9536 26.6744 16.2036 26.9293L18.6836 29.4577C18.8086 29.5851 18.9727 29.6489 19.1362 29.6489C19.2998 29.6489 19.4639 29.5851 19.5889 29.4577C19.8389 29.2028 19.8389 28.7896 19.5889 28.5347L17.561 26.4678L19.5889 24.4009C19.8389 24.146 19.8389 23.7328 19.5889 23.4779Z" fill="#777777"/>
<path d="M25.5171 41.6617H34.4277C34.7812 41.6617 35.0674 41.3695 35.0674 41.0091C35.0674 40.6487 34.7812 40.3564 34.4277 40.3564H25.5171C25.1631 40.3564 24.877 40.6487 24.877 41.0091C24.877 41.3695 25.1631 41.6617 25.5171 41.6617Z" fill="#777777"/>
<path d="M38.8325 44.106H25.5171C25.1631 44.106 24.877 44.3982 24.877 44.7587C24.877 45.1191 25.1631 45.4108 25.5171 45.4108H38.8325C39.186 45.4108 39.4727 45.1191 39.4727 44.7587C39.4727 44.3982 39.186 44.106 38.8325 44.106Z" fill="#777777"/>
<path d="M19.5889 39.9851C19.3389 39.7302 18.9336 39.7302 18.6836 39.9851L16.2036 42.5135C15.9536 42.7684 15.9536 43.1811 16.2036 43.436L18.6836 45.9644C18.8086 46.0918 18.9727 46.1556 19.1362 46.1556C19.2998 46.1556 19.4639 46.0918 19.5889 45.9644C19.8389 45.7095 19.8389 45.2968 19.5889 45.0419L17.561 42.9745L19.5889 40.9076C19.8389 40.6527 19.8389 40.24 19.5889 39.9851Z" fill="#777777"/>
<path d="M52.5601 54.3949H40.125V49.8802H43.3989C43.7524 49.8802 44.0386 49.588 44.0386 49.2281V36.7214C44.0386 36.361 43.7524 36.0687 43.3989 36.0687H40.125V33.3736H43.3989C43.7524 33.3736 44.0386 33.0813 44.0386 32.7209V20.2147C44.0386 19.8543 43.7524 19.5621 43.3989 19.5621H40.125V17.312H43.3989C43.7524 17.312 44.0386 17.0197 44.0386 16.6593V4.15264C44.0386 3.79222 43.7524 3.5 43.3989 3.5H11.8013C11.4473 3.5 11.1611 3.79222 11.1611 4.15264V16.6593C11.1611 17.0197 11.4473 17.312 11.8013 17.312H15.0752V19.5621H11.8013C11.4473 19.5621 11.1611 19.8543 11.1611 20.2147V32.7209C11.1611 33.0813 11.4473 33.3736 11.8013 33.3736H15.0752V36.0687H11.8013C11.4473 36.0687 11.1611 36.361 11.1611 36.7214V49.2281C11.1611 49.588 11.4473 49.8802 11.8013 49.8802H15.0752V54.3949H2.64014C2.28613 54.3949 2 54.6871 2 55.0476C2 55.408 2.28613 55.7002 2.64014 55.7002H52.5601C52.9136 55.7002 53.2002 55.408 53.2002 55.0476C53.2002 54.6871 52.9136 54.3949 52.5601 54.3949ZM12.4414 4.80478H42.7588V16.0067H12.4414V4.80478ZM16.355 17.312H38.8452V19.5621H16.355V17.312ZM12.4414 20.8669H42.7588V32.0688H12.4414V20.8669ZM16.355 33.3736H38.8452V36.0687H16.355V33.3736ZM12.4414 37.374H42.7588V48.5754H12.4414V37.374ZM16.355 49.8802H38.8452V54.3949H16.355V49.8802Z" fill="#777777"/>
</g>
<defs>
<clipPath id="clip0_1_809">
<rect width="51.2" height="52.2" fill="white" transform="translate(2 3.5)"/>
</clipPath>
</defs>
</svg>
