<svg width="56" height="57" viewBox="0 0 56 57" fill="none" xmlns="http://www.w3.org/2000/svg">
<path d="M49.75 49.506H48.25V26.256C48.25 26.0571 48.171 25.8664 48.0303 25.7257C47.8897 25.5851 47.6989 25.506 47.5 25.506H39.25V18.006C39.25 17.8071 39.171 17.6164 39.0303 17.4757C38.8897 17.3351 38.6989 17.256 38.5 17.256H17.5C17.3011 17.256 17.1103 17.3351 16.9697 17.4757C16.829 17.6164 16.75 17.8071 16.75 18.006V25.506H8.5C8.30109 25.506 8.11032 25.5851 7.96967 25.7257C7.82902 25.8664 7.75 26.0571 7.75 26.256V49.506H6.25C6.05109 49.506 5.86032 49.5851 5.71967 49.7257C5.57902 49.8664 5.5 50.0571 5.5 50.256C5.5 50.455 5.57902 50.6457 5.71967 50.7864C5.86032 50.927 6.05109 51.006 6.25 51.006H49.75C49.9489 51.006 50.1397 50.927 50.2803 50.7864C50.421 50.6457 50.5 50.455 50.5 50.256C50.5 50.0571 50.421 49.8664 50.2803 49.7257C50.1397 49.5851 49.9489 49.506 49.75 49.506ZM16.75 49.506H9.25V27.006H16.75V49.506ZM27.25 49.506H24.25V39.756H27.25V49.506ZM31.75 49.506H28.75V39.756H31.75V49.506ZM37.75 26.256V49.506H33.25V39.756H34C34.1989 39.756 34.3897 39.677 34.5303 39.5364C34.671 39.3957 34.75 39.205 34.75 39.006C34.75 38.8071 34.671 38.6164 34.5303 38.4757C34.3897 38.3351 34.1989 38.256 34 38.256H22C21.8011 38.256 21.6103 38.3351 21.4697 38.4757C21.329 38.6164 21.25 38.8071 21.25 39.006C21.25 39.205 21.329 39.3957 21.4697 39.5364C21.6103 39.677 21.8011 39.756 22 39.756H22.75V49.506H18.25V18.756H37.75V26.256ZM46.75 49.506H39.25V27.006H46.75V49.506Z" fill="#777777"/>
<path d="M20.5 24.756H23.5C23.6989 24.756 23.8897 24.677 24.0303 24.5364C24.171 24.3957 24.25 24.205 24.25 24.006V21.006C24.25 20.8071 24.171 20.6164 24.0303 20.4757C23.8897 20.3351 23.6989 20.256 23.5 20.256H20.5C20.3011 20.256 20.1103 20.3351 19.9697 20.4757C19.829 20.6164 19.75 20.8071 19.75 21.006V24.006C19.75 24.205 19.829 24.3957 19.9697 24.5364C20.1103 24.677 20.3011 24.756 20.5 24.756ZM21.25 21.756H22.75V23.256H21.25V21.756Z" fill="#777777"/>
<path d="M26.5 24.756H29.5C29.6989 24.756 29.8897 24.677 30.0303 24.5364C30.171 24.3957 30.25 24.205 30.25 24.006V21.006C30.25 20.8071 30.171 20.6164 30.0303 20.4757C29.8897 20.3351 29.6989 20.256 29.5 20.256H26.5C26.3011 20.256 26.1103 20.3351 25.9697 20.4757C25.829 20.6164 25.75 20.8071 25.75 21.006V24.006C25.75 24.205 25.829 24.3957 25.9697 24.5364C26.1103 24.677 26.3011 24.756 26.5 24.756ZM27.25 21.756H28.75V23.256H27.25V21.756Z" fill="#777777"/>
<path d="M32.5 24.756H35.5C35.6989 24.756 35.8897 24.677 36.0303 24.5364C36.171 24.3957 36.25 24.205 36.25 24.006V21.006C36.25 20.8071 36.171 20.6164 36.0303 20.4757C35.8897 20.3351 35.6989 20.256 35.5 20.256H32.5C32.3011 20.256 32.1103 20.3351 31.9697 20.4757C31.829 20.6164 31.75 20.8071 31.75 21.006V24.006C31.75 24.205 31.829 24.3957 31.9697 24.5364C32.1103 24.677 32.3011 24.756 32.5 24.756ZM33.25 21.756H34.75V23.256H33.25V21.756Z" fill="#777777"/>
<path d="M20.5 30.756H23.5C23.6989 30.756 23.8897 30.677 24.0303 30.5364C24.171 30.3957 24.25 30.205 24.25 30.006V27.006C24.25 26.8071 24.171 26.6164 24.0303 26.4757C23.8897 26.3351 23.6989 26.256 23.5 26.256H20.5C20.3011 26.256 20.1103 26.3351 19.9697 26.4757C19.829 26.6164 19.75 26.8071 19.75 27.006V30.006C19.75 30.205 19.829 30.3957 19.9697 30.5364C20.1103 30.677 20.3011 30.756 20.5 30.756ZM21.25 27.756H22.75V29.256H21.25V27.756Z" fill="#777777"/>
<path d="M26.5 30.756H29.5C29.6989 30.756 29.8897 30.677 30.0303 30.5364C30.171 30.3957 30.25 30.205 30.25 30.006V27.006C30.25 26.8071 30.171 26.6164 30.0303 26.4757C29.8897 26.3351 29.6989 26.256 29.5 26.256H26.5C26.3011 26.256 26.1103 26.3351 25.9697 26.4757C25.829 26.6164 25.75 26.8071 25.75 27.006V30.006C25.75 30.205 25.829 30.3957 25.9697 30.5364C26.1103 30.677 26.3011 30.756 26.5 30.756ZM27.25 27.756H28.75V29.256H27.25V27.756Z" fill="#777777"/>
<path d="M32.5 30.756H35.5C35.6989 30.756 35.8897 30.677 36.0303 30.5364C36.171 30.3957 36.25 30.205 36.25 30.006V27.006C36.25 26.8071 36.171 26.6164 36.0303 26.4757C35.8897 26.3351 35.6989 26.256 35.5 26.256H32.5C32.3011 26.256 32.1103 26.3351 31.9697 26.4757C31.829 26.6164 31.75 26.8071 31.75 27.006V30.006C31.75 30.205 31.829 30.3957 31.9697 30.5364C32.1103 30.677 32.3011 30.756 32.5 30.756ZM33.25 27.756H34.75V29.256H33.25V27.756Z" fill="#777777"/>
<path d="M20.5 36.756H23.5C23.6989 36.756 23.8897 36.677 24.0303 36.5364C24.171 36.3957 24.25 36.205 24.25 36.006V33.006C24.25 32.8071 24.171 32.6164 24.0303 32.4757C23.8897 32.3351 23.6989 32.256 23.5 32.256H20.5C20.3011 32.256 20.1103 32.3351 19.9697 32.4757C19.829 32.6164 19.75 32.8071 19.75 33.006V36.006C19.75 36.205 19.829 36.3957 19.9697 36.5364C20.1103 36.677 20.3011 36.756 20.5 36.756ZM21.25 33.756H22.75V35.256H21.25V33.756Z" fill="#777777"/>
<path d="M26.5 36.756H29.5C29.6989 36.756 29.8897 36.677 30.0303 36.5364C30.171 36.3957 30.25 36.205 30.25 36.006V33.006C30.25 32.8071 30.171 32.6164 30.0303 32.4757C29.8897 32.3351 29.6989 32.256 29.5 32.256H26.5C26.3011 32.256 26.1103 32.3351 25.9697 32.4757C25.829 32.6164 25.75 32.8071 25.75 33.006V36.006C25.75 36.205 25.829 36.3957 25.9697 36.5364C26.1103 36.677 26.3011 36.756 26.5 36.756ZM27.25 33.756H28.75V35.256H27.25V33.756Z" fill="#777777"/>
<path d="M32.5 36.756H35.5C35.6989 36.756 35.8897 36.677 36.0303 36.5364C36.171 36.3957 36.25 36.205 36.25 36.006V33.006C36.25 32.8071 36.171 32.6164 36.0303 32.4757C35.8897 32.3351 35.6989 32.256 35.5 32.256H32.5C32.3011 32.256 32.1103 32.3351 31.9697 32.4757C31.829 32.6164 31.75 32.8071 31.75 33.006V36.006C31.75 36.205 31.829 36.3957 31.9697 36.5364C32.1103 36.677 32.3011 36.756 32.5 36.756ZM33.25 33.756H34.75V35.256H33.25V33.756Z" fill="#777777"/>
<path d="M25.4047 13.9755C25.2225 14.0481 25.076 14.1892 24.9966 14.3685C24.9172 14.5478 24.9112 14.7511 24.9798 14.9348C25.0485 15.1185 25.1864 15.268 25.3639 15.3513C25.5414 15.4345 25.7445 15.445 25.9297 15.3803C27.2637 14.8793 28.7342 14.8793 30.0682 15.3803C30.2533 15.445 30.4564 15.4345 30.634 15.3513C30.8115 15.268 30.9494 15.1185 31.018 14.9348C31.0867 14.7511 31.0806 14.5478 31.0012 14.3685C30.9218 14.1892 30.7753 14.0481 30.5932 13.9755C28.9204 13.3493 27.0775 13.3493 25.4047 13.9755Z" fill="#777777"/>
<path d="M32.484 12.3525C32.6518 12.3524 32.8148 12.296 32.9468 12.1923C33.0788 12.0886 33.1722 11.9436 33.212 11.7805C33.2518 11.6175 33.2358 11.4458 33.1665 11.2929C33.0972 11.14 32.9786 11.0148 32.8297 10.9373C31.3372 10.164 29.6807 9.76044 27.9997 9.76044C26.3187 9.76044 24.6623 10.164 23.1697 10.9373C23.0795 10.981 22.999 11.0423 22.9329 11.1176C22.8668 11.1929 22.8165 11.2807 22.7849 11.3758C22.7533 11.4709 22.741 11.5714 22.7489 11.6713C22.7568 11.7712 22.7846 11.8685 22.8307 11.9575C22.8768 12.0464 22.9403 12.1253 23.0174 12.1893C23.0945 12.2533 23.1836 12.3012 23.2796 12.3302C23.3755 12.3592 23.4762 12.3687 23.5759 12.3581C23.6755 12.3475 23.7721 12.3171 23.8597 12.2685C25.1391 11.6057 26.5589 11.2598 27.9997 11.2598C29.4406 11.2598 30.8604 11.6057 32.1397 12.2685C32.2461 12.3236 32.3642 12.3524 32.484 12.3525Z" fill="#777777"/>
<path d="M34.5917 9.34503C34.7557 9.34552 34.9154 9.29223 35.0462 9.19332C35.1771 9.0944 35.2719 8.95532 35.3162 8.79737C35.3604 8.63942 35.3517 8.47132 35.2913 8.31882C35.2308 8.16632 35.1221 8.03782 34.9817 7.95303C32.8781 6.67222 30.4628 5.99475 27.9999 5.99475C25.5371 5.99475 23.1218 6.67222 21.0182 7.95303C20.848 8.05626 20.7258 8.22287 20.6785 8.41619C20.6312 8.60952 20.6626 8.81373 20.7658 8.9839C20.8691 9.15407 21.0357 9.27626 21.229 9.32359C21.4223 9.37092 21.6265 9.33951 21.7967 9.23628C23.6654 8.09732 25.8115 7.49481 27.9999 7.49481C30.1884 7.49481 32.3345 8.09732 34.2032 9.23628C34.3203 9.30733 34.4547 9.34494 34.5917 9.34503Z" fill="#777777"/>
<path d="M11.5 33.006H14.5C14.6989 33.006 14.8897 32.927 15.0303 32.7864C15.171 32.6457 15.25 32.455 15.25 32.256V29.256C15.25 29.0571 15.171 28.8664 15.0303 28.7257C14.8897 28.5851 14.6989 28.506 14.5 28.506H11.5C11.3011 28.506 11.1103 28.5851 10.9697 28.7257C10.829 28.8664 10.75 29.0571 10.75 29.256V32.256C10.75 32.455 10.829 32.6457 10.9697 32.7864C11.1103 32.927 11.3011 33.006 11.5 33.006ZM12.25 30.006H13.75V31.506H12.25V30.006Z" fill="#777777"/>
<path d="M41.5 33.006H44.5C44.6989 33.006 44.8897 32.927 45.0303 32.7864C45.171 32.6457 45.25 32.455 45.25 32.256V29.256C45.25 29.0571 45.171 28.8664 45.0303 28.7257C44.8897 28.5851 44.6989 28.506 44.5 28.506H41.5C41.3011 28.506 41.1103 28.5851 40.9697 28.7257C40.829 28.8664 40.75 29.0571 40.75 29.256V32.256C40.75 32.455 40.829 32.6457 40.9697 32.7864C41.1103 32.927 41.3011 33.006 41.5 33.006ZM42.25 30.006H43.75V31.506H42.25V30.006Z" fill="#777777"/>
<path d="M11.5 39.006H14.5C14.6989 39.006 14.8897 38.927 15.0303 38.7864C15.171 38.6457 15.25 38.455 15.25 38.256V35.256C15.25 35.0571 15.171 34.8664 15.0303 34.7257C14.8897 34.5851 14.6989 34.506 14.5 34.506H11.5C11.3011 34.506 11.1103 34.5851 10.9697 34.7257C10.829 34.8664 10.75 35.0571 10.75 35.256V38.256C10.75 38.455 10.829 38.6457 10.9697 38.7864C11.1103 38.927 11.3011 39.006 11.5 39.006ZM12.25 36.006H13.75V37.506H12.25V36.006Z" fill="#777777"/>
<path d="M41.5 39.006H44.5C44.6989 39.006 44.8897 38.927 45.0303 38.7864C45.171 38.6457 45.25 38.455 45.25 38.256V35.256C45.25 35.0571 45.171 34.8664 45.0303 34.7257C44.8897 34.5851 44.6989 34.506 44.5 34.506H41.5C41.3011 34.506 41.1103 34.5851 40.9697 34.7257C40.829 34.8664 40.75 35.0571 40.75 35.256V38.256C40.75 38.455 40.829 38.6457 40.9697 38.7864C41.1103 38.927 41.3011 39.006 41.5 39.006ZM42.25 36.006H43.75V37.506H42.25V36.006Z" fill="#777777"/>
</svg>
