<svg width="263" height="44" viewBox="0 0 263 44" fill="none" xmlns="http://www.w3.org/2000/svg">
<path d="M0 0H263V44H0V0Z" fill="#303030"/>
<path d="M18.7671 33.6875V12.65H23.0314V33.6875H18.7671ZM27.6047 33.6875V12.65H34.8046L39.8723 29.975H40.1813V12.65H44.4456V33.6875H37.4312L32.178 16.3625H31.869V33.6875H27.6047ZM62.3372 33.3438C60.4006 33.7903 58.4222 34.03 56.4351 34.0588C55.006 34.1129 53.5797 33.8936 52.2326 33.4125C51.2094 33.0024 50.3434 32.2763 49.7606 31.3397C49.1355 30.317 48.7156 29.1821 48.5245 27.9984C48.2742 26.4023 48.1605 24.7877 48.1846 23.1722C48.1846 19.1091 48.7569 16.2784 49.9013 14.6802C51.0458 13.082 53.1516 12.2829 56.2188 12.2829C58.2939 12.3227 60.3574 12.603 62.3681 13.1182L62.2445 16.5213C60.5642 16.2434 58.8659 16.0883 57.163 16.0573C56.1692 15.9824 55.1731 16.169 54.2735 16.5983C53.6039 17.0995 53.1463 17.8337 52.9907 18.656C52.6488 20.3557 52.5089 22.09 52.5739 23.8226C52.573 26.2536 52.8564 27.9377 53.424 28.875C53.9917 29.8123 55.1247 30.2816 56.8231 30.283C58.6396 30.2739 60.4529 30.1292 62.2479 29.8499L62.3372 33.3438ZM69.9731 28.7375C70.5911 29.81 71.7345 30.3463 73.4031 30.3463C75.0717 30.3463 76.21 29.8047 76.818 28.7217C77.4259 27.6387 77.7297 25.8237 77.7292 23.2767C77.7288 20.7297 77.4186 18.8788 76.7988 17.7238C76.1807 16.5688 75.0477 15.9913 73.3997 15.9913C71.7516 15.9913 70.6186 16.5688 70.0006 17.7238C69.3826 18.8788 69.0736 20.7297 69.0736 23.2767C69.0736 25.8237 69.3734 27.6439 69.9731 28.7375ZM80.136 31.46C78.8382 33.1925 76.5927 34.0588 73.3997 34.0588C70.2066 34.0588 67.9561 33.1879 66.6482 31.4463C65.3403 29.7046 64.6863 26.9775 64.6863 23.265C64.6863 19.5525 65.3403 16.7933 66.6482 14.9875C67.9561 13.1831 70.2066 12.2808 73.3997 12.2808C76.5927 12.2808 78.8435 13.1831 80.1518 14.9875C81.4597 16.792 82.1137 19.5504 82.1137 23.2629C82.1137 26.9754 81.4545 29.7078 80.136 31.46ZM85.76 33.6875V12.65H93.0217L96.7298 27.995L100.438 12.65H107.7V33.6875H103.435V17.4144H102.972L98.8619 32.7594H94.5976L90.4878 17.4144H90.0243V33.6875H85.76ZM119.998 27.5619H116.537V33.6875H112.273V12.65H119.998C124.983 12.65 127.476 15.0838 127.476 19.9513C127.476 22.4056 126.842 24.2876 125.575 25.597C124.308 26.9065 122.449 27.5614 119.998 27.5619ZM116.537 23.9113H119.971C122.092 23.9113 123.153 22.5913 123.153 19.9513C123.245 18.9548 122.97 17.9593 122.381 17.1511C122.062 16.8462 121.683 16.6127 121.267 16.4661C120.852 16.3195 120.41 16.2631 119.971 16.3006H116.537V23.9113ZM128.125 33.6875L132.853 12.65H140.949L145.677 33.6875H141.412L140.578 29.8822H133.224L132.393 33.6875H128.125ZM136.159 16.1769L134.03 26.1697H139.778L137.649 16.1769H136.159ZM148.489 33.6875V12.65H155.688L160.756 29.975H161.065V12.65H165.329V33.6875H158.315L153.062 16.3625H152.753V33.6875H148.489ZM178.37 33.6875H174.105V25.1797L167.62 12.65H172.347L176.203 21.0341L180.069 12.65H184.797L178.37 25.1797V33.6875ZM192.151 33.6875L196.879 12.65H204.975L209.703 33.6875H205.439L204.604 29.8822H197.25L196.416 33.6875H192.151ZM200.186 16.1769L198.053 26.1697H203.801L201.669 16.1769H200.186ZM220.237 27.5619H216.776V33.6875H212.512V12.65H220.237C225.222 12.65 227.715 15.0838 227.715 19.9513C227.715 22.4056 227.081 24.2876 225.814 25.597C224.547 26.9065 222.689 27.5614 220.24 27.5619H220.237ZM216.776 23.9113H220.206C222.328 23.9113 223.389 22.5913 223.389 19.9513C223.48 18.9548 223.205 17.9593 222.616 17.1511C222.298 16.8462 221.918 16.6127 221.502 16.4661C221.087 16.3195 220.645 16.2631 220.206 16.3006H216.779L216.776 23.9113ZM238.437 27.5619H234.983V33.6875H230.719V12.65H238.444C243.43 12.65 245.922 15.0838 245.922 19.9513C245.922 22.4056 245.289 24.2876 244.021 25.597C242.754 26.9065 240.894 27.5614 238.441 27.5619H238.437ZM234.976 23.9113H238.406C240.528 23.9113 241.589 22.5913 241.589 19.9513C241.681 18.9548 241.406 17.9593 240.817 17.1511C240.498 16.8462 240.119 16.6127 239.703 16.4661C239.287 16.3195 238.845 16.2631 238.406 16.3006H234.983L234.976 23.9113Z" fill="white"/>
</svg>
