<svg width="186" height="53" viewBox="0 0 186 53" fill="none" xmlns="http://www.w3.org/2000/svg">
<path d="M120.827 35.3263C121.767 35.3263 122.82 35.3263 124.024 35.3263C124.024 36.7216 124.024 37.9661 124.024 39.3614C120 39.3614 116.014 39.3614 111.952 39.3614C111.952 38.0415 111.952 36.8347 111.952 35.4771C112.855 35.4394 113.72 35.364 114.81 35.2886C114.81 29.1793 114.81 23.1078 114.81 16.8099C113.72 16.8099 112.592 16.8099 111.388 16.8099C111.388 15.4146 111.388 14.1701 111.388 12.8502C114.359 12.8502 117.33 12.8502 120.526 12.8502C120.451 14.6604 120.376 16.3574 120.263 18.243C120.489 17.9413 120.714 17.715 120.827 17.451C123.008 12.7748 127.672 11.4172 132.786 12.6617C136.547 13.5667 138.728 16.6968 138.803 20.9582C138.878 25.6721 138.841 30.3861 138.841 35.2886C139.894 35.2886 140.947 35.2886 142.075 35.2886C142.075 36.7216 142.075 37.9284 142.075 39.3237C138.201 39.3237 134.29 39.3237 130.266 39.3237C130.266 38.0792 130.266 36.8725 130.266 35.5148C131.207 35.4394 132.109 35.364 133.162 35.2509C133.162 30.6123 133.501 26.0115 133.087 21.4862C132.673 17.0362 127.484 15.3769 123.798 18.1675C122.031 19.4874 120.94 21.3353 120.827 23.4472C120.677 27.2937 120.827 31.178 120.827 35.3263Z" fill="#303030"/>
<path d="M53.7019 16.8477C52.5362 16.8477 51.4832 16.8477 50.2798 16.8477C50.2798 15.5278 50.2798 14.2833 50.2798 12.9257C53.2883 12.9257 56.2968 12.9257 59.4181 12.9257C59.2676 14.7358 59.1172 16.4706 58.8916 18.771C59.3429 17.979 59.5685 17.6019 59.7565 17.2625C62.2385 12.4731 66.5256 11.7566 71.1512 12.5486C75.0622 13.1897 77.3938 16.3951 77.5442 20.9205C77.657 24.9934 77.5442 29.0662 77.5066 33.1768C77.5066 33.8556 77.5066 34.5344 77.5066 35.3263C78.6348 35.364 79.6125 35.4395 80.7407 35.4772C80.7407 36.7217 80.7407 37.9284 80.7407 39.286C76.9425 39.286 73.1067 39.286 69.0828 39.286C69.0828 38.117 69.0828 36.9102 69.0828 35.5149C69.9102 35.4772 70.8127 35.4018 72.0161 35.3263C72.0161 30.9141 72.2041 26.5395 71.9409 22.2027C71.7529 19.0727 70.1358 17.4134 67.729 16.9231C65.2846 16.3951 62.3137 17.6396 60.9599 19.94C60.3206 20.996 59.6437 22.2027 59.6061 23.3718C59.4557 27.2938 59.5309 31.2535 59.5309 35.364C60.4334 35.4018 61.524 35.4395 62.6898 35.5149C62.6898 36.8348 62.6898 38.0416 62.6898 39.3615C58.6659 39.3615 54.7549 39.3615 50.6935 39.3615C50.6935 38.117 50.6935 36.9102 50.6935 35.5526C51.596 35.4772 52.4985 35.4395 53.6267 35.3263C53.7019 29.1794 53.7019 23.1455 53.7019 16.8477Z" fill="#303030"/>
<path d="M42.9472 35.4018C44.1506 35.4018 45.1284 35.4018 46.2189 35.4018C46.2189 36.7594 46.2189 37.9661 46.2189 39.3238C43.5865 39.3238 40.9917 39.3238 38.1336 39.3238C38.2464 37.6645 38.3593 36.0429 38.5473 33.931C38.1712 34.4967 38.0584 34.6475 37.9832 34.8361C35.5012 40.2288 30.0859 40.7945 25.7236 39.3992C22.9032 38.4941 21.4365 36.3446 21.1733 33.3653C20.91 30.1976 21.7374 27.4823 24.7835 26.2002C26.9646 25.2951 29.4466 24.918 31.8158 24.5031C33.8465 24.1637 35.9149 24.2014 37.908 24.0506C39.0362 18.3939 36.1781 15.4524 30.6124 16.3197C27.2279 16.8477 27.2279 16.8477 27.115 20.1286C27.115 20.3172 27.0774 20.5057 27.0022 20.8074C25.5356 20.8074 24.0689 20.8074 22.2639 20.8074C22.2639 18.9595 22.2262 17.0362 22.3015 15.113C22.3015 14.7736 22.8279 14.2833 23.204 14.1325C27.4159 12.2469 31.891 11.7189 36.3661 12.6617C40.6908 13.5668 42.8344 16.3574 42.872 20.8074C42.9848 25.5968 42.9472 30.3861 42.9472 35.4018ZM37.908 27.3315C34.8243 27.784 31.891 28.048 28.9953 28.6514C27.4159 28.9908 26.5133 30.3861 26.5509 32.0454C26.5886 33.7425 27.5287 34.9115 29.221 35.4772C33.8089 36.9856 38.3593 33.1014 37.908 27.3315Z" fill="#303030"/>
<path d="M170.468 27.0298C163.887 27.0298 157.644 27.0298 151.439 27.0298C150.575 34.459 158.096 37.4382 168.964 33.8933C168.851 35.2132 168.813 36.42 168.588 37.589C168.513 37.9661 168.061 38.4564 167.685 38.5695C163.135 40.0403 158.547 40.7191 153.884 39.1729C148.995 37.5513 146.25 34.0818 145.535 29.0662C144.746 23.5226 145.573 18.3184 150.311 14.6604C154.335 11.5681 158.961 11.4172 163.473 13.2274C167.723 14.9244 169.453 18.6955 170.055 23.0324C170.243 24.2768 170.318 25.5213 170.468 27.0298ZM151.364 23.1455C155.689 23.1455 160.014 23.1455 164.338 23.1455C164.564 19.1858 161.894 16.282 158.058 16.2066C154.072 16.1312 151.139 19.1481 151.364 23.1455Z" fill="#303030"/>
<path d="M85.8168 31.4797C87.4339 31.4797 88.9757 31.4797 90.5176 31.4797C91.0441 35.2886 91.0064 35.4394 94.9175 35.892C96.4593 36.0805 98.1516 35.7788 99.6935 35.4017C101.273 34.9869 102.138 33.7047 102.063 31.97C101.987 30.2352 100.859 29.3679 99.3926 28.9908C97.3995 28.4628 95.3311 28.1988 93.338 27.784C92.1346 27.52 90.9312 27.1806 89.7654 26.7281C87.1706 25.7099 85.4784 23.9751 85.3655 20.9959C85.2527 17.8282 86.3057 15.3392 89.2014 13.8307C93.2628 11.7189 97.5499 12.0583 101.837 12.8125C105.748 13.4913 105.71 13.5668 105.823 17.5265C105.823 18.3561 105.823 19.1481 105.823 20.1286C104.244 20.1286 102.74 20.1286 101.16 20.1286C101.122 20.0531 101.01 19.9777 100.972 19.8646C100.709 16.7345 100.709 16.6968 97.5123 16.3574C96.2337 16.2443 94.8799 16.3197 93.6013 16.5837C92.097 16.8854 90.9312 17.7527 90.856 19.4875C90.7808 21.2222 91.9466 22.1273 93.4508 22.5044C95.9328 23.1078 98.4525 23.5603 100.972 24.0883C105.034 24.9556 106.951 26.7658 107.252 30.009C107.628 34.5344 105.974 37.7021 102.175 39.0597C97.0234 40.8699 91.8338 40.3796 86.6817 38.8335C86.3433 38.7203 85.892 38.1924 85.8544 37.853C85.7792 35.7034 85.8168 33.6293 85.8168 31.4797Z" fill="#303030"/>
<path d="M182.502 35.364C183.781 35.364 184.796 35.364 186 35.364C186 36.7216 186 37.9284 186 39.3237C181.976 39.3237 177.952 39.3237 173.778 39.3237C173.778 38.0793 173.778 36.8348 173.778 35.4772C174.793 35.4395 175.733 35.4017 176.899 35.3263C176.899 24.9557 176.899 14.585 176.899 4.02575C175.508 4.02575 174.078 4.02575 172.537 4.02575C172.537 2.63042 172.537 1.42366 172.537 0.06604C175.808 0.06604 179.08 0.06604 182.54 0.06604C182.502 11.7189 182.502 23.4095 182.502 35.364Z" fill="#303030"/>
<path d="M14.4407 12.9257C14.4407 21.4485 14.704 29.8204 14.3655 38.1547C14.0271 46.2627 9.13828 51.8062 0.676909 52.9753C0.451273 51.6177 0.225636 50.2224 0 48.7893C0.451273 48.6008 0.752122 48.3745 1.09058 48.2991C5.67852 47.1677 8.31094 44.0377 8.6494 39.55C9.21349 32.0831 9.21349 24.5408 9.43913 16.8854C7.85967 16.8854 6.69388 16.8854 5.41527 16.8854C5.41527 15.49 5.41527 14.2833 5.41527 12.9257C8.46137 12.9257 11.5075 12.9257 14.4407 12.9257Z" fill="#303030"/>
</svg>
