<svg width="48" height="50" viewBox="0 0 48 50" fill="none" xmlns="http://www.w3.org/2000/svg">
<path d="M45.75 38.7812H42.8475C42.8958 38.6557 42.9285 38.5246 42.945 38.3908L44.7 27.672C44.7533 27.3431 44.7359 27.0063 44.6489 26.685C44.5619 26.3636 44.4074 26.0655 44.1962 25.8112C43.9849 25.5569 43.722 25.3527 43.4256 25.2126C43.1293 25.0725 42.8066 25 42.48 25H30.405C29.6953 24.9988 29.0082 25.2554 28.4669 25.7239C27.9255 26.1924 27.565 26.8422 27.45 27.5572L26.115 35.7188H25.5V32.35C25.4984 30.9361 25.0708 29.5569 24.2752 28.3996C23.4796 27.2422 22.3545 26.3628 21.0525 25.8805L17.25 24.4641V23.8286C18.5647 23.3551 19.7034 22.4774 20.5093 21.316C21.3152 20.1547 21.7486 18.7669 21.75 17.3438V7.39062C21.75 7.18757 21.671 6.99283 21.5303 6.84925C21.3897 6.70566 21.1989 6.625 21 6.625H12C11.0054 6.625 10.0516 7.02832 9.34835 7.74623C8.64509 8.46414 8.25 9.43784 8.25 10.4531V13.6458C7.80895 13.8051 7.42753 14.1009 7.15882 14.4919C6.89012 14.8829 6.74749 15.3496 6.75079 15.8272C6.75409 16.3048 6.90316 16.7695 7.17724 17.1566C7.45132 17.5437 7.83679 17.8339 8.28 17.9869C8.42204 19.5884 9.11249 21.0875 10.23 22.2208C10.5436 22.5378 10.8851 22.8249 11.25 23.0783V24.4641L7.4475 25.8805C6.14553 26.3628 5.02041 27.2422 4.22479 28.3996C3.42917 29.5569 3.00157 30.9361 3 32.35V36.4844C3.00227 37.316 3.27387 38.1236 3.7725 38.7812H2.25C2.05109 38.7812 1.86032 38.8619 1.71967 39.0055C1.57902 39.1491 1.5 39.3438 1.5 39.5469V42.6094C1.5 42.8124 1.57902 43.0072 1.71967 43.1508C1.86032 43.2943 2.05109 43.375 2.25 43.375H3.75V47.2031C3.75 47.4062 3.82902 47.6009 3.96967 47.7445C4.11032 47.8881 4.30109 47.9688 4.5 47.9688H43.5C43.6989 47.9688 43.8897 47.8881 44.0303 47.7445C44.171 47.6009 44.25 47.4062 44.25 47.2031V43.375H45.75C45.9489 43.375 46.1397 43.2943 46.2803 43.1508C46.421 43.0072 46.5 42.8124 46.5 42.6094V39.5469C46.5 39.3438 46.421 39.1491 46.2803 39.0055C46.1397 38.8619 45.9489 38.7812 45.75 38.7812ZM42.48 26.5312C42.5883 26.5312 42.6954 26.5552 42.7938 26.6014C42.8922 26.6477 42.9796 26.7152 43.05 26.7992C43.1216 26.8848 43.1742 26.9853 43.2039 27.0937C43.2337 27.2022 43.2401 27.3159 43.2225 27.427L41.4675 38.1458C41.4391 38.3237 41.3495 38.4854 41.2148 38.6019C41.0801 38.7183 40.9091 38.782 40.7325 38.7812H30.135L32.1375 26.5312H42.48ZM28.9275 27.8098C28.9844 27.4521 29.1645 27.1268 29.4353 26.8925C29.7061 26.6581 30.05 26.53 30.405 26.5312H30.615L28.6125 38.7812H27.135L28.9275 27.8098ZM25.8675 37.25L25.6125 38.7812H20.25C20.0511 38.7812 19.8603 38.7006 19.7197 38.557C19.579 38.4134 19.5 38.2187 19.5 38.0156V37.25H25.8675ZM9.75 10.4531C9.75178 9.84451 9.9894 9.26135 10.411 8.831C10.8325 8.40064 11.4038 8.15807 12 8.15625H20.25V10.6139C19.8075 10.6828 19.4025 10.767 19.005 10.8436C17.9363 11.0873 16.845 11.2131 15.75 11.2188C15.0713 11.2572 14.3926 11.1421 13.7625 10.8819C12.9634 10.5618 12.1076 10.4158 11.25 10.4531C11.0511 10.4531 10.8603 10.5338 10.7197 10.6774C10.579 10.821 10.5 11.0157 10.5 11.2188V12.75C10.5 12.9531 10.421 13.1478 10.2803 13.2914C10.1397 13.435 9.94891 13.5156 9.75 13.5156V10.4531ZM9.75 17.3438C9.75 17.1407 9.67098 16.946 9.53033 16.8024C9.38968 16.6588 9.19891 16.5781 9 16.5781C8.80109 16.5781 8.61032 16.4975 8.46967 16.3539C8.32902 16.2103 8.25 16.0156 8.25 15.8125C8.25 15.6094 8.32902 15.4147 8.46967 15.2711C8.61032 15.1275 8.80109 15.0469 9 15.0469H9.75C10.3462 15.0451 10.9175 14.8025 11.339 14.3721C11.7606 13.9418 11.9982 13.3586 12 12.75V12.015C12.4261 12.0475 12.8441 12.1509 13.2375 12.3212C14.0366 12.6413 14.8924 12.7873 15.75 12.75C16.9433 12.7441 18.1325 12.6081 19.2975 12.3442C19.5975 12.283 19.92 12.2217 20.25 12.1681V17.3438C20.25 18.0476 20.1142 18.7445 19.8504 19.3947C19.5865 20.0449 19.1998 20.6357 18.7123 21.1334C18.2248 21.6311 17.646 22.0258 17.0091 22.2952C16.3721 22.5645 15.6894 22.7031 15 22.7031C14.3106 22.7031 13.6279 22.5645 12.9909 22.2952C12.354 22.0258 11.7752 21.6311 11.2877 21.1334C10.8002 20.6357 10.4135 20.0449 10.1496 19.3947C9.8858 18.7445 9.75 18.0476 9.75 17.3438ZM15.75 24.1884V25C15.75 25.4061 15.592 25.7956 15.3107 26.0828C15.0294 26.3699 14.6478 26.5312 14.25 26.5312C13.8522 26.5312 13.4706 26.3699 13.1893 26.0828C12.908 25.7956 12.75 25.4061 12.75 25V23.8363C13.4729 24.0965 14.2335 24.231 15 24.2344C15.2507 24.2346 15.5011 24.2192 15.75 24.1884ZM4.5 32.35C4.50014 31.2505 4.83213 30.1777 5.45078 29.2777C6.06943 28.3776 6.94471 27.694 7.9575 27.3198L11.4375 26.0259C11.6416 26.6212 12.0219 27.1371 12.5257 27.502C13.0296 27.867 13.6322 28.063 14.25 28.063C14.8678 28.063 15.4704 27.867 15.9743 27.502C16.4781 27.1371 16.8584 26.6212 17.0625 26.0259L20.5425 27.3198C21.5553 27.694 22.4306 28.3776 23.0492 29.2777C23.6679 30.1777 23.9999 31.2505 24 32.35V35.7188H21.75V31.125H20.25V35.7188H18.75C18.5511 35.7188 18.3603 35.7994 18.2197 35.943C18.079 36.0866 18 36.2813 18 36.4844V38.0156C18.002 38.2768 18.0477 38.5357 18.135 38.7812H14.25C14.25 37.766 13.8549 36.7923 13.1517 36.0744C12.4484 35.3564 11.4946 34.9531 10.5 34.9531H8.25V31.125H6.75V35.7188C6.75 35.9218 6.82902 36.1165 6.96967 36.2601C7.11032 36.4037 7.30109 36.4844 7.5 36.4844H9V38.7812H6.75C6.15381 38.7794 5.58255 38.5369 5.16098 38.1065C4.73941 37.6761 4.50178 37.093 4.5 36.4844V32.35ZM12.75 38.7812H10.5V36.4844C11.0962 36.4862 11.6675 36.7288 12.089 37.1591C12.5106 37.5895 12.7482 38.1726 12.75 38.7812ZM42.75 46.4375H5.25V43.375H42.75V46.4375ZM45 41.8438H3V40.3125H45V41.8438Z" fill="#777777"/>
<path d="M36.75 34.9531C37.195 34.9531 37.63 34.8184 38 34.566C38.37 34.3137 38.6584 33.9549 38.8287 33.5352C38.999 33.1155 39.0436 32.6537 38.9568 32.2082C38.87 31.7626 38.6557 31.3533 38.341 31.0321C38.0263 30.7109 37.6254 30.4921 37.189 30.4035C36.7525 30.3149 36.3001 30.3604 35.889 30.5342C35.4778 30.7081 35.1264 31.0025 34.8792 31.3802C34.632 31.7579 34.5 32.202 34.5 32.6563C34.5 33.2654 34.7371 33.8496 35.159 34.2804C35.581 34.7111 36.1533 34.9531 36.75 34.9531ZM36.75 31.8906C36.8983 31.8906 37.0433 31.9355 37.1667 32.0197C37.29 32.1038 37.3861 32.2234 37.4429 32.3633C37.4997 32.5032 37.5145 32.6571 37.4856 32.8056C37.4567 32.9541 37.3852 33.0906 37.2803 33.1976C37.1754 33.3047 37.0418 33.3776 36.8963 33.4072C36.7508 33.4367 36.6 33.4215 36.463 33.3636C36.3259 33.3056 36.2088 33.2075 36.1264 33.0816C36.044 32.9557 36 32.8077 36 32.6563C36 32.4532 36.079 32.2585 36.2197 32.1149C36.3603 31.9713 36.5511 31.8906 36.75 31.8906Z" fill="#777777"/>
<path d="M14.25 14.2812H12.75V15.8125H14.25V14.2812Z" fill="#777777"/>
<path d="M18.75 14.2812H17.25V15.8125H18.75V14.2812Z" fill="#777777"/>
<path d="M24.6435 15.0392L26.655 15.3325C26.7909 15.7642 26.9613 16.1839 27.1643 16.5873L25.9455 18.2464C25.8374 18.3938 25.785 18.576 25.7978 18.7596C25.8106 18.9433 25.8878 19.1161 26.0153 19.2463L28.1362 21.4115C28.2639 21.5416 28.4331 21.6204 28.613 21.6335C28.7929 21.6466 28.9714 21.5931 29.1157 21.4827L30.741 20.2386C31.1362 20.4458 31.5473 20.6197 31.9702 20.7584L32.2575 22.8118C32.2831 22.9942 32.3723 23.161 32.5087 23.2817C32.6451 23.4024 32.8195 23.4688 33 23.4688H36C36.1805 23.4688 36.3549 23.4024 36.4913 23.2817C36.6277 23.161 36.7169 22.9942 36.7425 22.8118L37.0298 20.7584C37.4527 20.6195 37.8638 20.4457 38.259 20.2386L39.8843 21.4827C40.0286 21.5931 40.2071 21.6466 40.387 21.6335C40.5669 21.6204 40.7362 21.5416 40.8638 21.4115L42.9847 19.2463C43.1122 19.1161 43.1894 18.9433 43.2022 18.7596C43.215 18.576 43.1626 18.3938 43.0545 18.2464L41.8357 16.5873C42.0387 16.1839 42.2091 15.7642 42.345 15.3325L44.3565 15.0392C44.5351 15.0131 44.6986 14.922 44.8168 14.7828C44.935 14.6436 45 14.4655 45 14.2812V11.2188C45 11.0345 44.935 10.8564 44.8168 10.7172C44.6986 10.578 44.5351 10.4869 44.3565 10.4608L42.345 10.1675C42.2091 9.73578 42.0387 9.3161 41.8357 8.91269L43.0545 7.25358C43.1626 7.1062 43.215 6.92399 43.2022 6.74035C43.1894 6.55671 43.1122 6.38393 42.9847 6.25367L40.8638 4.08848C40.7362 3.95838 40.5669 3.87957 40.387 3.86649C40.2071 3.85341 40.0286 3.90694 39.8843 4.01728L38.259 5.26142C37.8638 5.05433 37.4527 4.88046 37.0298 4.74156L36.7425 2.68816C36.7169 2.50579 36.6277 2.33896 36.4913 2.2183C36.3549 2.09764 36.1805 2.03123 36 2.03125H33C32.8195 2.03123 32.6451 2.09764 32.5087 2.2183C32.3723 2.33896 32.2831 2.50579 32.2575 2.68816L31.9702 4.74156C31.5473 4.88034 31.1362 5.0542 30.741 5.26142L29.1157 4.01728C28.9714 3.90694 28.7929 3.85341 28.613 3.86649C28.4331 3.87957 28.2639 3.95838 28.1362 4.08848L26.0153 6.25367C25.8878 6.38393 25.8106 6.55671 25.7978 6.74035C25.785 6.92399 25.8374 7.1062 25.9455 7.25358L27.1643 8.91269C26.9613 9.3161 26.7909 9.73578 26.655 10.1675L24.6435 10.4608C24.4649 10.4869 24.3014 10.578 24.1832 10.7172C24.065 10.8564 24 11.0345 24 11.2188V14.2812C24 14.4655 24.065 14.6436 24.1832 14.7828C24.3014 14.922 24.4649 15.0131 24.6435 15.0392ZM25.5 11.8825L27.3473 11.6138C27.4943 11.5922 27.6317 11.5266 27.7421 11.4252C27.8525 11.3238 27.931 11.1912 27.9675 11.0442C28.1256 10.4101 28.3724 9.80262 28.7002 9.24038C28.7759 9.10999 28.8119 8.95965 28.8037 8.80837C28.7956 8.65708 28.7436 8.51167 28.6545 8.39053L27.5355 6.86617L28.7355 5.64117L30.2288 6.78348C30.3474 6.87448 30.4899 6.9275 30.6381 6.93581C30.7863 6.94412 30.9335 6.90736 31.0613 6.83019C31.612 6.49554 32.2071 6.24362 32.8282 6.08217C32.9722 6.0449 33.1021 5.96483 33.2015 5.8521C33.3008 5.73938 33.3651 5.59908 33.3862 5.449L33.6503 3.5625H35.3497L35.613 5.44823C35.6341 5.59832 35.6985 5.73861 35.7978 5.85134C35.8971 5.96406 36.027 6.04413 36.171 6.08141C36.7921 6.24285 37.3872 6.49477 37.938 6.82942C38.0657 6.9066 38.213 6.94336 38.3612 6.93504C38.5094 6.92673 38.6518 6.87372 38.7705 6.78272L40.2638 5.64041L41.4637 6.86541L40.3447 8.38977C40.2556 8.5109 40.2037 8.65632 40.1955 8.8076C40.1874 8.95888 40.2234 9.10923 40.299 9.23961C40.6268 9.80185 40.8736 10.4094 41.0317 11.0434C41.0683 11.1904 41.1467 11.323 41.2571 11.4244C41.3675 11.5258 41.505 11.5915 41.652 11.613L43.5 11.8825V13.6175L41.6527 13.8862C41.5057 13.9078 41.3683 13.9734 41.2579 14.0748C41.1475 14.1762 41.069 14.3088 41.0325 14.4558C40.8744 15.0899 40.6276 15.6974 40.2998 16.2596C40.2241 16.39 40.1881 16.5404 40.1963 16.6916C40.2044 16.8429 40.2564 16.9883 40.3455 17.1095L41.4645 18.6338L40.2645 19.8588L38.7712 18.7165C38.6526 18.6255 38.5101 18.5725 38.3619 18.5642C38.2137 18.5559 38.0665 18.5926 37.9387 18.6698C37.388 19.0045 36.7929 19.2564 36.1718 19.4178C36.0278 19.4551 35.8979 19.5352 35.7985 19.6479C35.6992 19.7606 35.6349 19.9009 35.6138 20.051L35.3497 21.9375H33.6503L33.387 20.0518C33.3659 19.9017 33.3015 19.7614 33.2022 19.6487C33.1029 19.5359 32.973 19.4559 32.829 19.4186C32.2079 19.2572 31.6128 19.0052 31.062 18.6706C30.9343 18.5934 30.787 18.5566 30.6388 18.565C30.4906 18.5733 30.3482 18.6263 30.2295 18.7173L28.7362 19.8596L27.5363 18.6346L28.6553 17.1102C28.7444 16.9891 28.7963 16.8437 28.8045 16.6924C28.8126 16.5411 28.7766 16.3908 28.701 16.2604C28.3732 15.6982 28.1264 15.0906 27.9683 14.4566C27.9317 14.3096 27.8533 14.177 27.7429 14.0756C27.6325 13.9742 27.495 13.9085 27.348 13.887L25.5 13.6175V11.8825Z" fill="#777777"/>
<path d="M34.5 17.3438C35.39 17.3438 36.26 17.0743 37.0001 16.5696C37.7401 16.0648 38.3169 15.3474 38.6575 14.508C38.9981 13.6686 39.0872 12.7449 38.9135 11.8538C38.7399 10.9627 38.3113 10.1442 37.682 9.50173C37.0526 8.85928 36.2508 8.42177 35.3779 8.24452C34.505 8.06727 33.6002 8.15824 32.7779 8.50593C31.9557 8.85362 31.2529 9.44241 30.7584 10.1979C30.2639 10.9533 30 11.8414 30 12.75C30.0012 13.968 30.4757 15.1357 31.3193 15.9969C32.163 16.8582 33.3069 17.3425 34.5 17.3438ZM34.5 9.6875C35.0933 9.6875 35.6734 9.86711 36.1667 10.2036C36.6601 10.5401 37.0446 11.0184 37.2716 11.578C37.4987 12.1376 37.5581 12.7534 37.4424 13.3475C37.3266 13.9415 37.0409 14.4872 36.6213 14.9155C36.2018 15.3438 35.6672 15.6355 35.0853 15.7537C34.5033 15.8718 33.9001 15.8112 33.3519 15.5794C32.8038 15.3476 32.3352 14.9551 32.0056 14.4514C31.6759 13.9478 31.5 13.3557 31.5 12.75C31.5 11.9378 31.8161 11.1588 32.3787 10.5845C32.9413 10.0102 33.7043 9.6875 34.5 9.6875Z" fill="#777777"/>
<path d="M15.75 21.1719C16.5456 21.1719 17.3087 20.8492 17.8713 20.2749C18.4339 19.7006 18.75 18.9216 18.75 18.1094H17.25C17.25 18.5155 17.092 18.905 16.8107 19.1921C16.5294 19.4793 16.1478 19.6406 15.75 19.6406C15.3522 19.6406 14.9706 19.4793 14.6893 19.1921C14.408 18.905 14.25 18.5155 14.25 18.1094H12.75C12.75 18.9216 13.0661 19.7006 13.6287 20.2749C14.1913 20.8492 14.9544 21.1719 15.75 21.1719Z" fill="#777777"/>
</svg>
