<svg width="233" height="36" viewBox="0 0 233 36" fill="none" xmlns="http://www.w3.org/2000/svg">
<path d="M53.6627 8.49157C53.5573 6.38741 51.8029 4.70691 49.663 4.70691H36.6547C35.1292 1.97158 32.2011 0.120361 28.8363 0.120361C25.4699 0.120361 22.5426 1.97158 21.0171 4.70691H8.00956C5.86969 4.70691 4.11374 6.38741 4.01068 8.49157L0.0393352 25.8808L0 26.234V31.2168C0 33.4157 1.79686 35.2027 4.00439 35.2027H53.6674C55.8765 35.2027 57.6726 33.4157 57.6726 31.2168V26.234V26.0562L53.6627 8.49157ZM49.663 7.89486C50.1036 7.89486 50.4639 8.25273 50.4639 8.69126V8.87059L52.4378 17.5237H48.2005L46.4462 7.89486H49.663ZM37.7781 9.0225C37.7781 8.63723 37.7466 8.26447 37.701 7.89486H40.5946L42.3489 17.5237H32.3498L32.9563 16.9192C35.8215 15.4368 37.7781 12.4548 37.7781 9.0225ZM28.8363 4.70691C31.2059 4.70691 33.1255 6.61764 33.1255 8.97709C33.1255 11.3334 31.2059 13.2473 28.8363 13.2473C26.4675 13.2473 24.544 11.3334 24.544 8.97709C24.544 6.61764 26.4675 4.70691 28.8363 4.70691ZM18.878 7.89486H19.9732C19.9244 8.26447 19.8929 8.63723 19.8929 9.0225C19.8929 12.4548 21.8526 15.4368 24.7147 16.9192L25.3205 17.5237H17.0324L18.878 7.89486ZM4.00439 27.032C3.89896 27.032 3.79826 27.0061 3.70622 26.9709C3.67554 26.9591 3.65351 26.9388 3.6244 26.9223C3.56776 26.891 3.51111 26.8573 3.46076 26.8127C3.4348 26.7884 3.41435 26.7555 3.38996 26.7289C3.35299 26.6796 3.31758 26.6357 3.29162 26.5801C3.27274 26.5441 3.26173 26.5057 3.24914 26.4658C3.23812 26.4212 3.2279 26.3773 3.22318 26.3272L7.16856 9.046L7.20711 8.69126C7.20711 8.25273 7.56742 7.89486 8.00956 7.89486H10.1313L6.46287 27.032H4.00439ZM15.2096 27.032L15.7571 24.1745H35.1119L35.5132 27.032H15.2096ZM54.4211 26.4658C54.4101 26.5057 54.3983 26.5441 54.3794 26.5801C54.3542 26.6357 54.3188 26.6796 54.2795 26.7289C54.2575 26.7555 54.237 26.7884 54.2087 26.8127C54.1607 26.8573 54.1048 26.891 54.0482 26.9223C54.0191 26.9388 53.9939 26.9591 53.964 26.9709C53.8735 27.0061 53.7728 27.032 53.6674 27.032H41.2987L40.8959 24.1745H53.9569L53.5242 22.2724H38.7009L39.3689 27.032H37.4406L36.7719 22.2724H14.1774L13.2656 27.032H8.40685L12.0745 7.89486H16.9325L14.7234 19.4235H27.229L28.8363 21.021L30.4412 19.4235H44.6359L42.5354 7.89486H44.5061L46.6074 19.4235H52.872L52.7194 18.7555L54.4502 26.3272C54.4431 26.3773 54.4353 26.4212 54.4211 26.4658Z" fill="#2F3130"/>
<path d="M84.1668 6.97998C82.2079 6.97998 79.8139 7.77481 77.9635 8.4608C76.9849 7.48585 75.5696 6.97998 73.5375 6.97998C73.03 6.97998 72.3409 7.12485 71.7241 7.30496C70.4543 7.70199 69.2569 8.27991 69.2569 8.27991V7.41381H64.4328V25.4319H69.2931V12.1084C69.2931 12.1084 71.3252 11.4937 72.5218 11.4937C74.771 11.4937 75.0613 12.9025 75.0613 16.1531V25.4319H79.9225V16.0802C79.9225 14.6715 79.7769 12.1805 79.7769 12.1805C79.7769 12.1805 81.7004 11.4937 83.1511 11.4937C85.763 11.4937 85.6907 13.4444 85.6907 17.9941V25.4319H90.5518V16.0074C90.5518 9.83277 89.1003 6.97998 84.1668 6.97998Z" fill="#2F3130"/>
<path d="M108.542 20.5219V13.1922C108.542 8.82259 106.293 6.97998 102.157 6.97998C99.1829 6.97998 94.6121 8.02775 94.6121 8.02775L94.7576 11.5313C94.7576 11.5313 99.1467 11.2408 101.541 11.2408C102.992 11.2408 103.681 11.8915 103.681 13.1922V14.1304L99.7997 14.4185C95.8094 14.7075 93.4517 15.8633 93.4517 19.9432C93.4517 23.7709 95.265 25.8665 99.0743 25.8665C101.796 25.8665 104.407 24.6026 104.407 24.6026C105.931 25.6136 107.164 25.8665 109.594 25.8665L109.74 22.2181C108.724 22.038 108.615 21.5329 108.542 20.5219ZM103.681 21.352C103.681 21.352 101.324 21.8939 100.126 21.8939C98.8202 21.8939 98.349 21.0638 98.349 19.7999C98.349 18.4992 99.1105 17.886 100.38 17.778L103.681 17.489V21.352Z" fill="#2F3130"/>
<path d="M128.965 16.2611C128.965 9.32769 126.607 6.98077 121.818 6.98077C120.041 6.98077 117.72 8.24468 117.72 8.24468V7.4146H112.859V33.0153H117.72V25.5768C117.72 25.5768 119.389 25.8665 120.731 25.8665C126.281 25.8665 128.965 23.9518 128.965 16.2611ZM117.72 21.316V12.1084C117.72 12.1084 119.642 11.4224 120.875 11.4224C122.798 11.4224 124.031 12.6143 124.031 16.2611C124.031 20.0889 123.271 21.4961 120.369 21.4961C119.353 21.4961 117.72 21.316 117.72 21.316Z" fill="#2F3130"/>
<path d="M132.773 19.1492C132.773 24.3497 134.043 25.8298 137.997 25.8298C139.267 25.8298 141.697 25.3967 141.697 25.3967L141.516 22.4351C141.516 22.4351 139.448 22.616 138.432 22.616C136.365 22.616 136.183 21.605 136.183 18.3552V10.4836H141.516V7.41387H136.183V1.99725H132.773V7.41387H130.343V10.4836H132.773V19.1492Z" fill="#2F3130"/>
<path d="M151.419 7.01605C145.47 7.01605 143.438 10.2298 143.438 16.2604C143.438 22.4711 145.216 25.8297 151.419 25.8297C157.586 25.8297 159.327 22.3262 159.327 16.2604C159.327 10.3027 157.151 7.01605 151.419 7.01605ZM151.419 22.724C147.682 22.724 146.921 20.7381 146.921 16.2604C146.921 11.8187 147.937 10.0858 151.419 10.0858C154.648 10.0858 155.845 11.9636 155.845 16.2604C155.845 20.5572 155.156 22.724 151.419 22.724Z" fill="#2F3130"/>
<path d="M167.525 12.1084C167.525 12.1084 169.556 11.4945 170.754 11.4945C173.002 11.4945 173.293 12.9033 173.293 16.1539V25.4335H178.154V16.081C178.154 14.6731 178.009 12.1813 178.009 12.1813C178.009 12.1813 179.932 11.4945 181.382 11.4945C183.995 11.4945 183.922 13.4452 183.922 17.9949V25.4335H188.783V16.009C188.783 9.83436 187.332 6.98157 182.398 6.98157C180.44 6.98157 178.045 7.77562 176.195 8.4616C175.215 7.48744 173.802 6.98157 171.769 6.98157C171.262 6.98157 170.573 7.12487 169.955 7.30577C168.686 7.70279 167.489 8.28149 167.489 8.28149V7.41383H162.664V25.4335H167.525V12.1084Z" fill="#2F3130"/>
<path d="M197.523 7.41461H192.662V25.4335H197.523V7.41461Z" fill="#2F3130"/>
<path d="M197.523 0.119385H192.662V5.06693H197.523V0.119385Z" fill="#2F3130"/>
<path d="M214.608 21.0638H206.99L214.608 11.7474V7.37781H201.15V11.7474H208.768L201.15 21.0638V25.4327H214.608V21.0638Z" fill="#2F3130"/>
<path d="M225.092 6.98077C219.796 6.98077 217.075 10.2306 217.075 16.6582C217.075 23.157 219.396 25.8657 224.874 25.8657C228.248 25.8657 232.42 24.8548 232.42 24.8548L232.347 21.0991C232.347 21.0991 228.61 21.424 225.636 21.424C223.025 21.424 222.008 20.558 221.972 18.4992H232.637L233 15.1053C233 9.65267 230.424 6.98077 225.092 6.98077ZM221.936 14.7803C221.972 12.3974 222.77 11.2776 225.092 11.2776C227.377 11.2776 228.212 12.2165 228.212 14.7803H221.936Z" fill="#2F3130"/>
</svg>
