<svg width="201" height="29" viewBox="0 0 201 29" fill="none" xmlns="http://www.w3.org/2000/svg">
<path d="M23.5056 12.055C23.5056 13.6624 23.2393 15.0912 22.7067 16.52C22.174 17.8595 21.3751 19.1097 20.3986 20.0921C19.4221 21.0744 18.1794 21.8781 16.8478 22.5032C15.4275 23.039 13.9184 23.3962 12.2317 23.3962C10.5451 23.3962 8.94724 23.1283 7.61569 22.5032C6.19536 21.9674 5.04135 21.1637 3.9761 20.0921C2.99963 19.1097 2.2007 17.8595 1.66807 16.52C1.13545 15.1805 0.869141 13.6624 0.869141 12.055C0.869141 10.4476 1.13545 9.01884 1.66807 7.59004C2.2007 6.25053 2.99963 5.00033 3.9761 4.01803C4.95258 3.03573 6.19536 2.23203 7.61569 1.60693C9.03602 1.07113 10.5451 0.713928 12.2317 0.713928C13.9184 0.713928 15.5163 0.981829 16.8478 1.60693C18.2681 2.14273 19.4221 2.94643 20.3986 4.01803C21.3751 5.00033 22.174 6.25053 22.7067 7.59004C23.2393 9.01884 23.5056 10.4476 23.5056 12.055ZM18.2681 12.055C18.2681 10.9834 18.0906 10.0011 17.8243 9.10814C17.558 8.21514 17.1141 7.50074 16.5815 6.87564C16.0489 6.25053 15.4275 5.80403 14.6285 5.44683C13.8296 5.08963 13.0307 5.00033 12.0542 5.00033C11.0777 5.00033 10.19 5.17893 9.3911 5.44683C8.7697 5.80403 8.05954 6.33983 7.52692 6.87564C6.9943 7.41144 6.63921 8.21514 6.28413 9.10814C6.01782 10.0011 5.84028 10.9834 5.84028 12.055C5.84028 13.1266 6.01782 14.1089 6.28413 15.0019C6.55044 15.8949 6.9943 16.6093 7.52692 17.2344C8.05954 17.8595 8.68093 18.306 9.47987 18.5739C10.2788 18.9311 11.0777 19.0204 12.143 19.0204C13.1195 19.0204 14.0072 18.8418 14.7173 18.5739C15.5163 18.2167 16.1376 17.7702 16.6703 17.2344C17.2029 16.6986 17.558 15.8949 17.9131 15.0019C18.0906 14.1089 18.2681 13.1266 18.2681 12.055Z" fill="#303030"/>
<path d="M25.9028 28.0398V7.41146H28.7435C29.0098 7.41146 29.2761 7.50076 29.4536 7.59006C29.6312 7.67936 29.8087 7.94726 29.8975 8.21516L30.2526 9.37606C30.5189 9.01886 30.874 8.75096 31.2291 8.48306C31.5841 8.21516 31.9392 7.94726 32.3831 7.76866C32.7382 7.59006 33.182 7.41146 33.6259 7.32216C34.0697 7.23286 34.6023 7.14355 35.135 7.14355C35.9339 7.14355 36.7328 7.32216 37.3542 7.67936C38.0644 8.03656 38.597 8.57236 39.1296 9.28676C39.6622 10.0012 40.0173 10.8049 40.2836 11.7872C40.5499 12.7695 40.7275 13.9304 40.7275 15.1806C40.7275 16.3415 40.5499 17.4131 40.2836 18.4847C39.9286 19.467 39.4847 20.36 38.9521 21.0744C38.4195 21.7888 37.7093 22.4139 36.8216 22.7711C36.0227 23.2176 35.135 23.3962 34.0697 23.3962C33.2708 23.3962 32.5606 23.3069 32.028 23.039C31.4954 22.7711 30.9627 22.5032 30.5189 22.146V28.1291H25.9028V28.0398ZM33.5371 10.7156C33.182 10.7156 32.9157 10.7156 32.6494 10.8049C32.3831 10.8942 32.1168 10.9835 31.8504 11.0728C31.5841 11.1621 31.4066 11.3407 31.2291 11.5193C31.0515 11.6979 30.7852 11.8765 30.6077 12.1444V18.8419C30.9627 19.1991 31.3178 19.467 31.7617 19.6456C32.2055 19.8242 32.5606 19.9135 33.0932 19.9135C33.5371 19.9135 33.8922 19.8242 34.2472 19.6456C34.6023 19.467 34.9574 19.1991 35.2237 18.8419C35.49 18.4847 35.6676 17.9489 35.8451 17.4131C36.0227 16.788 36.1114 16.0736 36.1114 15.1806C36.1114 14.3769 36.0227 13.6625 35.9339 13.1267C35.8451 12.5909 35.6676 12.1444 35.4013 11.7872C35.2237 11.43 34.9574 11.1621 34.6023 11.0728C34.2472 10.8049 33.8922 10.7156 33.5371 10.7156Z" fill="#303030"/>
<path d="M48.7163 23.3069C48.0061 23.3069 47.2959 23.2176 46.7633 22.9497C46.2307 22.7711 45.6981 22.4139 45.343 22.0567C44.9879 21.6995 44.6328 21.1637 44.4553 20.6279C44.2778 20.0921 44.189 19.467 44.189 18.7526V10.6263H42.8574C42.5911 10.6263 42.4136 10.537 42.236 10.3584C42.0585 10.1798 41.9697 10.0012 41.9697 9.64398V7.85798L44.4553 7.41148L45.343 3.57158C45.4318 3.12508 45.7869 2.85718 46.4082 2.85718H48.805V7.41148H52.6222V10.6263H48.805V18.3954C48.805 18.7526 48.8938 19.0205 49.0714 19.2884C49.2489 19.5563 49.5152 19.6456 49.8703 19.6456C50.0478 19.6456 50.2254 19.6456 50.3141 19.5563C50.4029 19.5563 50.4917 19.467 50.5805 19.467C50.6692 19.3777 50.758 19.3777 50.8468 19.3777C50.9355 19.3777 51.0243 19.2884 51.1131 19.2884C51.2906 19.2884 51.3794 19.2884 51.4682 19.3777C51.5569 19.467 51.6457 19.5563 51.7345 19.6456L53.1548 21.8781C52.5334 22.3246 51.912 22.6818 51.1131 22.8604C50.3141 23.2176 49.5152 23.3069 48.7163 23.3069Z" fill="#303030"/>
<path d="M60.6116 3.12505C60.6116 3.48225 60.5228 3.83945 60.3453 4.19665C60.1677 4.55385 59.9902 4.82176 59.7239 5.08966C59.4576 5.35756 59.1912 5.53616 58.8362 5.71476C58.4811 5.89336 58.126 5.89336 57.7709 5.89336C57.4158 5.89336 57.0608 5.80406 56.7057 5.71476C56.3506 5.53616 56.0843 5.35756 55.818 5.08966C55.5517 4.82176 55.3741 4.55385 55.1966 4.19665C55.019 3.83945 55.019 3.48225 55.019 3.12505C55.019 2.76785 55.1078 2.41065 55.1966 2.05345C55.3741 1.69625 55.5517 1.42835 55.818 1.16045C56.0843 0.892551 56.3506 0.713951 56.7057 0.535351C57.0608 0.35675 57.4158 0.35675 57.7709 0.35675C58.126 0.35675 58.5699 0.44605 58.8362 0.535351C59.1912 0.713951 59.4576 0.892551 59.7239 1.16045C59.9902 1.42835 60.1677 1.69625 60.3453 2.05345C60.5228 2.41065 60.6116 2.76785 60.6116 3.12505ZM60.0789 7.41146V23.039H55.4629V7.41146H60.0789Z" fill="#303030"/>
<path d="M75.0807 11.1621C74.9031 11.3407 74.8144 11.43 74.6368 11.6086C74.5481 11.6979 74.2817 11.7872 74.1042 11.7872C73.8379 11.7872 73.6604 11.6979 73.4828 11.6086C73.3053 11.5193 73.1277 11.3407 72.8614 11.2514C72.5951 11.0728 72.3288 10.9835 72.0625 10.8942C71.7962 10.8049 71.3523 10.7156 70.9085 10.7156C70.3759 10.7156 69.8432 10.8049 69.3994 11.0728C68.9555 11.2514 68.6004 11.6086 68.3341 11.9658C68.0678 12.323 67.8903 12.8588 67.7127 13.3946C67.5352 13.9304 67.5352 14.6448 67.5352 15.3592C67.5352 16.8773 67.8015 18.0382 68.4229 18.8419C68.9555 19.6456 69.7545 20.0921 70.8197 20.0921C71.3523 20.0921 71.7962 20.0028 72.0625 19.9135C72.4176 19.7349 72.6839 19.6456 72.8614 19.467C73.039 19.2884 73.3053 19.1098 73.4828 19.0205C73.6604 18.8419 73.9267 18.8419 74.193 18.8419C74.5481 18.8419 74.8144 19.0205 74.9919 19.2884L76.4122 20.6279C75.9684 21.1637 75.4358 21.6102 74.9031 21.9674C74.3705 22.3246 73.8379 22.5925 73.3053 22.7711C72.7727 22.9497 72.1513 23.1283 71.6186 23.2176C70.9972 23.3069 70.4646 23.3069 69.932 23.3069C68.9555 23.3069 68.0678 23.1283 67.1801 22.7711C66.2924 22.4139 65.5823 21.8781 64.8721 21.1637C64.1619 20.4493 63.7181 19.6456 63.2742 18.574C62.9191 17.5917 62.6528 16.4308 62.6528 15.0913C62.6528 13.9304 62.8304 12.9481 63.1855 11.9658C63.5405 10.9835 63.9844 10.0905 64.6946 9.37606C65.3159 8.66166 66.2036 8.12586 67.0913 7.67936C68.0678 7.23286 69.1331 7.05426 70.4646 7.05426C71.7074 7.05426 72.7727 7.23286 73.6604 7.67936C74.5481 8.03656 75.4358 8.66166 76.1459 9.37606L75.0807 11.1621Z" fill="#303030"/>
<path d="M83.78 3.12505C83.78 3.48225 83.6913 3.83945 83.5137 4.19665C83.3362 4.55385 83.1586 4.82176 82.8923 5.08966C82.626 5.35756 82.3597 5.53616 82.0046 5.71476C81.6495 5.89336 81.2945 5.89336 80.9394 5.89336C80.5843 5.89336 80.2292 5.80406 79.8741 5.71476C79.5191 5.53616 79.2527 5.35756 78.9864 5.08966C78.7201 4.82176 78.5426 4.55385 78.365 4.19665C78.2763 3.83945 78.1875 3.48225 78.1875 3.12505C78.1875 2.76785 78.2763 2.41065 78.365 2.05345C78.5426 1.69625 78.7201 1.42835 78.9864 1.16045C79.2527 0.892551 79.5191 0.713951 79.8741 0.535351C80.2292 0.35675 80.5843 0.35675 80.9394 0.35675C81.2945 0.35675 81.7383 0.44605 82.0046 0.535351C82.3597 0.713951 82.626 0.892551 82.8923 1.16045C83.1586 1.42835 83.3362 1.69625 83.5137 2.05345C83.6913 2.41065 83.78 2.76785 83.78 3.12505ZM83.2474 7.41146V23.039H78.6314V7.41146H83.2474Z" fill="#303030"/>
<path d="M93.6346 7.14355C94.6998 7.14355 95.5875 7.32215 96.4752 7.59006C97.3629 7.94726 98.0731 8.39376 98.6945 9.01886C99.3159 9.64396 99.7597 10.3584 100.115 11.2514C100.47 12.1444 100.647 13.1267 100.647 14.2876C100.647 14.6448 100.647 14.9127 100.559 15.1806C100.559 15.3592 100.47 15.5378 100.381 15.7164C100.292 15.895 100.204 15.895 100.026 15.9843C99.8485 16.0736 99.7597 16.0736 99.4934 16.0736H90.6164C90.7939 17.4131 91.149 18.3061 91.7704 18.9312C92.3918 19.5563 93.2795 19.8242 94.2559 19.8242C94.7886 19.8242 95.2324 19.7349 95.6763 19.6456C96.1201 19.5563 96.3864 19.3777 96.7415 19.1991C97.0078 19.0205 97.3629 18.9312 97.5404 18.7526C97.718 18.574 98.0731 18.574 98.3394 18.574C98.6945 18.574 98.9608 18.7526 99.1383 19.0205L100.47 20.7172C100.026 21.253 99.4934 21.6995 98.872 22.0567C98.2506 22.4139 97.718 22.6818 97.1854 22.8604C96.564 23.039 96.0314 23.2176 95.41 23.3069C94.7886 23.3962 94.2559 23.3962 93.7233 23.3962C92.6581 23.3962 91.5928 23.2176 90.6164 22.8604C89.6399 22.5032 88.8409 21.9674 88.1308 21.253C87.4206 20.5386 86.888 19.6456 86.4442 18.6633C86.0003 17.5917 85.8228 16.4308 85.8228 15.002C85.8228 13.9304 86.0003 12.9481 86.3554 12.0551C86.7105 11.1621 87.2431 10.2691 87.8645 9.55466C88.5746 8.84026 89.3736 8.30446 90.2613 7.85796C91.4153 7.41146 92.4805 7.14355 93.6346 7.14355ZM93.7233 10.3584C92.8356 10.3584 92.1255 10.6263 91.5928 11.1621C91.0602 11.6979 90.7939 12.4123 90.6164 13.3946H96.3864C96.3864 13.0374 96.2977 12.6802 96.2089 12.323C96.1201 11.9658 95.9426 11.6979 95.765 11.3407C95.5875 11.0728 95.2324 10.8049 94.8773 10.6263C94.6998 10.4477 94.2559 10.3584 93.7233 10.3584Z" fill="#303030"/>
<path d="M103.309 23.039V7.41146H106.15C106.416 7.41146 106.682 7.50076 106.86 7.59006C107.037 7.67936 107.215 7.94726 107.304 8.21516L107.57 9.10816C107.836 8.84026 108.191 8.57236 108.458 8.30446C108.813 8.03656 109.079 7.85796 109.523 7.67936C109.878 7.50076 110.322 7.41146 110.677 7.32216C111.121 7.23286 111.565 7.14355 112.097 7.14355C112.985 7.14355 113.695 7.32215 114.317 7.59006C114.938 7.85796 115.559 8.30446 116.003 8.84026C116.447 9.37606 116.802 10.0012 117.068 10.7156C117.335 11.43 117.424 12.2337 117.424 13.1267V23.039H112.808V13.1267C112.808 12.323 112.63 11.7872 112.275 11.3407C111.92 10.8942 111.387 10.7156 110.766 10.7156C110.233 10.7156 109.789 10.8049 109.345 11.0728C108.902 11.3407 108.458 11.6086 108.014 11.9658V23.1283H103.309V23.039Z" fill="#303030"/>
<path d="M138.729 5.53618C138.551 5.80408 138.462 5.98268 138.285 6.07198C138.107 6.16128 137.93 6.25058 137.664 6.25058C137.397 6.25058 137.22 6.16128 136.953 6.07198C136.687 5.98268 136.421 5.80408 136.066 5.62548C135.711 5.44688 135.355 5.26828 134.912 5.08968C134.468 4.91108 134.024 4.91108 133.403 4.91108C132.426 4.91108 131.716 5.08968 131.272 5.53618C130.828 5.98268 130.562 6.51848 130.562 7.23289C130.562 7.67939 130.739 8.03659 131.006 8.30449C131.272 8.57239 131.627 8.84029 132.071 9.01889C132.515 9.19749 133.047 9.46539 133.669 9.64399C134.29 9.82259 134.823 10.0012 135.444 10.2691C136.066 10.4477 136.687 10.7156 137.22 11.0728C137.841 11.3407 138.285 11.6979 138.818 12.2337C139.261 12.6802 139.616 13.216 139.883 13.9304C140.149 14.5555 140.327 15.3592 140.327 16.2522C140.327 17.2345 140.149 18.2168 139.794 19.1098C139.439 20.0028 138.906 20.8065 138.285 21.4316C137.575 22.0567 136.776 22.5925 135.799 22.9497C134.823 23.3069 133.758 23.4855 132.515 23.4855C131.805 23.4855 131.183 23.3962 130.473 23.3069C129.763 23.1283 129.053 22.9497 128.431 22.6818C127.81 22.4139 127.189 22.146 126.567 21.7888C125.946 21.4316 125.502 21.0744 125.058 20.6279L126.567 18.2168C126.656 18.0382 126.834 17.8596 127.011 17.7703C127.189 17.681 127.455 17.5917 127.632 17.5917C127.899 17.5917 128.254 17.681 128.52 17.8596C128.786 18.0382 129.142 18.3061 129.585 18.4847C129.94 18.7526 130.384 18.9312 130.917 19.1098C131.45 19.2884 131.982 19.3777 132.692 19.3777C133.58 19.3777 134.29 19.1991 134.823 18.7526C135.355 18.3061 135.622 17.681 135.622 16.788C135.622 16.2522 135.444 15.895 135.178 15.5378C134.912 15.1806 134.557 14.9127 134.113 14.7341C133.669 14.5555 133.136 14.3769 132.515 14.1983C131.893 14.0197 131.361 13.8411 130.739 13.6625C130.118 13.4839 129.497 13.216 128.964 12.9481C128.431 12.6802 127.899 12.323 127.366 11.7872C126.922 11.3407 126.567 10.7156 126.301 10.0012C126.035 9.28679 125.857 8.39379 125.857 7.41149C125.857 6.60778 126.035 5.80408 126.39 5.00038C126.745 4.19668 127.189 3.48228 127.81 2.85718C128.431 2.23208 129.23 1.78558 130.207 1.42838C131.094 1.07118 132.249 0.892578 133.403 0.892578C134.113 0.892578 134.734 0.981878 135.355 1.07118C135.977 1.16048 136.598 1.33908 137.131 1.51768C137.664 1.69628 138.196 1.96418 138.729 2.23208C139.261 2.49998 139.705 2.85718 140.06 3.21438L138.729 5.53618Z" fill="#303030"/>
<path d="M163.229 23.039H159.323C158.879 23.039 158.524 22.9497 158.258 22.7711C157.992 22.5925 157.814 22.3246 157.637 21.9674L156.305 18.1275H147.961L146.629 21.9674C146.54 22.2353 146.363 22.5032 146.008 22.7711C145.653 23.039 145.386 23.1283 144.942 23.1283H140.948L149.381 1.16046H154.618L163.229 23.039ZM149.115 14.6448H155.062L153.021 8.57237C152.932 8.21517 152.754 7.76867 152.577 7.23287C152.399 6.69707 152.222 6.16127 152.044 5.53617C151.867 6.16127 151.689 6.69707 151.511 7.23287C151.334 7.76867 151.156 8.21517 151.068 8.57237L149.115 14.6448Z" fill="#303030"/>
<path d="M185.334 23.039H181.428C180.984 23.039 180.629 22.9497 180.363 22.7711C180.097 22.5925 179.919 22.3246 179.742 21.9674L178.41 18.1275H170.066L168.734 21.9674C168.645 22.2353 168.468 22.5032 168.113 22.7711C167.758 23.039 167.491 23.1283 167.047 23.1283H163.053L171.486 1.16046H176.723L185.334 23.039ZM171.308 14.6448H177.256L175.214 8.57237C175.125 8.21517 174.948 7.76867 174.77 7.23287C174.593 6.69707 174.415 6.16127 174.238 5.53617C174.06 6.16127 173.883 6.69707 173.705 7.23287C173.528 7.76867 173.35 8.21517 173.261 8.57237L171.308 14.6448Z" fill="#303030"/>
<path d="M199.271 5.53618C199.094 5.80408 199.005 5.98268 198.827 6.07198C198.65 6.16128 198.472 6.25058 198.206 6.25058C197.94 6.25058 197.762 6.16128 197.496 6.07198C197.229 5.98268 196.963 5.80408 196.608 5.62548C196.253 5.44688 195.898 5.26828 195.454 5.08968C195.01 4.91108 194.566 4.91108 193.945 4.91108C192.969 4.91108 192.258 5.08968 191.815 5.53618C191.371 5.98268 191.104 6.51848 191.104 7.23289C191.104 7.67939 191.282 8.03659 191.548 8.30449C191.815 8.57239 192.17 8.84029 192.613 9.01889C193.057 9.19749 193.59 9.46539 194.211 9.64399C194.833 9.82259 195.365 10.0012 195.987 10.2691C196.608 10.4477 197.229 10.7156 197.762 11.0728C198.384 11.3407 198.827 11.6979 199.36 12.2337C199.804 12.6802 200.159 13.216 200.425 13.9304C200.692 14.5555 200.869 15.3592 200.869 16.2522C200.869 17.2345 200.692 18.2168 200.336 19.1098C199.981 20.0028 199.449 20.8065 198.827 21.4316C198.117 22.0567 197.318 22.5925 196.342 22.9497C195.365 23.3069 194.3 23.4855 193.057 23.4855C192.347 23.4855 191.726 23.3962 191.016 23.3069C190.305 23.1283 189.595 22.9497 188.974 22.6818C188.352 22.4139 187.731 22.146 187.11 21.7888C186.488 21.4316 186.044 21.0744 185.601 20.6279L187.11 18.2168C187.198 18.0382 187.376 17.8596 187.554 17.7703C187.731 17.681 187.997 17.5917 188.175 17.5917C188.441 17.5917 188.796 17.681 189.063 17.8596C189.329 18.0382 189.684 18.3061 190.128 18.4847C190.483 18.7526 190.927 18.9312 191.459 19.1098C191.992 19.2884 192.525 19.3777 193.235 19.3777C194.123 19.3777 194.833 19.1991 195.365 18.7526C195.898 18.3061 196.164 17.681 196.164 16.788C196.164 16.2522 195.987 15.895 195.72 15.5378C195.454 15.1806 195.099 14.9127 194.655 14.7341C194.211 14.5555 193.679 14.3769 193.057 14.1983C192.436 14.0197 191.903 13.8411 191.282 13.6625C190.66 13.4839 190.039 13.216 189.506 12.9481C188.974 12.6802 188.441 12.323 187.909 11.7872C187.465 11.3407 187.11 10.7156 186.843 10.0012C186.577 9.28679 186.4 8.39379 186.4 7.41149C186.4 6.60778 186.577 5.80408 186.932 5.00038C187.287 4.19668 187.731 3.48228 188.352 2.85718C188.974 2.23208 189.773 1.78558 190.749 1.42838C191.637 1.07118 192.791 0.892578 193.945 0.892578C194.655 0.892578 195.277 0.981878 195.898 1.07118C196.519 1.16048 197.141 1.33908 197.673 1.51768C198.206 1.69628 198.739 1.96418 199.271 2.23208C199.804 2.49998 200.248 2.85718 200.603 3.21438L199.271 5.53618Z" fill="#303030"/>
</svg>
