<svg width="200" height="68" viewBox="0 0 200 68" fill="none" xmlns="http://www.w3.org/2000/svg">
<path d="M53.1699 42.36L64.9899 45.78V58.76L53.1699 61.6V42.36Z" fill="#303030"/>
<path d="M11.82 32.8L0 36.9V58.76L11.82 63.06V32.8Z" fill="#303030"/>
<path d="M25.11 15.72L13.29 21.18V63.6L25.11 67.91V15.72Z" fill="#303030"/>
<path d="M38.3998 0L26.5898 6.83V68L38.3998 65.16V0Z" fill="#303030"/>
<path d="M39.8799 25.28L51.6999 30.07V61.95L39.8799 64.8V25.28Z" fill="#303030"/>
<path d="M73.6099 58.77V58L75.0099 57.85C75.3199 57.8 75.3699 57.74 75.3699 57.41V44.08C75.3699 43.75 75.3199 43.66 75.0099 43.64L73.6099 43.48V42.73H79.9999C84.0999 42.73 85.3399 44.9 85.3399 47.45C85.3399 51.22 83.0099 52.52 79.2699 52.52H76.4099V57.37C76.4099 57.73 76.4099 57.82 76.7599 57.82L79.9299 57.99V58.77H73.6099ZM79.3099 51.61C82.0999 51.61 84.1899 50.95 84.1899 47.45C84.1899 44.97 82.9199 43.64 79.6899 43.64H76.4099V51.64L79.3099 51.61Z" fill="#303030"/>
<path d="M87.6301 58.77V58L88.8201 57.87C89.1301 57.82 89.1801 57.76 89.1801 57.43V49.11C89.1801 48.87 89.1101 48.71 88.8901 48.65L87.5801 48.22L87.7401 47.52H90.0001L90.2001 49C91.1173 48.0542 92.3392 47.4627 93.6501 47.33C94.1072 47.3336 94.5616 47.401 95.0001 47.53V50.37L94.2101 50.3L93.9001 48.49C93.9001 48.35 93.9001 48.31 93.6301 48.31C92.3425 48.4579 91.1487 49.0566 90.2601 50V57.38C90.2601 57.73 90.2601 57.75 90.6201 57.82L92.6201 57.95V58.73L87.6301 58.77Z" fill="#303030"/>
<path d="M97.2002 53.12C97.2002 49.69 98.8902 47.29 102.5 47.29C106.11 47.29 107.44 49.66 107.44 52.94C107.44 56.62 105.83 59.04 102.28 59.04C98.7302 59.04 97.2002 56.55 97.2002 53.12ZM106.31 53.12C106.31 49.98 105.09 48.22 102.46 48.22C99.8302 48.22 98.3102 50 98.3102 53.14C98.3102 56.28 99.6902 58.14 102.31 58.14C104.93 58.14 106.31 56.31 106.31 53.12Z" fill="#303030"/>
<path d="M109.33 63.47V62.67L110.26 62.54C110.57 62.54 110.62 62.42 110.62 62.09V49.09C110.62 48.85 110.55 48.69 110.33 48.63L109 48.22L109.16 47.52H111.4L111.57 48.91C112.81 47.9537 114.307 47.3896 115.87 47.29C117.71 47.29 119.95 48.11 119.95 52.92C119.95 55.8 119.09 59.04 115.28 59.04C113.966 59.0085 112.704 58.5206 111.71 57.66V62.11C111.71 62.47 111.71 62.54 112.06 62.56L113.99 62.69V63.47H109.33ZM111.73 56.47C112.676 57.4582 113.972 58.0362 115.34 58.08C117.93 58.08 118.86 56.08 118.86 52.83C118.86 49.24 117.53 48.27 115.65 48.27C114.216 48.405 112.853 48.9578 111.73 49.86V56.47Z" fill="#303030"/>
<path d="M135.78 57.84C134.11 58.6998 132.247 59.1132 130.37 59.04C124.92 59.04 122.71 55.69 122.71 50.66C122.71 45.94 125.39 42.44 130.8 42.44C132.526 42.3959 134.233 42.8173 135.74 43.66V47.54L133.85 47.41L133.48 45.26C133.481 45.1703 133.451 45.0829 133.394 45.0133C133.338 44.9438 133.258 44.8966 133.17 44.88C132.365 44.6202 131.526 44.4853 130.68 44.48C127.47 44.48 125.41 46.61 125.41 50.66C125.41 54.89 127.41 57.02 130.53 57.02C131.461 57.049 132.391 56.9206 133.28 56.64C133.5 56.58 133.59 56.51 133.63 56.22L133.99 54.22H135.78V57.84Z" fill="#303030"/>
<path d="M147.47 58C146.153 58.6658 144.696 59.0086 143.22 59C139.09 59 137.74 56.36 137.74 53C137.74 49 140.07 47.1 142.97 47.1C145.87 47.1 147.67 48.59 147.67 52.44C147.668 52.8709 147.645 53.3014 147.6 53.73H140.44C140.56 55.79 141.35 57.01 143.5 57.01C144.631 56.9925 145.744 56.7262 146.76 56.23L147.47 58ZM145.12 51.89C145.12 49.72 144.12 49.03 142.93 49.03C141.74 49.03 140.58 49.87 140.47 51.89H145.12Z" fill="#303030"/>
<path d="M156.41 58.77V57.37L157.52 57.24C157.83 57.24 157.87 57.06 157.87 56.8V51.66C157.87 50.33 157.72 49.22 156.3 49.22C155.21 49.3061 154.168 49.7054 153.3 50.37V56.75C153.3 57.11 153.3 57.15 153.66 57.2L154.83 57.35V58.77H149.3V57.33L150.36 57.2C150.67 57.15 150.72 57.09 150.72 56.75V49.62C150.72 49.38 150.65 49.22 150.43 49.16L149.21 48.73L149.43 47.32H152.71L152.89 48.53H152.98C154.174 47.6218 155.621 47.1081 157.12 47.06C159.51 47.06 160.42 48.57 160.42 51.12V56.72C160.42 57.08 160.42 57.12 160.78 57.17L162 57.32V58.74L156.41 58.77Z" fill="#303030"/>
<path d="M170.57 58.26C169.543 58.7455 168.426 59.0111 167.29 59.04C164.96 59.04 163.99 58.04 163.99 55.82V49.35C163.99 49.22 163.99 49.13 163.81 49.13H162.21V47.56C163.94 47.34 164.63 46.16 164.92 44.22H166.53V47.09C166.53 47.25 166.53 47.32 166.71 47.32H169.92V49.13H166.53V55.13C166.53 56.5 166.89 57.01 168.13 57.01C168.788 56.9864 169.439 56.8616 170.06 56.64L170.57 58.26Z" fill="#303030"/>
<path d="M172.18 58.77V57.33L173.25 57.2C173.56 57.15 173.6 57.09 173.6 56.75V49.62C173.616 49.5211 173.596 49.4198 173.542 49.335C173.489 49.2503 173.406 49.188 173.31 49.16L172.09 48.73L172.32 47.32H175.62L175.86 48.93H175.93C176.285 48.3815 176.767 47.9258 177.334 47.6006C177.901 47.2753 178.537 47.09 179.19 47.06C179.769 47.0652 180.345 47.1322 180.91 47.26V50.9L178.91 50.81L178.64 49.43C178.64 49.24 178.58 49.19 178.38 49.19C177.526 49.3144 176.738 49.7189 176.14 50.34V56.7C176.14 57.06 176.14 57.12 176.52 57.14L178.6 57.32V58.74L172.18 58.77Z" fill="#303030"/>
<path d="M189.45 58.77L189.23 57.46H189.17C188.661 57.975 188.053 58.3822 187.383 58.6571C186.713 58.932 185.994 59.069 185.27 59.06C182.47 59.06 182.1 57.15 182.1 55.91C182.1 53.69 183.47 52.63 186.17 52.41L188.99 52.19V51C188.99 49.6 188.75 48.85 186.99 48.85C185.77 48.85 184.99 48.94 184.99 50.47L182.6 50.24C182.6 47.41 185.19 47.05 187.07 47.05C190.29 47.05 191.48 47.96 191.48 51.05V56.74C191.48 57.1 191.48 57.14 191.84 57.19L192.92 57.34V58.76L189.45 58.77ZM188.99 53.77L186.88 53.94C185.22 54.1 184.71 54.56 184.71 55.63C184.71 56.7 185.22 57.04 186.13 57.04C187.217 56.9759 188.24 56.5088 189 55.73L188.99 53.77Z" fill="#303030"/>
<path d="M194.24 58.77V57.37L195.5 57.2C195.81 57.15 195.86 57.09 195.86 56.75V44.35C195.86 44.1 195.79 43.95 195.57 43.88L194.3 43.46L194.53 42.04H198.4V56.75C198.4 57.11 198.4 57.15 198.76 57.2L200 57.35V58.77H194.24Z" fill="#303030"/>
</svg>
