<svg width="186" height="49" viewBox="0 0 186 49" fill="none" xmlns="http://www.w3.org/2000/svg">
<path d="M12.327 20.455H7.77152V31.2696H0.320312V0.955139H12.327C19.0543 0.955139 22.6734 5.72382 22.6734 10.7051C22.6728 15.6875 19.0549 20.455 12.327 20.455ZM11.9863 7.63932H7.77093V13.7702H11.9863C14.0294 13.7702 15.2221 12.2805 15.2221 10.7051C15.2221 9.12968 14.03 7.63932 11.9863 7.63932Z" fill="#303030"/>
<path d="M42.3442 31.2707L36.9797 19.9879H34.4678V31.2707H27.0166V0.955139H39.0233C45.7506 0.955139 49.3691 5.72382 49.3691 10.7051C49.3691 14.8349 46.8147 17.4324 44.4303 18.6245L50.987 31.2702L42.3442 31.2707ZM38.6814 7.63932H34.4666V13.7702H38.682C40.7257 13.7702 41.9178 12.2805 41.9178 10.7051C41.9178 9.12968 40.7251 7.63932 38.6814 7.63932Z" fill="#303030"/>
<path d="M73.8083 28.12C71.594 30.3337 69.0396 31.5258 65.3356 31.5258C61.6315 31.5258 59.0765 30.3337 56.8628 28.12C53.6695 24.9267 53.7971 20.6688 53.7971 16.1132C53.7971 11.5577 53.6695 7.2998 56.8628 4.10592C59.0765 1.89163 61.6315 0.699463 65.3356 0.699463C69.0396 0.699463 71.5946 1.89163 73.8083 4.10592C77.0022 7.29921 76.874 11.5571 76.874 16.1132C76.874 20.6682 77.0016 24.9267 73.8083 28.12ZM68.3157 8.66143C67.7618 7.93751 66.6978 7.34172 65.335 7.34172C63.9722 7.34172 62.9087 7.93751 62.3548 8.66143C61.6734 9.55601 61.2477 10.5775 61.2477 16.1126C61.2477 21.6478 61.6734 22.6274 62.3548 23.5208C62.9087 24.2447 63.9722 24.8836 65.335 24.8836C66.6978 24.8836 67.7618 24.2447 68.3157 23.5208C68.9965 22.6268 69.4228 21.6472 69.4228 16.1126C69.4228 10.5775 68.9971 9.55541 68.3157 8.66143Z" fill="#303030"/>
<path d="M94.0743 31.2707H88.5392L78.5342 0.955139H86.2405L91.3493 17.9018L96.3736 0.955139H104.124L94.0743 31.2707Z" fill="#303030"/>
<path d="M122.645 31.2707L121.239 26.7577H111.914L110.426 31.2707H102.634L113.662 0.955139H119.408L130.436 31.2707H122.645ZM116.727 12.4517L114.002 20.5412H119.28L116.727 12.4517Z" fill="#303030"/>
<path d="M152.916 28.2888C150.829 30.375 147.892 31.2696 144.742 31.2696H133.502V0.955139H144.742C147.892 0.955139 150.829 1.84912 152.916 3.93586C156.448 7.46927 156.067 11.3434 156.067 16.1126C156.067 20.8807 156.45 24.7554 152.916 28.2888ZM147.806 9.30033C147.125 8.27881 146.103 7.59681 144.23 7.59681H140.951V24.6273H144.23C146.103 24.6273 147.125 23.9465 147.806 22.9244C148.404 22.0735 148.616 21.264 148.616 16.1121C148.616 11.0033 148.404 10.1518 147.806 9.30033Z" fill="#303030"/>
<path d="M177.739 31.2707L176.333 26.7577H167.009L165.52 31.2707H157.728L168.756 0.955139H174.504L185.532 31.2707H177.739ZM171.821 12.4517L169.095 20.5412H174.376L171.821 12.4517Z" fill="#303030"/>
<path d="M3.59541 40.9986V48.2714H2.31821V40.9986H0V39.8513H5.91361V40.9986H3.59541Z" fill="#303030"/>
<path d="M12.0626 48.2711V44.5924H8.64439V48.2711H7.36719V39.8497H8.64439V43.4445H12.0626V39.8497H13.3398V48.2711H12.0626Z" fill="#303030"/>
<path d="M15.5396 48.2711V39.8497H20.9211V40.9964H16.8167V43.4564H20.3177V44.5918H16.8167V47.1232H20.9211V48.2705H15.5396V48.2711Z" fill="#303030"/>
<path d="M30.158 48.2711L28.3842 44.7229H26.7876V48.2711H25.5098V39.8497H28.7739C30.3706 39.8497 31.388 40.8789 31.388 42.3097C31.388 43.5154 30.6546 44.2848 29.7086 44.5446L31.6483 48.2711H30.158ZM28.6794 40.9982H26.787V43.6353H28.6794C29.5309 43.6353 30.1102 43.1511 30.1102 42.3221C30.1102 41.493 29.5309 40.9982 28.6794 40.9982Z" fill="#303030"/>
<path d="M33.2573 48.2711V39.8497H38.6383V40.9964H34.5345V43.4564H38.0355V44.5918H34.5345V47.1232H38.6383V48.2705H33.2573V48.2711Z" fill="#303030"/>
<path d="M45.2253 48.2711L44.646 46.5794H41.324L40.7441 48.2711H39.3843L42.4713 39.8497H43.4999L46.5869 48.2711H45.2253ZM43.0139 41.7546L41.7013 45.4923H44.2911L43.0139 41.7546Z" fill="#303030"/>
<path d="M47.7808 48.2711V39.8497H49.058V47.1232H53.1145V48.2705H47.7808V48.2711Z" fill="#303030"/>
<path d="M57.4072 48.2711V39.8497H62.7882V40.9964H58.6844V43.4564H62.1854V44.5918H58.6844V47.1232H62.7882V48.2705H57.4072V48.2711Z" fill="#303030"/>
<path d="M66.7741 48.342C65.5087 48.342 64.5982 48.0461 63.7939 47.2295L64.6448 46.3899C65.2601 47.0051 65.9344 47.1941 66.7977 47.1941C67.8972 47.1941 68.5361 46.7205 68.5361 45.9051C68.5361 45.5378 68.4298 45.2302 68.2048 45.0288C67.9922 44.8286 67.7791 44.746 67.2825 44.6745L66.2893 44.5328C65.6032 44.4377 65.0593 44.2016 64.6921 43.8579C64.2781 43.4676 64.0774 42.9356 64.0774 42.2494C64.0774 40.7827 65.142 39.7777 66.8922 39.7777C68.004 39.7777 68.7846 40.0611 69.5056 40.7355L68.6902 41.5397C68.17 41.0425 67.5665 40.8884 66.8567 40.8884C65.8636 40.8884 65.3191 41.4564 65.3191 42.2022C65.3191 42.5093 65.4136 42.7809 65.6386 42.9828C65.8518 43.1712 66.1948 43.3141 66.5851 43.3719L67.5429 43.5136C68.3229 43.6323 68.761 43.8213 69.1159 44.1407C69.5771 44.5434 69.8014 45.1463 69.8014 45.8679C69.8014 47.4196 68.5361 48.342 66.7741 48.342Z" fill="#303030"/>
<path d="M74.3668 40.9982V48.2711H73.0896V40.9982H70.772V39.8509H76.6856V40.9982H74.3668Z" fill="#303030"/>
<path d="M82.2674 48.2711L81.6881 46.5794H78.3649L77.7857 48.2711H76.4258L79.5122 39.8497H80.5414L83.6284 48.2711H82.2674ZM80.056 41.7546L78.7434 45.4923H81.3332L80.056 41.7546Z" fill="#303030"/>
<path d="M86.962 40.9982V48.2711H85.6848V40.9982H83.3672V39.8509H89.2808V40.9982H86.962Z" fill="#303030"/>
<path d="M90.7354 48.2711V39.8497H96.1164V40.9964H92.0126V43.4564H95.5135V44.5918H92.0126V47.1232H96.1164V48.2705H90.7354V48.2711Z" fill="#303030"/>
<path d="M106.855 48.2711V42.6409L104.916 46.7447H103.969L101.981 42.6409V48.2711H100.704V39.8497H101.981L104.44 45.089L106.855 39.8497H108.131V48.2711H106.855Z" fill="#303030"/>
<path d="M110.32 48.2711V39.8497H115.702V40.9964H111.598V43.4564H115.099V44.5918H111.598V47.1232H115.702V48.2705H110.32V48.2711Z" fill="#303030"/>
<path d="M117.453 48.2711V39.8497H122.833V40.9964H118.729V43.4564H122.23V44.5918H118.729V47.1232H122.833V48.2705H117.453V48.2711Z" fill="#303030"/>
<path d="M127.434 40.9982V48.2711H126.157V40.9982H123.839V39.8509H129.752V40.9982H127.434Z" fill="#303030"/>
<path d="M131.207 48.2711V39.8497H132.485V48.2711H131.207Z" fill="#303030"/>
<path d="M139.851 48.2711L135.96 42.3451V48.2711H134.684V39.8497H135.852L139.745 45.7633V39.8497H141.022V48.2711H139.851Z" fill="#303030"/>
<path d="M148.26 47.3836C147.622 48.0579 146.829 48.3419 145.942 48.3419C145.069 48.3419 144.31 48.0219 143.731 47.4427C142.903 46.6154 142.915 45.6813 142.915 44.0598C142.915 42.4401 142.902 41.506 143.731 40.677C144.31 40.0983 145.044 39.7789 145.942 39.7789C147.73 39.7789 148.77 40.9498 149.005 42.3929H147.716C147.504 41.4706 146.89 40.9262 145.942 40.9262C145.446 40.9262 144.997 41.1275 144.701 41.4464C144.288 41.8957 144.193 42.3687 144.193 44.0604C144.193 45.7521 144.287 46.2375 144.701 46.6857C144.997 47.0057 145.446 47.1947 145.942 47.1947C146.498 47.1947 146.984 46.9815 147.314 46.603C147.622 46.2481 147.739 45.8224 147.739 45.278V44.8056H145.942V43.7173H149.018V45.0063C149.018 46.0946 148.816 46.7925 148.26 47.3836Z" fill="#303030"/>
<path d="M156.93 44.9585H155.014V48.2711H153.736V39.8497H156.93C158.573 39.8497 159.626 40.9374 159.626 42.4041C159.626 43.8709 158.573 44.9585 156.93 44.9585ZM156.858 40.9982H155.014V43.8006H156.858C157.746 43.8006 158.347 43.2928 158.347 42.4053C158.348 41.5184 157.746 40.9982 156.858 40.9982Z" fill="#303030"/>
<path d="M166.119 47.4427C165.541 48.0219 164.795 48.3419 163.897 48.3419C162.999 48.3419 162.266 48.0219 161.684 47.4427C160.857 46.6154 160.868 45.6813 160.868 44.0598C160.868 42.4401 160.856 41.506 161.684 40.677C162.264 40.0983 162.998 39.7789 163.897 39.7789C164.796 39.7789 165.541 40.0983 166.119 40.677C166.947 41.5054 166.924 42.4396 166.924 44.0598C166.923 45.6807 166.947 46.6148 166.119 47.4427ZM165.149 41.4464C164.853 41.1275 164.393 40.9262 163.896 40.9262C163.4 40.9262 162.938 41.1275 162.642 41.4464C162.23 41.8957 162.146 42.3687 162.146 44.0604C162.146 45.7521 162.228 46.2251 162.642 46.6744C162.938 46.9933 163.4 47.1952 163.896 47.1952C164.393 47.1952 164.853 46.9933 165.149 46.6744C165.563 46.2251 165.647 45.7521 165.647 44.0604C165.647 42.3687 165.563 41.8963 165.149 41.4464Z" fill="#303030"/>
<path d="M168.815 48.2711V39.8497H170.093V48.2711H168.815Z" fill="#303030"/>
<path d="M177.461 48.2711L173.57 42.3451V48.2711H172.293V39.8497H173.462L177.355 45.7633V39.8497H178.631V48.2711H177.461Z" fill="#303030"/>
<path d="M183.682 40.9982V48.2711H182.404V40.9982H180.086V39.8509H186V40.9982H183.682Z" fill="#303030"/>
</svg>
