<svg width="56" height="57" viewBox="0 0 56 57" fill="none" xmlns="http://www.w3.org/2000/svg">
<g clip-path="url(#clip0_1_676)">
<path d="M16.25 26.4194H40.25V27.9516H16.25V26.4194Z" fill="#777777"/>
<path d="M30.5 29.4839H40.25V31.0161H30.5V29.4839Z" fill="#777777"/>
<path d="M16.25 29.4839H26V31.0161H16.25V29.4839Z" fill="#777777"/>
<path d="M30.5 23.3549H40.25V24.8871H30.5V23.3549Z" fill="#777777"/>
<path d="M16.25 23.3549H26V24.8871H16.25V23.3549Z" fill="#777777"/>
<path d="M16.25 20.2903H40.25V21.8226H16.25V20.2903Z" fill="#777777"/>
<path d="M44.75 24.2519V20.2903C44.75 17.7551 42.7318 15.6935 40.25 15.6935V17.2258C41.9045 17.2258 43.25 18.6002 43.25 20.2903V24.2519C43.25 25.6102 43.6887 26.9004 44.4988 27.9516C43.6887 29.0028 43.25 30.293 43.25 31.6513V35.6129C43.25 37.303 41.9045 38.6774 40.25 38.6774V40.2097C42.7318 40.2097 44.75 38.1481 44.75 35.6129V31.6513C44.75 30.4584 45.2045 29.3368 46.0303 28.4933L46.5605 27.9516L46.0303 27.4099C45.2045 26.5664 44.75 25.4456 44.75 24.2519Z" fill="#777777"/>
<path d="M13.25 35.6129V31.6513C13.25 30.293 12.8113 29.0028 12.0012 27.9516C12.8113 26.9004 13.25 25.6102 13.25 24.2519V20.2903C13.25 18.6002 14.5955 17.2258 16.25 17.2258V15.6935C13.7682 15.6935 11.75 17.7551 11.75 20.2903V24.2519C11.75 25.4449 11.2955 26.5664 10.4697 27.4099L9.93945 27.9516L10.4697 28.4933C11.2955 29.3368 11.75 30.4576 11.75 31.6513V35.6129C11.75 38.1481 13.7682 40.2097 16.25 40.2097V38.6774C14.5955 38.6774 13.25 37.303 13.25 35.6129Z" fill="#777777"/>
<path d="M28.25 40.2097C26.5955 40.2097 25.25 41.584 25.25 43.2742C25.25 44.9643 26.5955 46.3387 28.25 46.3387C29.9045 46.3387 31.25 44.9643 31.25 43.2742C31.25 41.584 29.9045 40.2097 28.25 40.2097ZM28.25 44.8064C27.4227 44.8064 26.75 44.1192 26.75 43.2742C26.75 42.4291 27.4227 41.7419 28.25 41.7419C29.0773 41.7419 29.75 42.4291 29.75 43.2742C29.75 44.1192 29.0773 44.8064 28.25 44.8064Z" fill="#777777"/>
<path d="M28.2501 37.1451C27.254 37.1451 26.2664 37.4003 25.3948 37.8821L26.1096 39.2299C26.7629 38.8689 27.5023 38.6774 28.2501 38.6774C30.7319 38.6774 32.7501 40.739 32.7501 43.2742C32.7501 44.0381 32.5626 44.7933 32.2092 45.4607L33.5287 46.1909C34.0004 45.3006 34.2501 44.2917 34.2501 43.2742C34.2501 39.8947 31.5585 37.1451 28.2501 37.1451Z" fill="#777777"/>
<path d="M28.25 47.8709C25.7682 47.8709 23.75 45.8094 23.75 43.2742C23.75 42.5103 23.9375 41.755 24.2909 41.0876L22.9714 40.3574C22.4998 41.2477 22.25 42.2567 22.25 43.2742C22.25 46.6537 24.9417 49.4032 28.25 49.4032C29.2461 49.4032 30.2338 49.1481 31.1053 48.6663L30.3905 47.3184C29.7372 47.6794 28.9978 47.8709 28.25 47.8709Z" fill="#777777"/>
<path d="M51.5 8.79839C51.5 7.53136 50.4904 6.5 49.25 6.5H7.25C6.00964 6.5 5 7.53136 5 8.79839V44.0403H17.75V45.4046L19.6272 45.8846C19.8059 46.4988 20.0465 47.0917 20.3464 47.6559L19.3496 49.352L22.2987 52.3645L23.9591 51.3462C24.5114 51.6534 25.0918 51.8991 25.6931 52.0809L26.1644 54H30.3356L30.8054 52.0824C31.4067 51.8999 31.9872 51.6541 32.5394 51.3477L34.1998 52.366L37.1489 49.3535L36.1521 47.6574C36.4528 47.0932 36.6934 46.5003 36.8713 45.8861L38.75 45.4046V44.0403H51.5V8.79839ZM7.25 8.03226H49.25C49.6631 8.03226 50 8.37642 50 8.79839V12.629H6.5V8.79839C6.5 8.37642 6.83691 8.03226 7.25 8.03226ZM37.25 44.2083L35.6405 44.6194L35.5339 45.0709C35.3519 45.8445 35.0516 46.5822 34.6437 47.2635L34.406 47.6596L35.2611 49.1144L33.968 50.4353L32.5438 49.5618L32.156 49.8046C31.4891 50.2214 30.767 50.5277 30.0096 50.714L29.5676 50.8229L29.1644 52.4677H27.3356L26.9331 50.8236L26.4911 50.7148C25.7338 50.5289 25.0116 50.2221 24.3447 49.8054L23.9569 49.5626L22.5327 50.4361L21.2396 49.1152L22.0947 47.6604L21.8571 47.2642C21.4491 46.583 21.1492 45.8453 20.9668 45.0717L20.8602 44.6202L19.25 44.2083V42.3401L20.8595 41.929L20.9661 41.4775C21.1481 40.7038 21.4484 39.9661 21.8563 39.2849L22.094 38.8888L21.2389 37.434L22.532 36.1131L23.9562 36.9865L24.344 36.7438C25.0109 36.327 25.733 36.0207 26.4904 35.8344L26.9324 35.7255L27.3356 34.0806H29.1644L29.5669 35.7248L30.0089 35.8336C30.7662 36.0195 31.4884 36.3263 32.1553 36.743L32.5431 36.9858L33.9673 36.1123L35.2604 37.4332L34.4053 38.888L34.6429 39.2842C35.0509 39.9654 35.3508 40.7031 35.5332 41.4767L35.6398 41.9282L37.25 42.3401V44.2083ZM38.75 42.5081V41.1438L36.8728 40.6638C36.6941 40.0496 36.4535 39.4566 36.1536 38.8925L37.1504 37.1964L34.2013 34.1839L32.5409 35.2022C31.9886 34.895 31.4082 34.6493 30.8069 34.4674L30.3356 32.5484H26.1644L25.6946 34.466C25.0933 34.6485 24.5128 34.8943 23.9606 35.2007L22.3002 34.1824L19.3511 37.1949L20.3479 38.891C20.0472 39.4551 19.8066 40.0481 19.6287 40.6623L17.75 41.1438V42.5081H6.5V14.1613H50V42.5081H38.75Z" fill="#777777"/>
<path d="M8 9.56451H9.5V11.0968H8V9.56451Z" fill="#777777"/>
<path d="M11 9.56451H12.5V11.0968H11V9.56451Z" fill="#777777"/>
<path d="M14 9.56451H15.5V11.0968H14V9.56451Z" fill="#777777"/>
</g>
<defs>
<clipPath id="clip0_1_676">
<rect width="46.5" height="47.5" fill="white" transform="translate(5 6.5)"/>
</clipPath>
</defs>
</svg>
