<svg width="213" height="59" viewBox="0 0 213 59" fill="none" xmlns="http://www.w3.org/2000/svg">
<path d="M20.1775 14.958H8.5813C7.80739 14.958 7.06518 14.6476 6.51795 14.0952C5.97071 13.5427 5.66328 12.7934 5.66328 12.0122C5.66328 11.2309 5.97071 10.4816 6.51795 9.92914C7.06518 9.3767 7.80739 9.06633 8.5813 9.06633H20.1465V13.0753L28.6684 6.71849L20.1459 0.361694V4.37065H8.58072C7.58111 4.36186 6.58967 4.55303 5.66364 4.93313C4.7376 5.31322 3.89531 5.87471 3.18538 6.58519C2.47545 7.29567 1.91194 8.14106 1.52738 9.07258C1.14282 10.0041 0.944824 11.0033 0.944824 12.0124C0.944824 13.0216 1.14282 14.0208 1.52738 14.9523C1.91194 15.8838 2.47545 16.7292 3.18538 17.4397C3.89531 18.1502 4.7376 18.7117 5.66364 19.0918C6.58967 19.4719 7.58111 19.663 8.58072 19.6542H20.1781C20.952 19.6542 21.6942 19.9646 22.2414 20.517C22.7887 21.0695 23.0961 21.8188 23.0961 22.6001C23.0961 23.3813 22.7887 24.1306 22.2414 24.6831C21.6942 25.2355 20.952 25.5459 20.1781 25.5459H2.16442V30.2421H20.1781C21.1722 30.2421 22.1566 30.0445 23.075 29.6604C23.9934 29.2764 24.8279 28.7135 25.5309 28.0038C26.2338 27.2942 26.7914 26.4517 27.1718 25.5245C27.5522 24.5974 27.748 23.6036 27.748 22.6001C27.748 21.5965 27.5522 20.6027 27.1718 19.6756C26.7914 18.7484 26.2338 17.9059 25.5309 17.1963C24.8279 16.4867 23.9934 15.9237 23.075 15.5397C22.1566 15.1556 21.1722 14.958 20.1781 14.958H20.1775ZM43.9434 27.7609C44.4364 27.7694 44.9261 27.6775 45.3831 27.4906C45.7909 27.3211 46.1559 27.0615 46.4512 26.7308C46.7511 26.3856 46.9777 25.9819 47.117 25.5447C47.2777 25.0408 47.3561 24.5138 47.3491 23.9845V14.9742H50.1258V23.9845C50.134 24.8309 49.9888 25.6716 49.6972 26.4652C49.4294 27.2054 49.0075 27.8791 48.4601 28.4408C47.9126 29.0026 47.2523 29.4394 46.5236 29.7219C44.8542 30.3393 43.0221 30.3393 41.3528 29.7219C40.624 29.4394 39.9636 29.0026 39.4161 28.4408C38.8686 27.879 38.4466 27.2054 38.1786 26.4652C37.8872 25.6716 37.7422 24.8308 37.7505 23.9845V14.9742H40.5267V23.9735C40.5197 24.5029 40.5983 25.0298 40.7593 25.5337C40.8995 25.973 41.1277 26.3785 41.4298 26.725C41.7265 27.0577 42.0932 27.3191 42.503 27.49C42.9602 27.677 43.4501 27.7689 43.9434 27.7603V27.7609ZM67.0956 17.7107C67.0317 17.8344 66.9419 17.9426 66.8325 18.0279C66.7302 18.0965 66.6093 18.131 66.4866 18.1265C66.3182 18.1187 66.1554 18.0628 66.0172 17.9653C65.8487 17.8582 65.6472 17.7385 65.4128 17.6063C65.1507 17.4623 64.8763 17.3424 64.593 17.2478C64.2341 17.1336 63.8592 17.0791 63.483 17.0866C63.1408 17.0802 62.7996 17.1276 62.4718 17.2269C62.2063 17.3077 61.959 17.4401 61.7439 17.6167C61.5521 17.7777 61.4015 17.983 61.3049 18.2153C61.2067 18.4578 61.1577 18.7177 61.1607 18.9797C61.1497 19.3007 61.2542 19.6149 61.4549 19.8642C61.6717 20.1162 61.9367 20.3214 62.234 20.4674C62.5894 20.6471 62.9589 20.7969 63.3388 20.9152C63.7513 21.047 64.1745 21.1876 64.6085 21.3368C65.0412 21.4853 65.4652 21.6588 65.8782 21.8565C66.2816 22.0483 66.6538 22.301 66.9818 22.6059C67.313 22.9182 67.578 23.2951 67.7609 23.7137C67.9701 24.2172 68.0706 24.7599 68.0556 25.3058C68.0605 25.9583 67.9431 26.6059 67.7098 27.2145C67.4856 27.798 67.1409 28.3265 66.6986 28.7649C66.2326 29.22 65.6793 29.5741 65.0727 29.8054C64.3698 30.07 63.624 30.1988 62.874 30.1853C62.4027 30.1856 61.9325 30.1386 61.4704 30.0449C61.017 29.9532 60.5731 29.819 60.1444 29.6442C59.7281 29.4748 59.3288 29.2658 58.9517 29.0201C58.5926 28.7876 58.2603 28.5152 57.9612 28.2081L58.777 26.866C58.8485 26.7668 58.9397 26.6839 59.0448 26.6224C59.1505 26.5573 59.272 26.5228 59.3958 26.5226C59.5989 26.534 59.7936 26.6085 59.9531 26.736C60.1526 26.8783 60.3901 27.0361 60.6655 27.2093C60.9714 27.3982 61.2946 27.5569 61.6307 27.6832C62.0562 27.8348 62.5056 27.907 62.9567 27.896C63.6168 27.9384 64.2696 27.737 64.7935 27.3294C65.0154 27.1241 65.189 26.8713 65.3015 26.5895C65.4141 26.3077 65.4627 26.004 65.4438 25.7007C65.4589 25.3538 65.3552 25.0122 65.1502 24.7333C64.9373 24.4701 64.6716 24.2555 64.3706 24.1034C64.0179 23.9223 63.6479 23.7777 63.2664 23.6719C62.8535 23.5543 62.4337 23.4262 62.007 23.2874C61.5773 23.1473 61.1567 22.9804 60.7477 22.7874C60.3407 22.5973 59.9676 22.3408 59.6434 22.0282C59.3069 21.6962 59.0417 21.2977 58.8644 20.8577C58.6533 20.3057 58.5533 19.7168 58.5702 19.1253C58.5707 18.5746 58.6813 18.0298 58.8954 17.5233C59.113 17.0016 59.4345 16.5306 59.8399 16.1394C60.2813 15.7191 60.8001 15.3904 61.367 15.172C62.0331 14.9184 62.7408 14.7948 63.4525 14.8078C64.2824 14.7991 65.1072 14.9401 65.8879 15.2242C66.5929 15.4779 67.2391 15.8745 67.7868 16.3894L67.0956 17.7107ZM87.038 17.2733H82.5377V30.0183H79.7616V17.2733H75.2613V14.9742H87.038V17.2733ZM105.801 30.0183H103.654C103.443 30.0277 103.235 29.9636 103.065 29.8367C102.916 29.7176 102.798 29.5619 102.725 29.3843L101.61 26.315H95.4277L94.3132 29.3837C94.2488 29.5565 94.138 29.7078 93.9932 29.8205C93.8267 29.9552 93.618 30.0253 93.4048 30.0183H91.2372L97.11 14.9742H99.9378L105.801 30.0183ZM100.898 24.3383L99.0817 19.3335C98.9921 19.1115 98.8992 18.848 98.8031 18.543C98.7062 18.2375 98.6097 17.9079 98.5135 17.5541C98.4243 17.9079 98.3314 18.2392 98.2349 18.5482C98.1387 18.8567 98.0459 19.1255 97.9562 19.3544L96.1505 24.3383H100.898ZM116.184 30.0183H113.397V14.9742H116.184V30.0183ZM137.615 14.9742V30.0183H136.19C136.001 30.0247 135.812 29.9877 135.638 29.9098C135.47 29.82 135.324 29.6936 135.21 29.5398L127.417 19.5104C127.459 19.9682 127.479 20.3914 127.479 20.78V30.0183H125.033V14.9742H126.488C126.59 14.9732 126.692 14.9784 126.793 14.9899C126.871 14.9982 126.948 15.0191 127.02 15.0519C127.09 15.0869 127.155 15.1325 127.211 15.1871C127.285 15.2602 127.354 15.3388 127.417 15.422L135.241 25.4925C135.22 25.2501 135.203 25.0109 135.189 24.7751C135.175 24.5392 135.168 24.3207 135.168 24.1197V14.9742H137.615ZM159.774 30.0183H157.627C157.416 30.0277 157.208 29.9636 157.039 29.8367C156.889 29.7176 156.772 29.5619 156.698 29.3843L155.583 26.315H149.402L148.287 29.3837C148.222 29.5566 148.111 29.7079 147.966 29.8205C147.8 29.9552 147.591 30.0253 147.378 30.0183H145.211L151.084 14.9742H153.912L159.774 30.0183ZM154.872 24.3383L153.055 19.3335C152.965 19.1115 152.872 18.848 152.776 18.543C152.68 18.2375 152.583 17.9079 152.487 17.5541C152.398 17.9079 152.305 18.2392 152.209 18.5482C152.112 18.8567 152.019 19.1255 151.93 19.3544L150.124 24.3383H154.872ZM172.51 14.9742C173.355 14.9588 174.198 15.0532 175.019 15.2549C175.635 15.4051 176.216 15.6775 176.727 16.0565C177.155 16.383 177.491 16.8169 177.702 17.3151C177.915 17.8432 178.021 18.4094 178.012 18.9797C178.013 19.324 177.961 19.6663 177.857 19.9941C177.751 20.3218 177.588 20.6281 177.377 20.8989C177.143 21.1959 176.864 21.454 176.551 21.6639C176.181 21.911 175.78 22.1071 175.359 22.2468C177.409 22.7112 178.435 23.8279 178.435 25.5969C178.441 26.2059 178.317 26.8091 178.073 27.3659C177.832 27.9069 177.472 28.3854 177.021 28.7649C176.517 29.1799 175.939 29.4925 175.318 29.6853C174.569 29.9185 173.789 30.0309 173.006 30.0183H167.37V14.9742H172.51ZM170.147 17.1376V21.4876H172.356C173.109 21.5389 173.86 21.3572 174.508 20.9668C174.757 20.7748 174.954 20.5228 175.081 20.2338C175.208 19.9449 175.261 19.6283 175.235 19.3132C175.266 19.001 175.222 18.6858 175.107 18.3943C174.992 18.1028 174.809 17.8435 174.574 17.6382C173.955 17.2571 173.233 17.0822 172.51 17.1382L170.147 17.1376ZM172.954 27.834C173.395 27.8452 173.834 27.7817 174.254 27.6461C174.568 27.544 174.855 27.3737 175.096 27.1473C175.303 26.9442 175.458 26.6945 175.55 26.4188C175.644 26.1336 175.691 25.8348 175.69 25.5343C175.694 25.2339 175.641 24.9354 175.534 24.655C175.431 24.3953 175.264 24.1663 175.049 23.9897C174.798 23.7902 174.508 23.6465 174.198 23.5681C173.788 23.4635 173.367 23.4147 172.944 23.4231H170.147V27.834H172.954ZM195.793 27.7087V30.0183H187.051V14.9742H189.827V27.7087H195.793ZM206.374 17.2008V21.3728H211.596V23.5263H206.374V27.7818H213V30.0183H203.587V14.9742H213V17.2008H206.374ZM99.0898 45.8871C99.0257 46.0109 98.9357 46.1191 98.8261 46.2043C98.724 46.2728 98.6033 46.3073 98.4808 46.3029C98.3121 46.2952 98.1492 46.2393 98.0108 46.1417C97.8423 46.0346 97.6412 45.9149 97.4076 45.7826C97.1451 45.6387 96.8703 45.5187 96.5866 45.4242C96.2279 45.31 95.8532 45.2556 95.4772 45.263C95.1349 45.2566 94.7938 45.304 94.466 45.4033C94.2005 45.4841 93.9532 45.6165 93.7381 45.7931C93.5462 45.9541 93.3957 46.1594 93.2991 46.3917C93.2009 46.6342 93.1519 46.8941 93.1549 47.1561C93.1439 47.4771 93.2484 47.7913 93.4491 48.0406C93.6659 48.2926 93.9308 48.4978 94.2281 48.6438C94.5834 48.8235 94.9527 48.9732 95.3324 49.0916C95.7453 49.2234 96.1685 49.364 96.6021 49.5132C97.0348 49.6617 97.4588 49.8352 97.8718 50.0329C98.2754 50.2246 98.6478 50.4773 98.976 50.7823C99.3072 51.0946 99.5722 51.4715 99.7551 51.8901C99.9641 52.3936 100.064 52.9364 100.049 53.4822C100.054 54.1347 99.9371 54.7823 99.7039 55.3909C99.4798 55.9744 99.1351 56.5029 98.6928 56.9413C98.2268 57.3964 97.6735 57.7505 97.0669 57.9818C96.364 58.2464 95.6182 58.3752 94.8682 58.3617C94.3969 58.362 93.9267 58.3149 93.4646 58.2213C93.011 58.1296 92.5669 57.9954 92.138 57.8206C91.7219 57.6512 91.3228 57.4422 90.9459 57.1965C90.5867 56.964 90.2545 56.6916 89.9554 56.3845L90.7706 55.0424C90.8423 54.9432 90.9337 54.8602 91.0389 54.7988C91.1446 54.7338 91.2658 54.6993 91.3894 54.699C91.5925 54.7104 91.7872 54.7849 91.9467 54.9124C92.1466 55.0547 92.3841 55.2125 92.6591 55.3857C92.965 55.5746 93.2882 55.7333 93.6243 55.8596C94.05 56.0113 94.4996 56.0834 94.9509 56.0724C95.611 56.1148 96.2638 55.9134 96.7877 55.5058C97.0096 55.3005 97.1832 55.0477 97.2957 54.7659C97.4083 54.4841 97.4569 54.1804 97.438 53.8771C97.4529 53.5301 97.349 53.1885 97.1439 52.9097C96.9311 52.6466 96.6656 52.4319 96.3648 52.2798C96.0121 52.0987 95.6421 51.9541 95.2606 51.8483C94.8477 51.7307 94.4279 51.6026 94.0012 51.4638C93.5715 51.3237 93.1509 51.1568 92.7418 50.9638C92.3349 50.7739 91.9619 50.5176 91.6376 50.2052C91.301 49.873 91.0358 49.4743 90.8585 49.0341C90.6473 48.4821 90.5471 47.8932 90.5638 47.3017C90.5645 46.751 90.6753 46.2061 90.8896 45.6997C91.1071 45.178 91.4283 44.707 91.8335 44.3158C92.275 43.8954 92.7941 43.5667 93.3612 43.3484C94.0273 43.0948 94.735 42.9712 95.4467 42.9842C96.2766 42.9755 97.1014 43.1165 97.8821 43.4006C98.5871 43.6543 99.2332 44.0509 99.7809 44.5658L99.0898 45.8871ZM111.341 58.1947H108.554V43.1506H111.34L111.341 58.1947ZM133.056 50.6518V56.7383C132.326 57.2866 131.507 57.7038 130.636 57.9714C129.743 58.2368 128.817 58.3683 127.886 58.3617C126.757 58.3776 125.636 58.1836 124.577 57.7892C123.637 57.4374 122.776 56.8959 122.05 56.1977C121.346 55.5108 120.796 54.6809 120.434 53.7629C120.048 52.7797 119.855 51.7302 119.866 50.6726C119.854 49.6104 120.039 48.5552 120.413 47.5621C120.755 46.643 121.289 45.8088 121.978 45.1159C122.667 44.4231 123.496 43.8878 124.407 43.5462C125.437 43.1586 126.529 42.968 127.628 42.9842C128.197 42.9811 128.765 43.0298 129.325 43.1297C129.824 43.2195 130.315 43.3536 130.79 43.5305C131.223 43.6908 131.637 43.8983 132.024 44.1494C132.388 44.3855 132.73 44.6535 133.047 44.9504L132.251 46.2194C132.2 46.3114 132.131 46.3918 132.047 46.4554C131.964 46.5191 131.868 46.5647 131.766 46.5894C131.654 46.6089 131.538 46.6056 131.426 46.5797C131.315 46.5538 131.209 46.5059 131.116 46.4386L130.435 46.0431C130.193 45.9048 129.939 45.7898 129.676 45.6997C129.37 45.5955 129.056 45.5154 128.737 45.4602C128.34 45.3941 127.937 45.3628 127.535 45.3668C126.851 45.3567 126.172 45.4841 125.537 45.7415C124.958 45.98 124.437 46.346 124.015 46.8127C123.583 47.2991 123.253 47.869 123.045 48.4878C122.81 49.1914 122.695 49.9302 122.705 50.6726C122.692 51.4565 122.816 52.2364 123.07 52.977C123.292 53.6157 123.644 54.2006 124.103 54.6938C124.553 55.1664 125.101 55.5324 125.708 55.7656C126.854 56.1811 128.095 56.248 129.279 55.9582C129.716 55.8392 130.141 55.679 130.549 55.4797V52.7537H128.67C128.594 52.7583 128.517 52.7474 128.446 52.7215C128.374 52.6955 128.308 52.6552 128.252 52.6029C128.203 52.5549 128.165 52.4974 128.139 52.4338C128.114 52.3702 128.101 52.302 128.103 52.2334V50.6518H133.056ZM154.121 43.1506V58.1947H152.696C152.507 58.2011 152.318 58.164 152.145 58.0862C151.977 57.9964 151.83 57.87 151.716 57.7162L143.923 47.6868C143.965 48.1446 143.986 48.5678 143.986 48.9564V58.1947H141.539V43.1506H142.994C143.096 43.1496 143.198 43.1548 143.299 43.1663C143.378 43.1746 143.454 43.1955 143.526 43.2283C143.596 43.2633 143.661 43.3089 143.717 43.3635C143.792 43.4366 143.861 43.5151 143.924 43.5984L151.747 53.6689C151.727 53.4265 151.709 53.1873 151.696 52.9515C151.682 52.7156 151.675 52.4971 151.675 52.2961V43.1506H154.121ZM176.281 58.1947H174.134C173.923 58.2041 173.715 58.14 173.545 58.0131C173.396 57.894 173.278 57.7383 173.205 57.5607L172.09 54.4914H165.908L164.794 57.5601C164.729 57.733 164.618 57.8843 164.473 57.9969C164.307 58.1316 164.098 58.2017 163.885 58.1947H161.718L167.59 43.1506H170.418L176.281 58.1947ZM171.378 52.5147L169.562 47.5099C169.472 47.2883 169.379 47.0248 169.283 46.7194C169.187 46.4139 169.09 46.0843 168.994 45.7305C168.904 46.0843 168.812 46.4156 168.715 46.7246C168.619 47.0331 168.526 47.3019 168.437 47.5308L166.63 52.5147H171.378ZM195.558 50.6518V56.7383C194.828 57.2866 194.009 57.7038 193.138 57.9714C192.245 58.2368 191.319 58.3683 190.388 58.3617C189.259 58.3776 188.138 58.1836 187.08 57.7892C186.139 57.4374 185.279 56.8959 184.552 56.1977C183.848 55.5109 183.297 54.6809 182.935 53.7629C182.55 52.7797 182.357 51.7301 182.368 50.6726C182.356 49.6104 182.541 48.5552 182.915 47.5621C183.257 46.643 183.791 45.8088 184.48 45.1159C185.169 44.4231 185.998 43.8878 186.91 43.5462C187.939 43.1586 189.031 42.968 190.13 42.9842C190.699 42.9811 191.267 43.0298 191.827 43.1297C192.327 43.2195 192.817 43.3536 193.292 43.5305C193.725 43.6908 194.139 43.8983 194.527 44.1494C194.89 44.3855 195.232 44.6535 195.549 44.9504L194.753 46.2194C194.702 46.3114 194.633 46.3918 194.549 46.4554C194.466 46.5191 194.37 46.5647 194.269 46.5894C194.156 46.6089 194.04 46.6056 193.928 46.5797C193.817 46.5538 193.711 46.5059 193.618 46.4386L192.937 46.0431C192.695 45.9048 192.441 45.7898 192.178 45.6997C191.872 45.5955 191.558 45.5154 191.239 45.4602C190.842 45.3941 190.439 45.3628 190.037 45.3668C189.353 45.3567 188.674 45.4841 188.04 45.7415C187.46 45.98 186.94 46.346 186.517 46.8127C186.085 47.2991 185.755 47.869 185.547 48.4878C185.312 49.1914 185.197 49.9302 185.207 50.6726C185.194 51.4565 185.318 52.2364 185.573 52.977C185.794 53.6157 186.146 54.2006 186.605 54.6938C187.055 55.1664 187.603 55.5324 188.21 55.7656C189.356 56.1811 190.597 56.248 191.781 55.9582C192.218 55.839 192.643 55.6786 193.051 55.4791V52.7531H191.172C191.096 52.7578 191.02 52.7468 190.948 52.7209C190.876 52.695 190.81 52.6546 190.754 52.6023C190.706 52.5544 190.667 52.4969 190.642 52.4335C190.616 52.37 190.603 52.3019 190.605 52.2334V50.6518H195.558ZM206.374 45.3772V49.5492H211.596V51.7027H206.374V55.9582H213V58.1947H203.587V43.1506H213V45.3772H206.374Z" fill="#303030"/>
</svg>
