<svg width="229" height="29" viewBox="0 0 229 29" fill="none" xmlns="http://www.w3.org/2000/svg">
<path d="M58.5001 22.2627C57.9001 22.5627 57.2001 22.7627 56.4001 22.9627C55.7001 23.1627 55.0001 23.2627 54.3001 23.2627C53.8001 23.2627 53.3001 23.1627 52.8001 23.0627C52.3001 22.9627 51.9001 22.7627 51.6001 22.4627C51.3001 22.1627 51.0001 21.7627 50.8001 21.3627C50.6001 20.8627 50.5001 20.2627 50.5001 19.6627V13.8627H48.9001V10.3627H50.5001V6.36267H55.0001V10.3627H57.5001V13.8627H55.0001V18.0627C55.0001 18.4627 55.1001 18.7627 55.3001 18.9627C55.5001 19.1627 55.7001 19.2627 56.0001 19.2627C56.2001 19.2627 56.5001 19.2627 56.8001 19.1627C57.1001 19.0627 57.4001 18.9627 57.7001 18.8627L58.5001 22.2627Z" fill="black"/>
<path d="M66.0002 23.1627C64.9002 23.1627 63.8002 22.9627 63.0002 22.6627C62.1002 22.2627 61.4002 21.8627 60.8002 21.1627C60.2002 20.4627 59.8002 19.8627 59.5002 19.0627C59.1002 18.2627 59.0002 17.4627 59.0002 16.5627C59.0002 15.6627 59.1002 14.8627 59.4002 14.0627C59.7002 13.2627 60.1002 12.5627 60.7002 11.9627C61.3002 11.3627 62.0002 10.8627 62.9002 10.4627C63.8002 10.0627 64.8002 9.96271 65.9002 9.96271C67.0002 9.96271 68.0002 10.1627 68.9002 10.4627C69.8002 10.8627 70.5002 11.2627 71.1002 11.9627C71.7002 12.6627 72.1002 13.2627 72.4002 14.0627C72.7002 14.8627 72.8002 15.6627 72.8002 16.5627C72.8002 17.4627 72.7002 18.2627 72.4002 19.0627C72.1002 19.8627 71.7002 20.5627 71.1002 21.1627C70.5002 21.7627 69.8002 22.2627 69.0002 22.6627C68.1002 23.0627 67.1002 23.1627 66.0002 23.1627ZM63.7002 16.5627C63.7002 17.4627 63.9002 18.0627 64.3002 18.5627C64.7002 19.0627 65.3002 19.2627 65.9002 19.2627C66.5002 19.2627 67.1002 19.0627 67.5002 18.5627C67.9002 18.0627 68.1002 17.3627 68.1002 16.5627C68.1002 15.7627 67.9002 15.0627 67.5002 14.5627C67.1002 14.0627 66.5002 13.8627 65.9002 13.8627C65.3002 13.8627 64.7002 14.0627 64.3002 14.5627C63.9002 15.0627 63.7002 15.7627 63.7002 16.5627Z" fill="black"/>
<path d="M78.4001 23.1627C77.1001 23.1627 76.1001 22.7627 75.4001 21.9627C74.7001 21.1627 74.4001 20.0627 74.4001 18.5627V10.1627H79.0001V17.5627C79.0001 18.1627 79.1001 18.5627 79.4001 18.8627C79.7001 19.1627 80.0001 19.3627 80.4001 19.3627C80.8001 19.3627 81.1001 19.2627 81.5001 19.1627C81.9001 18.9627 82.2001 18.6627 82.6001 18.0627V10.2627H87.2001V17.9627C87.2001 18.3627 87.3001 18.6627 87.4001 18.8627C87.5001 19.0627 87.8001 19.1627 88.1001 19.1627V23.0627C87.3001 23.2627 86.7001 23.2627 86.2001 23.2627C84.6001 23.2627 83.7001 22.6627 83.5001 21.4627L83.4001 20.9627C82.8001 21.7627 82.1001 22.3627 81.3001 22.6627C80.5001 22.9627 79.5001 23.1627 78.4001 23.1627Z" fill="black"/>
<path d="M89.3 16.5627C89.3 15.6627 89.5 14.8627 89.8 14.0627C90.1 13.2627 90.6 12.5627 91.1 11.9627C91.7 11.3627 92.4 10.8627 93.3 10.4627C94.2 10.0627 95.2 9.96271 96.3 9.96271C97.9 9.96271 99.2 10.2627 100.2 10.9627C101.2 11.5627 102 12.4627 102.5 13.4627L98 14.8627C97.6 14.2627 97 13.9627 96.2 13.9627C95.6 13.9627 95 14.1627 94.6 14.6627C94.2 15.1627 93.9 15.8627 93.9 16.6627C93.9 17.4627 94.1 18.1627 94.6 18.6627C95 19.1627 95.6 19.3627 96.2 19.3627C96.9 19.3627 97.5 19.0627 98 18.4627L102.5 19.8627C102 20.8627 101.2 21.7627 100.2 22.3627C99.2 22.9627 97.9 23.3627 96.3 23.3627C95.2 23.3627 94.2 23.1627 93.3 22.8627C92.4 22.4627 91.7 22.0627 91.1 21.3627C90.5 20.7627 90.1 20.0627 89.8 19.2627C89.5 18.2627 89.3 17.4627 89.3 16.5627Z" fill="black"/>
<path d="M116.9 22.9627H112.3V15.7627C112.3 15.1627 112.2 14.6627 111.9 14.3627C111.6 14.0627 111.3 13.9627 110.8 13.9627C110.7 13.9627 110.5 13.9627 110.3 14.0627C110.1 14.1627 109.9 14.2627 109.7 14.4627C109.5 14.6627 109.3 14.7627 109.1 15.0627C108.9 15.2627 108.8 15.5627 108.7 15.8627V23.0627H104V5.2627H108.6V12.0627C109.1 11.3627 109.6 10.8627 110.4 10.4627C111.1 10.0627 111.9 9.9627 112.9 9.9627C113.8 9.9627 114.5 10.1627 115 10.4627C115.5 10.7627 115.9 11.1627 116.2 11.6627C116.5 12.1627 116.7 12.6627 116.7 13.1627C116.8 13.6627 116.8 14.1627 116.8 14.6627V22.9627H116.9Z" fill="black"/>
<path d="M124.4 23.1627C123.3 23.1627 122.2 22.9627 121.1 22.6627C120 22.2627 119.1 21.7627 118.4 21.0627L120 18.2627C120.8 18.7627 121.6 19.1627 122.3 19.4627C123 19.7627 123.7 19.8627 124.3 19.8627C124.9 19.8627 125.3 19.6627 125.3 19.2627C125.3 19.0627 125.2 18.8627 124.9 18.6627C124.6 18.4627 124.2 18.3627 123.4 18.0627C122.5 17.7627 121.7 17.5627 121.1 17.2627C120.5 16.9627 120 16.7627 119.6 16.4627C119.2 16.1627 118.9 15.8627 118.8 15.4627C118.7 15.0627 118.6 14.6627 118.6 14.1627C118.6 13.5627 118.7 12.9627 119 12.3627C119.3 11.8627 119.6 11.3627 120.1 10.9627C120.6 10.5627 121.1 10.2627 121.8 10.0627C122.4 9.8627 123.1 9.7627 123.9 9.7627C124.8 9.7627 125.7 9.86269 126.6 10.1627C127.4 10.3627 128.3 10.8627 129.2 11.6627L127.5 14.4627C126.7 13.9627 126 13.5627 125.5 13.3627C125 13.1627 124.5 13.0627 124 13.0627C123.7 13.0627 123.5 13.1627 123.3 13.2627C123.1 13.3627 123 13.5627 123 13.7627C123 13.9627 123.1 14.1627 123.4 14.3627C123.7 14.5627 124.2 14.6627 124.9 14.8627C125.8 15.0627 126.6 15.3627 127.2 15.6627C127.8 15.9627 128.3 16.2627 128.7 16.5627C129.1 16.8627 129.4 17.2627 129.5 17.6627C129.6 18.0627 129.7 18.5627 129.7 19.0627C129.7 19.7627 129.6 20.3627 129.3 20.8627C129.1 21.3627 128.7 21.8627 128.2 22.1627C127.7 22.4627 127.2 22.8627 126.5 22.9627C125.9 23.1627 125.2 23.1627 124.4 23.1627Z" fill="black"/>
<path d="M130.6 16.5627C130.6 15.6627 130.8 14.8627 131.1 14.0627C131.4 13.2627 131.9 12.5627 132.4 11.9627C133 11.3627 133.7 10.8627 134.6 10.4627C135.5 10.0627 136.5 9.96271 137.6 9.96271C139.2 9.96271 140.5 10.2627 141.5 10.9627C142.5 11.5627 143.3 12.4627 143.8 13.4627L139.3 14.8627C138.9 14.2627 138.3 13.9627 137.5 13.9627C136.9 13.9627 136.3 14.1627 135.9 14.6627C135.5 15.1627 135.2 15.8627 135.2 16.6627C135.2 17.4627 135.4 18.1627 135.9 18.6627C136.3 19.1627 136.9 19.3627 137.5 19.3627C138.2 19.3627 138.8 19.0627 139.3 18.4627L143.8 19.8627C143.3 20.8627 142.5 21.7627 141.5 22.3627C140.5 22.9627 139.2 23.3627 137.6 23.3627C136.5 23.3627 135.5 23.1627 134.6 22.8627C133.7 22.4627 133 22.0627 132.4 21.3627C131.8 20.7627 131.4 20.0627 131.1 19.2627C130.7 18.2627 130.6 17.4627 130.6 16.5627Z" fill="black"/>
<path d="M153.9 14.1627C153 14.1627 152.2 14.2627 151.5 14.4627C150.8 14.6627 150.2 14.9627 149.9 15.4627V23.0627H145.3V10.1627H149.5V12.5627C150 11.6627 150.5 11.0627 151.2 10.5627C151.9 10.0627 152.6 9.86267 153.4 9.86267C153.7 9.86267 153.9 9.86267 154 9.86267V14.1627H153.9Z" fill="black"/>
<path d="M161.6 23.1627C160.5 23.1627 159.5 22.9627 158.6 22.6627C157.7 22.3627 157 21.8627 156.4 21.2627C155.8 20.6627 155.4 19.9627 155.1 19.1627C154.8 18.3627 154.6 17.5627 154.6 16.6627C154.6 15.7627 154.8 14.8627 155 14.0627C155.3 13.2627 155.7 12.5627 156.3 11.8627C156.9 11.2627 157.6 10.7627 158.5 10.3627C159.4 9.96267 160.4 9.86267 161.5 9.86267C162.6 9.86267 163.6 10.0627 164.5 10.3627C165.4 10.7627 166.1 11.1627 166.7 11.8627C167.3 12.4627 167.7 13.1627 168 13.9627C168.3 14.7627 168.4 15.5627 168.4 16.4627C168.4 16.6627 168.4 16.9627 168.4 17.1627C168.4 17.4627 168.3 17.6627 168.3 17.8627H159.3C159.3 18.5627 159.6 19.0627 160.1 19.3627C160.6 19.6627 161 19.7627 161.6 19.7627C162.1 19.7627 162.6 19.6627 163 19.4627C163.4 19.2627 163.7 18.9627 163.9 18.5627L167.8 19.6627C167.3 20.6627 166.5 21.5627 165.4 22.1627C164.5 22.8627 163.2 23.1627 161.6 23.1627ZM163.7 15.2627C163.6 14.6627 163.4 14.1627 163 13.7627C162.6 13.3627 162.2 13.2627 161.6 13.2627C161 13.2627 160.5 13.4627 160.2 13.7627C159.8 14.1627 159.6 14.5627 159.5 15.2627H163.7Z" fill="black"/>
<path d="M176.4 23.1627C175.3 23.1627 174.3 22.9627 173.4 22.6627C172.5 22.3627 171.8 21.8627 171.2 21.2627C170.6 20.6627 170.2 19.9627 169.9 19.1627C169.6 18.3627 169.4 17.5627 169.4 16.6627C169.4 15.7627 169.5 14.8627 169.8 14.0627C170.1 13.2627 170.5 12.5627 171.1 11.8627C171.7 11.2627 172.4 10.7627 173.3 10.3627C174.2 9.96267 175.2 9.86267 176.3 9.86267C177.4 9.86267 178.4 10.0627 179.3 10.3627C180.2 10.7627 180.9 11.1627 181.5 11.8627C182.1 12.5627 182.5 13.1627 182.8 13.9627C183.1 14.7627 183.2 15.5627 183.2 16.4627C183.2 16.6627 183.2 16.9627 183.2 17.1627C183.2 17.3627 183.1 17.6627 183.1 17.8627H174.1C174.1 18.5627 174.4 19.0627 174.9 19.3627C175.4 19.6627 175.8 19.7627 176.4 19.7627C176.9 19.7627 177.4 19.6627 177.8 19.4627C178.2 19.2627 178.5 18.9627 178.7 18.5627L182.6 19.6627C182.1 20.6627 181.3 21.5627 180.2 22.1627C179.3 22.8627 178 23.1627 176.4 23.1627ZM178.5 15.2627C178.4 14.6627 178.2 14.1627 177.8 13.7627C177.4 13.3627 177 13.2627 176.4 13.2627C175.8 13.2627 175.3 13.4627 175 13.7627C174.6 14.1627 174.4 14.5627 174.3 15.2627H178.5Z" fill="black"/>
<path d="M197.7 22.9627H193.1V15.7627C193.1 15.1627 193 14.6627 192.7 14.3627C192.4 14.0627 192.1 13.9627 191.7 13.9627C191.3 13.9627 190.9 14.1627 190.5 14.4627C190.1 14.7627 189.7 15.2627 189.5 15.7627V22.9627H184.9V10.1627H189V12.0627C189.5 11.3627 190.1 10.8627 190.9 10.4627C191.7 10.0627 192.7 9.96271 193.8 9.96271C194.7 9.96271 195.4 10.1627 195.9 10.4627C196.4 10.7627 196.8 11.1627 197.1 11.6627C197.4 12.1627 197.5 12.6627 197.6 13.1627C197.7 13.6627 197.7 14.1627 197.7 14.6627V22.9627Z" fill="black"/>
<path d="M200 22.9627V18.4627H203.7V22.9627H200Z" fill="black"/>
<path d="M219 22.9627H214.4V15.7627C214.4 15.1627 214.3 14.6627 214 14.3627C213.7 14.0627 213.4 13.9627 213 13.9627C212.6 13.9627 212.2 14.1627 211.8 14.4627C211.4 14.7627 211 15.2627 210.8 15.7627V22.9627H206.2V10.1627H210.3V12.0627C210.8 11.3627 211.4 10.8627 212.2 10.4627C213 10.0627 214 9.96271 215.1 9.96271C216 9.96271 216.7 10.1627 217.2 10.4627C217.7 10.7627 218.1 11.1627 218.4 11.6627C218.7 12.1627 218.8 12.6627 218.9 13.1627C219 13.6627 219 14.1627 219 14.6627V22.9627Z" fill="black"/>
<path d="M221.1 5.2627H225.7V17.8627C225.7 18.8627 226.1 19.3627 226.9 19.3627C227.1 19.3627 227.3 19.3627 227.5 19.2627C227.7 19.1627 227.9 19.0627 228.1 18.9627L228.7 22.3627C228.2 22.6627 227.5 22.8627 226.8 22.9627C226.1 23.0627 225.5 23.1627 224.8 23.1627C223.6 23.1627 222.6 22.8627 222 22.2627C221.3 21.6627 221 20.7627 221 19.5627V5.2627H221.1Z" fill="black"/>
<path d="M39.0001 4.9627V23.6627H4.8001V4.9627H39.0001ZM42.0001 0.262695H1.7001C0.800098 0.262695 0.100098 1.0627 0.100098 1.9627V26.7627C0.100098 27.6627 0.800098 28.3627 1.7001 28.3627H42.0001C42.9001 28.3627 43.6001 27.6627 43.6001 26.7627V1.9627C43.6001 1.0627 42.9001 0.262695 42.0001 0.262695Z" fill="black"/>
<path d="M23.7001 9.66272L18.1001 15.3627H20.0001L18.5001 19.7627L25.0001 13.6627H22.5001L23.7001 9.66272Z" fill="black"/>
</svg>
