<svg width="141" height="56" viewBox="0 0 141 56" fill="none" xmlns="http://www.w3.org/2000/svg">
<mask id="mask0_1_731" style="mask-type:alpha" maskUnits="userSpaceOnUse" x="65" y="9" width="76" height="42">
<path d="M126.92 49.9782H125.067L125.402 47.2487H127.221L127.148 47.8397H126.027L125.968 48.3183H126.913L126.84 48.9093H125.896L125.837 49.3879H126.993L126.921 49.9788L126.92 49.9782ZM120.592 47.9438H119.895L119.645 49.9788H118.948L119.197 47.9438H118.5L118.585 47.2487H120.678L120.592 47.9438ZM113.934 49.9782H113.163L112.628 48.8782L112.493 49.9782H111.8L112.134 47.2487H112.827L112.697 48.3148L113.498 47.2487H114.268L113.29 48.6003L113.934 49.9782ZM106.861 48.8624L106.712 48.0983L106.375 48.8624H106.861ZM107.749 49.9788H107.079L106.969 49.4265H106.125L105.884 49.9788H105.21L106.435 47.2756H107.19L107.749 49.9788ZM100.848 49.3223L100.767 49.9782H99.0017L99.0869 49.2831L99.336 47.2487H100.03L99.7755 49.3223H100.847H100.848ZM94.6824 47.2405L93.4569 49.9788H92.6091L92.0586 47.2405H92.8212L93.1631 48.9479L93.9269 47.2405H94.6824ZM87.2065 48.1135L87.2124 48.0632C87.2312 47.9128 87.0996 47.7929 86.9221 47.7929C86.7377 47.7929 86.572 47.9169 86.5538 48.0632C86.548 48.0957 86.5525 48.1293 86.5669 48.1591C86.5812 48.1889 86.6046 48.2135 86.6337 48.2294C86.7083 48.2838 86.797 48.3142 86.8822 48.3376C86.9239 48.3452 86.9615 48.3569 87.0061 48.3645C87.1783 48.4066 87.4203 48.4769 87.5296 48.5927L87.5602 48.6237C87.6965 48.77 87.7658 48.99 87.7405 49.1983C87.7117 49.4306 87.5819 49.6465 87.3722 49.8127C87.1642 49.9706 86.9069 50.0596 86.6407 50.0596C86.3787 50.0596 86.1431 49.9706 85.9733 49.8127C85.8908 49.7346 85.8277 49.6384 85.7893 49.5317C85.7508 49.425 85.738 49.3108 85.7518 49.1983L85.7577 49.1486H86.4327L86.4269 49.1983C86.4081 49.3452 86.5361 49.4686 86.713 49.4686C86.898 49.4686 87.0631 49.3457 87.0813 49.1983C87.0902 49.1292 87.0578 49.0789 86.9985 49.0286C86.9356 48.9748 86.8387 48.9473 86.7523 48.9245C86.7118 48.9128 86.6742 48.9052 86.629 48.8935C86.4498 48.8466 86.24 48.8004 86.1061 48.6653L86.0926 48.6506C85.9387 48.4921 85.8635 48.2873 85.8911 48.0632C85.9193 47.8315 86.0538 47.6156 86.263 47.4494C86.4709 47.2914 86.7288 47.2025 86.9915 47.2025C87.257 47.2025 87.4926 47.2908 87.6618 47.4494C87.8304 47.6156 87.908 47.8315 87.8792 48.0638L87.8733 48.1135H87.2065ZM80.6423 48.8624L80.4937 48.0983L80.1571 48.8624H80.6423ZM81.5312 49.9788H80.8609L80.751 49.4265H79.9068L79.6659 49.9788H78.9915L80.217 47.2756H80.9713L81.5306 49.9788H81.5312ZM74.0882 48.8624L73.9396 48.0983L73.6029 48.8624H74.0882ZM74.9765 49.9788H74.3067L74.1963 49.4265H73.3526L73.1118 49.9788H72.4373L73.6623 47.2756H74.4178L74.9759 49.9788H74.9765ZM68.7161 47.2487L68.3812 49.9788H67.688L67.6897 49.963L67.7103 49.7969L67.8766 48.4377L67.4618 49.0555L67.4418 49.0859H66.7486L66.7333 49.0555L66.698 48.9666L66.4736 48.4377L66.3073 49.7969L66.2868 49.963L66.285 49.9788H65.5882L65.9225 47.2487H66.6199L67.1792 48.4107L68.0228 47.2487H68.7161ZM129.656 28.2883L127.601 44.9253H123.374L124.141 38.7132H119.397L118.63 44.9247H114.402L116.458 28.2878H120.685L119.92 34.477H124.664L125.428 28.2878H129.656V28.2883ZM110.108 33.4537L110.145 33.1476C110.259 32.2302 109.457 31.5 108.376 31.5C107.248 31.5 106.24 32.2536 106.129 33.1476C106.078 33.5713 106.222 33.9241 106.616 34.1599C107.068 34.4887 107.609 34.6771 108.131 34.8181C108.383 34.8655 108.609 34.9357 108.886 34.9831C109.934 35.2423 111.408 35.6654 112.072 36.3716L112.26 36.56C113.09 37.454 113.511 38.7951 113.354 40.0659C113.179 41.4778 112.383 42.7961 111.107 43.8071C109.826 44.7818 108.259 45.3111 106.647 45.3138C105.049 45.3138 103.614 44.7725 102.582 43.8071C101.556 42.7961 101.061 41.4784 101.236 40.0659L101.274 39.7599H105.383L105.346 40.0659C105.235 40.9606 106.011 41.713 107.092 41.713C108.218 41.713 109.228 40.9606 109.338 40.0659C109.39 39.6429 109.194 39.3363 108.832 39.0303C108.45 38.7009 107.859 38.5365 107.337 38.3955C107.087 38.3253 106.858 38.2779 106.585 38.2071C105.492 37.9245 104.212 37.6424 103.398 36.8186L103.316 36.725C102.377 35.7596 101.922 34.5121 102.09 33.1476C102.265 31.7358 103.085 30.4181 104.361 29.4059C105.63 28.4416 107.2 27.8998 108.797 27.8998C110.419 27.8998 111.854 28.4416 112.886 29.4059C113.912 30.4181 114.383 31.7358 114.209 33.1476L114.171 33.4537H110.108ZM94.7506 38.0421L93.8458 33.3829L91.7913 38.0421H94.75H94.7506ZM100.157 44.8428H96.0707L95.4062 41.4784H90.2627L88.791 44.8428H84.6808L92.1644 28.3708H96.7669L100.158 44.8428H100.157ZM85.0445 28.2883L82.99 44.9253H78.7623L75.3625 37.842L70.1907 44.9253H65.9625L68.0176 28.2883H72.2446L72.1494 29.0648L72.1083 29.3942L71.0849 37.6775L73.617 33.9124L73.758 33.724H77.9851L78.0556 33.9124L79.6577 37.6775L80.6805 29.3942L80.8057 28.382L80.8174 28.2883H85.0445ZM138.66 26.2188H133.963L130.704 19.5123L129.876 26.2188H125.649L127.704 9.5819H131.931L131.129 16.0766L136.017 9.5819H140.715L134.742 17.8184L138.66 26.2188ZM121.864 21.0184L124.374 23.8895C122.659 25.419 120.453 26.3604 118.128 26.3604C113.501 26.3604 110.208 22.5953 110.781 17.9595C111.357 13.3003 115.579 9.5351 120.206 9.5351C122.531 9.5351 124.504 10.4759 125.842 12.006L122.623 14.8765C121.92 14.1007 120.901 13.6063 119.703 13.6063C117.331 13.6063 115.14 15.5588 114.844 17.9595C114.55 20.3362 116.258 22.2892 118.63 22.2892C119.829 22.2892 120.969 21.7948 121.864 21.0184ZM110.276 9.60589L109.006 19.8891C108.558 23.5127 105.259 26.454 101.618 26.454H101.243C97.6264 26.454 95.0537 23.5127 95.502 19.8891L96.7722 9.60589H100.694L99.5399 18.9477C99.3072 20.83 100.061 22.3366 101.752 22.3366H102.128C103.701 22.3366 104.967 20.83 105.2 18.9477L106.353 9.60589H110.276ZM88.8015 12.9937H84.9029L84.467 16.5242H88.3656C89.2469 16.43 90.02 15.6764 90.1369 14.7355C90.2497 13.8175 89.6616 13.0645 88.8015 12.9942V12.9937ZM92.9458 26.2188H88.6946L86.8405 19.9359H84.1397L83.3636 26.2188H79.3945L81.449 9.5819H89.3644C92.2055 9.5819 94.243 11.9118 93.8911 14.7595C93.6678 16.571 92.5304 18.1707 91.0053 19.1127L92.9458 26.2188ZM78.3182 13.8181H74.0682L72.536 26.2188H68.2849L69.8165 13.8181H65.5659L66.0888 9.5819H78.8417L78.3188 13.8181H78.3182Z" fill="white"/>
</mask>
<g mask="url(#mask0_1_731)">
<path d="M126.92 49.9782H125.067L125.402 47.2487H127.221L127.148 47.8397H126.027L125.968 48.3183H126.913L126.84 48.9093H125.896L125.837 49.3879H126.993L126.921 49.9788L126.92 49.9782ZM120.592 47.9438H119.895L119.645 49.9788H118.948L119.197 47.9438H118.5L118.585 47.2487H120.678L120.592 47.9438ZM113.934 49.9782H113.163L112.628 48.8782L112.493 49.9782H111.8L112.134 47.2487H112.827L112.697 48.3148L113.498 47.2487H114.268L113.29 48.6003L113.934 49.9782ZM106.861 48.8624L106.712 48.0983L106.375 48.8624H106.861ZM107.749 49.9788H107.079L106.969 49.4265H106.125L105.884 49.9788H105.21L106.435 47.2756H107.19L107.749 49.9788ZM100.848 49.3223L100.767 49.9782H99.0017L99.0869 49.2831L99.336 47.2487H100.03L99.7755 49.3223H100.847H100.848ZM94.6824 47.2405L93.4569 49.9788H92.6091L92.0586 47.2405H92.8212L93.1631 48.9479L93.9269 47.2405H94.6824ZM87.2065 48.1135L87.2124 48.0632C87.2312 47.9128 87.0996 47.7929 86.9221 47.7929C86.7377 47.7929 86.572 47.9169 86.5538 48.0632C86.548 48.0957 86.5525 48.1293 86.5669 48.1591C86.5812 48.1889 86.6046 48.2135 86.6337 48.2294C86.7083 48.2838 86.797 48.3142 86.8822 48.3376C86.9239 48.3452 86.9615 48.3569 87.0061 48.3645C87.1783 48.4066 87.4203 48.4769 87.5296 48.5927L87.5602 48.6237C87.6965 48.77 87.7658 48.99 87.7405 49.1983C87.7117 49.4306 87.5819 49.6465 87.3722 49.8127C87.1642 49.9706 86.9069 50.0596 86.6407 50.0596C86.3787 50.0596 86.1431 49.9706 85.9733 49.8127C85.8908 49.7346 85.8277 49.6384 85.7893 49.5317C85.7508 49.425 85.738 49.3108 85.7518 49.1983L85.7577 49.1486H86.4327L86.4269 49.1983C86.4081 49.3452 86.5361 49.4686 86.713 49.4686C86.898 49.4686 87.0631 49.3457 87.0813 49.1983C87.0902 49.1292 87.0578 49.0789 86.9985 49.0286C86.9356 48.9748 86.8387 48.9473 86.7523 48.9245C86.7118 48.9128 86.6742 48.9052 86.629 48.8935C86.4498 48.8466 86.24 48.8004 86.1061 48.6653L86.0926 48.6506C85.9387 48.4921 85.8635 48.2873 85.8911 48.0632C85.9193 47.8315 86.0538 47.6156 86.263 47.4494C86.4709 47.2914 86.7288 47.2025 86.9915 47.2025C87.257 47.2025 87.4926 47.2908 87.6618 47.4494C87.8304 47.6156 87.908 47.8315 87.8792 48.0638L87.8733 48.1135H87.2065ZM80.6423 48.8624L80.4937 48.0983L80.1571 48.8624H80.6423ZM81.5312 49.9788H80.8609L80.751 49.4265H79.9068L79.6659 49.9788H78.9915L80.217 47.2756H80.9713L81.5306 49.9788H81.5312ZM74.0882 48.8624L73.9396 48.0983L73.6029 48.8624H74.0882ZM74.9765 49.9788H74.3067L74.1963 49.4265H73.3526L73.1118 49.9788H72.4373L73.6623 47.2756H74.4178L74.9759 49.9788H74.9765ZM68.7161 47.2487L68.3812 49.9788H67.688L67.6897 49.963L67.7103 49.7969L67.8766 48.4377L67.4618 49.0555L67.4418 49.0859H66.7486L66.7333 49.0555L66.698 48.9666L66.4736 48.4377L66.3073 49.7969L66.2868 49.963L66.285 49.9788H65.5882L65.9225 47.2487H66.6199L67.1792 48.4107L68.0228 47.2487H68.7161ZM129.656 28.2883L127.601 44.9253H123.374L124.141 38.7132H119.397L118.63 44.9247H114.402L116.458 28.2878H120.685L119.92 34.477H124.664L125.428 28.2878H129.656V28.2883ZM110.108 33.4537L110.145 33.1476C110.259 32.2302 109.457 31.5 108.376 31.5C107.248 31.5 106.24 32.2536 106.129 33.1476C106.078 33.5713 106.222 33.9241 106.616 34.1599C107.068 34.4887 107.609 34.6771 108.131 34.8181C108.383 34.8655 108.609 34.9357 108.886 34.9831C109.934 35.2423 111.408 35.6654 112.072 36.3716L112.26 36.56C113.09 37.454 113.511 38.7951 113.354 40.0659C113.179 41.4778 112.383 42.7961 111.107 43.8071C109.826 44.7818 108.259 45.3111 106.647 45.3138C105.049 45.3138 103.614 44.7725 102.582 43.8071C101.556 42.7961 101.061 41.4784 101.236 40.0659L101.274 39.7599H105.383L105.346 40.0659C105.235 40.9606 106.011 41.713 107.092 41.713C108.218 41.713 109.228 40.9606 109.338 40.0659C109.39 39.6429 109.194 39.3363 108.832 39.0303C108.45 38.7009 107.859 38.5365 107.337 38.3955C107.087 38.3253 106.858 38.2779 106.585 38.2071C105.492 37.9245 104.212 37.6424 103.398 36.8186L103.316 36.725C102.377 35.7596 101.922 34.5121 102.09 33.1476C102.265 31.7358 103.085 30.4181 104.361 29.4059C105.63 28.4416 107.2 27.8998 108.797 27.8998C110.419 27.8998 111.854 28.4416 112.886 29.4059C113.912 30.4181 114.383 31.7358 114.209 33.1476L114.171 33.4537H110.108ZM94.7506 38.0421L93.8458 33.3829L91.7913 38.0421H94.75H94.7506ZM100.157 44.8428H96.0707L95.4062 41.4784H90.2627L88.791 44.8428H84.6808L92.1644 28.3708H96.7669L100.158 44.8428H100.157ZM85.0445 28.2883L82.99 44.9253H78.7623L75.3625 37.842L70.1907 44.9253H65.9625L68.0176 28.2883H72.2446L72.1494 29.0648L72.1083 29.3942L71.0849 37.6775L73.617 33.9124L73.758 33.724H77.9851L78.0556 33.9124L79.6577 37.6775L80.6805 29.3942L80.8057 28.382L80.8174 28.2883H85.0445ZM138.66 26.2188H133.963L130.704 19.5123L129.876 26.2188H125.649L127.704 9.5819H131.931L131.129 16.0766L136.017 9.5819H140.715L134.742 17.8184L138.66 26.2188ZM121.864 21.0184L124.374 23.8895C122.659 25.419 120.453 26.3604 118.128 26.3604C113.501 26.3604 110.208 22.5953 110.781 17.9595C111.357 13.3003 115.579 9.5351 120.206 9.5351C122.531 9.5351 124.504 10.4759 125.842 12.006L122.623 14.8765C121.92 14.1007 120.901 13.6063 119.703 13.6063C117.331 13.6063 115.14 15.5588 114.844 17.9595C114.55 20.3362 116.258 22.2892 118.63 22.2892C119.829 22.2892 120.969 21.7948 121.864 21.0184ZM110.276 9.60589L109.006 19.8891C108.558 23.5127 105.259 26.454 101.618 26.454H101.243C97.6264 26.454 95.0537 23.5127 95.502 19.8891L96.7722 9.60589H100.694L99.5399 18.9477C99.3072 20.83 100.061 22.3366 101.752 22.3366H102.128C103.701 22.3366 104.967 20.83 105.2 18.9477L106.353 9.60589H110.276ZM88.8015 12.9937H84.9029L84.467 16.5242H88.3656C89.2469 16.43 90.02 15.6764 90.1369 14.7355C90.2497 13.8175 89.6616 13.0645 88.8015 12.9942V12.9937ZM92.9458 26.2188H88.6946L86.8405 19.9359H84.1397L83.3636 26.2188H79.3945L81.449 9.5819H89.3644C92.2055 9.5819 94.243 11.9118 93.8911 14.7595C93.6678 16.571 92.5304 18.1707 91.0053 19.1127L92.9458 26.2188ZM78.3182 13.8181H74.0682L72.536 26.2188H68.2849L69.8165 13.8181H65.5659L66.0888 9.5819H78.8417L78.3188 13.8181H78.3182Z" fill="#303030"/>
</g>
<mask id="mask1_1_731" style="mask-type:alpha" maskUnits="userSpaceOnUse" x="0" y="0" width="62" height="56">
<path d="M6.79326 0.0206909L0 55.0207H54.8913L61.6846 0.0206909H6.79326Z" fill="white"/>
</mask>
<g mask="url(#mask1_1_731)">
<path d="M6.79326 0.0206909L0 55.0207H54.8913L61.6846 0.0206909H6.79326Z" fill="#303030"/>
<mask id="mask2_1_731" style="mask-type:alpha" maskUnits="userSpaceOnUse" x="10" y="9" width="40" height="37">
<path d="M40.9216 22.1494C43.1776 22.1494 45.2392 20.3104 45.5182 18.0507L45.5558 17.7506C45.8343 15.4909 44.2269 13.6519 41.9721 13.6519H34.6636L31.2772 41.07H38.5845C40.8394 41.07 42.9015 39.2316 43.1806 36.9719C43.4596 34.7122 41.8522 32.8738 39.5968 32.8738H34.4092L34.9415 28.5645H40.1291C44.7556 28.5645 48.0539 32.3361 47.4811 36.9725C46.9088 41.6083 42.6788 45.3793 38.0517 45.3793H26.4456L30.8959 9.34259H42.5038C47.1303 9.34259 50.4285 13.1142 49.8557 17.7506L49.8187 18.0507C49.2465 22.6865 45.0165 26.4587 40.3893 26.4587H35.2017L35.7346 22.1494H40.9222H40.9216ZM19.5337 9.72759L18.0238 21.9563H27.2611L26.7294 26.2656H17.4904L17.2595 28.1368H26.4973L25.9656 32.4461H16.7272L15.1374 45.3132H10.8369L15.2326 9.72759H19.5331H19.5337Z" fill="white"/>
</mask>
<g mask="url(#mask2_1_731)">
<path d="M40.9216 22.1494C43.1776 22.1494 45.2392 20.3104 45.5182 18.0507L45.5558 17.7506C45.8343 15.4909 44.2269 13.6519 41.9721 13.6519H34.6636L31.2772 41.07H38.5845C40.8394 41.07 42.9015 39.2316 43.1806 36.9719C43.4596 34.7122 41.8522 32.8738 39.5968 32.8738H34.4092L34.9415 28.5645H40.1291C44.7556 28.5645 48.0539 32.3361 47.4811 36.9725C46.9088 41.6083 42.6788 45.3793 38.0517 45.3793H26.4456L30.8959 9.34259H42.5038C47.1303 9.34259 50.4285 13.1142 49.8557 17.7506L49.8187 18.0507C49.2465 22.6865 45.0165 26.4587 40.3893 26.4587H35.2017L35.7346 22.1494H40.9222H40.9216ZM19.5337 9.72759L18.0238 21.9563H27.2611L26.7294 26.2656H17.4904L17.2595 28.1368H26.4973L25.9656 32.4461H16.7272L15.1374 45.3132H10.8369L15.2326 9.72759H19.5331H19.5337Z" fill="white"/>
</g>
</g>
</svg>
