<svg width="48" height="35" viewBox="0 0 48 35" fill="none" xmlns="http://www.w3.org/2000/svg">
<path d="M46.909 0.590881H14.7272C14.5826 0.590881 14.4438 0.648349 14.3415 0.750641C14.2392 0.852934 14.1818 0.991672 14.1818 1.13634C14.1818 1.281 14.2392 1.41974 14.3415 1.52203C14.4438 1.62432 14.5826 1.68179 14.7272 1.68179H46.3636V28.9545H1.63632V1.68179H12C12.1446 1.68179 12.2834 1.62432 12.3856 1.52203C12.4879 1.41974 12.5454 1.281 12.5454 1.13634C12.5454 0.991672 12.4879 0.852934 12.3856 0.750641C12.2834 0.648349 12.1446 0.590881 12 0.590881H1.09086C0.946201 0.590881 0.807463 0.648349 0.70517 0.750641C0.602877 0.852934 0.54541 0.991672 0.54541 1.13634V29.5C0.54541 29.6446 0.602877 29.7834 0.70517 29.8857C0.807463 29.988 0.946201 30.0454 1.09086 30.0454H5.99996L3.38177 33.5363C3.29498 33.6521 3.25771 33.7975 3.27816 33.9407C3.29862 34.084 3.37513 34.2132 3.49086 34.3C3.6066 34.3868 3.75207 34.424 3.89528 34.4036C4.03849 34.3831 4.1677 34.3066 4.2545 34.1909L7.1897 30.2773L9.47761 32.1076C9.53336 32.154 9.59779 32.1887 9.66713 32.2099C9.73646 32.231 9.80932 32.2381 9.88144 32.2308C9.95356 32.2234 10.0235 32.2018 10.0871 32.1671C10.1508 32.1324 10.2069 32.0854 10.2522 32.0288C10.2975 31.9722 10.331 31.9071 10.3509 31.8374C10.3707 31.7677 10.3764 31.6947 10.3678 31.6227C10.3591 31.5508 10.3361 31.4813 10.3003 31.4183C10.2644 31.3553 10.2163 31.3001 10.1589 31.2558L8.64568 30.0454H39.354L37.8409 31.2559C37.7849 31.3007 37.7384 31.356 37.7038 31.4188C37.6693 31.4815 37.6475 31.5505 37.6396 31.6217C37.6317 31.6929 37.6379 31.765 37.6578 31.8338C37.6778 31.9026 37.7111 31.9668 37.7559 32.0227C37.8006 32.0786 37.856 32.1252 37.9188 32.1597C37.9815 32.1943 38.0505 32.2161 38.1217 32.224C38.1929 32.2319 38.2649 32.2257 38.3337 32.2057C38.4026 32.1858 38.4668 32.1524 38.5227 32.1077L40.8104 30.2775L43.7454 34.1909C43.8322 34.3066 43.9614 34.3831 44.1046 34.4036C44.2478 34.424 44.3933 34.3868 44.509 34.3C44.6248 34.2132 44.7013 34.084 44.7217 33.9407C44.7422 33.7975 44.7049 33.6521 44.6181 33.5363L42 30.0454H46.909C47.0537 30.0454 47.1924 29.988 47.2947 29.8857C47.397 29.7834 47.4545 29.6446 47.4545 29.5V1.13634C47.4545 0.991672 47.397 0.852934 47.2947 0.750641C47.1924 0.648349 47.0537 0.590881 46.909 0.590881Z" fill="#777777"/>
<path d="M44.7271 21.8636C44.8717 21.8636 45.0105 21.8062 45.1127 21.7039C45.215 21.6016 45.2725 21.4628 45.2725 21.3182V3.31816C45.2725 3.1735 45.215 3.03476 45.1127 2.93246C45.0105 2.83017 44.8717 2.77271 44.7271 2.77271H3.27251C3.12784 2.77271 2.9891 2.83017 2.88681 2.93246C2.78452 3.03476 2.72705 3.1735 2.72705 3.31816V27.3182C2.72705 27.4628 2.78452 27.6016 2.88681 27.7039C2.9891 27.8062 3.12784 27.8636 3.27251 27.8636H44.7271C44.8717 27.8636 45.0105 27.8062 45.1127 27.7039C45.215 27.6016 45.2725 27.4628 45.2725 27.3182V24.0454C45.2725 23.9008 45.215 23.762 45.1127 23.6597C45.0105 23.5574 44.8717 23.5 44.7271 23.5C44.5824 23.5 44.4436 23.5574 44.3414 23.6597C44.2391 23.762 44.1816 23.9008 44.1816 24.0454V26.7727H3.81796V3.86361H44.1816V21.3182C44.1816 21.4628 44.2391 21.6016 44.3414 21.7039C44.4436 21.8062 44.5824 21.8636 44.7271 21.8636Z" fill="#777777"/>
<path d="M22.6659 11.5916C22.5837 11.5368 22.4883 11.5054 22.3897 11.5006C22.2911 11.4959 22.193 11.518 22.106 11.5645C22.0189 11.6111 21.9461 11.6805 21.8954 11.7651C21.8447 11.8498 21.8179 11.9467 21.8179 12.0454V18.5909C21.8179 18.6896 21.8447 18.7865 21.8954 18.8712C21.9461 18.9559 22.0189 19.0252 22.106 19.0718C22.193 19.1184 22.2911 19.1404 22.3897 19.1357C22.4883 19.1309 22.5837 19.0995 22.6659 19.0447L27.575 15.772C27.6497 15.7222 27.7109 15.6547 27.7533 15.5755C27.7957 15.4963 27.8178 15.4079 27.8178 15.3182C27.8178 15.2284 27.7957 15.14 27.7533 15.0608C27.7109 14.9816 27.6497 14.9141 27.575 14.8643L22.6659 11.5916ZM22.9088 17.5716V13.0647L26.2891 15.3182L22.9088 17.5716Z" fill="#777777"/>
<path d="M28.767 19.8366C28.8229 19.8815 28.8871 19.9149 28.9559 19.935C29.0247 19.9551 29.0968 19.9614 29.168 19.9535C29.2393 19.9457 29.3083 19.9238 29.3711 19.8893C29.4339 19.8547 29.4893 19.8081 29.534 19.7521C30.6362 18.3748 31.1845 16.6357 31.0717 14.8754C30.9589 13.115 30.193 11.4602 28.9241 10.2348C27.6551 9.00951 25.9745 8.30199 24.2112 8.25079C22.448 8.19959 20.7292 8.80841 19.3913 9.95804C18.0534 11.1077 17.1928 12.7153 16.978 14.4662C16.7632 16.217 17.2097 17.985 18.2301 19.4239C19.2505 20.8628 20.7712 21.869 22.4945 22.2455C24.2179 22.622 26.0197 22.3417 27.5472 21.4594C27.6724 21.3869 27.7637 21.2677 27.801 21.1279C27.8384 20.9881 27.8186 20.8392 27.7461 20.7139C27.6737 20.5887 27.5544 20.4974 27.4146 20.46C27.2748 20.4227 27.1259 20.4425 27.0007 20.5149C25.8568 21.1756 24.5268 21.4404 23.2171 21.2682C21.9074 21.096 20.6911 20.4964 19.7569 19.5625C18.8227 18.6285 18.2228 17.4124 18.0501 16.1028C17.8775 14.7931 18.1419 13.4631 18.8023 12.319C19.4626 11.1749 20.482 10.2807 21.7024 9.77503C22.9228 9.26937 24.2759 9.18053 25.5519 9.52228C26.8279 9.86404 27.9555 10.6173 28.7597 11.6652C29.564 12.7132 30 13.9972 30.0001 15.3182C30.0055 16.683 29.5402 18.0079 28.6828 19.0698C28.638 19.1256 28.6046 19.1898 28.5846 19.2586C28.5646 19.3273 28.5583 19.3994 28.5661 19.4706C28.5739 19.5418 28.5957 19.6108 28.6302 19.6736C28.6646 19.7363 28.7111 19.7917 28.767 19.8366Z" fill="#777777"/>
</svg>
